<?xml version="1.0" encoding="utf-8"?>
<!-- Generator: Adobe Illustrator 21.0.0, SVG Export Plug-In . SVG Version: 6.00 Build 0)  -->
<svg version="1.1" id="Layer_1" xmlns="http://www.w3.org/2000/svg" xmlns:xlink="http://www.w3.org/1999/xlink" x="0px" y="0px"
	 viewBox="0 0 68 68" style="enable-background:new 0 0 68 68;" xml:space="preserve">
<style type="text/css">
	.st0{fill:none;}
	.st1{fill:#FFFFFF;}
	.st2{fill:#569B61;}
</style>
<title>lodging.svg</title>
<rect x="3.8" y="3.8" class="st0" width="60.4" height="60.4"/>
<g>
	<path class="st1" d="M16.2,66.1c-7.8,0-14.3-6.4-14.3-14.3V16.2c0-7.8,6.4-14.3,14.3-14.3h35.7c7.8,0,14.3,6.4,14.3,14.3v35.7
		c0,7.8-6.4,14.3-14.3,14.3H16.2V66.1z"/>
	<path class="st2" d="M51.9,3.8c6.8,0,12.4,5.6,12.4,12.4v35.7c0,6.8-5.6,12.4-12.4,12.4H16.2c-6.8,0-12.4-5.6-12.4-12.4V16.2
		c0-6.8,5.6-12.4,12.4-12.4L51.9,3.8 M51.9,0H16.2C7.3,0,0,7.3,0,16.2v35.7C0,60.7,7.3,68,16.2,68h35.7C60.7,68,68,60.7,68,51.9
		V16.2C68,7.3,60.7,0,51.9,0L51.9,0z"/>
</g>
<path class="st2" d="M41.4,44.2l-7.6-4.9l-7.6,4.9l2.3-8.8l-7-5.7l9-0.6l3.3-8.4l3.3,8.4l9,0.6l-7,5.7 M50.8,34
	c0-2.3,1.9-4.2,4.2-4.2v-8.5c0-2.3-1.9-4.2-4.2-4.2h-34c-2.3,0-4.2,1.9-4.2,4.2v8.5c2.3,0,4.2,1.9,4.2,4.2c0,2.3-1.9,4.2-4.2,4.2
	v8.5c0,2.3,1.9,4.2,4.2,4.2h34c2.3,0,4.2-1.9,4.2-4.2v-8.5C52.7,38.3,50.8,36.4,50.8,34"/>
</svg>
