<?xml version="1.0" encoding="utf-8"?>
<!-- Generator: Adobe Illustrator 21.0.0, SVG Export Plug-In . SVG Version: 6.00 Build 0)  -->
<svg version="1.1" id="Layer_1" xmlns="http://www.w3.org/2000/svg" xmlns:xlink="http://www.w3.org/1999/xlink" x="0px" y="0px"
	 viewBox="0 0 68 68" style="enable-background:new 0 0 68 68;" xml:space="preserve">
<style type="text/css">
	.st0{fill:none;}
	.st1{fill:#FFFFFF;}
	.st2{fill:#A020F0;}
</style>
<title>lodging.svg</title>
<rect x="3.8" y="3.8" class="st0" width="60.4" height="60.4"/>
<g>
	<path class="st1" d="M16.2,66.1c-7.8,0-14.3-6.4-14.3-14.3V16.2c0-7.8,6.4-14.3,14.3-14.3h35.7c7.8,0,14.3,6.4,14.3,14.3v35.7
		c0,7.8-6.4,14.3-14.3,14.3H16.2V66.1z"/>
	<path class="st2" d="M51.9,3.8c6.8,0,12.4,5.6,12.4,12.4v35.7c0,6.8-5.6,12.4-12.4,12.4H16.2c-6.8,0-12.4-5.6-12.4-12.4V16.2
		c0-6.8,5.6-12.4,12.4-12.4L51.9,3.8 M51.9,0H16.2C7.3,0,0,7.3,0,16.2v35.7C0,60.7,7.3,68,16.2,68h35.7C60.7,68,68,60.7,68,51.9
		V16.2C68,7.3,60.7,0,51.9,0L51.9,0z"/>
</g>
<path class="st2" d="M49.8,53.4H17.6V28.1h32.2 M42.9,12v4.6H24.5V12h-4.6v4.6h-2.3c-2.5,0-4.6,2.1-4.6,4.6v32.2
	c0,2.5,2.1,4.6,4.6,4.6h32.2c2.6,0,4.6-2,4.6-4.6V21.2c0-2.5-2.1-4.6-4.6-4.6h-2.3V12 M31.1,37.3h-8.3l6.7,4.9L27,50.1l6.7-4.9
	l6.7,4.9l-2.6-7.9l6.7-4.9h-8.3l-2.6-7.9L31.1,37.3z"/>
</svg>
