<?xml version="1.0" encoding="utf-8"?>
<!-- Generator: Adobe Illustrator 21.0.0, SVG Export Plug-In . SVG Version: 6.00 Build 0)  -->
<svg version="1.1" id="Layer_1" xmlns="http://www.w3.org/2000/svg" xmlns:xlink="http://www.w3.org/1999/xlink" x="0px" y="0px"
	 viewBox="0 0 68 68" style="enable-background:new 0 0 68 68;" xml:space="preserve">
<style type="text/css">
	.st0{fill:none;}
	.st1{fill:#FFFFFF;}
	.st2{fill:#F95D5D;}
</style>
<title>lodging.svg</title>
<rect x="3.8" y="3.8" class="st0" width="60.4" height="60.4"/>
<g>
	<path class="st1" d="M16.2,66.1c-7.8,0-14.3-6.4-14.3-14.3V16.2c0-7.8,6.4-14.3,14.3-14.3h35.7c7.8,0,14.3,6.4,14.3,14.3v35.7
		c0,7.8-6.4,14.3-14.3,14.3H16.2V66.1z"/>
	<path class="st2" d="M51.9,3.8c6.8,0,12.4,5.6,12.4,12.4v35.7c0,6.8-5.6,12.4-12.4,12.4H16.2c-6.8,0-12.4-5.6-12.4-12.4V16.2
		c0-6.8,5.6-12.4,12.4-12.4L51.9,3.8 M51.9,0H16.2C7.3,0,0,7.3,0,16.2v35.7C0,60.7,7.3,68,16.2,68h35.7C60.7,68,68,60.7,68,51.9
		V16.2C68,7.3,60.7,0,51.9,0L51.9,0z"/>
</g>
<path class="st2" d="M14.3,20.7c-0.9,0-1.4,0.6-1.4,1.4v21.6v5.8c0,0.9,0.6,1.4,1.4,1.4c0.9,0,1.4-0.6,1.4-1.4v-4.3h37.5v4.3
	c0,0.9,0.6,1.4,1.4,1.4s1.4-0.6,1.4-1.4v-5.8c0-0.9-0.6-1.4-1.4-1.4H15.8V22.2C15.8,21.3,15.2,20.7,14.3,20.7z M23,22.2
	c-2.3,0-4.3,2.1-4.3,4.3l0,0c0,2.3,2.1,4.3,4.3,4.3l0,0c2.3,0,4.3-2.1,4.3-4.3l0,0C27.3,24.2,25.3,22.2,23,22.2L23,22.2z M33.1,25
	c-4.3,0-4.3,4.3-4.3,4.3v4.3H20c-0.9,0-1.4,0.6-1.4,1.4v3c0,0.9,0.6,1.4,1.4,1.4h10.1h26v-7.2c0-7.3-7.3-7.3-7.3-7.3L33.1,25z"/>
</svg>
