<?xml version="1.0" encoding="utf-8"?>
<!-- Generator: Adobe Illustrator 21.0.0, SVG Export Plug-In . SVG Version: 6.00 Build 0)  -->
<svg version="1.1" xmlns="http://www.w3.org/2000/svg" xmlns:xlink="http://www.w3.org/1999/xlink" x="0px" y="0px"
	 viewBox="0 0 427.8 128" style="enable-background:new 0 0 427.8 128;" xml:space="preserve">
<style type="text/css">
	.st0{fill:#242B3D;}
	.st1{fill:#FFFFFF;}
	.st2{fill:#4795A3;}
	.st3{display:none;}
	.st4{display:inline;fill:#FFFFFF;stroke:#242B3D;stroke-width:4;stroke-linejoin:round;stroke-miterlimit:10;}
	.st5{display:inline;fill:#242B3D;}
	.st6{display:inline;fill:#4795A3;}
	.st7{fill:#4795A3;stroke:#242B3D;stroke-width:4;stroke-linejoin:round;stroke-miterlimit:10;}
</style>
<g id="Layer_1">
	<g>
		<path class="st0" d="M415.5,112.5c-3,0-5.5-0.9-7.4-2.7c-1.8-1.7-2.8-4.3-3.1-7.7c0-0.4,0.1-0.8,0.4-1.1c0.3-0.3,0.7-0.5,1.1-0.5
			h2.8c-0.6-0.6-1.3-1-2.3-1.6c-0.5-0.3-0.8-0.8-0.8-1.4l1.1-13.7c0.1-0.8,0.7-1.4,1.5-1.4H423c0.8,0,1.5,0.7,1.5,1.5V91
			c0,0.8-0.7,1.5-1.5,1.5h-2.4c0.4,0.2,0.8,0.4,1.2,0.7c1.5,1,2.6,2.3,3.3,3.8c0.7,1.4,1.1,3.1,1.1,5c0,2-0.4,3.9-1.3,5.4
			c-0.8,1.5-2,2.8-3.8,3.8C419.4,112.1,417.6,112.5,415.5,112.5z M411,101c0.2,0.2,0.3,0.5,0.4,0.8c0.2,1.5,0.6,2.7,1.4,3.4
			c0.8,0.8,1.6,1.2,2.7,1.2c1.2,0,2-0.3,2.7-1.1c0.7-0.8,1.1-1.9,1.1-3.2c0-1.4-0.3-2.4-1-3.2c-0.6-0.7-1.4-1-2.5-1
			c-1.6,0-2.9,0.9-4.1,2.5C411.6,100.7,411.3,100.9,411,101z M412.8,92.4c1.2-0.5,2.5-0.7,3.8-0.7c0.7,0,1.4,0.1,2,0.2
			c-0.2-0.2-0.3-0.5-0.3-0.9v-2.2h-5.2L412.8,92.4z"/>
		<path class="st1" d="M423,83.9V91h-3.2v-3.7h-8.1l-0.6,7.9c1.6-1.3,3.4-2,5.5-2c1.7,0,3.1,0.4,4.3,1.2c1.2,0.8,2.2,1.9,2.8,3.2
			c0.7,1.3,1,2.8,1,4.4c0,1.8-0.4,3.4-1.1,4.7c-0.7,1.4-1.8,2.4-3.2,3.2c-1.4,0.7-3,1.1-4.9,1.1c-2.7,0-4.8-0.8-6.4-2.3
			s-2.4-3.8-2.6-6.7h3.4c0.2,1.8,0.8,3.3,1.8,4.3s2.2,1.6,3.8,1.6c1.6,0,2.8-0.5,3.8-1.6s1.5-2.5,1.5-4.2c0-1.8-0.5-3.2-1.4-4.2
			s-2.1-1.5-3.6-1.5c-2.1,0-3.9,1.1-5.3,3.2c-0.8-0.8-1.7-1.4-2.8-2l1.1-13.7H423 M423,80.9h-14.2c-1.6,0-2.9,1.2-3,2.8l-1.1,13.7
			c-0.1,0.7,0.1,1.4,0.5,1.9c-0.3,0.2-0.7,0.4-0.9,0.7c-0.6,0.6-0.9,1.4-0.8,2.3c0.3,3.8,1.5,6.7,3.5,8.7c2.2,2.1,5,3.1,8.5,3.1
			c2.3,0,4.4-0.5,6.2-1.4c0,0,0.1-0.1,0.1-0.1c2-1.2,3.5-2.6,4.4-4.4c0.9-1.8,1.4-3.9,1.4-6.1c0-2.2-0.4-4.1-1.3-5.7
			c-0.5-1-1.1-1.9-1.8-2.7c0.9-0.5,1.5-1.5,1.5-2.6v-7.1C426,82.2,424.7,80.9,423,80.9L423,80.9z M414.5,90.3h0.6
			C414.9,90.3,414.7,90.4,414.5,90.3L414.5,90.3L414.5,90.3z M412.9,101.5c0.1-0.1,0.1-0.1,0.1-0.2c1.1-1.7,2.1-1.9,2.8-1.9
			c0.8,0,1.1,0.2,1.4,0.5c0.4,0.5,0.6,1.2,0.6,2.2c0,1.2-0.4,1.8-0.7,2.2c-0.4,0.4-0.7,0.6-1.6,0.6c-0.7,0-1.2-0.2-1.7-0.7
			c-0.5-0.5-0.8-1.4-0.9-2.5C412.9,101.6,412.9,101.5,412.9,101.5L412.9,101.5z"/>
	</g>
	<g>
		<path class="st0" d="M385.5,112c-0.8,0-1.5-0.7-1.5-1.5c0-2.3,0.4-4.5,1.2-6.2c0.7-1.6,1.6-3,2.8-4.4c1.4-1.4,2.6-2.4,3.8-3.3
			l2.6-2c1.2-0.9,1.9-1.5,2.1-2c0,0,0.1-0.1,0.1-0.1c0.3-0.4,0.4-1,0.4-1.6c0-0.9-0.2-1.6-0.7-2c-0.4-0.4-0.9-0.7-2.2-0.7
			c-1.2,0-2,0.3-2.3,0.8c-0.3,0.5-0.8,1.7-0.8,4v0.9c0,0.8-0.7,1.5-1.5,1.5h-3.5c-0.8,0-1.5-0.7-1.5-1.5v-1c0-3.2,0.8-5.8,2.2-7.6
			c0.8-0.9,1.8-1.9,3.4-2.5c1.3-0.5,2.8-0.8,4.2-0.8c2.1,0,3.9,0.4,5.3,1.2c1.4,0.8,2.5,1.9,3.3,3.3c0.7,1.2,1.1,2.6,1.1,4.2
			c0,1.7-0.4,3.3-1.3,4.7c-1,1.4-2.5,2.8-4.4,4.2l-1.7,1.3c-0.5,0.4-0.9,0.7-1.3,1c-0.7,0.6-1.4,1.1-1.9,1.5
			c-0.7,0.6-1.2,1.2-1.6,1.9c-0.1,0.1-0.2,0.3-0.2,0.4h6.4l0.2-4.7c0-0.8,0.7-1.5,1.5-1.5h3.2c0.4,0,0.8,0.2,1.1,0.5
			c0.3,0.3,0.4,0.7,0.4,1.1l-0.2,9.5c0,0.8-0.7,1.5-1.5,1.5H385.5z"/>
		<path class="st1" d="M394.4,83.5c1.8,0,3.3,0.3,4.5,1c1.2,0.7,2.1,1.6,2.7,2.7c0.6,1,0.9,2.2,0.9,3.5c0,1.5-0.4,2.8-1.1,3.9
			c-0.8,1.1-2.1,2.4-4,3.8l-1.7,1.3c-1.4,1.1-2.5,1.9-3.3,2.6c-0.8,0.7-1.4,1.4-1.9,2.2c-0.5,0.8-0.9,1.7-1.1,2.7h10l0.2-6.2h3.2
			l-0.2,9.5h-17.1c0-2.2,0.4-4.1,1.1-5.6c0.7-1.6,1.6-2.9,2.6-4c1-1,2.2-2.1,3.6-3.1l2.6-2c1.2-0.9,2.1-1.7,2.5-2.4
			c0.5-0.7,0.7-1.6,0.7-2.5c0-1.3-0.4-2.4-1.2-3.1c-0.8-0.8-1.8-1.1-3.2-1.1c-1.7,0-3,0.5-3.6,1.5c-0.6,1-1,2.6-1,4.8v0.9h-3.5v-1
			c0-2.8,0.6-5.1,1.9-6.7c0.8-0.9,1.6-1.6,2.7-2C391.7,83.8,393,83.5,394.4,83.5 M402.8,101L402.8,101 M394.4,80.5
			c-2.1,0-3.7,0.5-4.8,0.9c-1.8,0.7-3,1.9-3.9,2.8c0,0-0.1,0.1-0.1,0.1c-1.7,2.1-2.6,5-2.6,8.6v1c0,1.7,1.3,3,3,3h3
			c-0.7,0.6-1.3,1.2-2,1.9c0,0-0.1,0.1-0.1,0.1c-1.3,1.4-2.3,3-3.1,4.8c-0.9,2-1.4,4.3-1.4,6.8c0,1.7,1.3,3,3,3h17.1
			c1.6,0,3-1.3,3-2.9l0.2-9.4c0-0.1,0-0.1,0-0.2c0-1.7-1.3-3-3-3h0h-0.4c0.5-0.5,1-1.1,1.4-1.6c0-0.1,0.1-0.1,0.1-0.2
			c1-1.6,1.6-3.5,1.6-5.5c0-1.8-0.4-3.6-1.3-5c-0.9-1.6-2.1-2.8-3.8-3.8C398.8,81,396.8,80.5,394.4,80.5L394.4,80.5z M393.1,89.9
			c0.1-0.1,0.5-0.2,1.1-0.2c0.9,0,1,0.1,1.1,0.2c0,0,0.1,0.1,0.1,0.1c0,0,0.2,0.3,0.2,0.8c0,0.5-0.1,0.7-0.1,0.8
			c-0.1,0.1-0.1,0.2-0.2,0.3c0,0.1-0.3,0.5-1.7,1.5l-1,0.8c0-0.1,0-0.2,0-0.3V93C392.6,91.4,392.9,90.4,393.1,89.9L393.1,89.9z
			 M394.8,104.2c0.4-0.3,0.9-0.7,1.4-1.1c0.1-0.1,0.2-0.2,0.4-0.3l0,1.4H394.8L394.8,104.2z"/>
	</g>
	<g>
		<path class="st0" d="M373.3,112.5c-3.6,0-6.3-1.5-8.2-4.4c-1.8-2.8-2.6-6.3-2.6-10.8c0-2.9,0.4-5.6,1.2-8c1-2.6,2.2-4.3,3.8-5.4
			c1.6-1.3,3.5-1.9,5.8-1.9c3.4,0,6.2,1.5,8.1,4.4c1.8,2.5,2.7,6.2,2.7,10.9c0,3-0.4,5.6-1.2,7.9c-0.8,2.3-2,4-3.7,5.4
			C377.5,111.9,375.6,112.5,373.3,112.5z M373.3,88.1c-1.2,0-2.1,0.6-2.6,1.8c-0.8,1.7-1.2,4.2-1.2,7.4c0,3.5,0.4,6,1.1,7.4
			c0.6,1.1,1.5,1.7,2.7,1.7s2.1-0.5,2.7-1.7c0.8-1.5,1.2-4.1,1.2-7.6c0-4.3-0.7-6.4-1.2-7.4C375.4,88.6,374.5,88.1,373.3,88.1z"/>
		<path class="st1" d="M373.2,83.5c2.9,0,5.2,1.2,6.8,3.7c1.7,2.4,2.5,5.8,2.5,10.1c0,2.9-0.4,5.4-1.1,7.4c-0.7,2.1-1.8,3.6-3.2,4.7
			c-1.4,1.1-3,1.6-4.9,1.6c-3,0-5.3-1.2-6.9-3.7s-2.4-5.8-2.4-10c0-2.9,0.4-5.4,1.1-7.5c0.8-2.1,1.8-3.7,3.2-4.7
			C369.7,84,371.3,83.5,373.2,83.5 M373.3,107.9c1.7,0,3.1-0.8,4-2.5c0.9-1.7,1.4-4.4,1.4-8.3c0-3.8-0.5-6.5-1.4-8.1
			c-0.9-1.6-2.3-2.4-4-2.4c-1.8,0-3.2,0.9-4,2.7c-0.8,1.8-1.3,4.4-1.3,8c0,3.7,0.4,6.4,1.3,8.1C370.1,107,371.5,107.9,373.3,107.9
			 M373.2,80.5c-2.6,0-4.8,0.7-6.7,2.2c-1.8,1.3-3.1,3.3-4.2,6c0,0,0,0.1,0,0.1c-0.8,2.5-1.3,5.3-1.3,8.4c0,4.8,0.9,8.6,2.9,11.6
			c2.1,3.3,5.4,5.1,9.4,5.1c2.6,0,4.8-0.7,6.8-2.2c1.9-1.5,3.3-3.6,4.2-6.1c0.8-2.4,1.3-5.2,1.3-8.3c0-5-1-8.9-3-11.8
			C380.4,82.2,377.1,80.5,373.2,80.5L373.2,80.5z M373.3,104.9c-0.6,0-1-0.2-1.3-0.8c0,0,0,0,0-0.1c-0.4-0.8-1-2.6-1-6.7
			c0-3.7,0.6-5.7,1-6.8c0.4-0.8,0.8-0.9,1.3-0.9c0.5,0,1,0.1,1.4,0.9c0.3,0.5,1,2.3,1,6.6c0,4.1-0.6,6-1.1,6.9
			C374.2,104.8,373.9,104.9,373.3,104.9L373.3,104.9z"/>
	</g>
	<g>
		<path class="st0" d="M342.9,112c-0.8,0-1.5-0.7-1.5-1.5c0-2.3,0.4-4.5,1.2-6.2c0.7-1.6,1.6-3,2.8-4.4c1.4-1.4,2.6-2.4,3.8-3.3
			l2.6-2c1.2-0.9,1.9-1.5,2.1-2c0,0,0.1-0.1,0.1-0.1c0.3-0.4,0.4-1,0.4-1.6c0-0.9-0.2-1.6-0.7-2c-0.4-0.4-0.9-0.7-2.2-0.7
			c-1.2,0-2,0.3-2.3,0.8c0,0,0,0.1-0.1,0.1c-0.5,0.7-0.7,2-0.7,3.9v0.9c0,0.8-0.7,1.5-1.5,1.5h-3.5c-0.8,0-1.5-0.7-1.5-1.5v-1
			c0-3.2,0.8-5.8,2.2-7.6c1-1.2,2.1-2,3.3-2.4c1.3-0.5,2.8-0.8,4.3-0.8c2.1,0,3.9,0.4,5.3,1.2c1.4,0.8,2.5,1.9,3.2,3.2
			c0.8,1.2,1.2,2.6,1.2,4.3c0,1.8-0.5,3.4-1.5,4.8c-1,1.3-2.4,2.7-4.3,4.1l-1.7,1.3c-0.5,0.4-0.9,0.7-1.3,1
			c-0.7,0.6-1.4,1.1-1.9,1.5c-0.7,0.6-1.2,1.2-1.6,1.9c-0.1,0.1-0.2,0.3-0.2,0.4h6.4l0.2-4.7c0-0.8,0.7-1.5,1.5-1.5h3.2
			c0.4,0,0.8,0.2,1.1,0.5s0.4,0.7,0.4,1.1l-0.2,9.5c0,0.8-0.7,1.5-1.5,1.5H342.9z"/>
		<path class="st1" d="M351.8,83.5c1.8,0,3.3,0.3,4.5,1c1.2,0.7,2.1,1.6,2.7,2.7c0.7,1,1,2.2,1,3.5c0,1.5-0.4,2.8-1.2,3.9
			c-0.8,1.1-2.1,2.4-4,3.8l-1.7,1.3c-1.4,1.1-2.5,1.9-3.3,2.6c-0.8,0.7-1.4,1.4-1.9,2.2c-0.5,0.8-0.9,1.7-1.1,2.7h10l0.2-6.2h3.2
			l-0.2,9.5h-17.1c0-2.2,0.4-4.1,1.1-5.6c0.7-1.6,1.6-2.9,2.6-4c1-1,2.2-2.1,3.6-3.1l2.6-2c1.2-0.9,2.1-1.7,2.5-2.4
			c0.5-0.7,0.7-1.6,0.7-2.5c0-1.3-0.4-2.4-1.2-3.1c-0.8-0.8-1.8-1.1-3.2-1.1c-1.7,0-3,0.5-3.6,1.5c-0.7,1-1,2.6-1,4.8v0.9h-3.5v-1
			c0-2.8,0.6-5.1,1.9-6.7c0.8-0.9,1.7-1.6,2.7-2C349.1,83.8,350.4,83.5,351.8,83.5 M360.2,101L360.2,101 M351.8,80.5
			c-2.1,0-3.8,0.5-4.8,0.9c-1.4,0.6-2.7,1.5-3.8,2.8c0,0-0.1,0.1-0.1,0.1c-1.7,2.1-2.6,5-2.6,8.6v1c0,1.7,1.3,3,3,3h3
			c-0.7,0.6-1.3,1.2-2,1.9c0,0-0.1,0.1-0.1,0.1c-1.3,1.4-2.3,3-3.1,4.8c-0.9,2-1.4,4.3-1.4,6.8c0,1.7,1.3,3,3,3H360
			c1.6,0,3-1.3,3-2.9l0.2-9.4c0-0.1,0-0.1,0-0.2c0-1.7-1.3-3-3-3h0h-0.4c0.5-0.5,1-1.1,1.4-1.6c1.2-1.6,1.8-3.5,1.8-5.7
			c0-1.9-0.5-3.6-1.4-5.1c-0.9-1.5-2.1-2.8-3.7-3.7C356.2,81,354.2,80.5,351.8,80.5L351.8,80.5z M350.5,89.9
			c0.1-0.1,0.5-0.2,1.1-0.2c0.9,0,1,0.1,1.1,0.2c0,0,0.1,0.1,0.1,0.1c0,0,0.2,0.3,0.2,0.8c0,0.5-0.1,0.7-0.1,0.8
			c-0.1,0.1-0.1,0.2-0.2,0.3c0,0.1-0.3,0.5-1.7,1.5l-1,0.8c0-0.1,0-0.2,0-0.3V93C350,90.7,350.4,90,350.5,89.9
			C350.5,89.9,350.5,89.9,350.5,89.9L350.5,89.9z M352.2,104.2c0.4-0.3,0.9-0.7,1.4-1.1c0.1-0.1,0.2-0.2,0.4-0.3l0,1.4H352.2
			L352.2,104.2z"/>
	</g>
	<g>
		<path class="st0" d="M303.3,112c-0.8,0-1.5-0.7-1.5-1.5v-3.3c0-0.8,0.7-1.5,1.5-1.5h2.1v-17h-2.1c-0.8,0-1.5-0.7-1.5-1.5v-3.3
			c0-0.8,0.7-1.5,1.5-1.5h10.1c5.9,0,10.2,1.1,13.1,3.4c3.1,2.4,4.7,6,4.7,11c0,5-1.6,8.8-4.6,11.4c-3,2.5-7.3,3.8-13.3,3.8H303.3z
			 M313.5,105.7c3.7,0,6.4-0.7,8-2.1c1.6-1.4,2.4-3.6,2.4-6.6c0-2-0.3-3.6-1-4.8c-0.6-1.1-1.7-2-3.1-2.6c-1.6-0.6-3.7-1-6.2-1h-1.1
			v17H313.5z"/>
		<path class="st1" d="M313.4,83.9c5.5,0,9.5,1,12.2,3.1c2.8,2.1,4.1,5.3,4.1,9.8c0,4.6-1.4,8-4.1,10.3c-2.7,2.3-6.8,3.4-12.3,3.4
			h-10v-3.3h3.6v-20h-3.6v-3.3H313.4 M311,107.2h2.5c4.1,0,7.1-0.8,9-2.5c1.9-1.6,2.9-4.2,2.9-7.7c0-2.3-0.4-4.1-1.2-5.5
			c-0.8-1.4-2.1-2.5-3.8-3.2c-1.7-0.7-4-1.1-6.8-1.1H311V107.2 M313.4,80.9h-10.1c-1.7,0-3,1.3-3,3v3.3c0,1.7,1.3,3,3,3h0.6v14h-0.6
			c-1.7,0-3,1.3-3,3v3.3c0,1.7,1.3,3,3,3h10c6.3,0,11-1.3,14.2-4.1c3.4-2.9,5.2-7.1,5.2-12.6c0-5.5-1.7-9.5-5.3-12.2
			C324.2,82.1,319.6,80.9,313.4,80.9L313.4,80.9z M314,104.2v-14c2.7,0,4.3,0.5,5.3,0.9c1.1,0.4,1.9,1.1,2.3,1.9
			c0.5,0.9,0.8,2.3,0.8,4c0,2.6-0.6,4.4-1.8,5.4c0,0,0,0-0.1,0.1C319.3,103.6,317.1,104.1,314,104.2L314,104.2z"/>
	</g>
	<g>
		<path class="st0" d="M294.1,112.3c-0.5,0-1-0.3-1.3-0.8l-10-17.8v12h2.3c0.8,0,1.5,0.7,1.5,1.5v3.3c0,0.8-0.7,1.5-1.5,1.5h-10.9
			c-0.8,0-1.5-0.7-1.5-1.5v-3.3c0-0.8,0.7-1.5,1.5-1.5h2.3v-17h-2.3c-0.8,0-1.5-0.7-1.5-1.5v-3.3c0-0.8,0.7-1.5,1.5-1.5h9.1
			c0.5,0,1,0.3,1.3,0.8l8.9,15.7V88.7h-2.3c-0.8,0-1.5-0.7-1.5-1.5v-3.3c0-0.8,0.7-1.5,1.5-1.5h10.9c0.8,0,1.5,0.7,1.5,1.5v3.3
			c0,0.8-0.7,1.5-1.5,1.5h-2.4v22.1c0,0.8-0.7,1.5-1.5,1.5H294.1z"/>
		<path class="st1" d="M302.1,83.9v3.3h-3.9v23.6h-4.1L281.3,88v19.2h3.8v3.3h-10.9v-3.3h3.8v-20h-3.8v-3.3h9.1l11.7,20.7V87.2h-3.8
			v-3.3H302.1 M302.1,80.9h-10.9c-1.7,0-3,1.3-3,3v2.6l-2.3-4c-0.5-0.9-1.5-1.5-2.6-1.5h-9.1c-1.7,0-3,1.3-3,3v3.3c0,1.7,1.3,3,3,3
			h0.8v14h-0.8c-1.7,0-3,1.3-3,3v3.3c0,1.7,1.3,3,3,3h10.9c1.7,0,3-1.3,3-3v-3.3c0-1.7-1.3-3-3-3h-0.8v-4.7l7.2,12.8
			c0.5,0.9,1.5,1.5,2.6,1.5h4.1c1.7,0,3-1.3,3-3V90.2h0.9c1.7,0,3-1.3,3-3v-3.3C305.1,82.2,303.8,80.9,302.1,80.9L302.1,80.9z
			 M292,93.2l-1.8-3.2c0.3,0.1,0.6,0.2,1,0.2h0.8V93.2L292,93.2z"/>
	</g>
	<g>
		<path class="st0" d="M262.3,112c-0.8,0-1.5-0.7-1.5-1.5v-3.3c0-0.8,0.7-1.5,1.5-1.5h1.4l-1.1-3.1h-7.6l-1.1,3.1h1.3
			c0.8,0,1.5,0.7,1.5,1.5v3.3c0,0.8-0.7,1.5-1.5,1.5h-10.6c-0.8,0-1.5-0.7-1.5-1.5v-3.3c0-0.8,0.7-1.5,1.5-1.5h2.1l6.1-17.1h-1
			c-0.8,0-1.5-0.7-1.5-1.5v-3.2c0-0.8,0.7-1.5,1.5-1.5h13.8c0.8,0,1.5,0.7,1.5,1.5v3.2c0,0.8-0.7,1.5-1.5,1.5h-1.1l6.1,17.1h1.9
			c0.8,0,1.5,0.7,1.5,1.5v3.3c0,0.8-0.7,1.5-1.5,1.5H262.3z M260.6,96.5l-1.7-4.9l-1.7,4.9H260.6z"/>
		<path class="st1" d="M265.8,83.9v3.2h-3.2l7.2,20.1h3v3.3h-10.5v-3.3h3.5l-2.1-6.1H254l-2.1,6.1h3.4v3.3h-10.6v-3.3h3.2l7.2-20.1
			H252v-3.2H265.8 M255.1,98h7.6L259,87.1h-0.1L255.1,98 M265.8,80.9H252c-1.7,0-3,1.3-3,3v3.2c0,1.3,0.8,2.4,1.9,2.8l-5.1,14.3
			h-1.1c-1.7,0-3,1.3-3,3v3.3c0,1.7,1.3,3,3,3h10.6c1.7,0,3-1.3,3-3v-3.3c0-1.4-0.9-2.6-2.2-2.9l0.1-0.2h5.4l0.1,0.2
			c-1.3,0.3-2.3,1.5-2.3,2.9v3.3c0,1.7,1.3,3,3,3h10.5c1.7,0,3-1.3,3-3v-3.3c0-1.7-1.3-3-3-3h-0.9l-5.1-14.3c1.2-0.4,2-1.5,2-2.8
			v-3.2C268.8,82.2,267.5,80.9,265.8,80.9L265.8,80.9z"/>
	</g>
	<g>
		<path class="st0" d="M223.6,112.1c-0.8,0-1.5-0.7-1.5-1.5v-3.3c0-0.8,0.7-1.5,1.5-1.5h1.9v-17h-1.9c-0.8,0-1.5-0.7-1.5-1.5V84
			c0-0.8,0.7-1.5,1.5-1.5h10.9c0.8,0,1.5,0.7,1.5,1.5v3.3c0,0.8-0.7,1.5-1.5,1.5h-2v16.9h5.8V99c0-0.8,0.7-1.5,1.5-1.5h3.3
			c0.8,0,1.5,0.7,1.5,1.5v11.6c0,0.8-0.7,1.5-1.5,1.5H223.6z"/>
		<path class="st1" d="M234.5,84v3.3H231v-0.1v20h8.8V99h3.3v11.6h-19.5v-3.3h3.4v-20h-3.4V84H234.5 M234.5,81h-10.9
			c-1.7,0-3,1.3-3,3v3.3c0,1.7,1.3,3,3,3h0.4v14h-0.4c-1.7,0-3,1.3-3,3v3.3c0,1.7,1.3,3,3,3h19.5c1.7,0,3-1.3,3-3V99
			c0-1.7-1.3-3-3-3h-3.3c-1.7,0-3,1.3-3,3v5.2H234V90.3h0.5c1.7,0,3-1.3,3-3V84C237.5,82.3,236.2,81,234.5,81L234.5,81z"/>
	</g>
	<g>
		<path class="st0" d="M211.7,112c-0.5,0-0.9-0.2-1.2-0.6c-0.3,0.4-0.7,0.6-1.2,0.6h-10.5c-0.8,0-1.5-0.7-1.5-1.5v-3.3
			c0-0.8,0.7-1.5,1.5-1.5h1.8v-17h-1.8c-0.8,0-1.5-0.7-1.5-1.5v-3.3c0-0.8,0.7-1.5,1.5-1.5h10.8c0.4,0,0.8,0.2,1.1,0.5
			c0.3-0.3,0.7-0.5,1.1-0.5h10.5c0.8,0,1.5,0.7,1.5,1.5v3.3c0,0.8-0.7,1.5-1.5,1.5h-2.2l-7,7.9l7.3,9.1h2.1c0.8,0,1.5,0.7,1.5,1.5
			v3.3c0,0.8-0.7,1.5-1.5,1.5H211.7z M209.3,105.7c0.5,0,0.9,0.2,1.2,0.6c0.3-0.3,0.6-0.6,1.1-0.6l-3.9-5.2v5.2H209.3z M207.7,93.1
			l3.9-4.4c-0.3,0-0.7-0.2-0.9-0.5c-0.3,0.3-0.7,0.5-1.1,0.5h-1.9V93.1z"/>
		<path class="st1" d="M222.3,83.9v3.3h-2.9l-8.3,9.3l8.5,10.7h2.8v3.3h-10.7v-3.3h2.9l-8-10.6l8.3-9.4h-3.1v-3.3H222.3 M209.6,83.9
			v3.3h-3.4v20h3.1v3.3h-10.5v-3.3h3.3v-20h-3.3v-3.3H209.6 M222.3,80.9h-10.5c-0.4,0-0.8,0.1-1.1,0.2c-0.3-0.1-0.7-0.2-1.1-0.2
			h-10.8c-1.7,0-3,1.3-3,3v3.3c0,1.7,1.3,3,3,3h0.3v14h-0.3c-1.7,0-3,1.3-3,3v3.3c0,1.7,1.3,3,3,3h10.5c0.4,0,0.8-0.1,1.2-0.2
			c0.4,0.2,0.8,0.2,1.2,0.2h10.7c1.7,0,3-1.3,3-3v-3.3c0-1.7-1.3-3-3-3H221l-6-7.6l5.7-6.4h1.6c1.7,0,3-1.3,3-3v-3.3
			C225.3,82.2,224,80.9,222.3,80.9L222.3,80.9z"/>
	</g>
	<g>
		<path class="st0" d="M183.3,112.4c-2.9,0-5.4-0.7-7.7-2c-2.3-1.4-4-3.2-5.3-5.6c-1.2-2.4-1.9-4.9-1.9-7.6c0-2.9,0.6-5.5,1.9-7.9
			c1.2-2.3,3-4.1,5.3-5.5c2.2-1.3,4.8-2,7.7-2c1.9,0,3.7,0.3,5.4,1c0.8,0.4,1.4,0.7,2,1.1c0-0.8,0.7-1.5,1.5-1.5h3.4
			c0.8,0,1.5,0.7,1.5,1.5v8.5c0,0.8-0.7,1.5-1.5,1.5h-3.5c-0.6,0-1.1-0.3-1.3-0.8c-0.8-1.4-1.8-2.6-3.1-3.5
			c-1.2-0.8-2.5-1.1-4.2-1.1c-1.4,0-2.7,0.4-3.9,1.2c-1.1,0.7-2.1,1.8-2.7,3.1c-0.7,1.2-1,2.6-1,4.4c0,1.6,0.4,3,1,4.4
			c0.7,1.3,1.6,2.3,2.8,3.1c1.2,0.8,2.5,1.2,3.9,1.2c1.8,0,3.4-0.5,4.8-1.6c1.3-1.1,2.4-2.7,3.1-4.9c0.1-0.4,0.5-0.8,0.9-0.9
			c0.2-0.1,0.4-0.1,0.6-0.1c0.2,0,0.5,0.1,0.7,0.2l3.4,1.8c0.6,0.3,0.9,1.1,0.7,1.8c-1,3.4-2.9,6-5.5,7.7
			C189.8,111.5,186.8,112.4,183.3,112.4z"/>
		<path class="st1" d="M183.3,83.3c1.7,0,3.3,0.3,4.8,0.9c1.5,0.7,2.9,1.5,4.1,2.6v-2.9h3.4v8.5h-3.5c-0.9-1.7-2.1-3-3.6-4
			s-3.2-1.4-5-1.4s-3.3,0.5-4.7,1.4c-1.4,0.9-2.5,2.2-3.2,3.7c-0.8,1.5-1.1,3.2-1.1,5s0.4,3.5,1.2,5.1s1.9,2.8,3.3,3.7
			c1.4,0.9,3,1.4,4.7,1.4c2.1,0,4-0.6,5.7-1.9c1.6-1.3,2.8-3.2,3.6-5.6l3.4,1.8c-0.9,3-2.5,5.3-4.9,6.9c-2.3,1.6-5.1,2.4-8.2,2.4
			c-2.6,0-4.9-0.6-6.9-1.8s-3.6-2.9-4.7-5c-1.1-2.1-1.7-4.4-1.7-6.9c0-2.7,0.6-5.1,1.7-7.2c1.1-2.1,2.7-3.7,4.7-4.9
			C178.4,83.9,180.7,83.3,183.3,83.3 M183.3,80.3c-3.1,0-6,0.7-8.4,2.2c-2.5,1.5-4.5,3.6-5.8,6.1c-1.4,2.6-2,5.5-2,8.6
			c0,2.9,0.7,5.7,2,8.3c1.3,2.6,3.4,4.7,5.8,6.2c2.5,1.5,5.3,2.2,8.4,2.2c3.7,0,7.1-1,9.9-2.9c2.9-2,5-4.8,6.1-8.5
			c0.4-1.4-0.2-2.8-1.5-3.5l-3.4-1.8c-0.4-0.2-0.9-0.3-1.4-0.3c-0.4,0-0.8,0.1-1.1,0.2c-0.8,0.3-1.5,1-1.7,1.8
			c-0.6,1.9-1.5,3.3-2.6,4.2c-1.1,0.9-2.4,1.3-3.8,1.3c-1.1,0-2.1-0.3-3.1-0.9c-1-0.6-1.7-1.4-2.2-2.5c-0.6-1.2-0.9-2.4-0.9-3.8
			c0-1.5,0.2-2.6,0.7-3.6c0,0,0-0.1,0.1-0.1c0.5-1,1.2-1.9,2.1-2.4c1-0.6,1.9-0.9,3.1-0.9c1.3,0,2.4,0.3,3.3,0.9
			c1.1,0.7,2,1.7,2.6,2.9c0.5,1,1.5,1.6,2.7,1.6h3.5c1.7,0,3-1.3,3-3v-8.5c0-1.7-1.3-3-3-3h-3.4c-0.8,0-1.6,0.3-2.2,0.9
			c-0.2-0.1-0.5-0.2-0.7-0.3c-0.1,0-0.1,0-0.2-0.1C187.4,80.7,185.4,80.3,183.3,80.3L183.3,80.3z"/>
	</g>
	<g>
		<path class="st0" d="M154.7,112.5c-3.6,0-6.3-1-8.2-3c-1.9-2-2.8-4.8-2.8-8.5V88.7H142c-0.8,0-1.5-0.7-1.5-1.5v-3.3
			c0-0.8,0.7-1.5,1.5-1.5h10.5c0.8,0,1.5,0.7,1.5,1.5v3.3c0,0.8-0.7,1.5-1.5,1.5h-1.7v12.1c0,2,0.4,3.4,1.1,4.4
			c0.7,0.9,1.9,1.1,2.8,1.1c1.4,0,2.4-0.3,2.9-1c0.7-0.9,1.1-2.3,1.1-4.3V88.7h-1.6c-0.8,0-1.5-0.7-1.5-1.5v-3.3
			c0-0.8,0.7-1.5,1.5-1.5h10.4c0.8,0,1.5,0.7,1.5,1.5v3.3c0,0.8-0.7,1.5-1.5,1.5h-1.8v12.5c0,3.6-0.9,6.3-2.8,8.3
			C161,111.5,158.3,112.5,154.7,112.5z"/>
		<path class="st1" d="M167.5,83.9v3.3h-3.3v14c0,3.2-0.8,5.6-2.4,7.3c-1.6,1.7-4,2.5-7.1,2.5c-3.1,0-5.5-0.8-7.1-2.5
			c-1.6-1.7-2.4-4.2-2.4-7.5V87.2H142v-3.3h10.5v3.3h-3.2v13.6c0,2.4,0.5,4.1,1.4,5.3c0.9,1.1,2.3,1.7,4,1.7c1.8,0,3.2-0.5,4.1-1.6
			c0.9-1.1,1.4-2.8,1.4-5.2V87.2h-3.1v-3.3H167.5 M167.5,80.9h-10.4c-0.9,0-1.7,0.4-2.3,1.1c-0.6-0.7-1.4-1.1-2.3-1.1H142
			c-1.7,0-3,1.3-3,3v3.3c0,1.7,1.3,3,3,3h0.2V101c0,4.1,1.1,7.3,3.2,9.6c2.2,2.3,5.3,3.4,9.3,3.4s7.1-1.2,9.3-3.4
			c2.1-2.3,3.2-5.4,3.2-9.4v-11h0.3c1.7,0,3-1.3,3-3v-3.3C170.5,82.2,169.2,80.9,167.5,80.9L167.5,80.9z M152.3,90.2h0.2
			c0.9,0,1.7-0.4,2.3-1.1c0.6,0.7,1.4,1.1,2.3,1.1h0.1V101c0,2.2-0.5,3-0.7,3.3c-0.3,0.4-1.2,0.5-1.8,0.5c-0.5,0-1.2-0.1-1.6-0.6
			c-0.5-0.7-0.8-1.9-0.8-3.4V90.2L152.3,90.2z"/>
	</g>
	<g>
		<path class="st0" d="M131.5,112c-0.8,0-1.5-0.7-1.5-1.5v-3.3c0-0.8,0.7-1.5,1.5-1.5h1.4l-1.1-3.1h-7.5l-1.1,3.1h1.3
			c0.8,0,1.5,0.7,1.5,1.5v3.3c0,0.8-0.7,1.5-1.5,1.5H114c-0.8,0-1.5-0.7-1.5-1.5v-3.3c0-0.8,0.7-1.5,1.5-1.5h2.1l6.1-17.1h-1.1
			c-0.8,0-1.5-0.7-1.5-1.5v-3.2c0-0.8,0.7-1.5,1.5-1.5H135c0.8,0,1.5,0.7,1.5,1.5v3.2c0,0.8-0.7,1.5-1.5,1.5h-1.1l6.1,17.1h1.9
			c0.8,0,1.5,0.7,1.5,1.5v3.3c0,0.8-0.7,1.5-1.5,1.5H131.5z M129.8,96.5l-1.7-4.9l-1.7,4.9H129.8z"/>
		<path class="st1" d="M135,83.9v3.2h-3.2l7.2,20.1h3v3.3h-10.5v-3.3h3.5l-2.1-6.1h-9.6l-2.1,6.1h3.4v3.3H114v-3.3h3.2l7.2-20.1
			h-3.2v-3.2H135 M124.3,98h7.6l-3.7-10.9h-0.1L124.3,98 M135,80.9h-13.8c-1.7,0-3,1.3-3,3v3.2c0,1.3,0.8,2.4,2,2.8l-5.1,14.3H114
			c-1.7,0-3,1.3-3,3v3.3c0,1.7,1.3,3,3,3h10.6c1.7,0,3-1.3,3-3v-3.3c0-1.4-0.9-2.6-2.2-2.9l0.1-0.2h5.3l0.1,0.2
			c-1.3,0.3-2.3,1.5-2.3,2.9v3.3c0,1.7,1.3,3,3,3H142c1.7,0,3-1.3,3-3v-3.3c0-1.7-1.3-3-3-3h-0.9L136,89.9c1.2-0.4,2-1.5,2-2.8v-3.2
			C138,82.2,136.7,80.9,135,80.9L135,80.9z"/>
	</g>
	<g>
		<path class="st2" d="M395.5,72.5c-6.3,0-12-1.2-16.7-3.4c-4.8-2.3-8.6-5.7-11.2-10.2c-2.6-4.4-3.9-9.6-3.9-15.7
			c0-5.7,1.3-10.8,3.9-15.2c2.6-4.4,6.2-7.9,10.9-10.4c4.6-2.5,9.8-3.8,15.5-3.8c0.4,0,0.8,0,1.2,0c5.8,0,10.6,1.2,14.3,3.6V16
			c0-0.8,0.7-1.5,1.5-1.5h9.2c0.8,0,1.5,0.7,1.5,1.5v19.2c0,0.8-0.7,1.5-1.5,1.5h-9.2c-0.6,0-1.2-0.4-1.4-1c-1-2.8-2.7-5.1-5.2-6.9
			c-2.4-1.7-5.1-2.5-8.2-2.5c-2.9,0-5.3,0.6-7.4,2c-2.2,1.3-3.8,3-5,5.4c-1.2,2.3-1.7,5.1-1.7,8.4c0,5.6,1.3,9.8,3.9,12.9
			c2.6,3.1,6.1,4.6,10.5,4.6c2.9,0,5.4-0.7,7.2-2c1.3-1,2.4-2.3,3.2-4h-7.4c-0.8,0-1.5-0.7-1.5-1.5v-9.2c0-0.8,0.7-1.5,1.5-1.5h25.5
			c0.8,0,1.5,0.7,1.5,1.5c0,6.1-1.2,11.5-3.7,15.9c-2.4,4.4-6,7.9-10.7,10.2C407.2,71.4,401.9,72.5,395.5,72.5z"/>
		<path class="st1" d="M395.1,15.3c6.8,0,12.1,1.7,15.8,5.1V16h9.2v19.2h-9.2c-1.1-3.2-3.1-5.7-5.8-7.6c-2.7-1.9-5.7-2.8-9.1-2.8
			c-3.1,0-5.8,0.7-8.2,2.2c-2.4,1.4-4.2,3.4-5.5,6c-1.3,2.6-1.9,5.6-1.9,9.1c0,5.9,1.4,10.5,4.2,13.9c2.9,3.4,6.8,5.1,11.7,5.1
			c3.3,0,6-0.8,8.1-2.3c2.1-1.6,3.6-3.8,4.5-6.7h-9.6v-9.2h25.5c0,5.9-1.2,11-3.5,15.2s-5.7,7.4-10.1,9.6s-9.6,3.3-15.7,3.3
			s-11.5-1.1-16.1-3.3s-8.1-5.4-10.6-9.6s-3.7-9.2-3.7-14.9c0-5.4,1.2-10.2,3.7-14.4s6-7.5,10.3-9.9c4.4-2.4,9.3-3.6,14.8-3.6
			C394.3,15.3,394.7,15.3,395.1,15.3 M424.8,42.9L424.8,42.9 M395.1,12.3c-0.4,0-0.8,0-1.2,0c-5.9,0-11.4,1.3-16.2,4
			c-4.9,2.7-8.7,6.4-11.4,11c-2.7,4.6-4.1,10-4.1,15.9c0,6.3,1.4,11.8,4.1,16.4c2.8,4.7,6.8,8.3,11.9,10.8c5,2.4,10.8,3.6,17.4,3.6
			c6.5,0,12.2-1.2,17-3.6c5-2.5,8.8-6.1,11.4-10.8c2.5-4.7,3.9-10.2,3.9-16.5c0,0,0-0.1,0-0.1c0-1.7-1.3-3-3-3h0h-25.5
			c-1.7,0-3,1.3-3,3v9.2c0,1.7,1.3,3,3,3h4.7c-0.4,0.5-0.9,0.9-1.4,1.3c-1.6,1.1-3.7,1.7-6.3,1.7c-4,0-7.1-1.3-9.4-4
			c-2.4-2.9-3.5-6.8-3.5-12c0-3.1,0.5-5.6,1.6-7.8c1.1-2.1,2.5-3.7,4.3-4.8c0,0,0.1,0,0.1,0c1.9-1.2,4-1.7,6.6-1.7
			c2.8,0,5.2,0.7,7.4,2.3c2.3,1.6,3.8,3.6,4.7,6.1c0.4,1.2,1.6,2,2.8,2h9.2c1.7,0,3-1.3,3-3V16c0-1.7-1.3-3-3-3h-9.2
			c-1.3,0-2.4,0.8-2.8,1.9C404.5,13.2,400.1,12.3,395.1,12.3L395.1,12.3z"/>
	</g>
	<g>
		<path class="st2" d="M334.5,71.7c-0.8,0-1.5-0.7-1.5-1.5v-8.6c0-0.8,0.7-1.5,1.5-1.5h5v-3.2h-20.9c-0.6,0-1.2-0.4-1.4-1
			c-1.4-3.8-2.4-6.1-2.8-7.1c-0.2-0.5-0.2-1.1,0.2-1.6l26.2-33.2c0.3-0.4,0.7-0.6,1.2-0.6h11.7c0.8,0,1.5,0.7,1.5,1.5v30.1h4.2
			c0.8,0,1.5,0.7,1.5,1.5v8.8c0,0.8-0.7,1.5-1.5,1.5H355v3.2h3.5c0.8,0,1.5,0.7,1.5,1.5v8.6c0,0.8-0.7,1.5-1.5,1.5H334.5z
			 M339.6,45.1v-9.8l-7.9,9.8H339.6z"/>
		<path class="st1" d="M353.6,15v31.6h5.7v8.8h-5.8v6.2h5v8.6h-24v-8.6h6.5v-6.2h-22.4c-1.2-3.3-2.2-5.7-2.9-7.2L341.9,15H353.6
			 M328.6,46.6h12.5V31L328.6,46.6 M353.6,12h-11.7c-0.9,0-1.8,0.4-2.4,1.1l-26.2,33.2c-0.7,0.9-0.8,2.1-0.4,3.1
			c0.5,1,1.4,3.2,2.8,7c0.4,1.2,1.6,2,2.8,2H338v0.2h-3.5c-1.7,0-3,1.3-3,3v8.6c0,1.7,1.3,3,3,3h24c1.7,0,3-1.3,3-3v-8.6
			c0-1.7-1.3-3-3-3h-2v-0.2h2.8c1.7,0,3-1.3,3-3v-8.8c0-1.7-1.3-3-3-3h-2.7V15C356.6,13.3,355.3,12,353.6,12L353.6,12z M334.8,43.6
			l3.3-4.1v4.1H334.8L334.8,43.6z"/>
	</g>
	<g>
		<path class="st0" d="M296,72.4c-3.7,0-6.9-1-9.5-3.1v0.9c0,0.8-0.7,1.5-1.5,1.5h-9.2c-0.8,0-1.5-0.7-1.5-1.5V51.8
			c0-0.8,0.7-1.5,1.5-1.5h9.2c0.8,0,1.4,0.6,1.5,1.4c0.2,2.9,0.9,5,2.1,6.4c1.2,1.3,2.7,2,4.7,2c1.2,0,2.2-0.4,3.2-1.3
			c0.8-0.8,1.2-1.7,1.2-3c0-1.2-0.5-2.3-1.6-3.5c-1.1-1.2-3.1-2.4-6.2-3.7c-5.6-2.5-9.6-5.1-12.2-8c-2.7-3-4-6.5-4-10.4
			c0-3.1,0.7-5.8,2.1-8.3c1.5-2.6,3.4-4.6,5.9-6c2.6-1.5,5.2-2.2,8-2.2c2.4,0,4.5,0.5,6.5,1.5c0.8,0.5,1.6,0.9,2.2,1.5V16
			c0-0.8,0.7-1.5,1.5-1.5h9.2c0.8,0,1.5,0.7,1.5,1.5v16.4c0,0.8-0.7,1.5-1.5,1.5h-9.2c-0.7,0-1.4-0.5-1.5-1.3c-0.4-2.4-1.1-4-2.1-5
			c-1.1-1.1-2.4-1.6-4.1-1.6c-1.2,0-2.1,0.3-2.8,0.9c0,0-0.1,0.1-0.1,0.1c-0.7,0.5-1,1.1-1,2c0,0.8,0.2,1.4,0.6,1.9
			c0.7,0.8,1.3,1.3,2.2,1.8c1,0.6,2.5,1.2,4.6,2.1l2.2,0.9c5.1,2.2,8.8,4.8,11.4,7.7c2.7,3.1,4.1,7,4.1,11.4c0,5.5-1.6,9.7-4.7,12.9
			C305.4,70.8,301.3,72.4,296,72.4z"/>
		<path class="st1" d="M289.7,15.2c2.1,0,4,0.4,5.8,1.3c1.8,1,3.3,2.3,4.4,4V16h9.2v16.4h-9.2c-0.4-2.6-1.2-4.6-2.6-5.9
			c-1.3-1.3-3-2-5.1-2c-1.5,0-2.8,0.4-3.8,1.3c-1.1,0.8-1.6,1.9-1.6,3.2c0,1.1,0.3,2.1,1,2.9c0.7,0.8,1.5,1.5,2.6,2.1
			c1.1,0.6,2.6,1.3,4.7,2.2l2.2,0.9c4.8,2.1,8.4,4.5,10.8,7.3c2.4,2.8,3.7,6.3,3.7,10.4c0,5-1.4,8.9-4.3,11.8
			c-2.9,2.9-6.7,4.3-11.5,4.3c-4.7,0-8.4-1.8-11-5.3v4.6h-9.2V51.8h9.2c0.2,3.2,1,5.6,2.4,7.3c1.5,1.7,3.4,2.5,5.9,2.5
			c1.7,0,3-0.6,4.2-1.7c1.2-1.1,1.7-2.5,1.7-4.1s-0.7-3.1-2-4.5s-3.5-2.7-6.7-4.1c-5.3-2.4-9.2-4.9-11.7-7.6
			c-2.4-2.7-3.6-5.8-3.6-9.4c0-2.8,0.6-5.3,1.9-7.6c1.3-2.3,3-4.1,5.3-5.4C284.7,15.9,287.1,15.2,289.7,15.2 M289.7,12.2
			c-3.1,0-5.9,0.8-8.8,2.4c-2.7,1.5-4.8,3.7-6.4,6.5c-1.5,2.7-2.3,5.7-2.3,9.1c0,4.3,1.5,8.1,4.4,11.4c0,0,0,0,0,0
			c2.7,3,6.9,5.7,12.7,8.3c2.9,1.3,4.8,2.4,5.7,3.4c0.8,0.9,1.2,1.7,1.2,2.5c0,1.1-0.4,1.6-0.7,1.9c-0.7,0.7-1.3,0.9-2.2,0.9
			c-1.6,0-2.7-0.4-3.6-1.4c-1-1.2-1.5-3.1-1.7-5.5c-0.1-1.6-1.4-2.8-3-2.8h-9.2c-1.7,0-3,1.3-3,3v18.4c0,1.7,1.3,3,3,3h9.2
			c1.1,0,2-0.6,2.5-1.4c2.5,1.4,5.3,2.1,8.5,2.1c5.6,0,10.2-1.7,13.6-5.2c3.4-3.4,5.2-8.1,5.2-13.9c0-4.8-1.5-8.9-4.4-12.4
			c-2.3-2.7-5.4-5-9.6-7h8.3c1.7,0,3-1.3,3-3V16c0-1.7-1.3-3-3-3h-9.2c-1,0-1.8,0.5-2.4,1.2c-0.2-0.1-0.4-0.2-0.5-0.3
			c0,0-0.1,0-0.1-0.1C294.7,12.7,292.3,12.2,289.7,12.2L289.7,12.2z M297.3,33.8l-1-0.4c-2-0.9-3.4-1.5-4.4-2.1
			c-0.7-0.4-1.2-0.8-1.8-1.4c-0.1-0.1-0.3-0.3-0.3-0.9c0-0.4,0.1-0.6,0.4-0.8c0.1-0.1,0.2-0.1,0.2-0.2c0.1-0.1,0.6-0.5,1.8-0.5
			c1.3,0,2.2,0.4,3,1.1c0,0,0.1,0.1,0.1,0.1c0.8,0.7,1.4,2.1,1.7,4.2C297,33.2,297.1,33.5,297.3,33.8L297.3,33.8z"/>
	</g>
	<g>
		<path class="st0" d="M253.6,72.4c-3.7,0-6.9-1-9.5-3.1v0.9c0,0.8-0.7,1.5-1.5,1.5h-9.2c-0.8,0-1.5-0.7-1.5-1.5V51.8
			c0-0.8,0.7-1.5,1.5-1.5h9.2c0.8,0,1.4,0.6,1.5,1.4c0.2,2.9,0.9,5,2.1,6.4c1.2,1.3,2.7,2,4.7,2c1.2,0,2.2-0.4,3.2-1.3
			c0.8-0.8,1.2-1.7,1.2-3c0-1.2-0.5-2.3-1.6-3.5c-1.1-1.2-3.1-2.4-6.2-3.7c-5.6-2.5-9.6-5.1-12.2-8c-2.7-3-4-6.5-4-10.4
			c0-3.1,0.7-5.8,2.1-8.3c1.5-2.6,3.4-4.6,5.9-6c2.6-1.5,5.2-2.2,8-2.2c2.4,0,4.5,0.5,6.5,1.5c0.8,0.4,1.5,0.9,2.2,1.5V16
			c0-0.8,0.7-1.5,1.5-1.5h9.2c0.8,0,1.5,0.7,1.5,1.5v16.4c0,0.8-0.7,1.5-1.5,1.5h-9.2c-0.7,0-1.4-0.5-1.5-1.3c-0.4-2.4-1.1-4-2.1-5
			c-1.1-1.1-2.4-1.6-4.1-1.6c-1.2,0-2.1,0.3-2.8,0.9c0,0-0.1,0.1-0.1,0.1c-0.7,0.5-1,1.1-1,2c0,0.8,0.2,1.4,0.6,1.9
			c0.7,0.8,1.3,1.3,2.2,1.8c1,0.6,2.5,1.2,4.6,2.1l2.2,0.9c5.1,2.2,8.8,4.8,11.4,7.7c2.7,3.1,4.1,7,4.1,11.4c0,5.5-1.6,9.7-4.7,12.9
			C263,70.8,258.9,72.4,253.6,72.4z"/>
		<path class="st1" d="M247.3,15.2c2.1,0,4,0.4,5.8,1.3c1.8,1,3.2,2.3,4.4,4V16h9.2v16.4h-9.2c-0.4-2.6-1.2-4.6-2.6-5.9
			c-1.3-1.3-3-2-5.1-2c-1.5,0-2.8,0.4-3.8,1.3c-1.1,0.8-1.6,1.9-1.6,3.2c0,1.1,0.3,2.1,1,2.9c0.7,0.8,1.5,1.5,2.6,2.1
			c1.1,0.6,2.6,1.3,4.7,2.2l2.2,0.9c4.8,2.1,8.4,4.5,10.8,7.3c2.4,2.8,3.7,6.3,3.7,10.4c0,5-1.4,8.9-4.3,11.8
			c-2.9,2.9-6.7,4.3-11.5,4.3c-4.7,0-8.4-1.8-11-5.3v4.6h-9.2V51.8h9.2c0.2,3.2,1,5.6,2.4,7.3c1.5,1.7,3.4,2.5,5.9,2.5
			c1.7,0,3-0.6,4.2-1.7c1.2-1.1,1.7-2.5,1.7-4.1s-0.7-3.1-2-4.5c-1.3-1.4-3.5-2.7-6.7-4.1c-5.3-2.4-9.2-4.9-11.7-7.6
			c-2.4-2.7-3.6-5.8-3.6-9.4c0-2.8,0.6-5.3,1.9-7.6c1.3-2.3,3-4.1,5.3-5.4C242.3,15.9,244.7,15.2,247.3,15.2 M247.3,12.2
			c-3.1,0-5.9,0.8-8.8,2.4c-2.7,1.5-4.8,3.7-6.4,6.5c-1.5,2.7-2.3,5.7-2.3,9.1c0,4.3,1.5,8.1,4.4,11.4c0,0,0,0,0,0
			c2.7,3,6.9,5.7,12.7,8.3c2.9,1.3,4.8,2.4,5.7,3.4c0.8,0.9,1.2,1.7,1.2,2.5c0,1.1-0.4,1.6-0.7,1.9c-0.7,0.7-1.3,0.9-2.2,0.9
			c-1.6,0-2.7-0.4-3.6-1.4c-1-1.2-1.5-3.1-1.7-5.5c-0.1-1.6-1.4-2.8-3-2.8h-9.2c-1.7,0-3,1.3-3,3v18.4c0,1.7,1.3,3,3,3h9.2
			c1.1,0,2-0.6,2.5-1.4c2.5,1.4,5.3,2.1,8.5,2.1c5.6,0,10.2-1.7,13.6-5.2c3.4-3.4,5.2-8.1,5.2-13.9c0-4.8-1.5-8.9-4.4-12.4
			c-2.3-2.7-5.4-5-9.6-7h8.3c1.7,0,3-1.3,3-3V16c0-1.7-1.3-3-3-3h-9.2c-1,0-1.8,0.5-2.4,1.2c-0.2-0.1-0.4-0.2-0.5-0.3
			c0,0-0.1,0-0.1-0.1C252.3,12.7,249.9,12.2,247.3,12.2L247.3,12.2z M254.9,33.8l-1-0.4c-2-0.9-3.4-1.5-4.4-2.1
			c-0.7-0.4-1.2-0.8-1.8-1.4c-0.1-0.1-0.3-0.3-0.3-0.9c0-0.4,0.1-0.6,0.4-0.8c0.1-0.1,0.2-0.1,0.2-0.2c0.1-0.1,0.6-0.5,1.8-0.5
			c1.3,0,2.2,0.4,3,1.1c0,0,0.1,0.1,0.1,0.1c0.8,0.7,1.4,2.1,1.7,4.2C254.6,33.2,254.7,33.5,254.9,33.8L254.9,33.8z"/>
	</g>
	<g>
		<path class="st0" d="M195.9,72.3c-5.9,0-11.4-1.2-16.3-3.7c-4.8-2.4-8.6-5.9-11.4-10.4c-2.7-4.3-4-9.5-4-15.4
			c0-5.7,1.3-10.8,4-15.3c2.6-4.4,6.4-7.9,11.2-10.4c4.7-2.5,10.1-3.7,16.5-3.7c6.1,0,11.6,1.2,16.4,3.7c4.8,2.4,8.5,5.9,11.2,10.4
			c2.7,4.5,4,9.6,4,15.3c0,5.7-1.3,10.9-4,15.4c-2.7,4.5-6.5,8-11.2,10.4C207.4,71.1,201.9,72.3,195.9,72.3z M195.9,26.6
			c-2.7,0-5.1,0.7-7,2.1c-2.1,1.5-3.6,3.3-4.7,5.8c-1.1,2.5-1.7,5.3-1.7,8.4c0,3.3,0.6,6.2,1.7,8.7c1.1,2.4,2.7,4.4,4.8,5.9
			c2,1.4,4.2,2,6.9,2c2.7,0,5.1-0.7,7.2-2.1c2.1-1.5,3.7-3.4,4.7-5.8c1-2.7,1.5-5.7,1.5-8.7c0-3.1-0.6-5.9-1.7-8.4
			c-1.1-2.5-2.7-4.5-4.6-5.8C200.9,27.3,198.6,26.6,195.9,26.6z"/>
		<path class="st1" d="M195.9,15.1c5.9,0,11.2,1.2,15.7,3.5c4.6,2.3,8.1,5.6,10.6,9.8c2.5,4.2,3.8,9.1,3.8,14.5
			c0,5.5-1.3,10.4-3.8,14.6s-6,7.5-10.6,9.8c-4.6,2.3-9.8,3.5-15.7,3.5c-5.8,0-11-1.2-15.6-3.5c-4.6-2.3-8.2-5.6-10.8-9.8
			s-3.8-9.1-3.8-14.6s1.3-10.3,3.8-14.5c2.5-4.2,6.1-7.5,10.6-9.8C184.7,16.2,189.9,15.1,195.9,15.1 M195.9,61c3,0,5.7-0.8,8-2.3
			c2.3-1.6,4.1-3.7,5.3-6.5c1-2.8,1.6-5.9,1.6-9.3c0-3.3-0.6-6.3-1.8-9c-1.2-2.7-2.9-4.9-5.2-6.4c-2.3-1.6-4.9-2.4-7.9-2.4
			s-5.7,0.8-7.9,2.4c-2.3,1.6-4,3.7-5.2,6.4c-1.2,2.7-1.8,5.7-1.8,9c0,3.5,0.6,6.6,1.8,9.3s3,4.9,5.3,6.5S193,61,195.9,61
			 M195.9,12.1c-6.6,0-12.2,1.3-17.2,3.8c-5,2.6-9,6.3-11.8,10.9c-2.8,4.7-4.2,10.1-4.2,16c0,6.2,1.4,11.6,4.2,16.2
			c2.9,4.7,7,8.4,12,10.9c5.1,2.5,10.8,3.8,16.9,3.8c6.2,0,12-1.3,17-3.8c5-2.5,9-6.2,11.8-10.9c2.8-4.7,4.2-10.1,4.2-16.1
			c0-5.9-1.4-11.3-4.2-16c-2.8-4.8-6.8-8.4-11.8-10.9C208,13.4,202.3,12.1,195.9,12.1L195.9,12.1z M195.9,58c-2.4,0-4.4-0.6-6.1-1.8
			c-1.9-1.3-3.3-3.1-4.3-5.3c-1-2.3-1.5-5-1.5-8.1c0-2.9,0.5-5.5,1.5-7.8c1-2.2,2.3-3.9,4.2-5.2c0,0,0,0,0.1,0
			c1.7-1.2,3.7-1.8,6.1-1.8c2.4,0,4.4,0.6,6.2,1.9c0,0,0,0,0.1,0.1c1.7,1.1,3.1,2.8,4.1,5.1c1,2.3,1.5,4.9,1.5,7.8
			c0,2.8-0.5,5.6-1.4,8.2c-0.9,2.1-2.3,3.8-4.2,5.1C200.4,57.4,198.3,58,195.9,58L195.9,58z"/>
	</g>
	<g>
		<path class="st0" d="M115,71.7c-0.8,0-1.5-0.7-1.5-1.5V61c0-0.8,0.7-1.5,1.5-1.5h6.2V26.7H115c-0.8,0-1.5-0.7-1.5-1.5V16
			c0-0.8,0.7-1.5,1.5-1.5h48.5c0.8,0,1.5,0.7,1.5,1.5v16.7c0,0.8-0.7,1.5-1.5,1.5h-10.4c-0.8,0-1.5-0.7-1.5-1.5v-6h-13.3v9.5h10.3
			c0.8,0,1.5,0.7,1.5,1.5v9.2c0,0.8-0.7,1.5-1.5,1.5h-10.3v11.1h6.9c0.8,0,1.5,0.7,1.5,1.5v9.2c0,0.8-0.7,1.5-1.5,1.5H115z"/>
		<path class="st1" d="M163.5,16v16.7h-10.4v-7.5h-16.3v12.5h11.8v9.2h-11.8V61h8.4v9.2H115V61h7.7V25.2H115V16H163.5 M163.5,13H115
			c-1.7,0-3,1.3-3,3v9.2c0,1.7,1.3,3,3,3h4.7V58H115c-1.7,0-3,1.3-3,3v9.2c0,1.7,1.3,3,3,3h30.2c1.7,0,3-1.3,3-3V61c0-1.7-1.3-3-3-3
			h-5.4v-8.1h8.8c1.7,0,3-1.3,3-3v-9.2c0-1.7-1.3-3-3-3h-8.8v-6.5h10.3v4.5c0,1.7,1.3,3,3,3h10.4c1.7,0,3-1.3,3-3V16
			C166.5,14.3,165.2,13,163.5,13L163.5,13z"/>
	</g>
</g>
<g id="pin">
	<g id="Layer_1_1_" class="st3">
		<path class="st4" d="M49.2,2C23.1,2,2,23.6,2,50.3c0,41.3,42.9,72.6,44.7,73.9c1.5,1.1,3.4,1.1,4.9,0c1.8-1.3,44.7-32.5,44.7-73.9
			C96.4,23.6,75.2,2,49.2,2"/>
	</g>
	<g id="logo" class="st3">
		<path class="st5" d="M10,42.1c0.3,0.1,0.6,0,0.9-0.1s0.5-0.4,0.6-0.8c0.1-0.4,0.1-0.7-0.1-1c-0.1-0.3-0.4-0.5-0.7-0.6
			c-0.3-0.1-0.6,0-0.9,0.1s-0.5,0.4-0.6,0.8c-0.1,0.4-0.1,0.7,0.1,1C9.5,41.8,9.7,42.1,10,42.1z M11.8,43.7
			c-0.7,0.4-1.5,0.5-2.4,0.3c-0.8-0.2-1.5-0.8-1.8-1.5c-0.4-0.7-0.4-1.5-0.2-2.4s0.8-1.5,1.5-1.9c0.7-0.4,1.5-0.5,2.4-0.3
			c0.8,0.2,1.5,0.8,1.8,1.5c0.4,0.7,0.4,1.5,0.2,2.4C13,42.6,12.4,43.3,11.8,43.7z M7.3,46.3c0,1.5-0.1,3.3,0.2,4.7
			c0.2,0.7,0.5-0.5,0.6-0.8c0.2-0.8,0.8-2.4,1.1-3c0.2-0.5,0.4-1.1-0.1-1.2C8.2,45.7,7.3,45.3,7.3,46.3z M51.4,13
			c1.7-1,2.9-2,4.7-2.9c1.2-0.5,4.8-1.7,4.6-1.8C55.2,6.7,50.1,13.8,51.4,13z M52.3,7.2c-0.6,0.1-0.8,2-0.7,2
			c0.5,0.1,2.4-1.1,2.8-1.5C55.2,6.8,52.6,7.2,52.3,7.2z M44.6,12.1c1.3,0,2.4-1.1,2.4-2.4S46,7.3,44.6,7.3s-2.4,1.1-2.4,2.4
			S43.3,12.1,44.6,12.1z M44.6,10.8c0.6,0,1.1-0.5,1.1-1.1c0-0.6-0.5-1.1-1.1-1.1s-1.1,0.5-1.1,1.1C43.5,10.3,44,10.8,44.6,10.8z
			 M41.8,16.7c-0.8,0.1-0.6,1.6-0.5,2.7c0,1.5,3.3-2.3,3.1-2.6C44.3,16.8,41.8,16.7,41.8,16.7z M36.7,8.8c-0.7-0.2-1.5,0.3-2,0.7
			c-0.7,0.6,0.2,0.8,0.7,1c0.2,0.1,1.6,0.7,1.8,0.5C37.3,10.7,37.3,9,36.7,8.8z M33,19.6c-1.8,1.1,1,2.7,1.7,0
			c0.9-3.5-6.4-4.5-5.9,0.8c0.2,2.3,1.7,4.1,4,4.5c1.4-0.2,2.6-0.8,3.5-1.7c1.1-1.1,1.8-2.5,1.8-4.1s-0.7-3.1-1.8-4.1
			c-1.1-1.1-2.7-1.7-4.4-1.7c-1.7,0-3.3,0.7-4.4,1.7c-1.1,1.1-1.8,2.5-1.8,4.1c0,1.6,0.7,3.1,1.8,4.1c0.2,0.1,0.4,0.3,0.5,0.4
			c-3.4-5.4,1.7-10.8,6.3-8.2c5.4,3,0.1,10.4-3.1,6.5c-1.3-1.5-0.6-3,1-4c0.4-0.2,1,0,1.2,0.4C33.6,18.8,33.5,19.3,33,19.6z
			 M37.7,24.5c-1.5,1.4-3.5,2.3-5.7,2.3s-4.3-0.9-5.7-2.3c-1.5-1.4-2.4-3.4-2.4-5.5s0.9-4.1,2.4-5.5c1.5-1.4,3.5-2.3,5.7-2.3
			s4.3,0.9,5.7,2.3c1.5,1.4,2.4,3.4,2.4,5.5C40,21.2,39.2,23.1,37.7,24.5z M19.8,20.6c1.1,0.5,2.3,1.2,2.6,0.7
			c0.2-0.5,0.1-4.1-0.4-4c-0.4,0.1-2.2,1.3-2.9,2.1C18.5,20.1,19.1,20.2,19.8,20.6z M26.3,27c-0.3,0.1-0.4,1.9-0.4,2.2
			c0,0.6,0.1,0.5,0.7,0.2c0.3-0.1,1.8-0.8,1.8-1.1C28.4,27.9,27.1,26.8,26.3,27z M17.6,31.3c1.4,0.4,2.9-0.6,3.3-2.1
			c0.4-1.5-0.5-3-1.9-3.4c-1.4-0.4-2.9,0.6-3.3,2.1C15.3,29.4,16.2,30.9,17.6,31.3z M18.2,29.8c0.6,0,1.2-0.6,1.2-1.2
			c0-0.7-0.5-1.2-1.2-1.2s-1.2,0.6-1.2,1.2C17.1,29.2,17.6,29.8,18.2,29.8z M14.2,33.4c2.5,2.1,6.4,1.6,8.6-1.1s1.9-6.5-0.6-8.6
			c-2.5-2.1-6.4-1.6-8.6,1.1C11.4,27.4,11.7,31.3,14.2,33.4z M15.4,32c1.8,1.5,4.6,1.2,6.2-0.8c1.6-1.9,1.4-4.7-0.4-6.2
			c-1.8-1.5-4.6-1.2-6.2,0.8C13.4,27.7,13.6,30.5,15.4,32z M11.1,33.2c-0.5-0.7-0.9-2-0.9-0.1c0,1.7-0.7,1.5,1.2,2.9
			c0.8,0.6,1.8,1.4,2.5,2.1c0.8,0.7,0.6,0.7,1.3,0.1C16.1,37.5,11.9,34.5,11.1,33.2z M68.7,10.6c-5.9-3-12.5-4.7-19.5-4.7
			c-0.3,0-0.7,0-1,0c1.2,1,2,2.4,2,4c0,2.9-2.5,5.2-5.6,5.2c-3.1,0-5.6-2.3-5.6-5.2c0-1.2,0.4-2.2,1.1-3.1
			C20.2,11.2,5.4,29,5.4,50.5c0,4.3,0.6,8.5,1.7,12.4c0.4-3.4,0.9-6.5,1.7-9.4c1.1-4,2.9-7.7,5.9-11.9c2.4-3.3,5.6-6.5,9.2-8.9
			c3.3-2.2,6.9-3.7,10.6-4.1c1-0.1,2.1-0.2,3.1-0.1C42.2,20,48.1,14.5,55.4,12C59.4,10.6,63.9,10.1,68.7,10.6z M46,6
			c-1.2,0.1-2.5,0.2-3.7,0.4c-1,0.7-1.7,1.9-1.7,3.2c0,2.2,1.8,3.9,4,3.9s4-1.8,4-3.9C48.6,8,47.5,6.6,46,6z"/>
		<path class="st5" d="M55.5,90c-0.7-2-2.6-1.7-4-0.6c-1.2,0.9-0.3,2.6-1.6,3.4l-0.4,0.1c0.5-1.3,0.6-0.9,0.4-2.5
			c-0.2-1.5,1.5-2.7,2.8-3.1c2.2-0.8,3.7,0.2,4.6,2.3c0.1,0.5-0.1,1-0.7,1.1C56.2,90.8,55.7,90.5,55.5,90z M49.2,95
			c0.1,0,0.3,0,0.4,0c-0.4-0.5-0.8-1.1-1.3-1.5c-1-0.8-2.9,0.2-3.8,1.2C46,94.9,47.6,95,49.2,95z M50.6,95c4.7-0.1,9.2-0.9,13.3-2.6
			c-4.2-1.4-7.6-4.3-8.7-10.5c-1.9,3.2-4.8,5.9-8.1,7.7c-3.4,1.8-7.1,2.4-10.5,2c-4-0.4-7.7-2-10.2-4.2c-1.9-1.6-3.3-3.4-4.3-5.1
			c-1-1.7-1.7-3.5-2.2-5.2c-0.1-0.5-0.4-1.1-0.5-1.7l0-0.1c-1.2,1.2-2.5,2.5-3.7,3.7c6.7,8,16.1,13.7,26.8,15.3
			c1.3-2.1,5-3.9,6.8-1.6C50.1,93.9,50.1,94.3,50.6,95z M44,71.1c-0.1,0-0.1-0.1-0.2-0.2c-0.5-1-2.6,0.5-1.8,1c0.2,0.1,0.6,0,0.8,0
			c-0.3,0.3-0.7,0.5-1.1,0.3c-1.4-1,1.5-3.6,2.8-1.7c0.1,0.2,0.1,0.4-0.1,0.5C44.3,71.1,44.1,71.1,44,71.1z M12.8,75.2l2.4-2.4
			c1.1-1.1,7.1-6.7,7.3-7.8c0.4-1.2-0.4-3.9-2.3-2.5c-0.2,0.1-0.4,0.3-0.7,0.6l-0.2,0.2c-0.1,0.1-0.1,0.1-0.2,0.1
			c-2.1,1.9-6,5.9-7.2,7.1c0,0.1-0.1,0.1-0.1,0.2c-0.3,0.3-0.8,0.3-1.1,0c-0.2-0.2-0.3-0.4-0.2-0.7c0.1-0.6,5.3-5.8,7.7-7.9l4.8-4.8
			c0.3-0.3,0.8-0.3,1.1,0c0.3,0.3,0.3,0.8,0,1.1l-2.1,2.1c0.9,0.2,1.6,1,2,2.1c0.8,2.4-0.1,3.6-1.8,5.3c-2.8,2.9-5.6,5.7-8.5,8.5
			c0.3,0.5,0.7,1,1,1.4l1.2-1.2l0.6-0.6c1.1-1.1,6-6.2,6.9-6.6c1.4-0.7,2.3,0.2,3.1,1.2c0.3,0.3,0.2,0.8-0.1,1.1
			c-0.3,0.3-0.8,0.2-1.1-0.1c-1.1-1.3-1.1-1-2.6,0.4c-0.6,0.6-1.2,1.1-1.7,1.7c0.1,0.3,0.2,0.7,0.3,1.1c0.2,0.6,0.4,1.2,0.5,1.6
			c0.5,1.6,1.2,3.3,2.1,4.9c0.9,1.6,2.1,3.1,3.8,4.6c2.2,1.9,5.5,3.4,9.1,3.7c3.1,0.3,6.3-0.1,9.4-1.8c3-1.6,5.6-4.1,7.4-7
			c1.5-2.6,2.3-5.6,1.8-8.7c-0.4-2.5-1.3-4.7-2.8-6.4c-1.4-1.7-3.4-2.9-5.8-3.5c-1.8-0.5-3.6-0.5-5.2,0c-1.7,0.4-3.2,1.3-4.4,2.4
			c-1.2,1.1-2.1,2.6-2.6,4.2c-0.4,1.4-0.4,2.9,0,4.5c0.5,1.9,1.2,3.1,2.2,3.9c1,0.8,2.4,1.3,4.2,1.6c0.7-0.1,1.4-0.2,2.1-0.4
			c1.1-0.4,2-1,2.8-1.8l0,0c0.7-0.8,1.2-1.7,1.4-2.7c0.1-0.7,0-1.5-0.3-2.4c-0.5-1.5-1.6-2.3-2.7-2.5c-0.6-0.1-1.2-0.1-1.7,0
			c-0.5,0.1-1,0.3-1.4,0.6c-0.6,0.5-1,1.1-0.9,2c0.1,0.8,0.6,1.3,1.1,1.5c0.4,0.1,1,0.3,1.4,0c1-0.6,0-2,1-2.1
			c0.7,0.6,0.2,4.4-3.1,3.7c-1.2-0.4-2.1-1.4-2.3-3c-0.1-1.5,0.5-2.8,1.6-3.7c0.6-0.5,1.4-0.8,2.2-1c0.8-0.2,1.7-0.1,2.5,0
			c1.7,0.4,3.2,1.6,4,3.7c0.4,1.2,0.5,2.3,0.4,3.3c-0.2,1.4-0.9,2.7-1.9,3.7l0,0c-1,1-2.2,1.8-3.5,2.3c-1.4,0.5-3,0.7-4.5,0.5
			c-3-0.5-5.7-2.1-7.8-4.3c-2.6-2.6-4.4-5.9-5.5-9.1c-1-3.1-1.4-6.7-1.1-10.1c0.3-3.4,1.3-6.6,3-9.5c0.4-0.7,0.8-1.3,1.3-1.9
			c1.8-2.2,4.2-4.3,6.9-5.4c2.8-1.2,5.8-1.4,8.5,0.2c0.4,0.2,0.7,0.4,1,0.7c1.1,0.9,2,2.2,2.6,3.6c0.5,1.3,0.6,2.8,0.2,4.2
			c-0.6,1.8-1.7,3-3.1,3.7c-0.9,0.4-1.8,0.7-2.7,0.7c-0.9,0-1.8-0.2-2.6-0.7c-0.8-0.5-1.5-1.3-1.7-2.4c-0.3-1.7,0.4-2.7,1.6-3.2
			c2.9-1.4,5,1.8,0.8,1.8c-0.1,0-0.3,0-0.4,0.1c0.2,0.1,0.5,0.2,0.9,0.6c0.4,0.4,1.2,0.4,1.8,0.3c0.4-0.1,0.7-0.3,1-0.5
			c0.3-0.2,0.4-0.5,0.5-0.8s0.1-0.6,0.1-0.7c0-0.1,0-0.1,0-0.1c-1-5-6.3-6-9.7-1.5c-1.8,2.2-1.6,4.5-0.9,6.9c0.7,2.2,2.3,4,4.2,5
			c2.2,1.2,4.9,1.6,7.3,1.2c1.9-0.4,3.6-1.5,5.1-2.9c1.7-1.7,2.9-3.8,3.6-5.9c1-3.3,0.9-6.4-0.1-9.1c-1.1-3-3.2-5.6-6.1-7.7
			c-1.8-1.3-4-2.2-6.2-2.8c-2.4-0.6-5-0.7-7.3-0.4c-3.4,0.4-6.8,1.8-9.8,3.8c-3.4,2.3-6.5,5.3-8.7,8.4c-2.9,4-4.5,7.6-5.6,11.3
			C9.5,57.8,9,62.3,8.5,67.2C9.7,70.1,11,72.6,12.8,75.2z M44.5,45c0.3,0.8,0.4,1.6,0.4,2.5C45,46.7,44.8,45.8,44.5,45z M14.3,61.7
			c2.5-2.3,8.8-8,8.9-9.7c0.1-0.6-0.2-1.7-0.5-2.7l-10.1,9.4c-0.9,0.9,0.7,1.9,1.2,2.4L14.3,61.7z M22.6,46.8
			C22.6,46.7,22.7,46.7,22.6,46.8l4-3.1c0.4-0.3,1-0.2,1.4,0.2c0.3,0.4,0.2,1-0.2,1.4l-3.4,2.6c0.4,1.5,1,3.6,0.7,4.8
			c-0.6,2.6-8,9-10.2,11l0,0l0,0c0,0,0,0,0,0l0,0h0l0,0h0l0,0l0,0l0,0h0l0,0c0,0,0,0,0,0l0,0c0,0,0,0,0,0l0,0h0l0,0h0l0,0h0l0,0h0
			l0,0h0l0,0h0l0,0h0l0,0l0,0l0,0l0,0l0,0l0,0l0,0l0,0l0,0l0,0l0,0l0,0l0,0l0,0l0,0l0,0h0l0,0h0l0,0l0,0l0,0l0,0l0,0l0,0l0,0l0,0h0
			l0,0l0,0l0,0l0,0l0,0l0,0l0,0h0l0,0h0l0,0h0l0,0h0l0,0h0l0,0h0l0,0h0l0,0h0l0,0h0l0,0h0l0,0h0l0,0h0l0,0h0l0,0h0l0,0h0l0,0h0l0,0
			h0l0,0l0,0l0,0l0,0l0,0l0,0l0,0l0,0l0,0l0,0l0,0l0,0l0,0l0,0l0,0l0,0l0,0l0,0l0,0l0,0l0,0l0,0l0,0l0,0l0,0l0,0l0,0l0,0l-1.2-1.2
			c-1.3-1.3-3-2.8-1.5-4.8C11.2,57.3,21.5,47.8,22.6,46.8z M37.8,46c0.1,0.5,0.4,0.7,0.5,1.2c-0.7,0-1-0.2-1.5-0.8
			c-0.1-0.3,0-0.6,0.3-0.7C37.3,45.6,37.7,45.8,37.8,46z M39,45.1c0.1,0.5,0.2,0.7,0.3,1.2c-0.7,0-0.9-0.3-1.3-0.9
			c-0.1-0.3,0.1-0.6,0.4-0.7C38.6,44.7,38.9,44.9,39,45.1z M36.9,47.4c0.1,0.7,0.2,0.7,0.4,1.2c-0.7,0.2-1.1-0.4-1.4-0.9
			c-0.1-0.3,0.1-0.6,0.3-0.7C36.5,47,36.8,47.1,36.9,47.4z M36.2,48.8c0.3,0.8,0.5,0.9,1,1.6c-1.1,0-1.3-0.4-1.9-1.2
			c-0.1-0.3,0-0.6,0.3-0.7C35.8,48.4,36.1,48.5,36.2,48.8z M35.7,50.3c0.1,1,0.4,0.9,1.2,1.1c-1,0.9-1.8,0.2-2.3-0.8
			c-0.1-0.3,0.1-0.6,0.4-0.6C35.4,49.9,35.7,50.1,35.7,50.3z M38,51.9c0,0.7-0.5,1.2-1.1,1.5l0,0c0,0,0,0,0,0l0,0
			c0.1,0.5,0.8,0.4,1.3,0.1c0.2-0.1,0.3-0.2,0.5-0.4c0.1,0.8-0.9,1.5-1.7,1.3c-2.1-0.7,0.1-2,0-2.3c0-0.3,0.2-0.5,0.5-0.6
			C37.8,51.4,38,51.6,38,51.9z M39.1,56.5c-2.9-1.5,0.1-1.8,0.5-2.7l0.1-0.1c0.6,0.5-0.4,1.2-0.8,1.6c0.2,0.1,0.6,0.3,0.7,0.3
			c0.3,0.1,0.4,0.4,0.3,0.7C39.6,56.5,39.3,56.6,39.1,56.5z M38.6,55.4L38.6,55.4C38.6,55.4,38.6,55.4,38.6,55.4z M45.1,55.2
			c-1.5,0.8,0.6,2.4,1,1.2c0.2-0.7-1.4-1.3-0.1-2.5v0.3c-0.1,1.4,1.6,1.4,0.7,2.9c-1.4,2.3-5.3-1.1-2.3-3.2c0.3-0.2,0.8-0.1,1,0.3
			C45.5,54.6,45.4,55,45.1,55.2z M48.2,53.5c-1.1,0.9,1.3,2,1.1,0.9c-0.1-0.3-0.5-0.2-0.8-0.2c0.5-0.9,1.7-0.3,1.5,0.7
			c-0.5,2.3-4.9,0.1-2.7-2.4c0.3-0.3,0.7-0.2,1,0C48.5,52.8,48.5,53.3,48.2,53.5z M43.4,37.6c-0.7-1.5-0.4-2.3,1.3-2.5
			c0.7-0.1,0.8-0.1,1.3-0.1c-1.3-1.1-5.3-1.1-3.9,1.9c0.5,1,1.2,1.4,2,2c-1.3-0.1-2.4-1-2.9-2.2c-1.6-3.7,4.8-4.3,6.2-2
			c1,1.6-1.8,1.9-2.8,2c0,0.1,0.1,0.1,0.1,0.3c0.2,0.4,0.1,0.9-0.3,1.1C44.1,38.1,43.6,38,43.4,37.6z M47.8,38.3
			c1.8-0.2,1.8,1.1,2.5,2.6l0.1,0.3c-1.2,0.2-1.3-1-2-1.5l0,0c0,0,0,0,0,0c-0.1,0.1,0,0-0.1,0.1c-0.4,0.1-0.9-0.1-1-0.5
			C47.2,38.8,47.4,38.4,47.8,38.3z M50.6,40.7c-0.3-1.5-1.3-4.4-3.3-3.1c-1.6,1,0.6,3.2,1.5,3.7l0.8,0.4c-2.7,0.3-5.6-3.8-2.5-5.4
			c2.8-1.4,4.5,1.8,5,4.1c0.1,0.4-0.2,0.8-0.7,0.9C51.1,41.4,50.7,41.1,50.6,40.7z M49.7,44.5c-1.5-3.2,5-3.9,4.3,0.4l-0.4,1.1
			L53.4,45c-0.6-3.2-3-1.7-2.6-1.2c0.2,0.3,0.1,0.7-0.2,1C50.3,45,49.9,44.8,49.7,44.5z M51.7,43.8c0.8,0.1,1.5,0.6,1.6,1.4
			l-0.1,0.7c-0.5-0.4-0.8-0.9-1.3-0.7c-0.4,0-0.7-0.3-0.7-0.7C51,44.1,51.3,43.8,51.7,43.8z M52.3,49.8c0.3,0.5,0.7,1.1,0.4,1.7
			c-0.7,1.3-2-0.5-2.6-1.4c0.1,0.2,0.1,0.5-0.1,0.7c-0.9,1.2-0.1,2.6,1.3,1.5l0.4-0.3c-0.2,3-4.7,1.3-2.8-2c0.2-0.3,0.7-0.4,1-0.1
			c0,0,0.1,0.1,0.1,0.1C50,50,50,49.9,50,49.8c-0.2-0.3-0.1-0.8,0.3-1c0.3-0.2,0.8-0.1,1,0.3c0.1,0.2,0.8,1.5,0.9,1.8
			C52.2,50.7,52.3,50,52.3,49.8z M49.8,46.6c2.6-2.5,5.5,1.7,2.6,3.2l0.2-0.5c0.8-2-0.9-2.8-1.7-1.8c-0.2,0.3-0.7,0.4-1,0.1
			C49.6,47.4,49.5,46.9,49.8,46.6z M52.3,47.8c0.3,0.8,0.3,1.1-0.3,1.6c-0.3-0.2-0.7-0.7-0.8-0.8c-0.2-0.3-0.2-0.7,0.1-1
			C51.6,47.5,52,47.5,52.3,47.8z M52.1,51.1C52,51.1,52,51.1,52.1,51.1C52,51.1,52,51.1,52.1,51.1z M37.4,33.9c0.6,0.1,0.6,0,1-0.1
			c0.1-0.1,0-0.9-0.6-0.9c-1.7-0.1-4.7,2-2,3.8c0.7,0.4,2.1,1,2.8,1.4L36.9,38c-3.4-0.7-4.7-3.6-1.8-5.7c5.2-3.8,7.3,4.2,1.7,3.5
			c-0.5-0.1-0.8-0.7-0.7-1.2C36.3,34.1,36.8,33.8,37.4,33.9z M49.8,66.5c-1.2-1-1.1-0.1-1.2,1c-1.4-1.7,0.1-3.1,2-2
			c0.3,0.2,0.3,0.6,0.1,0.9S50.1,66.7,49.8,66.5z M53.5,71.5c-1.4-1.1-1.3-1.1-2.6-0.1l0.1-0.7c0.6-1.4,2.2-0.7,3.2-0.2
			c0.3,0.2,0.4,0.6,0.1,0.8C54.1,71.6,53.7,71.7,53.5,71.5z M52.9,69.7c-1.4-0.9-1.6-0.4-2.6,0.7c-0.1-2.1,1.5-2.4,3.2-1.7
			c0.3,0.2,0.4,0.5,0.2,0.8C53.6,69.8,53.2,69.9,52.9,69.7z M51.7,68c-1.2-0.5-1.5,0-2.2,1c-0.4-1.9,1-2.5,2.6-2.1
			c0.3,0.1,0.5,0.5,0.3,0.8C52.3,67.9,52,68.1,51.7,68z M43.9,83c-0.2,0.1-0.7,0.4-0.9,0.7c0.4,0.1,1.1,0.1,1.3,0.1
			c0.3,0,0.6,0.3,0.6,0.6c0,0.3-0.3,0.6-0.6,0.6c-0.6,0-1.3-0.1-1.9-0.3c-1.8-0.8,0-2.2,0.8-2.8c0.3-0.2,0.7-0.1,0.8,0.2
			C44.3,82.4,44.2,82.8,43.9,83z M53.6,73.2c-1.3-1.7-1-1.5-2.5-0.4c0.7-2.6,2-1.8,3.4-0.4c0.2,0.2,0.2,0.6,0,0.9
			C54.2,73.5,53.8,73.4,53.6,73.2z M53.3,74.9c-1.2-1.6-0.9-1.5-2.6-0.4c1-2.5,2-1.8,3.4-0.4c0.2,0.2,0.2,0.6-0.1,0.9
			C53.9,75.2,53.5,75.2,53.3,74.9z M53.2,77.3c-1-2.5-1.3-2-3.1-0.8c0.2-0.6,0.2-0.6,0.6-1.1c1.5-1.7,2.8-0.1,3.6,1.4
			c0.1,0.3,0,0.7-0.3,0.8C53.7,77.7,53.4,77.6,53.2,77.3z M49.1,78.5c0.7-1,2.7-3.4,3.9-1.5c1.1,1.8-0.6,4.5-1.5,2.9
			c-0.2-0.4-0.2-0.7-0.2-1.2c0.7,1.8,1.4,1.3,1.1-0.2c-0.4-2-1.3-0.7-2.2,0.6c-0.2,0.3-0.6,0.4-0.8,0.2C49,79.2,48.9,78.8,49.1,78.5
			z M49.7,81.9c0.2,0,0.4,1.1,0.6,0.5c0.2-0.6-0.1-1.2-0.4-1.7c-0.1-0.3,0-0.7,0.3-0.8c0.3-0.1,0.7,0,0.8,0.3
			C52.4,83.8,48.9,83.9,49.7,81.9z M49,80.3c-2.3,1,1,1,0.7,1.6c-0.1,0-1,0-1,0c-2-0.1-1.7-1.7-0.1-2.7c0.3-0.1,0.7,0,0.8,0.3
			C49.5,79.8,49.3,80.2,49,80.3z M47.8,83.2c-3.3,1.3-3.5-1.2-1.4-2.5c0.3-0.1,0.7,0,0.8,0.3c0.1,0.3,0,0.7-0.3,0.8
			c-0.4,0.1-1.4,0.9-0.5,1.1L47.8,83.2z M46.7,84.9c0.5-0.3,1.8-0.8,1.2-1.5l-0.2-0.2c1.5-0.4,1.3,1.4-0.4,2.7
			c-0.3,0.2-0.7,0.1-0.8-0.2C46.3,85.4,46.4,85.1,46.7,84.9z M40,87.4c-1.8,0.9-2.5,1.2-4.5,1.2c1.5-0.8,2.4-1.1,3.8-2.1
			c0.3-0.2,0.7-0.1,0.9,0.1C40.4,86.8,40.3,87.2,40,87.4z M42,86.2c-0.4,1.1-0.7,1.4-1.8,1.6c0.3-0.7,0.6-1,0.6-1.8
			c0.1-0.3,0.4-0.6,0.7-0.5C41.8,85.6,42,85.9,42,86.2z M42.9,86.5c0.9-0.3,1.6-0.9,2.6-1.4c-0.2,1.7-0.5,2.1-1.9,3.1
			c-0.5,0.2-1-0.1-1.2-0.5C42.2,87.3,42.5,86.7,42.9,86.5z M35.4,84.4c-0.1-0.3-0.1-0.6-0.2-0.8c-0.1,0.1-0.2,0.2-0.3,0.4
			c-0.1,0.3-0.5,0.4-0.8,0.2c-0.3-0.1-0.4-0.5-0.2-0.8l0.3-0.4c0.7-0.9,2.8-1.9,3.2-1c0.6,1.2-1.4,0.4-0.9,2.1
			c0.1,0.3-0.1,0.7-0.4,0.8C35.9,84.9,35.5,84.7,35.4,84.4z M37.2,87c-1.8-0.1-2.5-0.5-3.4-2.2c1.4,0.8,1.7,1.2,3.2,1
			c0.3,0,0.6,0.2,0.7,0.5C37.7,86.7,37.5,87,37.2,87z M29.5,81.5c0.4,2.2,4.6,3,3.4,4.2c-0.3,0.3-1.1,0-1.8,0
			c-0.5,0-0.9,0.1-1.3,0.2c-0.3,0.1-0.7-0.1-0.8-0.4c-0.1-0.3,0.1-0.7,0.4-0.8c0.4-0.1,0.7-0.2,1.1-0.3c-1-0.6-1.9-1.2-2.2-2.9
			c0-0.3,0.2-0.6,0.5-0.7C29.2,80.9,29.5,81.1,29.5,81.5z M26.3,75.4c0.6,0.3,0.9-0.7-0.3-1.2c-0.7-0.3-1.2-0.7-1.4-0.8
			c-0.6-0.2-0.9,1.2-0.4,2.2c0.9,2,2.5,3.1,3.2,5.7l0.3,1.7c0,0.3-0.2,0.6-0.6,0.6c-0.3,0-0.6-0.2-0.6-0.6l-0.2-1.5
			c-0.7-2.8-4.6-5.8-3.1-8.4c1.1-1.9,2.4-0.5,3.4-0.1c2.8,1.2,1.5,4.4-0.8,3.4c-0.3-0.2-0.4-0.5-0.2-0.8
			C25.6,75.4,26,75.3,26.3,75.4z M27.9,76.8c1.2,0,3,0.4,2.6,1.9c-0.2,0.9-1.3,1.2-2.1,1.4c-0.3,0.1-0.7-0.2-0.7-0.5
			c-0.1-0.3,0.2-0.7,0.5-0.7c1.7-0.4,1.4-1-0.2-0.9c-0.3,0-0.6-0.2-0.7-0.5C27.3,77.1,27.6,76.8,27.9,76.8z M30.9,80.5
			c0.6-0.2,3.4-1.1,3,0.6c-0.1,0.5-0.7,1.1-1.1,1.5c-0.2,0.2-0.6,0.3-0.9,0.1c-0.2-0.2-0.3-0.6-0.1-0.9c0.3-0.3,0.4-0.4,0.4-0.5
			c-0.3,0.1-0.6,0.2-0.9,0.3c-0.3,0.1-0.7,0-0.8-0.3C30.5,81,30.6,80.6,30.9,80.5z M40.1,83.4c-0.3,0.1-1.6,0.4-0.8,1
			c0.2,0.1,0.4,0.2,0.7,0.2c0.3,0,0.6,0.3,0.5,0.7c0,0.3-0.3,0.6-0.7,0.5c-0.8-0.1-1.5-0.4-1.8-1.2c-0.6-1.5,0.7-2.2,1.9-2.5
			c0.3-0.1,0.7,0.1,0.7,0.5C40.7,83,40.4,83.3,40.1,83.4z M48.2,65.1c-1.7-0.8-1,0.5-0.6,1.8l-0.9-0.8c-1.1-1.5,0.1-2.6,2-2.1
			c0.3,0.1,0.4,0.5,0.3,0.8S48.5,65.2,48.2,65.1z M38.9,65.5c-0.4,0.8,1,1,1.7,1.2l-0.8,0.2c-0.8,0.1-1.5-0.2-1.7-0.7
			c0,0.1,0,0.1,0,0.2c-0.3,0.9,0.4,0.8,1.1,1c-0.8,0.5-1.5,0.4-1.8-0.2c0,0.1,0,0.2-0.1,0.3c-0.7,0.8,0.4,1,0.8,1.1
			c-1,0.8-2.2-0.3-1.6-1.6c0.1-0.2,0.4-0.2,0.6-0.1c0,0,0.1,0.1,0.1,0.1c-0.1-0.2-0.1-0.5-0.1-0.8c0.1-0.2,0.3-0.4,0.5-0.3
			c0.1,0,0.2,0.1,0.3,0.2c-0.1-0.2-0.1-0.6,0.1-0.9c0.1-0.2,0.4-0.3,0.6-0.2C38.9,65,39,65.3,38.9,65.5z M40,64.7
			c-0.7,0.7,0.5,0.7,1.8,1.4c-1.2,0-3.7-0.2-2.4-2c0.2-0.2,0.4-0.2,0.6,0C40.2,64.2,40.2,64.5,40,64.7z M42.5,63.9
			c-1.5,0.7-1.1,0.5,0.5,1.8c-2.4-0.1-3.4-1.4-1-2.9c0.3-0.1,0.7,0,0.8,0.3C42.9,63.4,42.8,63.8,42.5,63.9z M45.7,63.8
			c-2.6,0.1-1.4,0.4-0.1,2.1c-0.7-0.1-1-0.3-1.6-0.8c-1.7-1.5,0-2.3,1.7-2.6c0.3,0,0.6,0.2,0.6,0.6C46.3,63.5,46,63.8,45.7,63.8z
			 M45.9,71.8c-0.4,0-0.3,0-0.7,0.3c-0.4-0.5,0-0.9,0.4-1.1c0.2-0.1,0.5,0.1,0.5,0.3C46.2,71.5,46.1,71.7,45.9,71.8z M45.2,73.2
			c-0.6-0.2,0.5-0.9,0.7-1c0.2-0.1,0.5,0.1,0.5,0.3c0.1,0.2-0.1,0.5-0.3,0.5C45.5,73,45.7,73,45.2,73.2z M45.7,74.3
			c-0.1-0.1-1-0.9-0.5-1.1c0.3,0.1,0.4,0.2,0.9,0.3c0.2,0.1,0.3,0.4,0.2,0.6C46.2,74.3,46,74.4,45.7,74.3z M45.1,75
			c-0.1-0.2-0.4-0.4-0.7-0.6c0.5-0.3,0.7-0.3,1.2,0c0.2,0.1,0.2,0.4,0,0.6C45.6,75.1,45.3,75.1,45.1,75z M44.6,75.9
			c-0.2-0.3-0.5-0.4-0.8-0.7c0.6-0.3,0.8-0.3,1.4,0.1c0.2,0.2,0.2,0.4,0,0.6C45,76.1,44.7,76.1,44.6,75.9z M43.7,76.6
			c-0.2-0.4-0.4-0.5-0.7-0.8c0.5-0.4,1-0.1,1.5,0.3c0.1,0.2,0.1,0.5-0.1,0.6C44.1,76.9,43.8,76.8,43.7,76.6z M42.7,77.1
			c-0.1-0.4-0.4-0.6-0.5-1c0.6-0.2,1.1,0.3,1.4,0.7c0.1,0.2-0.1,0.5-0.3,0.5C43,77.5,42.8,77.3,42.7,77.1z M41.6,77.5
			c0.1-0.7-0.1-0.7-0.2-1.2c0.7,0,0.9,0.6,1.1,1.2c0,0.2-0.2,0.4-0.4,0.4S41.6,77.7,41.6,77.5z M40.4,77.2c0.4-0.4,0.2-0.7,0.3-1.2
			c0.8,0.4,0.7,1.1,0.4,1.7c-0.1,0.2-0.4,0.2-0.6,0.1C40.3,77.6,40.3,77.4,40.4,77.2z M39.3,76.8c0.5,0,0.5-0.6,0.7-1.1
			c0.7,0.7,0.4,1.6-0.4,1.9c-0.2,0.1-0.5-0.1-0.5-0.3C38.9,77.1,39,76.9,39.3,76.8z M38.2,76.2c0.7,0,0.7-0.3,1.1-0.8
			c0.3,0.9-0.2,1.4-1,1.7c-0.2,0-0.4-0.1-0.5-0.4C37.8,76.4,37.9,76.2,38.2,76.2z M37.3,75.2c0.5,0,0.8-0.4,1.2-0.6
			c0.1,0.8-0.4,1.2-1.1,1.5c-0.2,0-0.5-0.1-0.5-0.4C36.9,75.5,37,75.3,37.3,75.2z M36.4,73.9c0.6,0.3,0.7,0,1.2-0.4
			c0.1,1-0.6,1.3-1.5,1.2c-0.2-0.1-0.3-0.3-0.3-0.6C35.9,74,36.2,73.8,36.4,73.9z M35.8,72.3c0.4,0.8,1.1,0.3,1.6,0.1
			c0,1-1.5,1.3-2.4,0.4c-0.1-0.2-0.1-0.5,0.1-0.6C35.4,72.1,35.6,72.1,35.8,72.3z M36.1,70.3c0.5,1.6,0.5,1.5,1.6,1.4
			c-0.1,0.2-0.1,0.2-0.3,0.4c-1.1,0.7-1.9-1-2.2-1.7c0-0.2,0.1-0.4,0.4-0.5C35.8,69.9,36,70.1,36.1,70.3z M36.4,68.6
			c-0.1,1.3,0.1,1.1,1.3,1.6c-1.5,0.4-2-0.2-2.1-1.6c0-0.2,0.2-0.4,0.4-0.4C36.2,68.2,36.4,68.4,36.4,68.6z M19.5,66.3
			c0.4,0.5,1.3-0.4,1.3-0.7c0,0,0.1,0,0.1,0c1-0.1,1.5-1.9,0.4-2.1c-0.7-0.1-1.2,0.9-1.2,1.6c0,0.1,0,0.1,0,0.1
			C19.5,65,18.4,65.2,19.5,66.3z M15.8,69.2c0.7,1.9,1.6,0.2,1.5-0.2c0-0.1,0-0.1-0.1-0.2c0.9-0.1,1.2-0.5,1-0.9
			c0.8,0,2.1-1.4,0.5-1.7c-0.7-0.1-0.8,0-1,0.7c-0.1,0.3-0.1,0.6,0,0.7c-0.1,0-0.3,0-0.5,0c-0.3,0.1-0.4,0.6-0.3,0.9
			C16.4,68.2,15.5,68.4,15.8,69.2z M14.7,70.2c-0.8-0.1-1,0.5-0.5,1.1C15.3,72.8,16.4,70.3,14.7,70.2z M12.9,71.8
			c-0.2,0.1-0.8,0.8-0.4,1.3C13.8,74.5,14.7,71.3,12.9,71.8z M13.8,59.6c0.9,1.6,2.3-0.7,0.7-1.1C13.8,58.3,13.6,59,13.8,59.6z
			 M21.6,52.2c0.9,2,1.5-0.6,1.1-1.2C22.6,50.8,21.2,51.1,21.6,52.2z M20.7,54.4c2.2,0.4,0.6-3.4-0.5-1.3
			C19.8,53.7,20,54.1,20.7,54.4z M18.7,55.4c0.7,1.3,1.7,0.2,1.3-0.7C19.5,53.4,18.3,54.5,18.7,55.4z M17.8,56.8
			c0.4,0.1,0.8-0.3,0.9-0.4c0.1-0.4-0.4-1.5-0.9-1c-0.1,0.1-0.4,0.6-0.3,0.9c-0.4-0.1-1.5,0.7-1.8,1c-0.6,0.7,0.4,1.5,0.7,1.5
			C16.6,58.7,17.9,57.6,17.8,56.8z M11.9,55.3c-0.2-1-0.3-1.4,0.3-2.2c0.4,0.6,0.5,1,1,1.6c0.1,0.4,0,0.8-0.3,0.9
			C12.5,55.8,12,55.6,11.9,55.3z M14.8,52.7c-2-0.4-1.9-2.7-1-4l0.7-0.7c0,0.6-0.5,3.3,0.4,3.2c0.4,0,0.8,0.4,0.7,0.9
			C15.6,52.5,15.2,52.8,14.8,52.7z M18.3,45.8c-1.8-0.3-1.4,2.2,0.1,1.3c0.5-0.3,0.5-0.9,0.4-1.3C18.7,45.8,18.5,45.8,18.3,45.8z
			 M19.3,45.2c0.5,0.7,0.7,2.3-0.5,3c-3.5,2-5-4.5-0.2-4.3c0.5,0.1,0.9,0.6,0.8,1.1C19.4,45.1,19.4,45.1,19.3,45.2z M22,42.3
			c0.2-2.6-2.3-0.6-1.3,0.6c0.9,1.2,3.8,0.7,5.1,0.7C25,44,25.1,44,24.2,44.2c-5.6,1.3-6.2-3.4-3.4-4.5c2-0.7,2.7,1,2.7,2.7
			c0,0.4-0.4,0.8-0.9,0.7C22.3,43.1,22,42.7,22,42.3z M31.9,34.1c0.1,1.5,0.1,3.3-1.8,3.6c-2.7,0.4-0.9,1.7,1,1.8
			c6.2,0.5-3.8-0.4,2.7,0.2c-1.4,0.4-1.3,0.5-2.7,0.6c-1.6,0.1-4.3-0.7-3.4-2.6c1-2.1,2.9,0,2.6-2.7c-1.9,0.1-3.4,1.3-3.9,3.2
			c-0.8,3,2.6,3.4,4.6,3.7L29.6,42c-3.7,0.1-5.4-2.9-3.6-6c1.2-2,2.8-2.7,4.9-2.8c0.1,0,0.3,0,0.4,0l0,0c0,0,0,0,0,0
			c0.1,0,0.1,0.1,0.2,0.1l0,0l0,0l0,0l0,0c0.1,0.1,0.2,0.2,0.2,0.3l0,0l0,0l0,0l0,0l0,0C31.8,33.9,31.9,33.9,31.9,34.1z M40.4,44.8
			c0.8,0,0.9,0.2,2.1,1c-1.7,0.1-1,0-2.1,0.1c-0.3,0-0.5-0.2-0.5-0.5C39.9,45.1,40.1,44.8,40.4,44.8z M41.3,55.5L41.3,55.5
			L41.3,55.5c-0.8-0.1-0.9,1.5,0.4,1.5c0.4,0,0.7-0.9,0.1-1.6C41.7,55.5,41.5,55.6,41.3,55.5z M42,55c0.8,0.5,1.1,2.7-0.4,2.7
			c-2.5-0.1-2-3.6,0-3.2C41.9,54.6,42,54.8,42,55z M11.8,66.1c-1.3-1.7-1.6-2-1.5-4.1c1.1,1,1.7,1.8,2.9,2.7c0.4,0.4,0.4,1,0.1,1.4
			C12.8,66.4,12.2,66.5,11.8,66.1z M19.3,78.8c0.9,0.8,1.1,1,1.1,2.2c-0.8-0.4-1.1-0.7-1.9-1.1c-0.3-0.2-0.4-0.6-0.2-1
			C18.5,78.7,19,78.6,19.3,78.8z M52.3,93.4c1.6-0.1,3.3,0,4.4-1.8l0.2-0.5c0.2-0.5,0.7-0.7,1.2-0.5c0.5,0.2,0.7,0.7,0.5,1.2
			l-0.5,0.8C56.7,94.4,53,95,52.3,93.4z M53.8,91.7c-0.1-1.4-2.3,0.1-1.8,1.2l0.2,0.3l0.1,0.3c-0.4,0.1-0.4,0.1-0.8-0.2
			c-2.1-1.8,2.9-6.1,4.2-1.9c0.1,0.5-0.2,1-0.7,1.1C54.4,92.5,53.9,92.2,53.8,91.7z"/>
		<path class="st5" d="M84,41H59.7c0.4,1,0.9,1.9,1.5,2.8h21.4C83.1,42.9,83.6,42,84,41z M62.3,45.2c0.5,0.5,1,1,1.6,1.5h15.9
			c0.6-0.4,1.1-0.9,1.6-1.5H62.3z M66.3,48.1c1.7,0.8,3.6,1.3,5.6,1.3s3.9-0.4,5.6-1.3H66.3z"/>
		<path class="st5" d="M71.3,39.4c0.2,0.2,0.7,0.2,0.9,0.1c0.2-0.1,0.3-0.2,0.3-3.1c0-2.9,0-8.5-0.1-11.8c-0.1-3.3-0.3-4.4-0.4-4.9
			c-0.1-0.5-0.2-0.6-0.4-0.3c-0.1,0.3-0.4,0.8-0.5,1.3c-0.1,0.5-0.1,1-0.2,4s0,8.4,0,11.3C71,38.9,71.1,39.3,71.3,39.4z"/>
		<path class="st5" d="M67.3,85.7c0.9,0,1.7-0.7,1.7-1.6c0-0.9-0.7-1.6-1.7-1.6c-0.9,0-1.7,0.7-1.7,1.6C65.6,85,66.4,85.7,67.3,85.7
			z M67.3,87.3c1,0,1.9-0.4,2.5-1c0.6-0.6,1-1.4,1-2.3c0-0.9-0.4-1.7-1-2.3c-0.6-0.6-1.5-1-2.5-1c-1,0-1.9,0.4-2.5,1
			c-0.6,0.6-1,1.4-1,2.3c0,0.9,0.4,1.7,1,2.3C65.5,87,66.4,87.3,67.3,87.3z M71.1,87.8c-1,0.9-2.3,1.5-3.8,1.5s-2.8-0.6-3.8-1.5
			c-1-1-1.6-2.2-1.6-3.7c0-1.4,0.6-2.7,1.6-3.7c1-0.9,2.3-1.5,3.8-1.5s2.8,0.6,3.8,1.5c1,1,1.6,2.2,1.6,3.7
			C72.7,85.5,72.2,86.8,71.1,87.8z M67.5,90.9c1.7-0.8,3.3-1.7,4.9-2.7c0.9-1.2,1.4-2.6,1.4-4.2c0-1.9-0.8-3.6-2-4.9
			c-1.2-1.2-3-2-4.9-2c-0.7,0-1.4,0.1-2,0.3c-0.8,0.2-1.5,0.6-2.1,1.1c-0.3,0.2-0.5,0.4-0.8,0.7c-1.2,1.2-2,3-2,4.9
			c0,1.9,0.8,3.6,2,4.9c1.2,1.2,3,2,4.9,2C67.1,91,67.3,91,67.5,90.9z"/>
		<path class="st6" d="M92.6,56.6c-0.1,0.5-0.1,1-0.2,1.5c-0.8,0.6-1.6,1.3-2.3,1.9c-1.5,1.3-2.7,2.4-3.9,3.6
			c-0.2,0.2-0.5,0.5-0.7,0.7c-0.7,0.7-1.5,1.5-2.3,2.1c-0.8,0.7-1.6,1.4-2.3,2s-1.5,1.1-2.3,1.6c-0.7,0.4-1.4,0.9-2.1,1.2l0,0
			c-0.7,0.4-1.4,0.6-2,0.9c-0.7,0.3-1.4,0.5-2.2,0.7c-0.4,0.1-0.9,0.3-1.4,0.4c-1.2,0.4-2.6,0.7-3.9,1.2c-1,0.4-1.9,0.7-2.8,1.2
			c-1.4,0.4-2.6,1.2-3.6,2.2c-1.6,1.6-2.6,3.8-2.6,6.2c0,2.4,1,4.6,2.6,6.2c1,0.9,2.1,1.7,3.4,2.1c-1.4-0.4-2.7-1.1-3.8-1.9l0,0
			c-0.1,0-0.1-0.1-0.2-0.1l0,0c-0.1,0-0.1-0.1-0.1-0.1l0,0c-0.1,0-0.1-0.1-0.1-0.1l0,0c-0.1,0-0.1-0.1-0.1-0.1l0,0
			c-1.5-1.2-2.7-2.9-3.5-5.1c0-0.1-0.1-0.1-0.1-0.2s-0.1-0.1-0.1-0.2c0-0.1-0.1-0.2-0.1-0.2c0-0.1-0.1-0.2-0.1-0.3s-0.1-0.2-0.1-0.3
			c0-0.1-0.1-0.2-0.1-0.3c0-0.1-0.1-0.2-0.1-0.3c0-0.1,0-0.2-0.1-0.3c0-0.1,0-0.2-0.1-0.3c0-0.1,0-0.2-0.1-0.3c0-0.1,0-0.2-0.1-0.3
			c0.2-0.5,0.4-1.1,0.8-1.5c0.7-0.7,1.3-1.5,2-2.1c0.7-0.7,1.3-1.3,1.8-1.8c0.5-0.5,1.1-0.9,1.6-1.2c0.5-0.4,1-0.6,1.5-0.9
			c0.5-0.3,1.1-0.5,1.7-0.7c0.6-0.2,1.2-0.4,1.9-0.6c0.7-0.2,1.4-0.3,2.1-0.5c0.7-0.1,1.4-0.3,2-0.4c0.7-0.2,1.4-0.4,2.1-0.6
			c0.7-0.2,1.4-0.5,2.1-0.9c0.7-0.3,1.4-0.7,2.1-1.2c0.7-0.4,1.4-0.9,2.1-1.4c0.7-0.5,1.4-1.1,2.2-1.7c0.8-0.6,1.6-1.3,2.4-2.1
			c1-0.8,2.3-2,3.4-3.1c0.5-0.5,1-1,1.9-1.7c0.8-0.7,1.4-1.2,2-1.7C91.5,57.4,92,57,92.6,56.6z M91.8,61.1
			c-2.4,10.1-8.3,18.9-16.2,25c0.1-0.7,0.2-1.3,0.2-2c0-2.4-1-4.6-2.6-6.2c-1-1-2.3-1.8-3.6-2.2c0.6-0.2,1.2-0.4,1.8-0.5
			c0.5-0.1,1-0.3,1.4-0.4c0.8-0.2,1.6-0.5,2.3-0.8c0.7-0.3,1.5-0.6,2.2-1l0,0c0.7-0.4,1.5-0.8,2.3-1.3c0.8-0.5,1.6-1.1,2.4-1.7
			c0.8-0.6,1.6-1.3,2.5-2.1s1.6-1.5,2.3-2.2c0.2-0.2,0.5-0.5,0.7-0.7c1.2-1.1,2.3-2.2,3.8-3.5C91.4,61.4,91.6,61.2,91.8,61.1z
			 M93,52.6c0,0.5-0.1,1-0.1,1.6c-0.4,0.3-0.9,0.6-1.3,0.9c-0.7,0.4-1.2,0.9-1.8,1.4c-0.7,0.5-1.3,1.1-2,1.8c-0.3,0.2-1.1,1-1.9,1.8
			c-1.1,1-2.2,2-3.4,3.1c-0.9,0.8-1.7,1.4-2.4,2c-0.7,0.6-1.4,1.1-2.1,1.6c-0.7,0.5-1.3,0.9-2,1.3c-0.7,0.4-1.3,0.7-1.9,1
			s-1.3,0.6-1.9,0.8s-1.3,0.4-1.9,0.6c-0.7,0.2-1.3,0.3-1.9,0.4c-0.7,0.2-1.5,0.3-2.2,0.5c-0.7,0.2-1.4,0.4-2,0.6
			c-0.7,0.2-1.3,0.5-1.9,0.8c-0.6,0.3-1.2,0.6-1.8,1c-0.6,0.4-1.2,0.9-1.8,1.4c-0.4,0.4-0.8,0.7-1.2,1.2c0.1-0.7,0.2-1.4,0.2-2.2
			c0.7-0.4,1.3-0.9,1.8-1.2c0.7-0.5,1.5-1,2.2-1.4c1.5-0.8,3-1.5,3.7-1.8l0.5-0.2c0.1,0,0.2,0,0.2,0c2.1,0.1,4.2-0.6,6-2.1l0.1-0.1
			c0.4-0.4,0.8-0.8,1.2-1.2c1.4-0.5,2.7-1.1,4.1-1.7c0.7-0.3,1.4-0.7,2.1-1.1c0.7-0.4,1.4-0.8,2-1.2c0.7-0.4,1.3-0.9,2-1.4
			c0.7-0.5,1.3-1,1.9-1.6c0.9-0.8,1.7-1.6,2.4-2.4c0.3-0.3,0.5-0.5,0.8-0.8c0.5-0.5,0.9-0.9,1.3-1.2c0.4-0.4,0.8-0.7,1.2-1
			c0.4-0.3,0.7-0.5,1-0.7C92.3,52.9,92.6,52.7,93,52.6z M36.9,42.3c2.3-1,4.7-1.1,6.8,0.1c0.3,0.2,0.6,0.4,0.8,0.6
			c0.9,0.7,1.5,1.7,2,2.8c0.4,1,0.4,2,0.1,2.9c-0.4,1.2-1.2,2-2.1,2.5c-0.6,0.3-1.2,0.4-1.8,0.4c-0.1,0-0.1,0-0.1,0l0,0
			c-2.8-0.1-3.3-2.9-2-2.6c0,0,0.1,0,0.1,0h0c0,0,0,0,0.1,0h0c0,0,0,0,0.1,0h0c0,0,0.1,0,0.1,0l0,0c0,0,0.1,0,0.1,0l0,0
			c0,0,0.1,0,0.1,0.1l0,0c0,0,0.1,0,0.1,0.1l0,0c0,0,0.1,0.1,0.1,0.1l0,0c0,0,0.1,0.1,0.1,0.1l0,0c0,0,0.1,0.1,0.1,0.1
			c0.4,0.4,1.2,0.4,1.8,0.3c0.4-0.1,0.7-0.3,1-0.5c0.3-0.2,0.4-0.5,0.5-0.8c0.1-0.3,0.1-0.6,0.1-0.7c0,0,0-0.1,0-0.1l0,0l0,0v0l0,0
			l0,0l0,0l0,0c0-0.1,0-0.1,0-0.2l0,0c0-0.1,0-0.1,0-0.2c0,0,0-0.1,0-0.1l0,0c0,0,0-0.1,0-0.1v0c0,0,0-0.1,0-0.1l0,0
			c0,0,0-0.1,0-0.1l0,0c0,0,0-0.1,0-0.1l0,0v0c0,0,0-0.1,0-0.1v0c0,0,0-0.1,0-0.1v0c0,0,0-0.1,0-0.1l0,0v0c0,0,0-0.1,0-0.1v0
			c0,0,0-0.1,0-0.1v0c0,0,0,0,0-0.1V46v-0.1v-0.1v-0.1c0,0,0,0,0-0.1v-0.1c0,0,0,0,0-0.1v-0.1v-0.1v-0.1c0,0,0,0,0-0.1v-0.1
			c0,0,0,0,0-0.1v0c0,0,0,0,0-0.1l0-0.1l0-0.1l0,0c0,0,0,0,0-0.1c-0.5-1.2-1.5-2.3-2.8-2.6c-1.3-0.3-2.6-0.3-3.7,0.1
			c-1.4,0.4-2.6,1.3-3.6,2.4c-1,1.1-1.6,2.5-2,3.9c-0.4,1.6-0.4,3.2,0.1,4.8c0.8,2.8,2.8,4.8,5.2,6.1c0.8,0.4,1.6,0.8,2.5,1
			c-1.6,0.6-3,1.4-4.2,2.6c-1.5,1.4-2.6,3.1-3.1,5c-0.5,1.7-0.5,3.5,0,5.5c0.1,0.6,0.3,1.2,0.5,1.7c-0.1-0.1-0.3-0.3-0.5-0.4
			c-2.3-2.3-4.1-5.4-5-8.3c-1-2.9-1.3-6.1-1-9.3c0.3-3.1,1.2-6.1,2.7-8.7c0.3-0.6,0.7-1.2,1.2-1.7C32.4,45.1,34.5,43.3,36.9,42.3z
			 M39.8,28.5C47.1,15.5,58,10.3,72.7,12.9C82.3,19.1,89.4,29,92,40.6c-0.5,0.2-0.9,0.4-1.3,0.6c-0.5,0.3-0.9,0.5-1.3,0.8
			c-0.4,0.3-0.8,0.6-1.2,1c-0.4,0.4-0.8,0.8-1.2,1.3c-0.5,0.7-1,1.4-1.5,2.2c-0.2,0.4-0.5,0.7-0.7,1.1c-0.4,0.6-0.8,1.1-1.2,1.7
			c-0.4,0.5-0.8,1-1.3,1.5c-0.4,0.4-0.8,0.8-1.2,1.2l0,0c-0.4,0.4-0.9,0.7-1.3,1c-0.5,0.3-1,0.5-1.4,0.8c-0.5,0.2-1,0.4-1.5,0.6
			c-0.4,0.1-0.9,0.3-1.3,0.4s-0.9,0.1-1.4,0.1c-0.5,0-1-0.1-1.6-0.2c-0.6-0.1-1.2-0.2-1.7-0.3c-0.9-0.4-1.8-0.6-2.8-0.6
			c-2.1-0.1-4.2,0.6-6,2.1l-0.1,0.1c-1.7,1.5-2.7,3.4-3,5.4c-0.3,2,0.2,4.1,1.6,5.7c0,0,0,0,0.1,0.1c0.7,0.8,1.5,1.4,2.3,1.8
			c-0.7,0.3-1.5,0.7-2.3,1.2c-0.8,0.4-1.6,0.9-2.3,1.4c-0.3,0.2-0.6,0.4-0.9,0.6c-0.4-2.9-1.5-5.3-3.2-7.3c-1.5-1.8-3.6-3.2-6.1-4
			c1.6-0.6,3.1-1.7,4.4-3c1.9-1.9,3.3-4.3,4-6.7c1.2-3.7,1-7.2-0.1-10.4c-1.2-3.4-3.6-6.3-6.8-8.6c-2-1.5-4.4-2.5-6.9-3.1
			C41.6,28.7,40.7,28.6,39.8,28.5z M67.8,55.5c1.6,0.1,3.1,0.7,4.1,1.9c0,0,0,0,0.1,0.1c1,1.2,1.4,2.7,1.2,4.2
			c-0.2,1.5-1,3.1-2.3,4.2c0,0,0,0-0.1,0.1c-1.4,1.2-3.1,1.7-4.7,1.7c-1.6-0.1-3.1-0.7-4.1-1.9c0,0,0,0-0.1-0.1
			c-1-1.2-1.4-2.7-1.2-4.2c0.2-1.5,1-3.1,2.3-4.2c0,0,0,0,0.1-0.1C64.5,56,66.2,55.4,67.8,55.5z M71.2,59.2c-1.2-2-4-2.6-6.2-1.4
			c-2.3,1.3-3.1,4-1.9,6.1c1.2,2,4,2.6,6.2,1.4C71.5,63.9,72.4,61.2,71.2,59.2z M65.2,59.3c1.3-1.1,3.2-1.1,4.2,0.1
			c1,1.2,0.8,3.1-0.5,4.2c-1.3,1.1-3.2,1.1-4.2-0.1C63.7,62.4,63.9,60.5,65.2,59.3z M31.4,57.7c-0.8-0.2-1.5,0-2.1,0.4
			c-0.4,0.3-0.7,0.7-0.9,1.2c-0.2,0.4-0.2,1-0.2,1.5c0.1,0.9,0.5,1.8,1.5,2.5c0.4,0.3,1,0.4,1.5,0.4c0.5,0,1-0.1,1.4-0.3
			c0.5-0.2,0.9-0.5,1.2-0.9c0.2-0.4,0.4-0.7,0.4-1.2c0-1-0.2-1.8-0.7-2.4C33,58.4,32.3,57.9,31.4,57.7z M93,48.6c0,0.6,0,1.2,0,1.7
			c-0.2,0.1-0.5,0.3-0.9,0.5c-0.4,0.2-0.7,0.4-1.1,0.6c-0.4,0.2-0.8,0.5-1.2,0.8c-0.4,0.3-0.8,0.7-1.3,1.1c-0.4,0.4-0.9,0.8-1.4,1.3
			c-0.3,0.3-0.5,0.5-0.8,0.8c-0.7,0.7-1.5,1.5-2.4,2.3c-0.6,0.5-1.2,1-1.8,1.5c-0.6,0.5-1.2,0.9-1.8,1.3s-1.2,0.8-1.9,1.2
			c-0.6,0.4-1.3,0.7-2,1c-0.6,0.3-1.2,0.5-1.8,0.8c0.2-0.5,0.3-1,0.4-1.5c0.1-0.4,0.1-0.7,0.1-1.1c0.2-0.1,0.5-0.1,0.7-0.2
			c0.5-0.1,1.1-0.3,1.7-0.5c0.6-0.2,1.2-0.5,1.8-0.8c0.6-0.3,1.2-0.7,1.8-1.1c0.6-0.4,1.3-0.8,1.9-1.3c0.6-0.4,1.2-0.9,1.8-1.5
			c0.8-0.7,1.6-1.5,2.3-2.2c0.3-0.3,0.7-0.7,1-1c0.4-0.4,0.8-0.8,1.2-1.1c0.4-0.4,0.9-0.7,1.5-1.1C91.4,49.7,92.2,49.1,93,48.6z
			 M67.8,60.9c-0.3-0.4-0.9-0.4-1.3,0s-0.5,0.9-0.2,1.3c0.3,0.4,0.9,0.4,1.3,0.1C68.1,61.9,68.1,61.3,67.8,60.9z M30.5,59.7
			c0.1-0.1,0.3-0.1,0.5-0.1l0,0c0.1,0,0.2,0,0.3,0.1c-0.1,0.1-0.2,0.2-0.4,0.4c-0.2,0.3-0.1,0.7,0.2,0.8c0.3,0.2,0.7,0.1,0.8-0.2
			c0.1-0.1,0.1-0.2,0.2-0.3c0.1,0.2,0.1,0.5,0.1,0.9c0,0.1,0,0.1-0.1,0.1c-0.1,0.1-0.2,0.2-0.3,0.2c-0.2,0.1-0.4,0.1-0.6,0.1
			c-0.2,0-0.4,0-0.4-0.1c-0.4-0.3-0.6-0.7-0.6-1.1c0-0.2,0-0.4,0.1-0.6C30.4,59.9,30.5,59.8,30.5,59.7z M92.3,42.5
			c0.2,1.3,0.4,2.6,0.5,3.9c-0.9,0.6-2.2,1.4-3.2,2.1c-0.6,0.4-1.1,0.8-1.6,1.2c-0.5,0.4-0.9,0.8-1.4,1.2c-0.3,0.3-0.6,0.6-1,1
			c-0.7,0.7-1.5,1.5-2.2,2.1c-0.5,0.5-1.1,0.9-1.6,1.3c-0.6,0.4-1.2,0.9-1.8,1.2c-0.6,0.4-1.2,0.7-1.7,1c-0.5,0.3-1.1,0.5-1.5,0.7
			c-0.5,0.2-1,0.3-1.5,0.5c-0.2,0-0.4,0.1-0.5,0.1c-0.2-0.8-0.6-1.6-1.1-2.3c0.1,0,0.1,0,0.2,0c0.6,0,1.2,0,1.8-0.1
			c0.5-0.1,1.1-0.2,1.6-0.4c0.5-0.2,1.1-0.4,1.7-0.7c0.6-0.3,1.1-0.6,1.6-0.9c0.5-0.3,1-0.7,1.5-1.1l0,0c0.5-0.4,1-0.9,1.5-1.3
			s0.9-1,1.4-1.6c0.4-0.6,0.9-1.2,1.3-1.8c0.3-0.4,0.5-0.7,0.8-1.1c0.5-0.7,1-1.5,1.5-2c0.3-0.4,0.7-0.8,1-1.1
			c0.3-0.3,0.7-0.6,1-0.8c0.4-0.3,0.7-0.5,1.1-0.7C91.8,42.8,92,42.6,92.3,42.5z M57.8,39.6c1.5,6.4,7.2,11.2,14,11.2
			c6.9,0,12.6-4.8,14-11.2C85.9,39.6,57.8,39.6,57.8,39.6z M72.2,21.8c-0.4-0.6-0.5-0.6-1-0.1c-0.5,0.5-1.4,1.6-3,4.3
			c-1.6,2.6-4,6.8-5.3,9.1c-1.3,2.3-1.5,2.6-1.5,2.8s0.1,0.3,3.3,0.4c3.1,0.1,9.2,0.1,12.6,0c3.5-0.1,4.3-0.1,4.8-0.3
			c0.4-0.1,0.3-0.4-1-2.6c-1.4-2.2-4-6.4-5.8-9.1C73.5,23.6,72.7,22.4,72.2,21.8z M52,22.7c-0.3,0-0.6,0.1-0.9,0.2
			c-0.3,0.2-0.6,0.4-0.8,0.8c-0.2,0.3-0.4,0.7-0.6,1.2c-2.1-0.6-3.4,0-4,1.9h11.7c-0.1-0.2-0.2-0.5-0.3-0.7
			c-0.1-0.2-0.4-0.5-0.6-0.7c-0.2-0.2-0.5-0.3-0.8-0.4c-0.3-0.1-0.6-0.2-0.9-0.3c-0.3-0.1-0.5-0.2-0.7-0.3c-0.1-0.1-0.3-0.2-0.4-0.4
			c-0.1-0.2-0.3-0.5-0.5-0.7S53,23,52.8,22.8C52.6,22.8,52.3,22.7,52,22.7z M64.9,17.5c-0.6,0-1.2,0.3-1.5,0.8
			c-0.4,0.5-0.4,1.1-0.5,1.7c-1.8-1-3.4-0.6-3.8,1.5h5.9v-1.6h2.5c0-0.3-0.1-0.4-0.2-0.7c-0.1-0.3-0.4-0.7-0.8-1
			C66,17.8,65.4,17.5,64.9,17.5z"/>
	</g>
	<g id="Layer_1_2_">
		<path class="st7" d="M51.2,3C25.1,3,4,24.6,4,51.3c0,41.3,42.9,72.6,44.7,73.9c1.5,1.1,3.4,1.1,4.9,0c1.8-1.3,44.7-32.5,44.7-73.9
			C98.4,24.6,77.2,3,51.2,3"/>
	</g>
	<g id="Layer_2">
		<path class="st1" d="M52.6,22.5C51.5,21,51.3,21,50,22.4c-1.2,1.3-3.4,4.1-7.4,10.8S32.7,50.3,29.5,56c-3,5.6-3.5,6.5-3.5,7
			s0.4,0.8,8,0.9c7.7,0.1,22.5,0.1,31,0c8.5-0.1,10.6-0.4,11.7-0.8c1-0.4,0.8-1-2.6-6.5c-3.3-5.6-9.9-16.2-14.1-23
			C55.7,26.9,53.7,24,52.6,22.5z"/>
		<path class="st1" d="M17.2,67.2c3.6,16.1,17.7,28.2,34.5,28.2s30.9-12.1,34.5-28.2H17.2z"/>
		<path class="st0" d="M81.5,70.7H21.9c0.9,2.5,2.1,4.8,3.6,6.9H78C79.4,75.5,80.6,73.2,81.5,70.7z M28.3,81.3
			c1.2,1.3,2.6,2.6,3.9,3.7h39c1.4-1.1,2.7-2.3,3.9-3.7H28.3z M38,88.7c4.2,2,8.8,3.2,13.7,3.2s9.6-1.1,13.7-3.2H38z"/>
		<path class="st0" d="M50.8,63.3c0.5,0.4,1.4,0.4,1.9,0.2s0.6-0.5,0.7-6.5c0.1-6.1,0.1-17.9-0.1-24.9c-0.2-7-0.6-9.3-0.9-10.4
			c-0.3-1.1-0.5-1.2-0.8-0.6s-0.7,1.8-1,2.8c-0.2,1.1-0.3,2.1-0.4,8.4s-0.1,17.8,0,23.8C50.2,62.3,50.3,63,50.8,63.3z"/>
	</g>
</g>
</svg>
