<?xml version="1.0" encoding="utf-8"?>
<!-- Generator: Adobe Illustrator 21.0.0, SVG Export Plug-In . SVG Version: 6.00 Build 0)  -->
<svg version="1.1" xmlns="http://www.w3.org/2000/svg" xmlns:xlink="http://www.w3.org/1999/xlink" x="0px" y="0px"
	 viewBox="0 0 98.4 127" style="enable-background:new 0 0 98.4 127;" xml:space="preserve">
<style type="text/css">
	.st0{fill:#4795A3;stroke:#242B3D;stroke-width:4;stroke-linejoin:round;stroke-miterlimit:10;}
	.st1{fill:#FFFFFF;}
	.st2{fill:#242B3D;}
</style>
<g id="Layer_1">
	<path class="st0" d="M49.2,2C23.1,2,2,23.6,2,50.3c0,41.3,42.9,72.6,44.7,73.9c1.5,1.1,3.4,1.1,4.9,0c1.8-1.3,44.7-32.5,44.7-73.9
		C96.4,23.6,75.2,2,49.2,2"/>
</g>
<g id="Layer_2">
	<path class="st1" d="M50.6,21.5c-1.1-1.5-1.3-1.5-2.6-0.1c-1.2,1.3-3.4,4.1-7.4,10.8s-9.9,17.1-13.1,22.8C24.5,60.6,24,61.5,24,62
		c0,0.5,0.4,0.8,8,0.9c7.7,0.1,22.5,0.1,31,0c8.5-0.1,10.6-0.4,11.7-0.8c1-0.4,0.8-1-2.6-6.5C68.8,50,62.2,39.4,58,32.6
		C53.7,25.9,51.7,23,50.6,21.5z"/>
	<path class="st1" d="M15.2,66.2c3.6,16.1,17.7,28.2,34.5,28.2s30.9-12.1,34.5-28.2C84.2,66.2,15.2,66.2,15.2,66.2z"/>
	<path class="st2" d="M79.5,69.7H19.9c0.9,2.5,2.1,4.8,3.6,6.9H76C77.4,74.5,78.6,72.2,79.5,69.7z M26.3,80.3
		c1.2,1.3,2.6,2.6,3.9,3.7h39c1.4-1.1,2.7-2.3,3.9-3.7H26.3z M36,87.7c4.2,2,8.8,3.2,13.7,3.2s9.6-1.1,13.7-3.2H36z"/>
	<path class="st2" d="M48.8,62.3c0.5,0.4,1.4,0.4,1.9,0.2c0.5-0.2,0.6-0.5,0.7-6.5c0.1-6.1,0.1-17.9-0.1-24.9
		c-0.2-7-0.6-9.3-0.9-10.4c-0.3-1.1-0.5-1.2-0.8-0.6c-0.3,0.6-0.7,1.8-1,2.8c-0.2,1.1-0.3,2.1-0.4,8.4s-0.1,17.8,0,23.8
		C48.2,61.3,48.3,62,48.8,62.3z"/>
</g>
</svg>
