<?xml version="1.0" encoding="utf-8"?>
<!-- Generator: Adobe Illustrator 21.0.0, SVG Export Plug-In . SVG Version: 6.00 Build 0)  -->
<svg version="1.1" id="Layer_1" xmlns="http://www.w3.org/2000/svg" xmlns:xlink="http://www.w3.org/1999/xlink" x="0px" y="0px"
	 viewBox="0 0 68 68" style="enable-background:new 0 0 68 68;" xml:space="preserve">
<style type="text/css">
	.st0{fill:none;}
	.st1{fill:#FFFFFF;}
	.st2{fill:#3A7AAF;}
</style>
<title>lodging.svg</title>
<rect x="3.8" y="3.8" class="st0" width="60.4" height="60.4"/>
<g>
	<path class="st1" d="M16.2,66.1c-7.8,0-14.3-6.4-14.3-14.3V16.2c0-7.8,6.4-14.3,14.3-14.3h35.7c7.8,0,14.3,6.4,14.3,14.3v35.7
		c0,7.8-6.4,14.3-14.3,14.3H16.2V66.1z"/>
	<path class="st2" d="M51.9,3.8c6.8,0,12.4,5.6,12.4,12.4v35.7c0,6.8-5.6,12.4-12.4,12.4H16.2c-6.8,0-12.4-5.6-12.4-12.4V16.2
		c0-6.8,5.6-12.4,12.4-12.4L51.9,3.8 M51.9,0H16.2C7.3,0,0,7.3,0,16.2v35.7C0,60.7,7.3,68,16.2,68h35.7C60.7,68,68,60.7,68,51.9
		V16.2C68,7.3,60.7,0,51.9,0L51.9,0z"/>
</g>
<path class="st2" d="M34.5,10.3C24.3,10.3,14,11.6,14,20.6v24.3c0,4.9,4,9,9,9L20,56.8c-0.5,0.5-0.5,1.3,0,1.8
	c0.2,0.2,0.6,0.4,0.9,0.4h2.8c0.3,0,0.7-0.1,0.9-0.4l4.7-4.7h10.3l4.7,4.7c0.2,0.2,0.6,0.4,0.9,0.4h2.8c1.2,0,1.7-1.4,0.9-2.2
	L46,53.9c4.9,0,9-4,9-9V20.6C55,11.6,44.8,10.3,34.5,10.3 M23,48.8c-2.1,0-3.8-1.7-3.8-3.8c0-2.1,1.7-3.8,3.8-3.8s3.8,1.7,3.8,3.8
	C26.8,47,25.1,48.8,23,48.8 M31.9,30.8H19.1V20.6h12.8V30.8z M46,48.8c-2.1,0-3.8-1.7-3.8-3.8c0-2.1,1.7-3.8,3.8-3.8
	s3.8,1.7,3.8,3.8C49.9,47,48.2,48.8,46,48.8 M49.9,30.8H37.1V20.6h12.8V30.8z"/>
</svg>
