<?xml version="1.0" encoding="UTF-8"?>
<svg xmlns="http://www.w3.org/2000/svg" viewBox="0 0 692.53 281.3">
  <defs>
    <style>
      .cls-1 {
        fill: #fff;
      }

      .cls-2 {
        fill: #00b2cd;
      }

      .cls-3 {
        fill: #034ea2;
      }
    </style>
  </defs>
  <g id="New_waves" data-name="New waves">
    <path class="cls-3" d="m253.63,173.91s-23.86-11.38-69.93-9.18c-46.07,2.2-90.86,17.25-146.29,7.89,0,0,32.97,12.02,69.93,8.63,37.99-3.49,79.84-10.65,103.52-10.65,28.08,0,42.77,3.3,42.77,3.3Z"/>
    <path class="cls-2" d="m262.5,180.06c-4.82-1.19-26.92-6.09-55.99-3.5-26.06,2.32-101.42,15.37-115.86,12.34,0,0,19.45,5.13,48.16,2.74,19.51-1.63,61.82-8.57,77.02-10.49,22.31-2.82,46.67-1.09,46.67-1.09Z"/>
    <path class="cls-2" d="m27.69,165.65c55.43,9.36,100.22-5.69,146.29-7.89,46.07-2.2,69.93,9.18,69.93,9.18,0,0-110.86-98.2-171.98-127.75,0,0-8.25,48.36-21.66,81.68-11.75,29.18-22.58,44.79-22.58,44.79Z"/>
  </g>
  <g id="Texte_noir" data-name="Texte noir">
    <polygon class="cls-3" points="114.98 267.78 118.3 262.22 124.77 262.39 120.53 257.47 122.67 251.33 116.72 253.87 111.58 249.9 112.16 256.38 106.83 260.06 113.13 261.54 114.98 267.78"/>
    <g>
      <polygon class="cls-3" points="148.82 .25 150.85 6.42 157.19 7.69 151.98 11.55 152.74 18.01 147.49 14.22 141.62 16.95 143.58 10.74 139.2 5.96 145.66 5.92 148.82 .25"/>
      <polygon class="cls-3" points="173.22 5.28 174.01 11.74 179.98 14.24 174.12 16.99 173.61 23.48 169.2 18.72 162.91 20.24 166.04 14.54 162.67 8.99 169.01 10.23 173.22 5.28"/>
      <polygon class="cls-3" points="195.31 14.21 194.95 20.71 200.39 24.23 194.14 25.9 192.5 32.2 188.99 26.73 182.54 27.1 186.62 22.05 184.27 15.98 190.3 18.33 195.31 14.21"/>
      <polygon class="cls-3" points="215.58 26.91 214.07 33.24 218.79 37.69 212.35 38.2 209.61 44.1 207.14 38.08 200.72 37.28 205.64 33.05 204.41 26.66 209.92 30.06 215.58 26.91"/>
      <polygon class="cls-3" points="232.89 42.68 230.35 48.67 234.26 53.85 227.83 53.27 224.15 58.62 222.71 52.27 216.51 50.4 222.07 47.06 221.92 40.55 226.79 44.83 232.89 42.68"/>
      <polygon class="cls-3" points="247.26 61.12 243.76 66.59 246.75 72.36 240.5 70.69 235.97 75.33 235.62 68.83 229.83 65.93 235.86 63.59 236.81 57.15 240.89 62.19 247.26 61.12"/>
      <polygon class="cls-3" points="258.27 81.62 253.86 86.37 255.79 92.58 249.94 89.83 244.67 93.6 245.46 87.14 240.27 83.26 246.62 82.02 248.68 75.85 251.81 81.55 258.27 81.62"/>
      <polygon class="cls-3" points="265.35 103.98 260.17 107.87 260.97 114.33 255.7 110.57 249.85 113.33 251.76 107.12 247.34 102.37 253.81 102.29 256.93 96.59 259.01 102.75 265.35 103.98"/>
      <polygon class="cls-3" points="6.79 177.87 11.6 173.52 10.21 167.16 15.81 170.42 21.39 167.13 20.03 173.5 24.86 177.83 18.43 178.5 15.84 184.46 13.22 178.51 6.79 177.87"/>
      <polygon class="cls-3" points="1.36 154.99 6.83 151.53 6.54 145.03 11.5 149.2 17.56 146.91 15.15 152.96 19.18 158.05 12.72 157.61 9.17 163.04 7.59 156.73 1.36 154.99"/>
      <polygon class="cls-3" points="0 130.56 6 128.14 6.88 121.69 11.02 126.69 17.38 125.54 13.93 131.05 16.98 136.79 10.72 135.19 6.25 139.89 5.82 133.39 0 130.56"/>
      <polygon class="cls-3" points="3.07 105.8 9.41 104.54 11.45 98.36 14.61 104.04 21.07 104.09 16.68 108.87 18.63 115.07 12.77 112.33 7.51 116.13 8.28 109.66 3.07 105.8"/>
      <polygon class="cls-3" points="10.5 82.23 16.95 82.13 20.06 76.42 22.15 82.58 28.5 83.79 23.33 87.7 24.15 94.16 18.86 90.41 13.02 93.19 14.93 86.97 10.5 82.23"/>
      <polygon class="cls-3" points="22.47 60.13 28.83 61.3 32.97 56.3 33.84 62.75 39.84 65.17 34.02 68 33.58 74.49 29.11 69.79 22.84 71.38 25.91 65.64 22.47 60.13"/>
      <polygon class="cls-3" points="37.99 40.8 44.05 43.07 49 38.88 48.72 45.39 54.21 48.84 47.98 50.59 46.42 56.91 42.84 51.48 36.39 51.94 40.41 46.84 37.99 40.8"/>
      <polygon class="cls-3" points="56.23 24.99 61.78 28.32 67.4 25.09 65.98 31.44 70.76 35.82 64.32 36.42 61.67 42.36 59.11 36.38 52.69 35.67 57.54 31.37 56.23 24.99"/>
      <polygon class="cls-3" points="77.05 12.61 81.91 16.9 88.01 14.75 85.47 20.74 89.38 25.92 82.94 25.33 79.26 30.68 77.82 24.33 71.64 22.45 77.18 19.12 77.05 12.61"/>
      <polygon class="cls-3" points="100.14 4.08 104.18 9.17 110.56 8.15 107 13.58 109.93 19.39 103.71 17.65 99.14 22.26 98.84 15.76 93.08 12.8 99.13 10.51 100.14 4.08"/>
      <polygon class="cls-3" points="267.7 153.27 261.48 155.03 259.92 161.34 256.34 155.92 249.9 156.39 253.91 151.29 251.49 145.25 257.54 147.51 262.49 143.32 262.22 149.83 267.7 153.27"/>
      <g>
        <polygon class="cls-3" points="16.23 201.15 22.66 200.49 26.4 205.8 27.76 199.44 33.93 197.49 28.35 194.22 28.42 187.71 23.6 192.05 17.47 189.97 20.08 195.93 16.23 201.15"/>
        <polygon class="cls-3" points="30.3 221.04 36.48 219.12 41.19 223.58 41.28 217.07 46.95 213.94 40.83 211.84 39.62 205.44 35.75 210.65 29.33 209.83 33.06 215.15 30.3 221.04"/>
        <polygon class="cls-3" points="47.17 237.91 52.93 234.96 58.32 238.56 57.31 232.12 62.37 228.07 55.99 227.04 53.72 220.94 50.78 226.74 44.32 227.03 48.89 231.63 47.17 237.91"/>
        <polygon class="cls-3" points="66.75 251.4 71.94 247.52 77.85 250.16 75.79 243.99 80.11 239.14 73.64 239.21 70.4 233.57 68.46 239.78 62.14 241.15 67.41 244.92 66.75 251.4"/>
        <polygon class="cls-3" points="90.19 261.89 94.48 257.03 100.8 258.38 97.53 252.77 100.77 247.13 94.46 248.53 90.14 243.68 89.51 250.16 83.6 252.8 89.51 255.41 90.19 261.89"/>
      </g>
      <polygon class="cls-3" points="124.6 0 127.62 5.76 134.08 5.95 129.58 10.62 131.4 16.87 125.59 14 120.26 17.68 121.17 11.23 116.06 7.25 122.42 6.13 124.6 0"/>
      <polygon class="cls-3" points="268.85 127.81 263.07 130.71 262.71 137.22 258.19 132.57 251.93 134.23 254.93 128.46 251.42 122.99 257.8 124.07 261.88 119.02 262.82 125.47 268.85 127.81"/>
    </g>
    <path class="cls-2" d="m133.5,256.05c44.93,0,86.03-24.62,107.28-64.26l9.03,4.84c-23.03,42.97-67.6,69.66-116.31,69.66v-10.24Z"/>
    <path class="cls-1" d="m108.24,98.2c-3-3.96-7.63-5.32-9.6-5.36-1.97-.04-6.56,3.8-6.56,3.8-1.22-2.13-.62-3.78-.62-3.78,2.22.29,4.03,1.09,4.03,1.09-.83-2.86-2.2-4.1-2.2-4.1,4.46-1.18,9.75,2.69,9.75,2.69-4.83-6.36-10.97-7.45-12.21-7.54-1.25-.09-2.9,1.8-2.9,1.8-8.64.05-10.98,4.83-10.98,4.83,3.62,5.62,11.03,6.95,11.03,6.95-13.02-1.41-12.73,8.77-12.73,8.77l12.06-6.26c-4.63,26.76-23.35,38.75-24.82,40.3-1.48,1.57-1.36,2.92.86,3.54.99.28,3.94.8,7.71-3.76,15.33-18.52,17.66-34.99,18.14-39.27l.22.24c1.32,3.15.4,6.01.67,8.09.27,2.08,4.86,6.58,4.86,6.58,0,0,2.54-4.89,2.13-7.81-.41-2.94-6.03-8.44-6.03-8.44,8.67-1.59,9.16,12.89,9.16,12.89,3.35-3.92,2.67-8.12,2.67-8.12,0,0,6.94-5.03,5.36-7.11Zm-24.61-5.63s1.72-.59,2.43-.26c0,0,1.24,3.6,3.56,4.9,0,0-4.18-.26-5.99-4.63Zm18.56,10.44s-1.54-5.88-9.25-5.04c0,0,4.95-2.15,7.11-.97,2.16,1.18,2.71,1.45,2.15,6.01Z"/>
    <g>
      <path class="cls-3" d="m318.67,53.16V20.37c0-10.58,7.29-17.1,15.7-17.1,9.95,0,16.19,7.43,16.19,15.77s-6.03,15.63-13.8,15.63h-8.9v-6.17h7.01c5.19,0,9.11-3.57,9.11-9.46s-4.13-9.6-9.53-9.6-9.18,3.85-9.18,10.09v33.64h-6.59Z"/>
      <path class="cls-3" d="m381.13,53.16v-18.92c0-6.31-5.33-9.53-10.93-9.53-6.8,0-11.07,5.4-11.07,11.77s4.55,11.49,11,11.49c3.5,0,6.38-1.96,8.48-4.62v7.29c-2.45,1.82-4.84,3.22-9.11,3.22-9.67,0-16.54-7.99-16.54-17.87s6.59-17.17,17.38-17.17,16.96,6.31,16.96,15.98v18.36h-6.17Z"/>
      <path class="cls-3" d="m416.89,25.41h-4.77c-5.82,0-11.56,3.78-11.56,10.93s5.75,10.93,11.56,10.93h4.77v5.89h-5.89c-7.85,0-16.89-6.03-16.89-16.82s9.04-16.82,16.89-16.82h5.89v5.89Z"/>
      <path class="cls-3" d="m427.23,8.31c2.38,0,3.71,1.82,3.71,3.71s-1.33,3.71-3.71,3.71-3.71-1.82-3.71-3.71,1.33-3.71,3.71-3.71Zm-3.08,44.85V19.53h6.17v33.64h-6.17Z"/>
      <path class="cls-3" d="m440.7,53.16V16.37c0-7.64,4.98-12.26,11.91-12.26h5.19v5.89h-4.35c-4.06,0-6.59,1.96-6.59,6.24v3.29h10.09v5.89h-10.09v27.75h-6.17Z"/>
      <path class="cls-3" d="m467.04,8.31c2.38,0,3.71,1.82,3.71,3.71s-1.33,3.71-3.71,3.71-3.71-1.82-3.71-3.71,1.33-3.71,3.71-3.71Zm-3.08,44.85V19.53h6.17v33.64h-6.17Z"/>
      <path class="cls-3" d="m501.67,25.41h-4.77c-5.82,0-11.56,3.78-11.56,10.93s5.75,10.93,11.56,10.93h4.77v5.89h-5.89c-7.85,0-16.89-6.03-16.89-16.82s9.04-16.82,16.89-16.82h5.89v5.89Z"/>
      <path class="cls-3" d="m349.15,72.26h-4.48c-11.21,0-19.48,7.85-19.48,18.36,0,12.75,9.74,18.36,16.96,18.36h7.01v6.17h-7.01c-13.66,0-23.83-10.51-23.83-24.53,0-11.91,9.74-24.52,25.65-24.52h5.19v6.17Z"/>
      <path class="cls-3" d="m370.06,80.81c9.32,0,17.45,7.15,17.45,17.52s-8.13,17.52-17.45,17.52-17.45-7.15-17.45-17.52,8.13-17.52,17.45-17.52Zm0,29.15c6.38,0,11-4.76,11-11.63s-4.63-11.63-11-11.63-11,4.77-11,11.63,4.63,11.63,11,11.63Z"/>
      <path class="cls-3" d="m394.44,115.14v-22.84c0-6.31,5.19-11.49,12.05-11.49,3.78,0,7.57,1.54,9.81,4.76,2.24-3.22,6.03-4.76,9.81-4.76,6.87,0,12.05,5.19,12.05,11.49v22.84h-6.17v-21.44c0-4.27-2.38-7.01-6.03-7.01-3.99,0-6.59,2.24-6.59,7.99v20.46h-6.17v-20.46c0-5.75-2.59-7.99-6.59-7.99-3.65,0-6.03,2.73-6.03,7.01v21.44h-6.17Z"/>
      <path class="cls-3" d="m446.85,115.14v-22.84c0-6.31,5.19-11.49,12.05-11.49,3.78,0,7.57,1.54,9.81,4.76,2.24-3.22,6.03-4.76,9.81-4.76,6.87,0,12.05,5.19,12.05,11.49v22.84h-6.17v-21.44c0-4.27-2.38-7.01-6.03-7.01-3.99,0-6.59,2.24-6.59,7.99v20.46h-6.17v-20.46c0-5.75-2.59-7.99-6.59-7.99-3.65,0-6.03,2.73-6.03,7.01v21.44h-6.17Z"/>
      <path class="cls-3" d="m527.62,81.51v19.62c0,8.83-6.17,14.72-14.36,14.72s-14.37-5.89-14.37-14.72v-19.62h6.17v19.62c0,5.19,3.79,8.83,8.2,8.83s8.2-3.64,8.2-8.83v-19.62h6.17Z"/>
      <path class="cls-3" d="m535.61,115.14v-19.62c0-8.83,6.17-14.72,14.37-14.72s14.36,5.88,14.36,14.72v19.62h-6.17v-19.62c0-5.19-3.78-8.83-8.2-8.83s-8.2,3.65-8.2,8.83v19.62h-6.17Z"/>
      <path class="cls-3" d="m577.33,70.3c2.38,0,3.71,1.82,3.71,3.71s-1.33,3.71-3.71,3.71-3.71-1.82-3.71-3.71,1.33-3.71,3.71-3.71Zm-3.08,44.85v-33.64h6.17v33.64h-6.17Z"/>
      <path class="cls-3" d="m609.11,87.39h-12.05v17.66c0,3.15,1.47,4.2,4.63,4.2h7.43v5.89h-8.27c-6.31,0-9.95-4.2-9.95-10.86v-31.18h6.17v8.41h12.05v5.89Z"/>
      <path class="cls-3" d="m620.79,81.51v20.18c0,4.63,2.66,8.27,7.85,8.27s7.85-3.64,7.85-8.27v-20.18h6.17v20.25c0,7.71-3.78,12.19-10.93,14.08v14.43h-6.17v-14.43c-7.15-1.89-10.93-6.38-10.93-14.08v-20.25h6.17Z"/>
    </g>
    <g>
      <path class="cls-3" d="m348.18,163.52h-4.31c-10.78,0-18.73,7.55-18.73,17.66,0,12.27,9.37,17.65,16.31,17.65h6.74v5.93h-6.74c-13.14,0-22.91-10.11-22.91-23.58,0-11.45,9.37-23.58,24.66-23.58h4.99v5.93Z"/>
      <path class="cls-3" d="m368.32,171.74c8.96,0,16.78,6.87,16.78,16.85s-7.82,16.85-16.78,16.85-16.78-6.87-16.78-16.85,7.82-16.85,16.78-16.85Zm0,28.03c6.13,0,10.58-4.58,10.58-11.19s-4.45-11.19-10.58-11.19-10.58,4.58-10.58,11.19,4.45,11.19,10.58,11.19Z"/>
      <path class="cls-3" d="m391.78,204.76v-21.97c0-6.06,4.99-11.05,11.59-11.05,3.64,0,7.28,1.48,9.43,4.58,2.16-3.1,5.8-4.58,9.43-4.58,6.6,0,11.59,4.99,11.59,11.05v21.97h-5.93v-20.62c0-4.11-2.29-6.74-5.8-6.74-3.84,0-6.33,2.16-6.33,7.68v19.68h-5.93v-19.68c0-5.53-2.49-7.68-6.33-7.68-3.5,0-5.8,2.63-5.8,6.74v20.62h-5.93Z"/>
      <path class="cls-3" d="m442.19,204.76v-21.97c0-6.06,4.99-11.05,11.59-11.05,3.64,0,7.28,1.48,9.43,4.58,2.16-3.1,5.8-4.58,9.43-4.58,6.6,0,11.59,4.99,11.59,11.05v21.97h-5.93v-20.62c0-4.11-2.29-6.74-5.8-6.74-3.84,0-6.33,2.16-6.33,7.68v19.68h-5.93v-19.68c0-5.53-2.49-7.68-6.33-7.68-3.5,0-5.8,2.63-5.8,6.74v20.62h-5.93Z"/>
      <path class="cls-3" d="m519.88,172.42v18.87c0,8.49-5.93,14.15-13.81,14.15s-13.81-5.66-13.81-14.15v-18.87h5.93v18.87c0,4.99,3.64,8.49,7.88,8.49s7.89-3.5,7.89-8.49v-18.87h5.93Z"/>
      <path class="cls-3" d="m527.56,204.76v-18.87c0-8.49,5.93-14.15,13.81-14.15s13.81,5.66,13.81,14.15v18.87h-5.93v-18.87c0-4.99-3.64-8.49-7.89-8.49s-7.88,3.5-7.88,8.49v18.87h-5.93Z"/>
      <path class="cls-3" d="m588.6,204.76v-18.19c0-6.06-5.12-9.17-10.51-9.17-6.54,0-10.65,5.19-10.65,11.32s4.38,11.05,10.58,11.05c3.37,0,6.13-1.89,8.15-4.45v7.01c-2.36,1.75-4.65,3.1-8.76,3.1-9.3,0-15.9-7.68-15.9-17.18s6.33-16.51,16.71-16.51,16.31,6.06,16.31,15.36v17.66h-5.93Z"/>
      <path class="cls-3" d="m629.6,172.42v18.87c0,8.49-5.93,14.15-13.81,14.15s-13.81-5.66-13.81-14.15v-18.87h5.93v18.87c0,4.99,3.64,8.49,7.88,8.49s7.89-3.5,7.89-8.49v-18.87h5.93Z"/>
      <path class="cls-3" d="m655.61,178.08h-11.59v16.98c0,3.03,1.42,4.04,4.45,4.04h7.14v5.66h-7.95c-6.06,0-9.57-4.04-9.57-10.45v-29.99h5.93v8.09h11.59v5.66Z"/>
      <path class="cls-3" d="m669.49,194.12l-2.43-4.72,15.97-8.89c-2.02-2.02-3.71-3.1-7.35-3.1-6.13,0-10.58,4.58-10.58,11.19s4.45,11.19,10.58,11.19c7.01,0,9.64-4.18,10.85-10.11l6,.74c-.67,8.56-7.55,15.03-16.85,15.03s-16.78-6.87-16.78-16.85,7.82-16.85,16.78-16.85c7.55,0,12.6,3.97,15.63,10.24l-21.83,12.13Zm7.75-35.17h7.28l-8.76,9.57h-4.58l6.06-9.57Z"/>
      <path class="cls-3" d="m350.95,219.58v30.05c0,10.65-6.81,17.79-16.31,17.79-10.51,0-16.71-8.09-16.71-17.65,0-9.03,7.28-16.04,15.57-16.04,3.23,0,6.33.67,9.16,2.29v6.2c-2.16-1.48-5.46-2.83-8.15-2.83-6.4,0-10.65,4.45-10.65,11.12s4.45,11.25,10.78,11.25c5.66,0,10.38-4.31,10.38-13.21v-28.98h5.93Z"/>
      <path class="cls-3" d="m386.19,234.4v18.87c0,8.49-5.93,14.15-13.81,14.15s-13.81-5.66-13.81-14.15v-18.87h5.93v18.87c0,4.99,3.64,8.49,7.88,8.49s7.88-3.5,7.88-8.49v-18.87h5.93Z"/>
      <path class="cls-3" d="m414.01,266.75v-31.54c0-10.18,7.01-16.44,15.09-16.44,9.57,0,15.57,7.14,15.57,15.16s-5.8,15.03-13.28,15.03h-8.56v-5.93h6.74c4.99,0,8.76-3.44,8.76-9.1s-3.97-9.23-9.16-9.23-8.83,3.71-8.83,9.7v32.35h-6.33Z"/>
      <path class="cls-3" d="m474.09,266.75v-18.19c0-6.06-5.12-9.17-10.51-9.17-6.54,0-10.65,5.19-10.65,11.32s4.38,11.05,10.58,11.05c3.37,0,6.13-1.89,8.15-4.45v7.01c-2.36,1.75-4.65,3.1-8.76,3.1-9.3,0-15.9-7.68-15.9-17.18s6.33-16.51,16.71-16.51,16.31,6.06,16.31,15.36v17.66h-5.93Z"/>
      <path class="cls-3" d="m508.49,240.06h-4.58c-5.59,0-11.12,3.64-11.12,10.51s5.53,10.51,11.12,10.51h4.58v5.66h-5.66c-7.55,0-16.24-5.8-16.24-16.17s8.69-16.17,16.24-16.17h5.66v5.66Z"/>
      <path class="cls-3" d="m518.45,223.62c2.29,0,3.57,1.75,3.57,3.57s-1.28,3.57-3.57,3.57-3.57-1.75-3.57-3.57,1.28-3.57,3.57-3.57Zm-2.96,43.13v-32.35h5.93v32.35h-5.93Z"/>
      <path class="cls-3" d="m531.42,266.75v-35.38c0-7.34,4.78-11.79,11.45-11.79h4.99v5.66h-4.18c-3.91,0-6.33,1.89-6.33,6v3.17h9.7v5.66h-9.7v26.68h-5.93Z"/>
      <path class="cls-3" d="m556.77,223.62c2.29,0,3.57,1.75,3.57,3.57s-1.28,3.57-3.57,3.57-3.57-1.75-3.57-3.57,1.28-3.57,3.57-3.57Zm-2.96,43.13v-32.35h5.93v32.35h-5.93Z"/>
      <path class="cls-3" d="m594.87,281.3v-28.71c0-8.9-4.72-13.21-10.38-13.21-6.33,0-10.78,4.65-10.78,11.25s4.24,11.12,10.65,11.12c2.7,0,6-1.35,8.15-2.83v6.2c-2.83,1.62-5.93,2.29-9.17,2.29-8.29,0-15.57-7.01-15.57-16.04,0-9.57,6.2-17.65,16.71-17.65,9.5,0,16.31,7.14,16.31,17.79v29.79h-5.93Z"/>
      <path class="cls-3" d="m635.68,234.4v18.87c0,8.49-5.93,14.15-13.81,14.15s-13.81-5.66-13.81-14.15v-18.87h5.93v18.87c0,4.99,3.64,8.49,7.88,8.49s7.89-3.5,7.89-8.49v-18.87h5.93Z"/>
      <path class="cls-3" d="m652.71,256.1l-2.43-4.72,15.97-8.89c-2.02-2.02-3.71-3.1-7.35-3.1-6.13,0-10.58,4.58-10.58,11.19s4.45,11.19,10.58,11.19c7.01,0,9.64-4.18,10.85-10.11l6,.74c-.67,8.56-7.55,15.03-16.85,15.03s-16.78-6.87-16.78-16.85,7.82-16.85,16.78-16.85c7.55,0,12.6,3.97,15.63,10.24l-21.83,12.13Z"/>
    </g>
    <rect class="cls-3" x="317.51" y="143.22" width="374.65" height="1.89"/>
  </g>
</svg>