<?xml version="1.0" encoding="UTF-8" standalone="no"?>
<svg
   width="388.94299"
   height="77.412361"
   viewBox="0 0 388.94299 77.412361"
   fill="none"
   version="1.1"
   id="svg29"
   sodipodi:docname="foss4g-2025-logo-banner.svg"
   inkscape:version="1.4 (86a8ad7, 2024-10-11)"
   xmlns:inkscape="http://www.inkscape.org/namespaces/inkscape"
   xmlns:sodipodi="http://sodipodi.sourceforge.net/DTD/sodipodi-0.dtd"
   xmlns="http://www.w3.org/2000/svg"
   xmlns:svg="http://www.w3.org/2000/svg">
  <defs
     id="defs29" />
  <sodipodi:namedview
     id="namedview29"
     pagecolor="#ffffff"
     bordercolor="#666666"
     borderopacity="1.0"
     inkscape:showpageshadow="2"
     inkscape:pageopacity="0.0"
     inkscape:pagecheckerboard="0"
     inkscape:deskcolor="#d1d1d1"
     inkscape:zoom="2"
     inkscape:cx="141"
     inkscape:cy="45.75"
     inkscape:window-width="3840"
     inkscape:window-height="2054"
     inkscape:window-x="-11"
     inkscape:window-y="-11"
     inkscape:window-maximized="1"
     inkscape:current-layer="svg29" />
  <g
     id="g29"
     transform="scale(0.45806129)">
    <path
       fill-rule="evenodd"
       clip-rule="evenodd"
       d="m 8.71192,68.7274 c 0.54374,0.1666 1.11982,0.0762 1.61148,-0.2057 0.5273,-0.3015 0.9527,-0.8131 1.1511,-1.4617 0.2022,-0.6608 0.1381,-1.3275 -0.1294,-1.872 -0.2472,-0.5028 -0.672,-0.8976 -1.2152,-1.0637 -0.54372,-0.1661 -1.1198,-0.0757 -1.61147,0.2056 -0.5273,0.3021 -0.95264,0.8132 -1.15107,1.4624 -0.20225,0.6607 -0.13812,1.3274 0.12936,1.8719 0.24721,0.5028 0.67201,0.897 1.2152,1.0632 z m 3.42418,2.9647 C 10.8063,72.4531 9.20742,72.6867 7.65568,72.2119 6.10284,71.7365 4.90682,70.6442 4.22824,69.2631 3.56994,67.9235 3.40331,66.3082 3.88402,64.7357 c 0.48509,-1.5841 1.52763,-2.8348 2.82176,-3.5756 1.32975,-0.7616 2.92863,-0.9946 4.48042,-0.5198 1.5528,0.4754 2.7488,1.5677 3.4274,2.9483 0.6583,1.3401 0.8249,2.9554 0.3442,4.5279 -0.4851,1.5841 -1.5276,2.8348 -2.8217,3.5756 z m -8.52395,4.9167 c 0,2.7996 -0.28831,6.1723 0.44124,8.8448 0.336,1.2304 0.97128,-0.9854 1.14942,-1.5265 C 5.67804,82.4823 6.68769,79.3635 7.24129,78.1989 7.70885,77.2146 8.06458,76.1679 6.95188,75.8494 5.43412,75.4151 3.61215,74.6436 3.61215,76.6088 Z M 87.2836,13.4281 C 90.4282,11.4432 92.7665,9.69906 96.2614,8.04426 98.4517,7.00631 105.461,4.86132 105.069,4.73904 94.5079,1.45138 84.8379,14.9716 87.2836,13.4281 Z M 88.9664,2.43998 c -1.1423,0.15956 -1.5507,3.75866 -1.264,3.82008 0.9718,0.2078 4.5045,-2.09674 5.2828,-2.92853 1.4717,-1.572 -3.3249,-0.9886 -4.0188,-0.89155 z M 74.4279,11.7081 c 2.5597,0 4.6344,-2.04304 4.6344,-4.56362 0,-2.52058 -2.0747,-4.56358 -4.6344,-4.56358 -2.5598,0 -4.635,2.043 -4.635,4.56358 0,2.52058 2.0752,4.56362 4.635,4.56362 z m 0,-2.50965 c 1.1516,0 2.0856,-0.91952 2.0856,-2.05397 0,-1.13391 -0.934,-2.05342 -2.0856,-2.05342 -1.1522,0 -2.0857,0.91951 -2.0857,2.05342 0,1.13445 0.9335,2.05397 2.0857,2.05397 z M 69.0568,20.4953 c -1.5161,0.1162 -1.047,3.0914 -0.9943,5.0883 0.074,2.8128 6.1943,-4.4397 5.7948,-4.9441 -0.051,-0.0642 -4.7676,-0.147 -4.8005,-0.1442 z M 59.4717,5.41895 c -1.23,-0.47319 -2.8733,0.56585 -3.8369,1.27537 -1.4317,1.05385 0.4336,1.50182 1.3583,1.91798 0.3787,0.16998 3.1139,1.32308 3.3797,0.8932 0.2593,-0.4211 0.1129,-3.69616 -0.9011,-4.08655 z M 52.3762,25.9164 c -3.32,2.0556 1.9563,5.1201 3.2849,-0.063 1.7069,-6.6576 -12.2468,-8.5646 -11.1253,1.5319 0.478,4.3015 3.2213,7.7197 7.5559,8.4703 2.5833,-0.3558 4.8909,-1.5001 6.6428,-3.1665 2.1097,-2.0068 3.4142,-4.7763 3.4142,-7.832 0,-3.0563 -1.3045,-5.8258 -3.4142,-7.8326 -2.1333,-2.0288 -5.0905,-3.2844 -8.3661,-3.2844 -3.275,0 -6.2322,1.2556 -8.3655,3.2844 -2.1097,2.0068 -3.4148,4.7763 -3.4148,7.8326 0,3.0557 1.3051,5.8252 3.4148,7.832 0.3234,0.3076 0.6654,0.5972 1.025,0.8675 -6.5194,-10.2924 3.1704,-20.4991 11.8993,-15.6356 10.216,5.692 0.1167,19.6525 -5.9834,12.3698 -2.438,-2.9104 -1.0568,-5.6766 1.8905,-7.5261 0.8704,-0.426 1.9207,-0.0658 2.3465,0.8044 0.4254,0.8707 0.0653,1.9213 -0.8046,2.3473 z m 8.8703,9.4145 c -2.7916,2.6555 -6.6383,4.2982 -10.8781,4.2982 -4.2397,0 -8.0865,-1.6427 -10.8781,-4.2982 -2.8152,-2.6779 -4.556,-6.3812 -4.556,-10.4738 0,-4.0931 1.7408,-7.7959 4.556,-10.4738 2.7916,-2.6555 6.6384,-4.2982 10.8781,-4.2982 4.2398,0 8.0865,1.6427 10.8781,4.2982 2.8152,2.6779 4.5566,6.3807 4.5566,10.4738 0,4.0926 -1.7414,7.7959 -4.5566,10.4738 z M 27.3696,27.75 c 2.0889,0.965 4.4261,2.3752 4.8591,1.3888 0.4435,-1.0105 0.2335,-7.7827 -0.6566,-7.5908 -0.8343,0.1799 -4.231,2.48 -5.4363,4.0159 -1.1051,1.4086 -0.1431,1.5495 1.2338,2.1861 z m 12.3273,12.1955 c -0.4988,0.1255 -0.6774,3.6265 -0.6774,4.1737 0,1.101 0.2187,0.8998 1.2601,0.4189 0.5114,-0.2358 3.5025,-1.5928 3.5025,-2.1252 0,-0.6361 -2.5279,-2.8589 -4.0852,-2.4674 z m -16.4892,8.1901 c 2.7165,0.6541 5.4801,-1.146 6.1719,-4.0213 0.6917,-2.8748 -0.9499,-5.7359 -3.667,-6.39 -2.7165,-0.6542 -5.4802,1.1465 -6.1719,4.0213 -0.6917,2.8748 0.9499,5.7358 3.667,6.39 z m 1.2004,-2.8315 c 1.2102,0 2.1908,-1.067 2.1908,-2.3829 0,-1.3154 -0.9806,-2.3825 -2.1908,-2.3825 -1.2103,0 -2.1909,1.0671 -2.1909,2.3825 0,1.3159 0.9806,2.3829 2.1909,2.3829 z m -7.6667,6.7557 c 4.7791,3.9484 12.0391,3.0486 16.2141,-2.009 4.1757,-5.0576 3.6856,-12.3589 -1.094,-16.3073 -4.7797,-3.9483 -12.0391,-3.0486 -16.2141,2.009 -4.1757,5.0577 -3.6856,12.359 1.094,16.3073 z m 2.2704,-2.5167 c 3.4603,2.8583 8.7163,2.2075 11.7392,-1.4547 3.0229,-3.6616 2.6683,-8.9473 -0.7921,-11.8062 -3.4603,-2.8583 -8.7163,-2.2069 -11.7392,1.4547 -3.0229,3.6616 -2.6683,8.9473 0.7921,11.8062 z m -8.0257,2.2514 c -0.9439,-1.31 -1.67234,-3.8991 -1.62027,-0.193 0.04604,3.2783 -1.3166,2.7854 2.38657,5.5828 1.4717,1.112 3.3814,2.6566 4.7413,3.9248 1.5155,1.413 1.0732,1.4289 2.4128,0.1799 1.4224,-1.3258 -6.4449,-7.0853 -7.9204,-9.4945 z M 120.12,8.82779 C 108.974,3.18129 96.4083,0 83.1096,0 c -0.621,0 -1.2393,0.010418 -1.857,0.0241258 2.375,1.8143542 3.8889,4.5586442 3.8889,7.6297342 0,5.46284 -4.79,9.89154 -10.6988,9.89154 -5.9083,0 -10.6984,-4.4287 -10.6984,-9.89154 0,-2.17131 0.757,-4.17812 2.0391,-5.80934 C 28.2005,9.94799 0,43.8736 0,84.5001 0,92.6737 1.14558,100.575 3.2756,108.051 4.05942,101.546 4.96548,95.7859 6.54189,90.1975 8.64998,82.7263 11.9338,75.6295 17.6732,67.6083 22.1668,61.3268 28.2641,55.2587 35.2111,50.6786 41.4202,46.585 48.3146,43.6723 55.369,42.8367 57.2989,42.6081 59.287,42.5149 61.2953,42.5587 69.7869,26.7449 81.0547,16.3917 94.8521,11.5984 102.533,8.92978 110.97,8.00094 120.12,8.82779 Z M 77.1751,0.216583 C 74.8,0.387656 72.4513,0.657973 70.1355,1.02699 c -1.9689,1.34226 -3.2586,3.58156 -3.2586,6.11749 0,4.10632 3.3803,7.43562 7.551,7.43562 4.1701,0 7.5509,-3.3293 7.5509,-7.43562 0,-3.15169 -1.9918,-5.84553 -4.8037,-6.927897 z"
       fill="#242b3d"
       id="path1" />
    <path
       fill-rule="evenodd"
       clip-rule="evenodd"
       d="m 95.1218,159.488 c -1.2361,-3.914 -4.9452,-3.203 -7.6464,-1.197 -2.2238,1.651 -0.4917,5.037 -2.9944,6.469 l -0.7,0.238 c 0.9488,-2.547 1.0497,-1.607 0.7148,-4.799 -0.3097,-2.955 2.9555,-5.075 5.3321,-5.936 4.202,-1.521 7.0429,0.424 8.6731,4.282 0.2603,0.933 -0.2851,1.901 -1.218,2.161 -0.9334,0.261 -1.9009,-0.285 -2.1612,-1.218 z M 83.1096,169 c 0.2801,0 0.5585,-0.007 0.8381,-0.011 -0.8233,-0.965 -1.5628,-2.08 -2.5614,-2.858 -1.9415,-1.513 -5.4331,0.341 -7.1662,2.387 2.9209,0.316 5.8857,0.482 8.8895,0.482 z m 2.7401,-0.05 c 8.8264,-0.292 17.4403,-1.634 25.2273,-4.864 -7.91,-2.634 -14.4567,-8.092 -16.5609,-19.824 -3.5804,6.16 -9.14,11.291 -15.3689,14.65 -6.4866,3.499 -13.4242,4.488 -19.8767,3.816 -7.5773,-0.789 -14.5062,-3.881 -19.2541,-7.89 -3.6406,-3.075 -6.1878,-6.358 -8.1007,-9.7 -1.885,-3.294 -3.143,-6.637 -4.2299,-9.891 -0.3037,-0.91 -0.6874,-2.084 -1.0108,-3.16 l -0.0553,-0.185 c -2.3509,2.35 -4.6969,4.711 -7.0418,7.069 12.6776,15.271 30.5833,25.911 50.9116,29.061 2.5483,-3.964 9.4788,-7.34 12.8503,-2.986 1.4004,1.809 1.4668,2.669 2.5099,3.904 z M 73.1825,123.602 c -0.1639,-0.072 -0.3064,-0.197 -0.3969,-0.368 -0.8847,-1.827 -4.9293,0.951 -3.3161,1.874 0.3102,0.178 1.0984,0.006 1.4651,-0.029 -0.5235,0.565 -1.2717,1.03 -2.0177,0.545 -2.7313,-1.778 2.8108,-6.736 5.3207,-3.162 0.1913,0.36 0.0877,0.799 -0.2253,1.039 -0.2488,0.158 -0.5278,0.181 -0.8298,0.101 z m -59.1456,7.9 4.5769,-4.578 c 2.0938,-2.095 13.3786,-12.798 13.9339,-14.705 0.6846,-2.353 -0.8359,-7.342 -4.3686,-4.778 -0.3311,0.24 -0.7915,0.623 -1.3467,1.111 l -0.3826,0.382 c -0.0954,0.096 -0.2012,0.176 -0.313,0.24 -4.0013,3.629 -11.3917,11.098 -13.5628,13.526 -0.0636,0.118 -0.1442,0.229 -0.2418,0.33 -0.5684,0.587 -1.5057,0.602 -2.0922,0.034 -0.3124,-0.331 -0.52069,-0.783 -0.44833,-1.249 0.18417,-1.181 10.13813,-10.944 14.61683,-15.025 l 9.0052,-9.0083 c 0.5777,-0.5785 1.515,-0.5785 2.0928,0 0.5777,0.5779 0.5777,1.5149 0,2.0934 l -4.077,4.0779 c 1.6214,0.47 2.9615,1.828 3.6966,3.946 1.5901,4.578 -0.2127,6.831 -3.2987,9.985 -5.2823,5.4 -10.7219,10.754 -16.0853,16.102 0.6435,0.905 1.3013,1.799 1.9788,2.676 l 2.2391,-2.24 1.1253,-1.125 c 2.0149,-2.016 11.3259,-11.726 13.0859,-12.538 2.642,-1.218 4.2918,0.476 5.8419,2.361 0.501,0.646 0.3837,1.575 -0.2625,2.077 -0.6457,0.5 -1.5753,0.383 -2.0758,-0.263 -2.0785,-2.542 -2.1398,-1.851 -4.8284,0.791 -1.0891,1.071 -2.1772,2.146 -3.263,3.225 0.1606,0.635 0.3678,1.361 0.5887,2.095 0.3568,1.186 0.706,2.261 0.968,3.046 1.0179,3.048 2.1941,6.174 3.9448,9.233 1.7228,3.011 4.0145,5.966 7.2868,8.729 4.2343,3.577 10.4468,6.338 17.2698,7.048 5.7822,0.602 11.9898,-0.279 17.7785,-3.401 5.6627,-3.054 10.7071,-7.701 13.9416,-13.266 2.8618,-4.923 4.299,-10.567 3.4664,-16.447 -0.6786,-4.791 -2.4584,-8.947 -5.2429,-12.197 -2.705,-3.158 -6.3774,-5.481 -10.9274,-6.722 -3.354,-0.915 -6.7299,-0.874 -9.8427,-0.079 -3.166,0.809 -6.0458,2.397 -8.3403,4.548 -2.2846,2.143 -3.9904,4.841 -4.818,7.877 -0.7115,2.611 -0.7756,5.495 -0.0028,8.523 0.9132,3.579 2.2589,5.871 4.1789,7.398 1.9404,1.543 4.5785,2.416 8.0131,3.099 1.3654,-0.089 2.7215,-0.387 4.0068,-0.861 2.0363,-0.753 3.8818,-1.945 5.2911,-3.45 l 0.0033,0.003 c 1.3544,-1.447 2.2961,-3.187 2.5898,-5.098 0.2166,-1.41 0.0812,-2.925 -0.5004,-4.5 -1.025,-2.776 -2.9752,-4.262 -5.0493,-4.759 -1.0667,-0.255 -2.1723,-0.257 -3.2093,-0.045 -1.0168,0.208 -1.9541,0.62 -2.7061,1.199 -1.1407,0.878 -1.8483,2.168 -1.6904,3.709 0.1502,1.468 1.0628,2.487 2.0944,2.88 0.7175,0.272 1.9623,0.534 2.6924,0.043 1.9365,-1.139 0.0104,-3.797 1.8143,-3.953 1.31,1.108 0.3683,8.38 -5.8825,7.029 -2.1953,-0.835 -4.0392,-2.644 -4.3445,-5.627 -0.3004,-2.938 0.9943,-5.352 3.0893,-6.965 1.1938,-0.919 2.6496,-1.567 4.2052,-1.885 1.5353,-0.313 3.1813,-0.308 4.7791,0.074 3.1704,0.758 6.127,2.964 7.6332,7.043 0.8074,2.186 0.9916,4.31 0.6857,6.299 -0.41,2.667 -1.6997,5.07 -3.5497,7.045 v 0.007 c -1.7967,1.919 -4.1301,3.432 -6.6898,4.377 -2.7094,1.002 -5.6869,1.375 -8.5651,0.932 -5.7016,-0.877 -10.7432,-3.998 -14.8794,-8.191 -4.8175,-4.883 -8.4165,-11.245 -10.3733,-17.16 -1.9831,-5.993 -2.671,-12.603 -2.0516,-19.0791 0.6073,-6.3494 2.4737,-12.5733 5.6106,-17.9648 0.7065,-1.2156 1.543,-2.4422 2.4874,-3.6468 3.3233,-4.2412 7.9725,-8.1534 13.0257,-10.3 5.2592,-2.2349 10.9592,-2.5974 16.1511,0.4244 0.6698,0.3898 1.3363,0.8427 1.9973,1.3609 2.1355,1.6751 3.9032,4.149 4.8783,6.839 0.9242,2.5502 1.1539,5.3263 0.3454,7.865 -1.07,3.3579 -3.2669,5.6476 -5.7844,6.9361 -1.6597,0.8499 -3.4625,1.2611 -5.1754,1.254 -1.7716,-0.0077 -3.4669,-0.4622 -4.8449,-1.3417 -1.5846,-1.0111 -2.7406,-2.5513 -3.1369,-4.5921 -0.6402,-3.2948 0.8589,-5.1114 3.1057,-6.0906 5.5031,-2.6522 9.4568,3.4428 1.4563,3.3414 -0.3075,0.0055 -0.5371,0.0575 -0.7054,0.148 0.4423,0.1102 1.0047,0.4337 1.68,1.0489 0.814,0.7419 2.2775,0.7441 3.2992,0.482 0.7021,-0.1804 1.4295,-0.5094 1.9518,-0.9617 0.5219,-0.4529 0.8381,-1.0287 1.0322,-1.5945 0.194,-0.5659 0.2664,-1.1213 0.302,-1.3993 0.0126,-0.0971 0.0236,-0.1947 0.0334,-0.2917 -1.8477,-9.3975 -11.9179,-11.3456 -18.366,-2.8754 -3.5059,4.0965 -2.9813,8.6129 -1.6148,13.2045 1.2585,4.2302 4.2671,7.4652 8.0284,9.5246 4.1586,2.2769 9.2173,3.1259 13.8802,2.3179 3.5787,-0.7 6.8877,-2.7708 9.6371,-5.5255 3.1561,-3.1626 5.5542,-7.1971 6.7869,-11.1126 C 95.2429,78.3797 95.0209,72.493 93.0888,67.2057 91.0196,61.5422 86.9876,56.5306 81.5463,52.557 78.1419,50.0715 74.0425,48.3263 69.726,47.2988 65.1129,46.2005 60.279,45.9324 55.797,46.4637 49.3247,47.2302 42.9637,49.9263 37.2095,53.72 30.6544,58.0412 24.8942,63.7777 20.6418,69.7213 15.1737,77.3642 12.0505,84.1041 10.0537,91.1827 8.03876,98.3234 7.02089,106.976 6.02988,116.146 c 2.12947,5.597 4.71772,10.368 8.00702,15.356 z m 2.9555,-25.76 C 21.658,101.48 33.6675,90.5747 33.9213,87.4471 34.009,86.3669 33.525,84.2285 33.0185,82.3067 L 13.8018,100.136 c -1.7266,1.756 1.2184,3.633 2.2045,4.62 z M 32.7039,77.5134 c 0.0581,-0.0565 0.1206,-0.1091 0.1864,-0.1574 l 7.478,-5.7633 c 0.8156,-0.6283 1.9854,-0.477 2.6135,0.3389 0.6282,0.8153 0.4769,1.986 -0.3387,2.6143 l -6.5074,5.0149 c 0.803,2.7947 1.9168,6.7672 1.3462,9.1737 -1.1823,4.9875 -15.1721,17.1175 -19.2606,20.9415 l -0.011,0.009 -0.0054,0.005 c -0.0094,0.009 -0.0187,0.018 -0.0285,0.026 l -0.005,0.005 -0.0318,0.028 -0.0033,0.002 -0.0334,0.028 -0.0038,0.002 c -0.0231,0.019 -0.0461,0.037 -0.0696,0.054 l -0.0083,0.006 -0.0318,0.022 -0.0032,0.002 c -0.0121,0.009 -0.0242,0.017 -0.0368,0.024 -0.0126,0.009 -0.0263,0.017 -0.0389,0.025 l -0.0016,0.001 -0.0346,0.02 -0.0115,0.008 -0.0301,0.016 -0.0066,0.004 -0.0345,0.018 -0.0072,0.004 -0.0318,0.016 -0.0115,0.005 -0.0312,0.014 -0.0093,0.005 -0.0313,0.014 -0.0115,0.004 -0.029,0.013 -0.0181,0.006 -0.0219,0.009 -0.022,0.008 -0.0202,0.007 -0.0242,0.008 -0.0186,0.006 -0.0225,0.007 -0.0208,0.006 -0.0252,0.007 -0.0176,0.005 -0.0257,0.007 -0.017,0.004 -0.0252,0.006 -0.0214,0.005 -0.0214,0.004 -0.0208,0.004 -0.0291,0.005 -0.0126,0.002 -0.0307,0.005 -0.0153,0.003 -0.0247,0.003 -0.0224,0.003 -0.0214,0.002 -0.023,0.002 -0.0225,0.002 -0.0214,0.001 -0.0203,0.002 -0.0285,0.001 -0.0142,10e-4 -0.028,0.001 h -0.0208 -0.0214 -0.0247 l -0.0213,-0.001 h -0.0192 l -0.0296,-0.002 -0.0132,-0.001 -0.0307,-0.002 -0.0131,-0.001 -0.0324,-0.003 -0.0109,-10e-4 -0.034,-0.004 -0.011,-0.002 -0.0318,-0.004 -0.0137,-0.002 -0.0323,-0.006 -0.0082,-0.001 -0.0384,-0.008 h -0.0033 l -0.0411,-0.009 h -0.0022 l -0.0367,-0.01 -0.0132,-0.003 -0.0339,-0.009 -0.0039,-0.001 -0.0384,-0.011 -0.0076,-0.003 -0.0346,-0.011 -0.0082,-0.002 -0.0345,-0.012 -0.0082,-0.004 -0.0362,-0.013 -0.0033,-10e-4 -0.0351,-0.014 -0.0131,-0.006 -0.0302,-0.013 -0.0082,-0.004 -0.0312,-0.014 -0.0137,-0.007 -0.0275,-0.013 -0.012,-0.006 -0.0274,-0.015 -0.0176,-0.009 -0.0208,-0.011 -0.0214,-0.012 -0.017,-0.011 -0.0224,-0.014 -0.0176,-0.011 -0.0213,-0.013 -0.0176,-0.012 -0.0219,-0.014 -0.0154,-0.011 -0.0241,-0.017 -0.0131,-0.01 -0.0247,-0.018 -0.0137,-0.011 -0.0236,-0.019 -0.0115,-0.009 -0.0279,-0.023 -0.0072,-0.007 -0.0257,-0.022 -0.0121,-0.011 -0.0197,-0.018 -0.0165,-0.016 -0.0164,-0.016 -0.0126,-0.012 -2.249,-2.25 c -2.4528,-2.454 -5.64677,-5.281 -2.8223,-9.1832 0.5805,-0.8016 20.0466,-18.8389 22.1553,-20.6954 z m 28.7898,-1.4229 c 0.3042,0.993 0.6506,1.3171 0.9608,2.3912 -1.4196,0.0433 -1.8395,-0.4699 -2.7499,-1.5594 -0.2297,-0.4946 -0.0154,-1.0813 0.479,-1.311 0.4939,-0.2298 1.0809,-0.0154 1.3101,0.4792 z m 2.3207,-1.6712 c 0.1108,0.9233 0.4128,1.2501 0.5953,2.2859 -1.4109,-0.0488 -1.7387,-0.5423 -2.4896,-1.7327 -0.1524,-0.5231 0.1475,-1.0709 0.6704,-1.2238 0.5229,-0.153 1.071,0.1475 1.2239,0.6706 z m -4.032,4.2834 c 0.2056,1.3132 0.4637,1.2803 0.8019,2.3204 -1.2623,0.4721 -2.0872,-0.7621 -2.6825,-1.7228 -0.165,-0.5192 0.1222,-1.0741 0.6413,-1.2392 0.5196,-0.165 1.0743,0.1223 1.2393,0.6416 z m -1.3604,2.6291 c 0.5207,1.5073 0.9181,1.7272 1.8252,2.9823 -2.0132,0.0603 -2.5323,-0.6498 -3.6653,-2.27 -0.1962,-0.5083 0.0559,-1.0797 0.564,-1.2765 0.5081,-0.1969 1.0793,0.0559 1.2761,0.5642 z m -0.8041,2.9642 c 0.2905,1.8001 0.7525,1.6526 2.3684,2.0967 -1.914,1.651 -3.4362,0.3997 -4.2792,-1.6044 -0.1359,-0.5274 0.182,-1.0659 0.7093,-1.2018 0.5278,-0.136 1.0655,0.182 1.2015,0.7095 z m 4.3187,2.9521 c -0.0395,1.2852 -0.933,2.3018 -2.1514,2.7399 H 59.772 c -0.0104,-0.0274 -0.0038,-0.0148 -0.0186,-0.039 l -0.0094,0.0039 c 0.1047,1.0341 1.577,0.8362 2.4063,0.1963 0.3815,-0.2939 0.5087,-0.4787 0.9269,-0.7682 0.1337,1.4848 -1.7277,2.889 -3.149,2.4093 -3.9931,-1.3478 0.1069,-3.8656 0.0389,-4.4233 -0.0329,-0.5439 0.3815,-1.0116 0.9253,-1.0445 0.5437,-0.0329 1.0113,0.3816 1.0442,0.9256 z m 1.9781,8.7729 c -5.513,-2.8632 0.1053,-3.3655 0.9033,-5.062 l 0.1404,-0.2451 c 1.1061,1.0309 -0.7197,2.258 -1.5551,2.9735 0.4265,0.1629 1.2004,0.4864 1.2399,0.4995 0.5065,0.2013 0.7537,0.7753 0.5525,1.282 -0.2012,0.5061 -0.775,0.7534 -1.281,0.5521 z m -0.7684,-2.0929 c -0.0247,0.0263 -0.0461,0.0516 -0.0636,0.0751 0.0307,-0.0142 0.051,-0.0411 0.0636,-0.0751 z m 12.1196,-0.4704 c -2.8908,1.572 1.1516,4.6272 1.9705,2.3478 0.4407,-1.2265 -2.5921,-2.5304 -0.2889,-4.671 l 6e-4,0.6179 c -0.0992,2.6292 3.1095,2.7147 1.4169,5.3965 -2.6864,4.2571 -10.1519,-2.0507 -4.3439,-6.0095 0.6397,-0.3438 1.4372,-0.1036 1.7808,0.5368 0.3437,0.6399 0.1036,1.4377 -0.536,1.7815 z m 6.071,-3.1649 c -2.1305,1.7546 2.5516,3.722 2.0856,1.7541 -0.1523,-0.6454 -0.9756,-0.4261 -1.5298,-0.4699 0.9417,-1.7283 3.1978,-0.4864 2.8311,1.2786 -0.9082,4.3783 -9.2962,0.2095 -5.1765,-4.4917 0.5322,-0.494 1.3643,-0.4633 1.8587,0.0696 0.4944,0.5324 0.4632,1.3653 -0.0691,1.8593 z M 72.1147,60.081 c -1.3013,-2.7559 -0.8512,-4.4183 2.4386,-4.7857 1.4125,-0.1579 1.4997,-0.097 2.4787,-0.3092 -2.5291,-2.0496 -10.1607,-2.0134 -7.3861,3.5475 0.9061,1.8166 2.2145,2.6549 3.8298,3.7126 -2.5619,-0.142 -4.5664,-1.9141 -5.5443,-4.2269 -2.9632,-7.0074 9.0293,-8.1961 11.748,-3.7351 1.8609,3.0547 -3.3929,3.5777 -5.2489,3.8365 0.0718,0.1673 0.1519,0.3 0.2785,0.5357 0.3935,0.7172 0.1315,1.617 -0.5849,2.0101 -0.7164,0.3937 -1.6164,0.1316 -2.0094,-0.5855 z m 8.4401,1.2583 c 3.4696,-0.466 3.474,2.0282 4.7955,4.8602 l 0.2039,0.5686 C 83.3666,67.1223 83.1068,64.82 81.645,63.9674 l -0.0236,0.0098 c -0.0121,0.0324 -0.0066,0.0269 -0.006,0.0625 -0.0883,0.0878 -0.0274,0.0357 -0.2012,0.1327 -0.7822,0.2375 -1.6082,-0.2045 -1.8455,-0.9869 -0.2374,-0.7819 0.2039,-1.6088 0.9861,-1.8462 z m 5.3151,4.6782 c -0.4856,-2.8583 -2.4375,-8.3074 -6.2513,-5.8532 -3.0071,1.935 1.0589,6.0314 2.8952,7.0617 l 1.5676,0.8246 c -5.1814,0.533 -10.6331,-7.1768 -4.704,-10.1771 5.2439,-2.6539 8.4345,3.4806 9.4256,7.7454 0.1101,0.8098 -0.4577,1.5561 -1.2673,1.6658 -0.8096,0.1102 -1.5556,-0.4573 -1.6658,-1.2672 z m -1.8165,7.2344 c -2.8146,-6.0835 9.441,-7.4406 8.0959,0.8406 l -0.7395,2.0781 -0.2729,-2.0918 c -1.0793,-6.1373 -5.734,-3.274 -4.8504,-2.2174 0.3842,0.6168 0.1951,1.4283 -0.4215,1.8122 -0.6166,0.3843 -1.4279,0.1952 -1.8116,-0.4217 z m 3.7465,-1.441 c 1.4366,0.1503 2.8661,1.0605 2.9686,2.6873 l -0.2663,1.2694 c -0.9872,-0.7463 -1.5896,-1.6839 -2.5445,-1.3302 -0.7251,0.0438 -1.3483,-0.5089 -1.3916,-1.2343 -0.0433,-0.7254 0.5086,-1.3488 1.2338,-1.3922 z m 1.2771,11.4882 c 0.6161,0.8773 1.3753,2.0217 0.7696,3.1879 -1.3051,2.5146 -3.8298,-0.9963 -4.8745,-2.6045 0.2127,0.4338 0.1776,0.9684 -0.1354,1.3785 -1.6997,2.2179 -0.1272,4.9984 2.4989,2.7509 l 0.7389,-0.6114 c -0.427,5.7699 -8.8358,2.4943 -5.3289,-3.7362 0.4407,-0.5774 1.2662,-0.6887 1.8439,-0.2478 0.0828,0.0636 0.1562,0.1354 0.2198,0.2127 -0.1008,-0.1595 -0.1803,-0.2873 -0.2329,-0.3701 -0.3404,-0.6421 -0.0965,-1.4388 0.5453,-1.7793 0.6419,-0.3405 1.4383,-0.0959 1.7787,0.5456 0.1628,0.3816 1.4679,2.8633 1.76,3.4489 0.2122,-0.5346 0.3651,-1.9421 0.4166,-2.1752 z m -4.829,-6.0917 c 4.9693,-4.6875 10.4555,3.2186 4.829,6.0917 l 0.3897,-1.0083 c 1.537,-3.8261 -1.6158,-5.3751 -3.1484,-3.4598 -0.4484,0.5718 -1.2749,0.6722 -1.8466,0.2237 C 83.9,78.6062 83.7997,77.7793 84.248,77.2074 Z m 4.7512,2.2514 c 0.5388,1.4788 0.6144,2.0221 -0.4972,3.1193 -0.4955,-0.3959 -1.305,-1.4124 -1.5281,-1.4393 -0.4638,-0.5598 -0.3859,-1.3889 0.1732,-1.8527 0.5591,-0.4639 1.3884,-0.3866 1.8521,0.1727 z M 88.587,85.619 c -0.0296,0.0094 -0.0592,0.0247 -0.1124,0.0571 0.0389,0.0153 0.0762,-0.0066 0.1124,-0.0571 z M 60.7022,53.107 c 1.1456,0.2254 1.0842,-0.0126 1.902,-0.2232 0.0871,-0.1623 0.0011,-1.7244 -1.1051,-1.7573 -3.2092,-0.096 -8.8884,3.8124 -3.9059,7.1938 1.2371,0.8395 3.9218,1.997 5.2938,2.6231 l -3.0207,-0.1222 c -6.5035,-1.2266 -8.9482,-6.7333 -3.3891,-10.8182 9.7747,-7.1828 13.8287,8.0459 3.28,6.7102 -0.9959,-0.261 -1.5912,-1.2803 -1.3303,-2.276 0.2615,-0.9957 1.2799,-1.5912 2.2753,-1.3302 z m 23.5568,61.839 c -2.1777,-1.829 -2.0697,-0.179 -2.3866,1.958 -2.5964,-3.239 0.1458,-5.849 3.7564,-3.809 0.5108,0.379 0.6182,1.1 0.24,1.611 -0.3782,0.511 -1.099,0.618 -1.6098,0.24 z m 6.9771,9.451 c -2.591,-2.102 -2.5307,-2.046 -4.9792,-0.19 l 0.2631,-1.388 c 1.2086,-2.732 4.1871,-1.349 6.0173,-0.322 0.524,0.359 0.6583,1.076 0.2988,1.6 -0.3591,0.525 -1.0754,0.659 -1.6,0.3 z m -1.1001,-3.345 c -2.6825,-1.688 -2.9988,-0.71 -4.9277,1.279 -0.143,-3.966 2.8881,-4.576 6.1193,-3.25 0.5438,0.329 0.7181,1.037 0.3892,1.582 -0.3289,0.544 -1.0365,0.718 -1.5808,0.389 z m -2.3087,-3.383 c -2.3663,-1.032 -2.8382,0.056 -4.1104,1.881 -0.843,-3.528 1.9952,-4.669 4.9666,-4.018 0.5903,0.236 0.877,0.907 0.6402,1.497 -0.2363,0.591 -0.9061,0.877 -1.4964,0.64 z m -14.6739,28.575 c -0.4451,0.307 -1.287,0.811 -1.7589,1.332 0.7394,0.23 2.1103,0.272 2.534,0.301 0.6352,0.02 1.1346,0.551 1.1148,1.186 -0.0197,0.636 -0.5508,1.135 -1.1861,1.115 -1.1319,-0.078 -2.4583,-0.091 -3.5316,-0.547 -3.4976,-1.487 -0.0055,-4.226 1.6006,-5.335 0.5377,-0.339 1.2486,-0.178 1.5873,0.36 0.3388,0.538 0.1776,1.249 -0.3601,1.588 z m 18.2427,-18.605 c -2.5164,-3.211 -1.857,-2.872 -4.8043,-0.775 1.4158,-4.912 3.7026,-3.381 6.5063,-0.776 0.4281,0.47 0.3941,1.198 -0.0757,1.626 -0.4703,0.429 -1.1982,0.395 -1.6263,-0.075 z m -0.4494,3.262 c -2.244,-3.052 -1.6778,-2.849 -4.8268,-0.858 1.7754,-4.765 3.8758,-3.311 6.5561,-0.662 0.4199,0.478 0.3727,1.205 -0.1052,1.625 -0.4774,0.419 -1.2048,0.372 -1.6241,-0.105 z m -0.1513,4.477 c -1.896,-4.728 -2.4359,-3.78 -5.8551,-1.583 0.4254,-1.153 0.3124,-1.209 1.0963,-2.069 2.8661,-3.147 5.3288,-0.091 6.8274,2.642 0.2785,0.572 0.0417,1.261 -0.5295,1.54 -0.5711,0.279 -1.2607,0.042 -1.5391,-0.53 z m -7.8733,2.376 c 1.3166,-1.881 5.1085,-6.536 7.3745,-2.892 2.158,3.471 -1.1894,8.503 -2.944,5.541 -0.4215,-0.712 -0.4133,-1.419 -0.4708,-2.203 1.2163,3.354 2.6551,2.401 2.1114,-0.328 -0.7729,-3.881 -2.4891,-1.229 -4.1318,1.123 -0.3426,0.536 -1.0546,0.692 -1.5901,0.35 -0.5356,-0.344 -0.6918,-1.055 -0.3492,-1.591 z m 1.1686,6.468 c 0.4023,-0.059 0.7975,2.022 1.1927,1.004 0.4506,-1.161 -0.2033,-2.222 -0.7641,-3.184 -0.2746,-0.573 -0.0328,-1.261 0.5405,-1.536 0.5733,-0.275 1.2607,-0.032 1.5353,0.541 2.6316,6.758 -4.0989,6.959 -2.5044,3.175 z m -1.2853,-3.116 c -4.4053,1.969 1.8461,1.788 1.2853,3.116 -0.2455,0.035 -1.9699,-0.051 -1.9853,-0.051 -3.7305,-0.134 -3.2427,-3.201 -0.3037,-5.137 0.5723,-0.277 1.2607,-0.038 1.5375,0.534 0.2774,0.573 0.0384,1.261 -0.5338,1.538 z m -2.3986,5.519 c -6.2701,2.467 -6.6406,-2.36 -2.6946,-4.761 0.5892,-0.238 1.2601,0.047 1.4975,0.637 0.2378,0.59 -0.0472,1.261 -0.637,1.499 -0.7147,0.299 -2.6743,1.622 -1.0145,2.082 z m -2.0139,3.181 c 0.9927,-0.497 3.3749,-1.567 2.3597,-2.743 l -0.3458,-0.438 c 2.7379,-0.794 2.4358,2.594 -0.8672,5.178 -0.5514,0.317 -1.2546,0.126 -1.5715,-0.425 -0.3168,-0.552 -0.1266,-1.255 0.4248,-1.572 z m -12.6041,4.691 c -3.3595,1.732 -4.7802,2.373 -8.6001,2.235 2.7856,-1.593 4.4974,-2.141 7.227,-4.083 0.5103,-0.379 1.2311,-0.273 1.6104,0.237 0.3793,0.511 0.273,1.232 -0.2373,1.611 z m 3.6878,-2.213 c -0.6644,2.037 -1.2415,2.678 -3.4094,3.049 0.546,-1.379 1.1171,-1.89 1.1286,-3.361 0.0866,-0.63 0.6671,-1.071 1.2969,-0.985 0.6298,0.087 1.0705,0.668 0.9839,1.297 z m 1.749,0.643 c 1.6488,-0.507 2.9999,-1.692 4.8515,-2.607 -0.3524,3.19 -0.9455,3.964 -3.5935,5.882 -0.9039,0.348 -1.9185,-0.104 -2.266,-1.008 -0.3475,-0.905 0.1036,-1.92 1.008,-2.267 z m -14.197,-4.01 c -0.1699,-0.593 -0.2773,-1.118 -0.314,-1.591 -0.1716,0.208 -0.341,0.445 -0.5147,0.715 -0.3037,0.559 -1.0026,0.765 -1.5611,0.462 -0.558,-0.304 -0.7646,-1.003 -0.4604,-1.562 l 0.5289,-0.824 c 1.2514,-1.665 5.3251,-3.634 6.1593,-1.907 1.0738,2.222 -2.5729,0.782 -1.6526,3.985 0.1995,0.604 -0.1283,1.255 -0.7317,1.454 -0.6035,0.2 -1.2547,-0.128 -1.4537,-0.732 z m 3.2597,4.925 c -3.4734,-0.141 -4.79,-0.881 -6.3478,-4.09 2.6633,1.497 3.1939,2.174 6.1368,1.797 0.6325,-0.058 1.1933,0.408 1.2514,1.041 0.0586,0.633 -0.4073,1.194 -1.0404,1.252 z M 45.7674,143.341 c 0.7087,4.096 8.7152,5.667 6.3703,7.942 -0.5257,0.51 -2.1547,-0.074 -3.3414,0.007 -0.9548,0.066 -1.6723,0.14 -2.5449,0.447 -0.6008,0.208 -1.2563,-0.111 -1.4635,-0.712 -0.2078,-0.602 0.1112,-1.257 0.712,-1.465 0.6813,-0.239 1.4125,-0.421 2.1591,-0.526 -1.8412,-1.121 -3.6149,-2.201 -4.1839,-5.484 -0.0575,-0.633 0.4084,-1.193 1.0415,-1.251 0.633,-0.058 1.1932,0.408 1.2508,1.042 z m -6.0426,-11.44 c 1.1654,0.486 1.7551,-1.313 -0.5415,-2.267 -1.3133,-0.545 -2.2945,-1.326 -2.6864,-1.5 -1.0485,-0.463 -1.6126,2.366 -0.8726,4.092 1.6257,3.792 4.7051,5.933 6.0091,10.776 l 0.5229,3.248 c 0.0318,0.635 -0.4577,1.175 -1.0924,1.207 -0.6347,0.031 -1.1752,-0.458 -1.207,-1.093 l -0.4418,-2.745 c -1.4185,-5.265 -8.7733,-10.974 -5.912,-15.949 2.0346,-3.538 4.516,-1.015 6.5238,-0.179 5.2554,2.19 2.8924,8.275 -1.4646,6.397 -0.5487,-0.321 -0.7329,-1.026 -0.4122,-1.575 0.3212,-0.549 1.0261,-0.734 1.5747,-0.412 z m 3.0509,2.506 c 2.3109,-0.056 5.7668,0.66 4.9485,3.689 -0.4681,1.733 -2.4852,2.263 -3.9843,2.602 -0.6282,0.098 -1.2169,-0.332 -1.315,-0.96 -0.0981,-0.629 0.3316,-1.217 0.9598,-1.316 3.1385,-0.711 2.614,-1.807 -0.3475,-1.727 -0.632,0.072 -1.2021,-0.382 -1.2744,-1.014 -0.0718,-0.631 0.3815,-1.202 1.0129,-1.274 z m 5.6769,6.999 c 1.1308,-0.396 6.3939,-2.032 5.6984,1.113 -0.2193,0.993 -1.4285,2.149 -2.1158,2.887 -0.4221,0.476 -1.1494,0.519 -1.6252,0.098 -0.4758,-0.422 -0.5191,-1.15 -0.0976,-1.626 0.5071,-0.544 0.7225,-0.76 0.8584,-0.906 -0.5887,0.124 -1.168,0.324 -1.7239,0.511 -0.5733,0.274 -1.2606,0.032 -1.5353,-0.541 -0.2746,-0.574 -0.0323,-1.262 0.541,-1.536 z m 17.4579,5.587 c -0.5575,0.143 -3.1216,0.831 -1.5819,1.943 0.3952,0.286 0.82,0.354 1.2853,0.423 0.6331,0.059 1.099,0.62 1.0404,1.253 -0.0587,0.633 -0.6189,1.099 -1.2519,1.041 -1.4509,-0.216 -2.9002,-0.712 -3.5157,-2.197 -1.1845,-2.858 1.2705,-4.127 3.5469,-4.716 0.6221,-0.132 1.2327,0.266 1.3643,0.888 0.1315,0.622 -0.2659,1.233 -0.8874,1.365 z M 81.201,112.214 c -3.2098,-1.453 -1.9004,0.905 -1.2042,3.411 l -1.64,-1.55 c -2.1547,-2.953 0.1003,-4.985 3.7826,-3.965 0.5804,0.26 0.8408,0.941 0.5821,1.521 -0.2593,0.581 -0.94,0.842 -1.5205,0.583 z m -17.6146,0.779 c -0.8348,1.523 1.8214,1.776 3.2504,2.211 l -1.5172,0.384 c -1.4838,0.092 -2.7406,-0.335 -3.2104,-1.302 0.017,0.107 0.0126,0.219 -0.0159,0.332 -0.5404,1.649 0.6611,1.459 2.1152,1.905 -1.4624,1.021 -2.8294,0.69 -3.4252,-0.434 0.0438,0.211 0.0055,0.438 -0.125,0.63 -1.2327,1.557 0.7806,1.831 1.6049,2.134 -1.971,1.579 -4.1915,-0.628 -2.9648,-3.058 0.2554,-0.376 0.7663,-0.474 1.1423,-0.218 0.0806,0.054 0.1491,0.122 0.2034,0.196 -0.1584,-0.438 -0.216,-0.967 -0.1436,-1.564 0.1123,-0.44 0.5607,-0.705 1.0003,-0.593 0.2105,0.055 0.3809,0.185 0.4895,0.355 -0.1332,-0.473 -0.1036,-1.05 0.1354,-1.734 0.2082,-0.403 0.7043,-0.561 1.1077,-0.352 0.4034,0.208 0.5613,0.704 0.353,1.108 z m 2.1854,-1.489 c -1.2212,1.218 0.934,1.432 3.3238,2.588 -2.3876,0.01 -6.9886,-0.41 -4.5083,-3.729 0.3146,-0.327 0.8348,-0.337 1.162,-0.022 0.3272,0.315 0.3377,0.835 0.0225,1.163 z m 4.6141,-1.435 c -2.9385,1.243 -2.0439,1.006 0.8737,3.445 -4.5143,-0.148 -6.3599,-2.688 -1.8263,-5.541 0.5788,-0.264 1.2612,-0.008 1.5243,0.571 0.2631,0.579 0.0071,1.262 -0.5717,1.525 z m 6.1198,-0.203 c -4.8158,0.086 -2.626,0.845 -0.2225,4.043 -1.3067,-0.225 -1.9952,-0.525 -3.0437,-1.473 -3.2619,-2.947 0.0811,-4.42 3.1588,-4.87 0.6353,-0.029 1.1741,0.461 1.2037,1.097 0.0296,0.635 -0.461,1.174 -1.0963,1.203 z m 0.2851,15.107 c -0.7329,-0.036 -0.6183,0.083 -1.2388,0.494 -0.8183,-0.886 -0.0066,-1.658 0.831,-2.087 0.4396,-0.113 0.8874,0.152 1.0003,0.593 0.1129,0.44 -0.1524,0.887 -0.5925,1 z m -1.19,2.675 c -1.1182,-0.376 0.8879,-1.757 1.2656,-1.957 0.4423,-0.103 0.8841,0.171 0.9872,0.614 0.1036,0.442 -0.1716,0.884 -0.6134,0.987 -1.1187,0.035 -0.8106,0.033 -1.6394,0.356 z m 0.9746,2.102 c -0.2308,-0.203 -1.9486,-1.721 -0.9746,-2.102 0.6336,0.213 0.7279,0.367 1.6904,0.621 0.4089,0.198 0.5799,0.69 0.3821,1.099 -0.1979,0.409 -0.689,0.58 -1.0979,0.382 z m -1.1654,1.27 c -0.2537,-0.394 -0.8534,-0.83 -1.2371,-1.201 0.985,-0.596 1.2256,-0.596 2.3433,-0.017 0.336,0.306 0.3606,0.826 0.0553,1.162 -0.3058,0.336 -0.8255,0.361 -1.1615,0.056 z m -1.0573,1.779 c -0.4242,-0.59 -0.8945,-0.801 -1.4931,-1.335 1.1429,-0.618 1.4936,-0.492 2.6535,0.17 0.3217,0.321 0.3228,0.841 0.0022,1.163 -0.3201,0.322 -0.8408,0.323 -1.1626,0.002 z m -1.623,1.334 c -0.4314,-0.853 -0.8068,-0.874 -1.4268,-1.481 0.9812,-0.814 1.9338,-0.181 2.7768,0.542 0.2593,0.373 0.1672,0.885 -0.2055,1.145 -0.3727,0.259 -0.8852,0.167 -1.1445,-0.206 z m -1.8894,0.923 c -0.1781,-0.764 -0.7169,-1.155 -1.0354,-1.892 1.0612,-0.456 2.0379,0.609 2.602,1.393 0.1375,0.433 -0.1014,0.895 -0.5339,1.033 -0.4325,0.138 -0.8951,-0.101 -1.0327,-0.534 z m -2.0522,0.635 c 0.1091,-1.256 -0.126,-1.218 -0.4193,-2.294 1.3681,-0.065 1.7661,1.078 2.0632,2.241 0.0142,0.454 -0.3421,0.834 -0.7959,0.848 -0.4539,0.015 -0.8332,-0.341 -0.848,-0.795 z m -2.3279,-0.531 c 0.7427,-0.705 0.4725,-1.329 0.5498,-2.262 1.4471,0.669 1.4109,2.035 0.7345,3.29 -0.2839,0.355 -0.8014,0.412 -1.1555,0.128 -0.3546,-0.283 -0.4121,-0.801 -0.1288,-1.156 z m -2.1673,-0.694 c 0.9686,-0.083 0.9346,-1.196 1.2344,-2.03 1.2541,1.235 0.7257,2.965 -0.8172,3.621 -0.4391,0.115 -0.8885,-0.148 -1.0036,-0.587 -0.1151,-0.439 0.1474,-0.889 0.5864,-1.004 z m -2.0467,-1.17 c 1.3528,-0.032 1.2174,-0.596 2.1547,-1.527 0.5613,1.687 -0.393,2.685 -1.9519,3.159 -0.4505,0.056 -0.8611,-0.264 -0.9175,-0.715 -0.0559,-0.451 0.2642,-0.861 0.7147,-0.917 z m -1.749,-1.868 c 0.9652,-0.045 1.5758,-0.734 2.3673,-1.192 0.1716,1.453 -0.7821,2.342 -2.0648,2.809 -0.4461,0.083 -0.8759,-0.21 -0.9592,-0.657 -0.0833,-0.447 0.2105,-0.876 0.6567,-0.96 z m -1.5901,-2.439 c 1.1116,0.566 1.2974,0.033 2.3169,-0.649 0.1156,1.915 -1.1955,2.529 -2.8963,2.188 -0.4254,-0.16 -0.6397,-0.634 -0.4802,-1.059 0.1601,-0.425 0.6342,-0.64 1.0596,-0.48 z m -1.2169,-3.019 c 0.8491,1.527 2.1421,0.635 3.1216,0.248 -0.0148,1.847 -2.8514,2.542 -4.493,0.659 -0.2505,-0.379 -0.1463,-0.889 0.2324,-1.139 0.3788,-0.251 0.8885,-0.147 1.139,0.232 z m 0.5503,-3.812 c 0.9105,3.043 0.934,2.911 3.0092,2.692 -0.2121,0.413 -0.1523,0.424 -0.524,0.683 -2.0483,1.423 -3.5332,-1.846 -4.1109,-3.131 -0.0674,-0.449 0.2417,-0.868 0.6906,-0.935 0.4489,-0.067 0.8677,0.242 0.9351,0.691 z m 0.6298,-3.172 c -0.1014,2.466 0.2938,2.013 2.3997,3.019 -2.8442,0.827 -3.7113,-0.352 -4.0435,-2.999 -0.0055,-0.454 0.3579,-0.827 0.8118,-0.832 0.4544,-0.006 0.8265,0.358 0.832,0.812 z m -32.0675,-4.399 c 0.8704,0.892 2.4956,-0.681 2.4391,-1.381 0.0746,-0.005 0.154,-0.011 0.2396,-0.019 1.9096,-0.166 2.7515,-3.666 0.8106,-3.995 -1.3264,-0.224 -2.1804,1.767 -2.1733,3.016 0.0038,0.101 0.0088,0.193 0.0154,0.276 -1.3824,-0.351 -3.3294,-0.047 -1.3314,2.103 z m -7.0215,5.524 c 1.4054,3.568 3.0218,0.322 2.8683,-0.376 -0.0263,-0.121 -0.0707,-0.234 -0.1293,-0.338 1.7178,-0.094 2.2259,-0.971 1.8981,-1.621 1.5205,-0.034 3.9147,-2.657 1.0162,-3.26 -1.2491,-0.26 -1.5495,0.064 -1.9606,1.224 -0.108,0.615 -0.0883,1.067 0.0197,1.388 -0.2757,-0.064 -0.6002,-0.078 -0.9674,-0.019 -0.6046,0.097 -0.8112,1.07 -0.5586,1.735 -1.0463,-0.638 -2.8129,-0.342 -2.1864,1.267 z m -2.1668,1.741 c -1.4509,-0.1 -1.7759,0.945 -0.9548,2.035 2.198,2.919 4.3592,-1.797 0.9548,-2.035 z m -3.332,3.035 c -0.4298,0.116 -1.4926,1.575 -0.7301,2.452 2.3739,2.732 4.0742,-3.353 0.7301,-2.452 z m 1.6734,-23.078 c 1.6553,3.102 4.2759,-1.321 1.327,-2.0342 -1.3265,-0.3214 -1.7211,0.8502 -1.327,2.0342 z M 30.8041,87.7871 c 1.6811,3.7241 2.8601,-1.0643 2.1612,-2.2092 -0.3233,-0.5302 -3.0075,0.2325 -2.1612,2.2092 z m -1.7683,4.2219 c 4.2469,0.862 1.1747,-6.4667 -0.9269,-2.5595 -0.6402,1.1904 -0.2631,2.0063 0.9269,2.5595 z m -3.7881,1.8687 c 1.3484,2.4871 3.1742,0.3383 2.551,-1.2365 -1.0464,-2.6439 -3.3282,-0.4677 -2.551,1.2365 z m -1.6646,2.5913 c 0.7109,0.2232 1.5144,-0.5631 1.6065,-0.7611 0.3059,-0.6618 -0.7306,-2.7601 -1.6866,-1.8182 -0.268,0.2638 -0.6555,1.0495 -0.644,1.6225 -0.7603,-0.1278 -2.8607,1.3713 -3.3173,1.924 -1.1472,1.254 0.8474,2.8818 1.3243,2.8248 0.5399,-0.065 2.9708,-2.2233 2.7171,-3.792 z M 12.3563,93.6638 c -0.4132,-1.9519 -0.6139,-2.6159 0.6002,-4.1391 0.7713,1.1306 1.0267,1.9097 1.7798,3.0167 0.3097,0.6575 0.028,1.4416 -0.6292,1.7519 -0.6567,0.3098 -1.4405,0.028 -1.7508,-0.6295 z m 5.5652,-4.847 c -3.8418,-0.8493 -3.5996,-5.1064 -1.8297,-7.661 l 1.3577,-1.4119 c -0.0312,1.0747 -0.9274,6.18 0.7247,6.0133 0.8446,0.0696 1.4728,0.811 1.4032,1.6559 -0.0696,0.845 -0.8113,1.4733 -1.6559,1.4037 z m 6.6307,-13.1573 c -3.3244,-0.4786 -2.7056,4.1672 0.2779,2.4011 1.0392,-0.6152 1.0299,-1.6099 0.7388,-2.5425 -0.308,0.137 -0.6577,0.1924 -1.0167,0.1414 z m 1.9677,-1.0949 c 1.0201,1.425 1.3298,4.2888 -1.0184,5.6541 -6.6137,3.8459 -9.601,-8.4505 -0.4259,-8.2504 1.019,0.1448 1.7283,1.0879 1.5836,2.1072 -0.0247,0.1727 -0.0724,0.3366 -0.1393,0.4891 z m 5.034,-5.6169 c 0.3223,-5.0242 -4.2989,-1.2041 -2.4775,1.1569 1.68,2.1779 7.2627,1.3291 9.6569,1.3499 -1.4498,0.8159 -1.1922,0.794 -2.9347,1.2102 -10.6183,2.5348 -11.7666,-6.4783 -6.3862,-8.5306 3.7322,-1.424 5.1814,1.7885 5.1995,5.0762 -0.0723,0.845 -0.8156,1.4711 -1.6603,1.3982 -0.8441,-0.0724 -1.47,-0.8159 -1.3977,-1.6608 z m 18.7207,-15.566 c 0.2231,2.9346 0.1464,6.1816 -3.3836,6.7694 -5.2077,0.8675 -1.6389,3.2257 1.9991,3.4999 11.7622,0.8877 -7.2287,-0.7676 5.1112,0.3356 -2.6151,0.8049 -2.4046,0.9025 -5.1222,1.0988 -3.069,0.222 -8.2082,-1.2968 -6.5107,-5.028 1.8335,-4.0312 5.427,-0.0192 5.0181,-5.1898 -3.5217,0.2813 -6.4541,2.4603 -7.3816,6.0254 -1.4881,5.7167 4.8718,6.4202 8.7947,7.0842 l -2.8809,0.5006 c -6.9799,0.3081 -10.3333,-5.442 -6.8122,-11.3703 2.2457,-3.7806 5.2484,-5.1377 9.3681,-5.3 0.2801,-0.0499 0.5569,-0.0197 0.8063,0.0746 l 0.0137,0.0049 c 0.0115,0.0044 0.023,0.0088 0.034,0.0137 0.1249,0.0516 0.2411,0.119 0.3464,0.1996 l 0.0049,0.0044 0.0164,0.0131 0.0143,0.011 0.0077,0.0066 c 0.2017,0.1661 0.3623,0.3849 0.4588,0.6404 l 0.0027,0.0077 0.0016,0.0044 0.005,0.0137 0.0071,0.0203 0.0027,0.0071 c 0.0587,0.1738 0.0866,0.3608 0.0784,0.5527 z m 16.1522,20.4909 c 1.5046,-0.0389 1.7513,0.3723 4.0605,1.8473 -3.1342,0.0965 -1.7913,0.0537 -4.0293,0.1261 -0.5448,0.0087 -0.9932,-0.4261 -1.0019,-0.9711 -0.0088,-0.545 0.4259,-0.9941 0.9707,-1.0023 z m 1.7852,20.197 0.0192,-6e-4 -0.0016,-0.0049 c -1.5046,-0.2325 -1.6504,2.8041 0.6928,2.8649 0.6989,0.0187 1.3067,-1.7003 0.2807,-3.104 -0.2511,0.2506 -0.6287,0.357 -0.9911,0.2446 z m 1.2783,-0.8806 c 1.4487,0.8948 2.0165,5.1305 -0.7707,5.0598 -4.7857,-0.1217 -3.8851,-6.8922 0.0789,-6.0638 0.4435,0.1377 0.7197,0.5599 0.6918,1.004 z m -57.3072,20.962 c -2.43803,-3.148 -2.96971,-3.877 -2.92586,-7.826 2.15906,1.91 3.14566,3.314 5.41606,5.051 0.7657,0.688 0.8293,1.867 0.1419,2.633 -0.6879,0.766 -1.8658,0.829 -2.6321,0.142 z m 14.2135,24.068 c 1.6449,1.592 2.147,1.982 2.1541,4.244 -1.453,-0.733 -2.0609,-1.322 -3.5524,-2.015 -0.615,-0.386 -0.8013,-1.198 -0.4149,-1.813 0.3859,-0.616 1.1977,-0.803 1.8132,-0.416 z m 62.584,27.802 c 3.0848,-0.305 6.3253,0.029 8.2613,-3.509 l 0.4281,-0.985 c 0.3897,-0.887 1.4246,-1.291 2.3114,-0.901 0.8866,0.389 1.2906,1.425 0.9006,2.312 l -0.9181,1.442 c -2.6496,3.4 -9.7095,4.7 -10.9833,1.641 z m 2.9012,-3.377 c -0.2867,-2.583 -4.3198,0.224 -3.4708,2.203 l 0.3366,0.615 0.233,0.559 c -0.8595,0.085 -0.7411,0.217 -1.5233,-0.446 -3.9427,-3.341 5.4407,-11.48 7.8799,-3.536 0.1671,0.954 -0.4709,1.863 -1.4252,2.031 -0.9537,0.167 -1.863,-0.471 -2.0302,-1.426 z"
       fill="#242b3d"
       id="path2" />
    <path
       fill-rule="evenodd"
       clip-rule="evenodd"
       d="m 149.099,66.5774 h -46.034 c 0.704,1.8725 1.628,3.6265 2.735,5.2369 h 40.563 c 1.107,-1.6104 2.031,-3.3644 2.736,-5.2369 z m -41.109,7.979 c 0.935,1.0133 1.953,1.9454 3.041,2.7876 h 30.101 c 1.089,-0.8422 2.107,-1.7743 3.042,-2.7876 z m 7.488,5.5292 c 3.232,1.5473 6.837,2.4048 10.604,2.4048 3.766,0 7.371,-0.8575 10.603,-2.4048 z"
       fill="#242b3d"
       id="path3" />
    <path
       fill-rule="evenodd"
       clip-rule="evenodd"
       d="m 125.047,63.5656 c 0.45,0.3213 1.285,0.3213 1.754,0.1765 0.47,-0.1453 0.574,-0.4348 0.626,-5.8828 0.053,-5.448 0.053,-16.0534 -0.134,-22.3612 -0.187,-6.3077 -0.561,-8.3178 -0.838,-9.3377 -0.276,-1.0199 -0.456,-1.05 -0.741,-0.5401 -0.285,0.5099 -0.675,1.56 -0.9,2.5502 -0.224,0.9897 -0.285,1.9196 -0.315,7.5409 -0.029,5.6207 -0.029,15.9334 0.002,21.411 0.033,5.4781 0.097,6.1213 0.546,6.4432 z"
       fill="#242b3d"
       id="path4" />
    <path
       fill-rule="evenodd"
       clip-rule="evenodd"
       d="m 117.522,151.33 c 1.757,0 3.181,-1.345 3.181,-3.004 0,-1.66 -1.424,-3.005 -3.181,-3.005 -1.757,0 -3.182,1.345 -3.182,3.005 0,1.659 1.425,3.004 3.182,3.004 z m 0,3.149 c 1.854,0 3.525,-0.703 4.727,-1.838 1.172,-1.107 1.897,-2.633 1.897,-4.315 0,-1.683 -0.725,-3.209 -1.897,-4.315 -1.202,-1.136 -2.873,-1.838 -4.727,-1.838 -1.854,0 -3.525,0.702 -4.727,1.838 -1.172,1.106 -1.897,2.632 -1.897,4.315 0,1.682 0.725,3.208 1.897,4.315 1.202,1.135 2.873,1.838 4.727,1.838 z m 7.224,0.818 c -1.855,1.753 -4.411,2.837 -7.224,2.837 -2.814,0 -5.369,-1.084 -7.225,-2.837 -1.886,-1.782 -3.053,-4.246 -3.053,-6.971 0,-2.725 1.167,-5.19 3.053,-6.971 1.856,-1.753 4.411,-2.838 7.225,-2.838 2.813,0 5.369,1.085 7.224,2.838 1.887,1.781 3.054,4.246 3.054,6.971 0,2.725 -1.167,5.189 -3.054,6.971 z m -6.942,6 c 3.221,-1.507 6.331,-3.217 9.314,-5.113 1.688,-2.201 2.691,-4.949 2.691,-7.931 0,-3.619 -1.476,-6.893 -3.863,-9.262 -2.388,-2.37 -5.694,-3.836 -9.35,-3.836 -1.323,0 -2.6,0.192 -3.805,0.549 -1.448,0.43 -2.763,1.066 -4.056,2.014 -0.529,0.388 -1.027,0.814 -1.49,1.273 -2.387,2.369 -3.863,5.643 -3.863,9.262 0,3.618 1.476,6.893 3.863,9.262 2.389,2.369 5.694,3.836 9.351,3.836 0.407,0 0.81,-0.019 1.208,-0.054 z"
       fill="#242b3d"
       id="path5" />
    <path
       d="m 165.422,96.1989 c -0.129,0.9517 -0.27,1.8996 -0.431,2.8409 -1.516,1.1922 -3.071,2.4452 -4.462,3.6212 -2.937,2.484 -5.1,4.598 -7.348,6.798 -0.456,0.445 -0.915,0.896 -1.386,1.353 -1.401,1.362 -2.873,2.764 -4.312,4.066 -1.468,1.33 -2.97,2.623 -4.446,3.778 -1.447,1.133 -2.869,2.13 -4.261,3.009 -1.377,0.87 -2.721,1.621 -4.027,2.271 h -0.007 c -1.32,0.657 -2.582,1.203 -3.864,1.689 -1.318,0.498 -2.675,0.944 -4.147,1.381 -0.789,0.234 -1.722,0.495 -2.678,0.764 -2.367,0.666 -4.884,1.375 -7.314,2.273 -1.799,0.665 -3.536,1.429 -5.242,2.238 -2.602,0.821 -4.933,2.252 -6.821,4.126 -3.057,3.033 -4.9484,7.222 -4.9484,11.846 0,4.624 1.8914,8.813 4.9484,11.846 1.785,1.772 3.966,3.148 6.399,3.987 -2.594,-0.864 -5.043,-2.033 -7.235,-3.627 h -0.001 c -0.104,-0.076 -0.208,-0.153 -0.311,-0.23 l -0.001,-0.001 c -0.103,-0.078 -0.205,-0.157 -0.306,-0.236 h -0.002 c -0.102,-0.08 -0.203,-0.161 -0.303,-0.242 l -10e-4,-0.001 c -0.1,-0.082 -0.201,-0.164 -0.3,-0.247 l -10e-4,-0.001 c -2.7885,-2.348 -5.0865,-5.494 -6.6354,-9.728 -0.0554,-0.151 -0.109,-0.304 -0.1621,-0.458 -0.0537,-0.154 -0.1058,-0.309 -0.1573,-0.466 -0.0514,-0.157 -0.102,-0.315 -0.1513,-0.474 -0.0494,-0.16 -0.0988,-0.321 -0.1465,-0.484 -0.0471,-0.162 -0.0932,-0.326 -0.1387,-0.492 -0.0454,-0.165 -0.0895,-0.332 -0.1328,-0.5 -0.0438,-0.168 -0.0868,-0.339 -0.1279,-0.51 -0.0417,-0.171 -0.0817,-0.344 -0.1211,-0.518 -0.0395,-0.174 -0.0776,-0.35 -0.1143,-0.528 -0.0372,-0.177 -0.0733,-0.355 -0.1084,-0.536 -0.035,-0.18 -0.0697,-0.361 -0.1025,-0.545 0.4149,-0.966 0.8515,-2.002 1.4433,-2.772 1.269,-1.375 2.5367,-2.749 3.6944,-3.957 1.2246,-1.278 2.3946,-2.449 3.4516,-3.405 1.039,-0.942 2.017,-1.72 2.999,-2.393 0.959,-0.657 1.912,-1.202 2.922,-1.691 1.037,-0.502 2.131,-0.946 3.261,-1.342 1.157,-0.405 2.352,-0.762 3.566,-1.078 1.336,-0.348 2.664,-0.643 3.993,-0.939 1.307,-0.29 2.619,-0.582 3.696,-0.853 1.322,-0.334 2.639,-0.709 3.962,-1.159 1.327,-0.452 2.654,-0.977 3.994,-1.61 1.329,-0.628 2.662,-1.359 4.005,-2.179 1.309,-0.799 2.647,-1.698 4.015,-2.68 1.361,-0.977 2.72,-2.013 4.14,-3.161 1.477,-1.193 2.997,-2.481 4.631,-3.919 1.802,-1.588 4.259,-3.831 6.551,-5.927 0.994,-0.909 1.944,-1.779 3.602,-3.272 1.485,-1.338 2.688,-2.3928 3.755,-3.27 1.095,-0.9008 2.116,-1.6803 3.225,-2.4561 z m -1.586,8.4511 c -4.627,19.224 -15.724,35.866 -30.811,47.406 0.287,-1.222 0.438,-2.495 0.438,-3.803 0,-4.624 -1.89,-8.813 -4.947,-11.846 -1.902,-1.887 -4.253,-3.326 -6.878,-4.144 1.148,-0.346 2.291,-0.668 3.4,-0.98 0.9,-0.253 1.777,-0.5 2.72,-0.779 1.563,-0.464 3.005,-0.937 4.404,-1.466 1.435,-0.543 2.81,-1.137 4.207,-1.832 l -0.002,-0.003 c 1.409,-0.701 2.861,-1.512 4.351,-2.453 1.478,-0.935 3,-2.003 4.56,-3.224 1.532,-1.2 3.103,-2.552 4.646,-3.949 1.572,-1.425 3.051,-2.831 4.411,-4.152 0.471,-0.457 0.931,-0.907 1.387,-1.353 2.192,-2.144 4.302,-4.208 7.163,-6.627 0.308,-0.261 0.626,-0.527 0.951,-0.795 z m 2.288,-16.1356 c -0.046,0.9928 -0.111,1.9807 -0.19,2.9648 -0.826,0.5302 -1.695,1.106 -2.549,1.7031 -1.219,0.8504 -2.326,1.6931 -3.5,2.6592 -1.218,1.0016 -2.444,2.0747 -3.883,3.3701 -0.527,0.4754 -2.04,1.8584 -3.618,3.3004 -2.014,1.842 -4.173,3.815 -6.507,5.871 -1.669,1.469 -3.149,2.725 -4.503,3.819 -1.41,1.139 -2.716,2.136 -3.983,3.046 -1.263,0.906 -2.521,1.751 -3.786,2.523 -1.232,0.752 -2.451,1.421 -3.663,1.993 -1.2,0.567 -2.4,1.043 -3.608,1.453 -1.211,0.412 -2.435,0.76 -3.677,1.073 -1.342,0.339 -2.471,0.591 -3.596,0.841 -1.395,0.31 -2.787,0.619 -4.121,0.966 -1.315,0.343 -2.607,0.728 -3.852,1.163 -1.272,0.446 -2.495,0.943 -3.646,1.5 -1.176,0.57 -2.283,1.202 -3.393,1.961 -1.088,0.746 -2.192,1.626 -3.386,2.707 -0.7491,0.679 -1.5151,1.419 -2.2918,2.2 0.2132,-1.352 0.3295,-2.729 0.3388,-4.123 1.2195,-0.824 2.408,-1.622 3.429,-2.284 1.427,-0.924 2.834,-1.797 4.199,-2.569 2.745,-1.551 5.609,-2.852 7.042,-3.503 l 1.021,-0.464 c 0.156,0.01 0.311,0.017 0.466,0.023 3.917,0.13 8.018,-1.193 11.374,-3.999 l 0.211,-0.183 c 0.835,-0.72 1.583,-1.502 2.241,-2.329 2.606,-1.001 5.209,-2.011 7.752,-3.188 1.332,-0.616 2.651,-1.284 3.968,-2.013 1.311,-0.727 2.587,-1.497 3.835,-2.322 1.242,-0.822 2.481,-1.714 3.701,-2.661 1.245,-0.965 2.44,-1.963 3.57,-2.978 1.625,-1.4618 3.193,-3.0308 4.643,-4.4816 0.514,-0.5137 1.012,-1.0134 1.494,-1.4883 0.911,-0.8952 1.742,-1.6853 2.496,-2.3613 0.741,-0.664 1.461,-1.2638 2.173,-1.8017 0.682,-0.5153 1.323,-0.9417 1.946,-1.3233 0.647,-0.3964 1.251,-0.7349 1.853,-1.0644 z M 59.7901,68.945 c 4.2665,-1.8126 8.8322,-2.1411 12.8965,0.2246 0.542,0.3158 1.0715,0.6734 1.584,1.0752 1.606,1.2595 2.9446,3.1455 3.6933,5.211 0.6687,1.8445 0.8514,3.8017 0.3028,5.5234 -0.7433,2.3329 -2.2507,3.9138 -3.9717,4.7949 -1.1307,0.5784 -2.3516,0.8585 -3.5059,0.8535 -0.0854,-5e-4 -0.1697,-0.0031 -0.2529,-0.0058 h -0.0039 c -5.2335,-0.1903 -6.1945,-5.4645 -3.8809,-4.8877 0.032,0.0083 0.1005,0.0281 0.1338,0.0391 l 0.0362,0.0117 c 0.0355,0.0126 0.0722,0.0272 0.1093,0.042 l 0.0313,0.0127 c 0.0389,0.0164 0.0782,0.0345 0.1181,0.0537 l 0.0313,0.0146 c 0.0422,0.0208 0.0851,0.0433 0.1289,0.0674 l 0.0234,0.0127 c 0.0465,0.0257 0.0936,0.0535 0.1416,0.083 l 0.0186,0.0107 c 0.0498,0.0307 0.1009,0.0642 0.1523,0.0987 l 0.0147,0.0097 c 0.0548,0.0373 0.11,0.077 0.167,0.1192 l 0.0058,0.0049 c 0.0581,0.0427 0.1175,0.0885 0.1778,0.1367 l 0.0049,0.0039 c 0.0607,0.0487 0.123,0.0997 0.1865,0.1533 l 0.0019,0.0029 c 0.0635,0.0543 0.1291,0.1117 0.1953,0.1719 0.814,0.7417 2.2772,0.7435 3.2989,0.4815 0.7021,-0.1804 1.4298,-0.5087 1.9521,-0.961 0.5218,-0.4529 0.8382,-1.0289 1.0322,-1.5947 0.1941,-0.5658 0.2662,-1.1214 0.3018,-1.3994 0.0077,-0.0565 0.0145,-0.1125 0.0205,-0.169 v -0.0039 l 0.001,-0.0048 v -0.0049 l 0.0088,-0.0821 v -0.0048 l 10e-4,-0.0039 9e-4,-0.0049 v -0.0049 l 0.001,-0.0039 v -0.0049 c 0.0137,-0.1419 0.025,-0.2834 0.0332,-0.4248 v -0.0049 c 0.0077,-0.1271 0.0134,-0.2547 0.0156,-0.3818 0.0017,-0.074 0.002,-0.1487 0.002,-0.2227 v -0.0107 c 0,-0.0499 -9e-4,-0.1005 -0.002,-0.1504 l -9e-4,-0.0762 c -0.0011,-0.047 -0.0033,-0.095 -0.0049,-0.1426 l -10e-4,-0.0283 c -0.0027,-0.0646 -0.0059,-0.1297 -0.0098,-0.1943 l -0.0019,-0.0235 c -0.0028,-0.0482 -0.0065,-0.0963 -0.0098,-0.1445 v -10e-4 L 74.962,77.1355 c -0.0039,-0.0454 -0.0074,-0.0914 -0.0117,-0.1368 l -0.0049,-0.038 c -0.0055,-0.0538 -0.011,-0.1074 -0.0176,-0.1612 L 74.921,76.74 C 74.9155,76.698 74.9098,76.6555 74.9044,76.613 L 74.9034,76.6062 74.8936,76.531 C 74.887,76.4876 74.8797,76.4444 74.8731,76.4011 l -0.0078,-0.0459 c -0.0071,-0.0444 -0.0148,-0.0894 -0.0225,-0.1338 l -0.0146,-0.085 c -0.0071,-0.0376 -0.0144,-0.0752 -0.0215,-0.1123 l -0.0186,-0.0927 -0.0214,-0.0967 -0.0196,-0.0889 -0.0224,-0.0986 c -0.0088,-0.0355 -0.0171,-0.071 -0.0264,-0.1065 L 74.6749,75.448 c -0.0088,-0.035 -0.0176,-0.071 -0.0274,-0.1065 l -0.0244,-0.0879 -0.0273,-0.0947 -0.0264,-0.0898 c -0.0104,-0.0351 -0.0213,-0.07 -0.0322,-0.1045 l -0.0274,-0.086 c -0.012,-0.0376 -0.0245,-0.0747 -0.0371,-0.1123 l -0.0215,-0.0644 c -0.013,-0.0381 -0.0264,-0.0762 -0.04,-0.1143 l -0.0313,-0.0869 c -0.013,-0.0349 -0.0269,-0.0696 -0.04,-0.1045 l -0.0303,-0.0781 c -0.0142,-0.0361 -0.0282,-0.0723 -0.0429,-0.1084 -0.9483,-2.3386 -2.7876,-4.2542 -5.3457,-5.0322 -2.4736,-0.6196 -4.8262,-0.5251 -6.9737,0.1142 -2.6633,0.7929 -4.9842,2.4221 -6.8105,4.5567 -1.7891,2.0906 -3.1041,4.6718 -3.792,7.4199 -0.7416,2.9619 -0.7629,6.135 0.125,9.1211 1.5523,5.2155 5.2171,9.1798 9.7851,11.6806 1.4886,0.815 3.0755,1.474 4.7159,1.969 -2.9972,1.056 -5.7288,2.717 -7.9942,4.843 -2.7554,2.584 -4.8186,5.862 -5.831,9.576 -0.8759,3.212 -0.9641,6.729 -0.0323,10.379 0.3004,1.174 0.6452,2.242 1.0381,3.215 -0.3013,-0.282 -0.5976,-0.572 -0.8896,-0.868 -4.4036,-4.463 -7.7023,-10.303 -9.5029,-15.746 -1.8297,-5.531 -2.4642,-11.627 -1.8936,-17.5945 0.558,-5.8338 2.2672,-11.5438 5.1387,-16.4795 0.6325,-1.0873 1.3733,-2.1752 2.2021,-3.2334 2.9741,-3.7947 7.1115,-7.2852 11.584,-9.1856 z m 5.5264,-26.1162 c 13.7776,-24.5346 34.57,-34.41671 62.3765,-29.6465 18.18,11.7701 31.573,30.5641 36.475,52.5957 -0.91,0.4052 -1.71,0.7906 -2.462,1.1924 -0.946,0.5066 -1.741,1.0025 -2.504,1.5557 -0.772,0.5604 -1.535,1.1948 -2.298,1.9306 -0.74,0.7139 -1.479,1.5308 -2.226,2.4766 -0.985,1.2474 -1.925,2.6431 -2.912,4.1104 -0.457,0.6798 -0.925,1.3758 -1.425,2.0957 -0.749,1.0789 -1.53,2.1529 -2.32,3.165 -0.779,0.9957 -1.585,1.9515 -2.404,2.8184 -0.794,0.8399 -1.584,1.5765 -2.387,2.2334 h -0.008 c -0.816,0.6667 -1.643,1.2554 -2.499,1.79 -0.883,0.5511 -1.777,1.0409 -2.654,1.4609 -0.927,0.4452 -1.855,0.828 -2.751,1.1377 -0.844,0.2917 -1.673,0.5203 -2.534,0.67 -0.841,0.1464 -1.692,0.2122 -2.594,0.1826 -0.933,-0.0302 -1.975,-0.1648 -3.068,-0.3506 -1.076,-0.1826 -2.178,-0.4122 -3.282,-0.6436 -1.679,-0.7083 -3.496,-1.0948 -5.353,-1.1562 -3.916,-0.1304 -8.017,1.1915 -11.374,3.998 l -0.211,0.1826 c -3.242,2.7986 -5.166,6.5114 -5.657,10.2804 -0.499,3.833 0.476,7.721 3.04,10.789 0.024,0.028 0.03,0.034 0.142,0.163 1.253,1.453 2.756,2.582 4.411,3.385 -1.286,0.625 -2.772,1.383 -4.284,2.237 -1.504,0.849 -2.963,1.753 -4.399,2.684 -0.613,0.397 -1.1888,0.775 -1.7419,1.142 -0.797,-5.416 -2.8521,-10.146 -6.0585,-13.888 -2.9555,-3.45 -6.8727,-6.045 -11.6661,-7.55 3.1183,-1.196 5.9669,-3.19 8.4082,-5.6359 3.5705,-3.5777 6.2872,-8.152 7.6866,-12.5977 2.1941,-6.9701 1.9321,-13.6496 -0.2686,-19.6728 -2.3224,-6.3564 -6.8023,-11.9487 -12.8271,-16.3477 -3.8287,-2.7958 -8.375,-4.7425 -13.1202,-5.872 -1.7291,-0.4118 -3.4878,-0.7161 -5.2509,-0.9151 z m 53.0565,51.2588 c 2.992,0.0998 5.828,1.3044 7.8,3.5908 0.031,0.0362 -0.004,-0.0032 0.099,0.1201 1.883,2.2545 2.597,5.1295 2.226,7.9775 -0.379,2.913 -1.886,5.799 -4.43,7.994 -0.027,0.025 -0.032,0.026 -0.168,0.14 -2.648,2.214 -5.862,3.258 -8.918,3.156 -2.992,-0.099 -5.828,-1.304 -7.8,-3.591 -0.031,-0.035 0.004,0.003 -0.099,-0.12 -1.883,-2.254 -2.597,-5.129 -2.226,-7.976 0.38,-2.913 1.885,-5.8001 4.429,-7.9955 0.028,-0.0244 0.032,-0.026 0.168,-0.1396 2.648,-2.2141 5.863,-3.2577 8.919,-3.1563 z m 6.42,6.9394 c -2.243,-3.8896 -7.53,-5.0416 -11.808,-2.5732 -4.277,2.4692 -5.925,7.6242 -3.682,11.5132 2.243,3.89 7.53,5.042 11.807,2.573 4.277,-2.469 5.926,-7.623 3.683,-11.513 z m -11.259,0.331 c 2.514,-2.1355 6.125,-2.0133 8.066,0.273 1.94,2.286 1.475,5.87 -1.038,8.005 -2.515,2.135 -6.125,2.014 -8.066,-0.272 -1.94,-2.286 -1.475,-5.87 1.038,-8.006 z M 49.46,98.3093 c -1.5665,-0.3395 -2.9056,0.033 -3.9404,0.8408 -0.7537,0.5885 -1.3097,1.3949 -1.6436,2.3059 -0.3119,0.852 -0.4339,1.814 -0.3408,2.778 0.168,1.742 1.0347,3.508 2.7442,4.685 0.8257,0.568 1.838,0.848 2.8623,0.87 0.8877,0.019 1.8081,-0.159 2.6259,-0.513 0.8817,-0.382 1.6604,-0.971 2.1934,-1.746 0.4514,-0.657 0.725,-1.429 0.7441,-2.307 0.0388,-1.788 -0.4188,-3.304 -1.3076,-4.492 C 52.4757,99.499 51.1404,98.6735 49.46,98.3093 Z M 166.143,81.03 c 0.045,1.0911 0.071,2.188 0.074,3.29 -0.368,0.1974 -0.915,0.4935 -1.744,0.9463 -0.719,0.3926 -1.422,0.7837 -2.101,1.1992 -0.735,0.4502 -1.478,0.9445 -2.245,1.5235 -0.737,0.556 -1.535,1.224 -2.401,2.001 -0.853,0.7637 -1.721,1.5876 -2.624,2.4775 -0.491,0.4829 -1,0.9906 -1.524,1.5146 -1.382,1.3834 -2.877,2.8797 -4.501,4.3399 -1.1,0.9896 -2.224,1.931 -3.354,2.808 -1.131,0.877 -2.298,1.715 -3.488,2.502 -1.196,0.79 -2.39,1.514 -3.592,2.179 -1.197,0.663 -2.436,1.288 -3.725,1.885 -1.133,0.524 -2.304,1.023 -3.495,1.507 0.327,-0.971 0.557,-1.962 0.686,-2.956 0.089,-0.683 0.13,-1.367 0.125,-2.048 0.446,-0.104 0.914,-0.218 1.418,-0.35 1.02,-0.267 2.069,-0.588 3.177,-1.014 1.114,-0.429 2.215,-0.931 3.298,-1.494 1.147,-0.598 2.319,-1.282 3.503,-2.0346 1.189,-0.7567 2.398,-1.5906 3.612,-2.5079 1.098,-0.8284 2.217,-1.7456 3.35,-2.7587 1.559,-1.3949 3.022,-2.8665 4.354,-4.2071 0.63,-0.6335 1.231,-1.2381 1.792,-1.7851 0.849,-0.8258 1.594,-1.5076 2.383,-2.1563 0.796,-0.6547 1.666,-1.3025 2.762,-2.0586 1.274,-0.8799 2.85,-1.9036 4.26,-2.8027 z m -47.689,23.272 c -0.599,-0.706 -1.715,-0.743 -2.492,-0.084 -0.776,0.66 -0.919,1.768 -0.32,2.474 0.599,0.706 1.715,0.744 2.491,0.084 0.777,-0.66 0.921,-1.767 0.321,-2.474 z M 47.7608,102.02 c 0.2093,-0.163 0.5202,-0.23 0.9287,-0.141 0.1716,0.037 0.3349,0.082 0.4883,0.135 -0.2271,0.221 -0.4509,0.471 -0.6719,0.744 -0.3548,0.527 -0.2156,1.242 0.3115,1.597 0.5272,0.355 1.2427,0.216 1.5977,-0.311 0.1501,-0.188 0.2785,-0.373 0.4082,-0.509 0.1723,0.448 0.2558,0.989 0.2422,1.617 -0.0026,0.114 -0.04,0.218 -0.1016,0.308 -0.1332,0.193 -0.3623,0.355 -0.6386,0.474 -0.3404,0.147 -0.73,0.221 -1.1123,0.213 -0.3417,-0.007 -0.6509,-0.08 -0.8643,-0.227 -0.7401,-0.51 -1.1156,-1.275 -1.1885,-2.03 -0.0398,-0.414 0.0113,-0.821 0.1416,-1.177 0.1089,-0.297 0.265,-0.541 0.459,-0.693 z M 164.903,69.4519 c 0.433,2.4415 0.755,4.9225 0.976,7.4326 -1.706,1.0741 -4.18,2.6464 -6.066,3.9492 -1.168,0.806 -2.114,1.5116 -3.004,2.2441 -0.898,0.7385 -1.71,1.4798 -2.611,2.3565 -0.574,0.5582 -1.189,1.1784 -1.836,1.8281 -1.323,1.3313 -2.775,2.7924 -4.197,4.0645 -0.998,0.8924 -2.044,1.7456 -3.12,2.5586 -1.115,0.8432 -2.245,1.6214 -3.37,2.3369 -1.094,0.6957 -2.176,1.326 -3.233,1.876 -1.04,0.5422 -2.016,0.9935 -2.912,1.3378 -0.94,0.3619 -1.868,0.6438 -2.791,0.8858 -0.315,0.082 -0.651,0.165 -1.001,0.246 -0.42,-1.5374 -1.109,-3.0086 -2.075,-4.3476 0.138,0.0071 0.277,0.0142 0.414,0.0186 1.183,0.0383 2.27,-0.043 3.321,-0.2256 1.029,-0.1793 2.048,-0.4624 3.105,-0.8281 1.032,-0.357 2.091,-0.7923 3.137,-1.294 1.043,-0.5005 2.059,-1.0533 3.009,-1.6465 1.004,-0.6266 1.96,-1.3049 2.885,-2.0615 l -0.002,-0.0039 c 0.936,-0.7653 1.844,-1.6093 2.74,-2.5576 0.873,-0.9244 1.753,-1.9694 2.618,-3.0752 0.851,-1.0895 1.672,-2.2195 2.448,-3.3369 0.488,-0.7035 0.977,-1.4297 1.454,-2.1387 0.96,-1.4271 1.873,-2.7847 2.74,-3.8818 0.623,-0.7885 1.255,-1.4827 1.9,-2.1045 0.621,-0.6003 1.256,-1.1278 1.911,-1.6026 0.664,-0.4819 1.324,-0.8963 2.076,-1.2988 0.434,-0.2319 0.923,-0.4721 1.484,-0.7314 z M 99.461,63.8874 c 2.733,12.1869 13.613,21.2937 26.62,21.294 13.008,0 23.888,-9.107 26.621,-21.294 z m 27.345,-33.6855 c -0.855,-1.1232 -1.031,-1.1547 -1.948,-0.1241 -0.917,1.0309 -2.575,3.1238 -5.675,8.127 -3.101,5.0033 -7.644,12.9162 -10.093,17.2051 -2.45,4.2882 -2.807,4.9519 -2.832,5.373 -0.026,0.4211 0.281,0.6001 6.176,0.6895 5.894,0.0893 17.377,0.0893 23.948,-0.0127 6.57,-0.102 8.229,-0.3064 8.994,-0.6123 0.766,-0.3065 0.638,-0.7151 -1.952,-4.9141 -2.59,-4.199 -7.643,-12.189 -10.936,-17.291 -3.293,-5.1025 -4.827,-7.3175 -5.682,-8.4404 z m -38.2737,1.5849 c -0.529,0.0033 -1.1362,0.1515 -1.7227,0.4717 -0.5858,0.3202 -1.1518,0.8127 -1.5908,1.4541 -0.4389,0.6408 -0.7503,1.4312 -1.0615,2.2217 -4.0132,-1.1536 -6.5402,0.0348 -7.5801,3.5644 h 22.1719 c -0.1775,-0.4673 -0.3395,-0.8844 -0.6172,-1.3086 -0.2883,-0.4397 -0.6997,-0.8853 -1.1475,-1.2187 -0.4483,-0.3339 -0.9339,-0.5568 -1.4765,-0.7559 -0.5424,-0.1983 -1.1418,-0.3737 -1.6475,-0.542 -0.5054,-0.1688 -0.917,-0.331 -1.2168,-0.5097 -0.2997,-0.1787 -0.4889,-0.3739 -0.7344,-0.7549 -0.246,-0.381 -0.5496,-0.9472 -0.8828,-1.3682 -0.3337,-0.4216 -0.6977,-0.6983 -1.1054,-0.9072 -0.4078,-0.2089 -0.8598,-0.3505 -1.3887,-0.3467 z m 24.3197,-9.7461 c -1.099,0.0281 -2.245,0.5904 -2.907,1.4698 -0.662,0.8799 -0.84,2.0774 -1.019,3.2754 -3.361,-1.9508 -6.435,-1.0604 -7.134,2.7578 h 11.1 v -3.0772 h 4.694 c -0.076,-0.5119 -0.155,-0.8723 -0.371,-1.3574 -0.256,-0.5741 -0.708,-1.3305 -1.46,-1.9609 -0.752,-0.6305 -1.804,-1.136 -2.903,-1.1075 z"
       fill="#4795a3"
       id="path6" />
    <path
       fill-rule="evenodd"
       clip-rule="evenodd"
       d="m 170.367,57.2213 c -1.408,-1.4763 -2.754,-2.9225 -3.643,-4.1455 -1.027,-1.4137 -1.441,-2.529 -1.649,-5.3429 -0.021,-0.2955 -0.041,-0.6098 -0.058,-0.939 2.011,1.6772 3.079,2.9461 4.388,6.0025 l 0.006,0.0339 -0.027,0.3351 c 0,0.9085 0.736,1.6449 1.644,1.6449 0.908,0 1.644,-0.7364 1.644,-1.6449 l -0.027,-0.3349 0.006,-0.0342 c 1.309,-3.0563 2.376,-4.3252 4.388,-6.0022 -0.017,0.3293 -0.037,0.6435 -0.058,0.9389 -0.208,2.8142 -0.623,3.9294 -1.649,5.3429 -0.889,1.2229 -2.235,2.6689 -3.643,4.1451 1.504,27.189 0.948,14.2979 1.806,52.864 0,1.363 -1.105,2.468 -2.467,2.468 -1.362,0 -2.466,-1.105 -2.466,-2.468 0.857,-38.5658 0.301,-25.6751 1.805,-52.8634 z M 164.993,46.294 c -0.121,-2.7577 -0.099,-6.377 0.043,-9.0009 0.169,-3.1123 0.506,-4.8242 1.533,-7.1715 1.027,-2.3473 2.743,-5.3301 3.601,-6.8214 1.114,-1.9357 0.603,-1.9357 1.716,0 0.859,1.4915 2.575,4.4741 3.602,6.8214 1.026,2.3473 1.363,4.0592 1.532,7.1715 0.142,2.6239 0.164,6.2432 0.044,9.0009 -1.742,1.1087 -3.109,2.1292 -4.688,3.3044 -1.181,-14.068 -0.75,-7.1665 -1.348,-24.6932 -0.597,17.5279 -0.166,10.6218 -1.348,24.6932 -1.578,-1.1752 -2.945,-2.1957 -4.687,-3.3044 z"
       fill="#242b3d"
       id="path7" />
  </g>
  <path
     d="m 274.928,55.1642 v -2.1908 h -4.774 l -0.342,4.6411 c 0.92,-0.7684 1.989,-1.1525 3.207,-1.1525 0.975,0 1.823,0.2353 2.542,0.706 0.727,0.4638 1.28,1.0867 1.661,1.8689 0.387,0.7752 0.581,1.6335 0.581,2.5751 0,1.045 -0.218,1.969 -0.654,2.772 -0.429,0.803 -1.051,1.426 -1.868,1.869 -0.816,0.436 -1.768,0.654 -2.854,0.654 -1.591,0 -2.844,-0.45 -3.757,-1.35 -0.913,-0.907 -1.418,-2.208 -1.515,-3.904 h 2.013 c 0.132,1.073 0.481,1.914 1.048,2.523 0.568,0.609 1.312,0.914 2.232,0.914 0.92,0 1.671,-0.315 2.252,-0.945 0.581,-0.63 0.872,-1.46 0.872,-2.492 0,-1.0656 -0.274,-1.8859 -0.82,-2.4604 -0.547,-0.5745 -1.246,-0.8617 -2.097,-0.8617 -1.245,0 -2.286,0.6333 -3.124,1.9 -0.463,-0.4569 -1.006,-0.8479 -1.629,-1.1733 l 0.633,-8.0361 h 8.334 v 4.1427 z"
     fill="#242b3d"
     id="path8" />
  <path
     d="m 264.778,54.9976 c 0,0.8791 -0.225,1.6474 -0.675,2.3049 -0.442,0.6576 -1.231,1.4052 -2.366,2.2427 l -0.996,0.7475 c -0.824,0.623 -1.46,1.1283 -1.91,1.5163 -0.443,0.387 -0.823,0.816 -1.142,1.287 -0.318,0.471 -0.536,0.997 -0.653,1.578 h 5.884 l 0.094,-3.623 h 1.889 l -0.125,5.596 h -10.015 c 0.014,-1.274 0.232,-2.378 0.654,-3.312 0.429,-0.941 0.937,-1.717 1.525,-2.326 0.588,-0.609 1.294,-1.225 2.117,-1.848 l 1.547,-1.1732 c 0.713,-0.5191 1.211,-0.9933 1.494,-1.4224 0.284,-0.4361 0.426,-0.931 0.426,-1.4847 0,-0.7822 -0.228,-1.3913 -0.685,-1.8274 -0.45,-0.443 -1.073,-0.6645 -1.868,-0.6645 -1.024,0 -1.737,0.3011 -2.138,0.9033 -0.402,0.6022 -0.602,1.5367 -0.602,2.8033 v 0.5295 h -2.065 v -0.6021 c 0,-1.6682 0.366,-2.9695 1.1,-3.9039 0.442,-0.5399 0.968,-0.9379 1.577,-1.194 0.609,-0.2561 1.339,-0.3842 2.19,-0.3842 1.052,0 1.93,0.2008 2.636,0.6022 0.706,0.3946 1.232,0.9137 1.578,1.5574 0.353,0.6437 0.529,1.3428 0.529,2.0973 z"
     fill="#242b3d"
     id="path9" />
  <path
     d="m 253.019,58.8392 c 0,1.7027 -0.221,3.1598 -0.664,4.3708 -0.436,1.212 -1.058,2.132 -1.868,2.762 -0.803,0.623 -1.757,0.934 -2.864,0.934 -1.758,0 -3.104,-0.726 -4.038,-2.18 -0.934,-1.453 -1.401,-3.416 -1.401,-5.8868 0,-1.7097 0.218,-3.1702 0.654,-4.3815 0.443,-1.2182 1.072,-2.1423 1.889,-2.7722 0.823,-0.6298 1.789,-0.9448 2.896,-0.9448 1.729,0 3.061,0.7233 3.995,2.17 0.934,1.4466 1.401,3.4228 1.401,5.9285 z m -5.396,6.2298 c 1.024,0 1.798,-0.485 2.324,-1.454 0.533,-0.969 0.799,-2.589 0.799,-4.8589 0,-2.2496 -0.273,-3.8416 -0.819,-4.776 -0.547,-0.9414 -1.322,-1.412 -2.325,-1.412 -1.08,0 -1.872,0.526 -2.377,1.5781 -0.498,1.0452 -0.747,2.6095 -0.747,4.693 0,2.1868 0.263,3.7728 0.789,4.7548 0.525,0.983 1.311,1.475 2.356,1.475 z"
     fill="#242b3d"
     id="path10" />
  <path
     d="m 239.828,54.9976 c 0,0.8791 -0.225,1.6474 -0.674,2.3049 -0.443,0.6576 -1.232,1.4052 -2.367,2.2427 l -0.996,0.7475 c -0.823,0.623 -1.46,1.1283 -1.91,1.5163 -0.443,0.387 -0.823,0.816 -1.141,1.287 -0.319,0.471 -0.537,0.997 -0.654,1.578 h 5.884 l 0.094,-3.623 h 1.889 l -0.125,5.596 h -10.015 c 0.014,-1.274 0.232,-2.378 0.654,-3.312 0.429,-0.941 0.937,-1.717 1.525,-2.326 0.588,-0.609 1.294,-1.225 2.118,-1.848 l 1.546,-1.1732 c 0.713,-0.5191 1.211,-0.9933 1.494,-1.4224 0.284,-0.4361 0.426,-0.931 0.426,-1.4847 0,-0.7822 -0.228,-1.3913 -0.685,-1.8274 -0.45,-0.443 -1.072,-0.6645 -1.868,-0.6645 -1.024,0 -1.737,0.3011 -2.138,0.9033 -0.401,0.6022 -0.602,1.5367 -0.602,2.8033 v 0.5295 h -2.065 v -0.6021 c 0,-1.6682 0.366,-2.9695 1.1,-3.9039 0.443,-0.5399 0.968,-0.9379 1.577,-1.194 0.609,-0.2561 1.339,-0.3842 2.19,-0.3842 1.052,0 1.931,0.2008 2.636,0.6022 0.706,0.3946 1.232,0.9137 1.578,1.5574 0.353,0.6437 0.529,1.3428 0.529,2.0973 z"
     fill="#242b3d"
     id="path11" />
  <path
     d="m 222.07,58.59 c 0,2.679 -0.809,4.693 -2.428,6.043 -1.612,1.342 -4.013,2.014 -7.203,2.014 h -5.843 v -1.952 h 2.097 V 52.9522 h -2.097 v -1.952 h 5.947 c 3.203,0 5.591,0.6057 7.161,1.817 1.578,1.2113 2.366,3.1356 2.366,5.7728 z m -2.573,0.1038 c 0,-1.329 -0.236,-2.4123 -0.706,-3.2498 -0.464,-0.8375 -1.204,-1.4605 -2.221,-1.8689 -1.01,-0.4153 -2.346,-0.6229 -4.006,-0.6229 h -1.505 V 64.695 h 1.484 c 2.408,0 4.169,-0.481 5.283,-1.443 1.114,-0.969 1.671,-2.4886 1.671,-4.5582 z"
     fill="#242b3d"
     id="path12" />
  <path
     d="m 201.677,52.9522 h -2.232 v -1.952 h 6.414 v 1.952 h -2.293 V 66.813 h -2.429 L 193.633,53.4402 V 64.695 h 2.242 v 1.952 h -6.403 v -1.952 h 2.231 V 52.9522 h -2.231 v -1.952 h 5.334 l 6.871,12.1578 z"
     fill="#242b3d"
     id="path13" />
  <path
     d="m 182.674,52.8899 4.234,11.8051 h 1.744 v 1.952 h -6.165 v -1.952 h 2.044 l -1.214,-3.551 h -5.677 l -1.214,3.551 h 1.982 v 1.952 h -6.206 v -1.952 h 1.889 l 4.213,-11.8051 h -1.878 v -1.8897 h 8.126 v 1.8897 z m -2.138,0 h -0.073 l -2.211,6.4165 h 4.442 z"
     fill="#242b3d"
     id="path14" />
  <path
     d="M 164.086,52.9522 V 64.695 h 5.137 v -4.8487 h 1.941 v 6.8007 h -11.458 v -1.952 h 2.013 V 52.9522 h -2.013 v -1.952 h 6.393 v 1.952 z"
     fill="#242b3d"
     id="path15" />
  <path
     d="M 149.535,52.9522 V 64.695 h 1.806 v 1.952 h -6.123 v -1.952 h 1.951 V 52.9522 h -1.951 v -1.952 h 6.33 v 1.952 z m 7.774,0 -4.847,5.4405 4.981,6.3023 h 1.671 v 1.952 h -6.351 v -1.952 h 1.723 l -4.702,-6.2296 4.847,-5.5132 h -1.806 v -1.952 h 6.144 v 1.952 z"
     fill="#242b3d"
     id="path16" />
  <path
     d="m 141.346,52.7238 v -1.7235 h 1.993 v 5.0148 h -2.034 c -0.512,-1.0037 -1.214,-1.7858 -2.107,-2.3465 -0.892,-0.5606 -1.871,-0.841 -2.937,-0.841 -1.031,0 -1.951,0.2734 -2.761,0.8203 -0.809,0.5399 -1.442,1.2666 -1.899,2.1803 -0.45,0.9068 -0.675,1.8827 -0.675,2.9279 0,1.0798 0.236,2.0765 0.706,2.9899 0.478,0.914 1.131,1.644 1.962,2.191 0.83,0.547 1.754,0.82 2.771,0.82 1.252,0 2.359,-0.38 3.321,-1.142 0.962,-0.768 1.664,-1.855 2.107,-3.26 l 1.992,1.059 c -0.539,1.744 -1.494,3.098 -2.864,4.06 -1.363,0.955 -2.965,1.432 -4.805,1.432 -1.516,0 -2.861,-0.359 -4.038,-1.079 -1.176,-0.727 -2.093,-1.7 -2.75,-2.918 -0.65,-1.225 -0.975,-2.5678 -0.975,-4.0283 0,-1.5851 0.332,-2.9971 0.996,-4.2361 0.671,-1.239 1.595,-2.1977 2.771,-2.876 1.176,-0.6853 2.522,-1.0279 4.037,-1.0279 1.017,0 1.955,0.1696 2.813,0.5088 0.858,0.3391 1.65,0.8306 2.376,1.4743 z"
     fill="#242b3d"
     id="path17" />
  <path
     d="m 116.158,52.9522 v 7.9738 c 0,1.405 0.266,2.433 0.799,3.084 0.54,0.65 1.328,0.976 2.366,0.976 1.052,0 1.851,-0.322 2.398,-0.966 0.553,-0.644 0.83,-1.668 0.83,-3.0732 v -7.9946 h -1.827 v -1.952 h 6.124 v 1.952 h -1.952 v 8.2128 c 0,1.869 -0.474,3.295 -1.421,4.277 -0.941,0.976 -2.325,1.464 -4.152,1.464 -1.84,0 -3.224,-0.484 -4.151,-1.453 -0.92,-0.976 -1.381,-2.45 -1.381,-4.423 v -8.0778 h -1.93 v -1.952 h 6.144 v 1.952 z"
     fill="#242b3d"
     id="path18" />
  <path
     d="m 105.893,52.8899 4.235,11.8051 h 1.743 v 1.952 h -6.164 v -1.952 h 2.044 l -1.214,-3.551 h -5.677 l -1.214,3.551 h 1.982 v 1.952 h -6.206 v -1.952 h 1.888 l 4.214,-11.8051 h -1.878 v -1.8897 h 8.126 v 1.8897 z m -2.138,0 h -0.072 l -2.211,6.4165 h 4.442 z"
     fill="#242b3d"
     id="path19" />
  <path
     d="m 269.739,13.7408 v -2.5976 h 5.404 v 11.2773 h -5.404 c -0.661,-1.8725 -1.794,-3.3649 -3.399,-4.4771 -1.59,-1.1123 -3.363,-1.6684 -5.319,-1.6684 -1.816,0 -3.427,0.4224 -4.835,1.2671 -1.393,0.8307 -2.47,2.0133 -3.23,3.548 -0.76,1.5205 -1.14,3.2945 -1.14,5.3218 0,3.4494 0.831,6.1737 2.491,8.1729 1.675,1.9852 3.969,2.9778 6.882,2.9778 1.928,0 3.512,-0.4506 4.75,-1.3516 1.239,-0.9152 2.118,-2.2245 2.639,-3.9281 h -5.615 v -5.4063 h 14.967 c 0,3.4634 -0.69,6.427 -2.069,8.8909 -1.365,2.4638 -3.335,4.3434 -5.911,5.6386 -2.561,1.2953 -5.629,1.943 -9.204,1.943 -3.603,0 -6.755,-0.6547 -9.457,-1.9641 -2.688,-1.3093 -4.757,-3.1959 -6.207,-5.6598 -1.449,-2.4638 -2.174,-5.3852 -2.174,-8.7642 0,-3.1678 0.732,-5.9906 2.195,-8.4685 1.478,-2.4779 3.498,-4.4068 6.059,-5.7865 2.561,-1.3939 5.454,-2.0908 8.676,-2.0908 4.251,0 7.551,1.0419 9.901,3.1256 z"
     fill="#4795a3"
     id="path20" />
  <path
     d="m 239.446,29.1365 v 5.174 h -3.378 v 3.6324 h 2.956 v 5.0263 h -14.102 v -5.0263 h 3.842 v -3.6324 h -13.13 c -0.704,-1.9569 -1.281,-3.3649 -1.732,-4.2237 l 15.305,-19.5136 h 6.861 v 18.5633 z m -18.028,0 h 7.346 v -9.1866 z"
     fill="#4795a3"
     id="path21" />
  <path
     d="m 204.551,13.7833 v -2.6399 h 5.404 v 9.6301 h -5.404 c -0.225,-1.5487 -0.732,-2.7102 -1.52,-3.4845 -0.774,-0.7885 -1.78,-1.1827 -3.019,-1.1827 -0.873,0 -1.618,0.2464 -2.238,0.7392 -0.619,0.4927 -0.928,1.1122 -0.928,1.8584 0,0.6617 0.197,1.2319 0.591,1.7106 0.394,0.4787 0.9,0.887 1.52,1.2249 0.619,0.3238 1.548,0.7602 2.786,1.3093 l 1.288,0.5491 c 2.8,1.2108 4.911,2.6328 6.333,4.266 1.435,1.6331 2.153,3.6746 2.153,6.1244 0,2.9143 -0.837,5.2233 -2.512,6.9269 -1.675,1.6894 -3.927,2.5342 -6.755,2.5342 -2.759,0 -4.905,-1.0348 -6.439,-3.1044 v 2.7243 h -5.404 V 32.1564 h 5.404 c 0.113,1.8726 0.591,3.3016 1.436,4.2871 0.858,0.9715 2.012,1.4572 3.462,1.4572 0.971,0 1.787,-0.3309 2.448,-0.9926 0.676,-0.6617 1.014,-1.4642 1.014,-2.4075 0,-0.9574 -0.387,-1.8303 -1.161,-2.6187 -0.76,-0.8025 -2.062,-1.605 -3.906,-2.4075 -3.138,-1.3798 -5.418,-2.8651 -6.839,-4.456 -1.408,-1.591 -2.111,-3.4213 -2.111,-5.4909 0,-1.6191 0.373,-3.0974 1.118,-4.4349 0.746,-1.3375 1.774,-2.3864 3.082,-3.1467 1.323,-0.7743 2.759,-1.1615 4.307,-1.1615 1.238,0 2.364,0.2534 3.378,0.7603 1.013,0.5068 1.85,1.253 2.512,2.2386 z"
     fill="#242b3d"
     id="path22" />
  <path
     d="m 179.641,13.7833 v -2.6399 h 5.404 v 9.6301 h -5.404 c -0.226,-1.5487 -0.732,-2.7102 -1.52,-3.4845 -0.774,-0.7885 -1.781,-1.1827 -3.019,-1.1827 -0.873,0 -1.619,0.2464 -2.238,0.7392 -0.619,0.4927 -0.929,1.1122 -0.929,1.8584 0,0.6617 0.197,1.2319 0.591,1.7106 0.395,0.4787 0.901,0.887 1.52,1.2249 0.62,0.3238 1.549,0.7602 2.787,1.3093 l 1.288,0.5491 c 2.8,1.2108 4.911,2.6328 6.333,4.266 1.435,1.6331 2.153,3.6746 2.153,6.1244 0,2.9143 -0.837,5.2233 -2.512,6.9269 -1.675,1.6894 -3.927,2.5342 -6.755,2.5342 -2.759,0 -4.905,-1.0348 -6.439,-3.1044 v 2.7243 h -5.404 V 32.1564 h 5.404 c 0.113,1.8726 0.591,3.3016 1.436,4.2871 0.858,0.9715 2.012,1.4572 3.462,1.4572 0.971,0 1.787,-0.3309 2.448,-0.9926 0.676,-0.6617 1.014,-1.4642 1.014,-2.4075 0,-0.9574 -0.387,-1.8303 -1.161,-2.6187 -0.76,-0.8025 -2.062,-1.605 -3.906,-2.4075 -3.138,-1.3798 -5.418,-2.8651 -6.84,-4.456 -1.407,-1.591 -2.111,-3.4213 -2.111,-5.4909 0,-1.6191 0.373,-3.0974 1.119,-4.4349 0.746,-1.3375 1.774,-2.3864 3.082,-3.1467 1.323,-0.7743 2.759,-1.1615 4.307,-1.1615 1.238,0 2.364,0.2534 3.378,0.7603 1.013,0.5068 1.85,1.253 2.512,2.2386 z"
     fill="#242b3d"
     id="path23" />
  <path
     d="m 125.746,26.961 c 0,-3.2241 0.739,-6.068 2.217,-8.5319 1.478,-2.4638 3.553,-4.3786 6.227,-5.7442 2.688,-1.3798 5.778,-2.0697 9.268,-2.0697 3.49,0 6.565,0.6899 9.225,2.0697 2.674,1.3656 4.743,3.2874 6.206,5.7653 1.478,2.4779 2.217,5.3149 2.217,8.5108 0,3.2382 -0.739,6.0963 -2.217,8.5742 -1.463,2.4779 -3.539,4.3997 -6.227,5.7654 -2.674,1.3656 -5.742,2.0485 -9.204,2.0485 -3.392,0 -6.439,-0.6829 -9.141,-2.0485 -2.688,-1.3657 -4.792,-3.2875 -6.312,-5.7654 -1.506,-2.4779 -2.259,-5.336 -2.259,-8.5742 z m 26.494,-0.0422 c 0,-1.9288 -0.352,-3.6817 -1.056,-5.2585 -0.704,-1.591 -1.724,-2.8511 -3.061,-3.7803 -1.323,-0.9433 -2.878,-1.4149 -4.665,-1.4149 -1.788,0 -3.343,0.4716 -4.666,1.4149 -1.323,0.9292 -2.343,2.1893 -3.061,3.7803 -0.703,1.5768 -1.055,3.3297 -1.055,5.2585 0,2.0274 0.359,3.8506 1.077,5.4697 0.731,1.605 1.759,2.8721 3.082,3.8014 1.323,0.9151 2.849,1.3727 4.581,1.3727 1.787,0 3.349,-0.4576 4.686,-1.3727 1.351,-0.9293 2.378,-2.1964 3.082,-3.8014 0.704,-1.6191 1.056,-3.4423 1.056,-5.4697 z"
     fill="#242b3d"
     id="path24" />
  <path
     d="m 118.379,20.9635 v -4.4138 h -9.563 v 7.3492 h 6.924 v 5.4064 h -6.924 v 8.2574 h 4.94 V 42.969 H 95.981 v -5.4063 h 4.538 v -21.013 h -4.538 v -5.4064 h 28.499 v 9.8202 z"
     fill="#242b3d"
     id="path25" />
  <path
     d="m 304.77,14.3792 c 0.315,0.7335 0.792,1.552 1.373,2.4208 1.427,2.1321 3.625,4.7741 6.14,7.587 4.941,5.5265 11.265,11.8881 15.632,16.5254 l 0.398,4.0341 c -1.218,1.2332 -5.132,5.2496 -8.921,9.1416 -2.132,2.1911 -4.23,4.3481 -5.794,5.9571 -0.783,0.8043 -1.432,1.4718 -1.885,1.9388 -0.079,0.081 -0.153,0.157 -0.22,0.226 -0.307,-0.183 -0.697,-0.454 -1.169,-0.825 -0.779,-0.6124 -1.698,-1.4287 -2.707,-2.3877 -2.017,-1.9167 -4.346,-4.3582 -6.563,-6.7695 -2.215,-2.4089 -4.307,-4.7778 -5.846,-6.5449 -0.769,-0.8834 -1.401,-1.6156 -1.839,-2.127 -0.219,-0.2556 -0.39,-0.4565 -0.506,-0.5928 -0.058,-0.0679 -0.102,-0.1203 -0.132,-0.1552 -0.014,-0.0173 -0.025,-0.0304 -0.033,-0.0391 -0.004,-0.0044 -0.007,-0.0076 -0.009,-0.0098 l -0.002,-0.0029 -0.014,-0.0166 -0.015,-0.0156 -0.145,-0.1592 c -3.029,-3.3316 -3.658,-5.918 -3.622,-7.5801 0.018,-0.8562 0.212,-1.508 0.393,-1.9346 0.091,-0.2136 0.179,-0.3709 0.238,-0.4687 0.03,-0.0487 0.053,-0.0823 0.066,-0.1006 0.002,-0.0029 0.003,-0.0057 0.005,-0.0078 z"
     fill="#4795a3"
     id="path26" />
  <path
     d="m 306.582,12.489 c 0.316,0.0214 0.737,0.1332 1.203,0.3096 0.48,0.182 0.937,0.4058 1.259,0.5781 h 0.001 c 0.672,0.3601 5.079,2.6493 10.283,4.6621 2.602,1.0063 5.425,1.9526 8.094,2.5518 1.33,0.2987 2.648,0.5169 3.897,0.6074 -0.053,0.0443 -0.107,0.0887 -0.16,0.1338 l -0.187,0.1602 c -0.944,0.8231 -1.607,2.0145 -2.08,3.3623 -0.475,1.3568 -0.783,2.9466 -0.972,4.6474 -0.291,2.6131 -0.308,5.5605 -0.18,8.4649 -0.499,-0.5165 -1.085,-1.1256 -1.738,-1.8076 -2.14,-2.2332 -4.999,-5.2501 -7.881,-8.3897 -2.884,-3.1419 -5.783,-6.3966 -8.004,-9.1064 -1.112,-1.3561 -2.043,-2.5626 -2.716,-3.543 -0.337,-0.4906 -0.6,-0.9122 -0.787,-1.2588 -0.171,-0.3167 -0.253,-0.5265 -0.284,-0.6445 l -0.011,-0.045 -0.02,-0.1093 c -0.055,-0.3422 -0.024,-0.5021 -0.006,-0.5586 0.033,-0.0095 0.102,-0.0215 0.227,-0.0176 z"
     fill="#242b3d"
     id="path27" />
  <path
     d="m 347.984,17.86 c 0.01,0.0794 0.021,0.1649 0.032,0.2549 0.084,0.6719 0.203,1.6327 0.346,2.7871 0.285,2.3094 0.661,5.3942 1.03,8.497 0.369,3.104 0.729,6.2227 0.979,8.6006 0.126,1.19 0.223,2.1884 0.281,2.9043 0.014,0.178 0.026,0.3362 0.035,0.4737 -0.469,0.0886 -1.09,0.1876 -1.919,0.3359 -1.628,0.2912 -3.852,0.7369 -6.233,1.498 -4.004,1.2796 -8.598,3.4974 -11.524,7.5137 -0.07,-0.4588 -0.147,-0.969 -0.225,-1.5224 -0.358,-2.512 -0.772,-5.9099 -1,-9.4639 -0.23,-3.5613 -0.271,-7.2437 0.105,-10.3369 0.188,-1.5463 0.477,-2.9161 0.884,-4.0371 0.409,-1.129 0.914,-1.9399 1.491,-2.4424 l 0.157,-0.1358 c 3.313,-2.8157 7.345,-4.0525 10.616,-4.5752 1.656,-0.2644 3.099,-0.3429 4.124,-0.3554 0.316,-0.0039 0.591,-0.0012 0.821,0.0039 z"
     fill="#4795a3"
     id="path28" />
  <path
     d="m 385.851,37.7358 3.092,8.7286 c -0.04,0.0553 -0.084,0.1171 -0.133,0.1835 -0.272,0.3708 -0.683,0.9095 -1.227,1.5704 -1.09,1.3223 -2.713,3.1307 -4.84,5.0615 -4.227,3.8368 -10.407,8.1252 -18.305,10.0852 l -0.186,0.046 c -4.55,1.104 -10.467,1.92 -16.105,1.314 -5.593,-0.601 -10.794,-2.584 -14.195,-6.9403 l -0.08,-0.1026 c -0.91,-1.1854 -1.696,-2.5546 -2.325,-4.1318 0.025,-0.0517 0.049,-0.0977 0.065,-0.1328 0.009,-0.0179 0.015,-0.0335 0.021,-0.0449 2.662,-4.9626 8.148,-7.4323 12.847,-8.7413 0.024,0.0341 0.05,0.0704 0.078,0.1084 0.189,0.2596 0.474,0.6095 0.868,0.9981 0.789,0.7783 2.015,1.7111 3.793,2.3848 3.578,1.3563 9.198,1.5958 17.655,-2.2012 h -0.001 c 5.733,-2.5735 9.687,-7.1366 12.263,-11.3389 1.502,-2.4523 2.555,-4.8137 3.226,-6.6416 z m -54.764,16.1133 c -0.085,0.0297 -0.182,0.05 -0.292,0.0537 0.101,-0.0035 0.199,-0.0223 0.292,-0.0547 z m 0.598,-0.5996 c -10e-4,4e-4 -0.005,0.0119 -0.012,0.0303 0.006,-0.0177 0.01,-0.0288 0.011,-0.0293 0,-0.0017 10e-4,-0.0035 10e-4,-0.0049 z"
     fill="#242b3d"
     id="path29" />
</svg>
