<?xml version="1.0" encoding="utf-8"?>
<!-- Generator: Adobe Illustrator 21.0.0, SVG Export Plug-In . SVG Version: 6.00 Build 0)  -->
<svg version="1.1" id="Layer_1" xmlns="http://www.w3.org/2000/svg" xmlns:xlink="http://www.w3.org/1999/xlink" x="0px" y="0px"
	 viewBox="0 0 500 96" style="enable-background:new 0 0 500 96;" xml:space="preserve" width="500px" height="96px">
<style type="text/css">
	.st0{fill:#242B3D;}
	.st1{fill:#4795A3;}
</style>
<path class="st0" d="M305.8,76v-3.7h-8.1l-0.6,7.9c1.6-1.3,3.4-2,5.5-2c1.7,0,3.1,0.4,4.3,1.2c1.2,0.8,2.2,1.9,2.8,3.2
	c0.7,1.3,1,2.8,1,4.4c0,1.8-0.4,3.4-1.1,4.7c-0.7,1.4-1.8,2.4-3.2,3.2c-1.4,0.7-3,1.1-4.9,1.1c-2.7,0-4.8-0.8-6.4-2.3
	c-1.6-1.5-2.4-3.8-2.6-6.7h3.4c0.2,1.8,0.8,3.3,1.8,4.3c1,1,2.2,1.6,3.8,1.6c1.6,0,2.8-0.5,3.8-1.6c1-1.1,1.5-2.5,1.5-4.2
	c0-1.8-0.5-3.2-1.4-4.2c-0.9-1-2.1-1.5-3.6-1.5c-2.1,0-3.9,1.1-5.3,3.2c-0.8-0.8-1.7-1.4-2.8-2l1.1-13.7h14.2V76H305.8z"/>
<path class="st0" d="M288.5,75.7c0,1.5-0.4,2.8-1.1,3.9c-0.8,1.1-2.1,2.4-4,3.8l-1.7,1.3c-1.4,1.1-2.5,1.9-3.3,2.6
	c-0.8,0.7-1.4,1.4-1.9,2.2c-0.5,0.8-0.9,1.7-1.1,2.7h10l0.2-6.2h3.2l-0.2,9.5h-17.1c0-2.2,0.4-4.1,1.1-5.6c0.7-1.6,1.6-2.9,2.6-4
	c1-1,2.2-2.1,3.6-3.1l2.6-2c1.2-0.9,2.1-1.7,2.5-2.4c0.5-0.7,0.7-1.6,0.7-2.5c0-1.3-0.4-2.4-1.2-3.1c-0.8-0.8-1.8-1.1-3.2-1.1
	c-1.7,0-3,0.5-3.6,1.5s-1,2.6-1,4.8v0.9h-3.5v-1c0-2.8,0.6-5.1,1.9-6.7c0.8-0.9,1.6-1.6,2.7-2c1-0.4,2.3-0.7,3.7-0.7
	c1.8,0,3.3,0.3,4.5,1c1.2,0.7,2.1,1.6,2.7,2.7C288.2,73.2,288.5,74.4,288.5,75.7z"/>
<path class="st0" d="M268.5,82.3c0,2.9-0.4,5.4-1.1,7.4c-0.7,2.1-1.8,3.6-3.2,4.7c-1.4,1.1-3,1.6-4.9,1.6c-3,0-5.3-1.2-6.9-3.7
	s-2.4-5.8-2.4-10c0-2.9,0.4-5.4,1.1-7.5c0.8-2.1,1.8-3.7,3.2-4.7c1.4-1.1,3-1.6,4.9-1.6c2.9,0,5.2,1.2,6.8,3.7
	C267.7,74.6,268.5,78,268.5,82.3z M259.3,92.9c1.7,0,3.1-0.8,4-2.5c0.9-1.7,1.4-4.4,1.4-8.3c0-3.8-0.5-6.5-1.4-8.1
	c-0.9-1.6-2.3-2.4-4-2.4c-1.8,0-3.2,0.9-4,2.7c-0.8,1.8-1.3,4.4-1.3,8c0,3.7,0.4,6.4,1.3,8.1C256.1,92,257.5,92.9,259.3,92.9z"/>
<path class="st0" d="M246,75.7c0,1.5-0.4,2.8-1.2,3.9c-0.8,1.1-2.1,2.4-4,3.8l-1.7,1.3c-1.4,1.1-2.5,1.9-3.3,2.6
	c-0.8,0.7-1.4,1.4-1.9,2.2c-0.5,0.8-0.9,1.7-1.1,2.7h10L243,86h3.2l-0.2,9.5h-17.1c0-2.2,0.4-4.1,1.1-5.6c0.7-1.6,1.6-2.9,2.6-4
	c1-1,2.2-2.1,3.6-3.1l2.6-2c1.2-0.9,2.1-1.7,2.5-2.4c0.5-0.7,0.7-1.6,0.7-2.5c0-1.3-0.4-2.4-1.2-3.1c-0.8-0.8-1.8-1.1-3.2-1.1
	c-1.7,0-3,0.5-3.6,1.5c-0.7,1-1,2.6-1,4.8v0.9h-3.5v-1c0-2.8,0.6-5.1,1.9-6.7c0.8-0.9,1.7-1.6,2.7-2c1-0.4,2.3-0.7,3.7-0.7
	c1.8,0,3.3,0.3,4.5,1c1.2,0.7,2.1,1.6,2.7,2.7C245.7,73.2,246,74.4,246,75.7z"/>
<path class="st0" d="M215.7,81.8c0,4.6-1.4,8-4.1,10.3c-2.7,2.3-6.8,3.4-12.3,3.4h-10v-3.3h3.6v-20h-3.6v-3.3h10.1
	c5.5,0,9.5,1,12.2,3.1C214.4,74.1,215.7,77.3,215.7,81.8z M211.4,82c0-2.3-0.4-4.1-1.2-5.5c-0.8-1.4-2.1-2.5-3.8-3.2
	c-1.7-0.7-4-1.1-6.8-1.1H197v20h2.5c4.1,0,7.1-0.8,9-2.5C210.4,88.1,211.4,85.5,211.4,82z"/>
<path class="st0" d="M181,72.2h-3.8v-3.3h10.9v3.3h-3.9v23.6h-4.1l-12.8-22.8v19.2h3.8v3.3h-10.9v-3.3h3.8v-20h-3.8v-3.3h9.1
	L181,89.6V72.2z"/>
<path class="st0" d="M148.6,72.1l7.2,20.1h3v3.3h-10.5v-3.3h3.5l-2.1-6.1h-9.7l-2.1,6.1h3.4v3.3h-10.6v-3.3h3.2l7.2-20.1H138v-3.2
	h13.8v3.2H148.6z M145,72.1h-0.1L141.1,83h7.6L145,72.1z"/>
<path class="st0" d="M117,72.2v20h8.8V84h3.3v11.6h-19.5v-3.3h3.4v-20h-3.4v-3.3h10.9v3.3H117z"/>
<path class="st0" d="M92.2,72.2v20h3.1v3.3H84.8v-3.3h3.3v-20h-3.3v-3.3h10.8v3.3H92.2z M105.4,72.2l-8.3,9.3l8.5,10.7h2.8v3.3H97.7
	v-3.3h2.9l-8-10.6l8.3-9.4h-3.1v-3.3h10.5v3.3H105.4z"/>
<path class="st0" d="M78.2,71.8v-2.9h3.4v8.5h-3.5c-0.9-1.7-2.1-3-3.6-4c-1.5-1-3.2-1.4-5-1.4c-1.8,0-3.3,0.5-4.7,1.4
	c-1.4,0.9-2.5,2.2-3.2,3.7c-0.8,1.5-1.1,3.2-1.1,5c0,1.8,0.4,3.5,1.2,5.1c0.8,1.6,1.9,2.8,3.3,3.7c1.4,0.9,3,1.4,4.7,1.4
	c2.1,0,4-0.6,5.7-1.9c1.6-1.3,2.8-3.2,3.6-5.6l3.4,1.8c-0.9,3-2.5,5.3-4.9,6.9c-2.3,1.6-5.1,2.4-8.2,2.4c-2.6,0-4.9-0.6-6.9-1.8
	c-2-1.2-3.6-2.9-4.7-5c-1.1-2.1-1.7-4.4-1.7-6.9c0-2.7,0.6-5.1,1.7-7.2c1.1-2.1,2.7-3.7,4.7-4.9c2-1.2,4.3-1.8,6.9-1.8
	c1.7,0,3.3,0.3,4.8,0.9C75.6,69.9,77,70.7,78.2,71.8z"/>
<path class="st0" d="M35.3,72.2v13.6c0,2.4,0.5,4.1,1.4,5.3c0.9,1.1,2.3,1.7,4,1.7c1.8,0,3.2-0.5,4.1-1.6c0.9-1.1,1.4-2.8,1.4-5.2
	V72.2h-3.1v-3.3h10.4v3.3h-3.3v14c0,3.2-0.8,5.6-2.4,7.3c-1.6,1.7-4,2.5-7.1,2.5c-3.1,0-5.5-0.8-7.1-2.5c-1.6-1.7-2.4-4.2-2.4-7.5
	V72.2H28v-3.3h10.5v3.3H35.3z"/>
<path class="st0" d="M17.8,72.1l7.2,20.1h3v3.3H17.5v-3.3H21l-2.1-6.1H9.3l-2.1,6.1h3.4v3.3H0v-3.3h3.2l7.2-20.1H7.2v-3.2H21v3.2
	H17.8z M14.2,72.1h-0.1L10.3,83h7.6L14.2,72.1z"/>
<path class="st1" d="M296.9,5.4V1h9.2v19.2h-9.2c-1.1-3.2-3.1-5.7-5.8-7.6c-2.7-1.9-5.7-2.8-9.1-2.8c-3.1,0-5.8,0.7-8.2,2.2
	c-2.4,1.4-4.2,3.4-5.5,6c-1.3,2.6-1.9,5.6-1.9,9.1c0,5.9,1.4,10.5,4.2,13.9c2.9,3.4,6.8,5.1,11.7,5.1c3.3,0,6-0.8,8.1-2.3
	c2.1-1.6,3.6-3.8,4.5-6.7h-9.6v-9.2h25.5c0,5.9-1.2,11-3.5,15.2c-2.3,4.2-5.7,7.4-10.1,9.6c-4.4,2.2-9.6,3.3-15.7,3.3
	c-6.1,0-11.5-1.1-16.1-3.3c-4.6-2.2-8.1-5.4-10.6-9.6c-2.5-4.2-3.7-9.2-3.7-14.9c0-5.4,1.2-10.2,3.7-14.4c2.5-4.2,6-7.5,10.3-9.9
	c4.4-2.4,9.3-3.6,14.8-3.6C287.3,0.1,292.9,1.8,296.9,5.4z"/>
<path class="st1" d="M245.3,31.6v8.8h-5.8v6.2h5v8.6h-24v-8.6h6.5v-6.2h-22.4c-1.2-3.3-2.2-5.7-2.9-7.2L227.9,0h11.7v31.6H245.3z
	 M214.6,31.6h12.5V16L214.6,31.6z"/>
<path class="st0" d="M185.9,5.5V1h9.2v16.4h-9.2c-0.4-2.6-1.2-4.6-2.6-5.9c-1.3-1.3-3-2-5.1-2c-1.5,0-2.8,0.4-3.8,1.3
	c-1.1,0.8-1.6,1.9-1.6,3.2c0,1.1,0.3,2.1,1,2.9c0.7,0.8,1.5,1.5,2.6,2.1c1.1,0.6,2.6,1.3,4.7,2.2l2.2,0.9c4.8,2.1,8.4,4.5,10.8,7.3
	c2.4,2.8,3.7,6.3,3.7,10.4c0,5-1.4,8.9-4.3,11.8c-2.9,2.9-6.7,4.3-11.5,4.3c-4.7,0-8.4-1.8-11-5.3v4.6h-9.2V36.8h9.2
	c0.2,3.2,1,5.6,2.4,7.3c1.5,1.7,3.4,2.5,5.9,2.5c1.7,0,3-0.6,4.2-1.7c1.2-1.1,1.7-2.5,1.7-4.1c0-1.6-0.7-3.1-2-4.5
	c-1.3-1.4-3.5-2.7-6.7-4.1c-5.3-2.4-9.2-4.9-11.7-7.6c-2.4-2.7-3.6-5.8-3.6-9.4c0-2.8,0.6-5.3,1.9-7.6c1.3-2.3,3-4.1,5.3-5.4
	c2.3-1.3,4.7-2,7.3-2c2.1,0,4,0.4,5.8,1.3C183.3,2.5,184.8,3.8,185.9,5.5z"/>
<path class="st0" d="M143.5,5.5V1h9.2v16.4h-9.2c-0.4-2.6-1.2-4.6-2.6-5.9c-1.3-1.3-3-2-5.1-2c-1.5,0-2.8,0.4-3.8,1.3
	c-1.1,0.8-1.6,1.9-1.6,3.2c0,1.1,0.3,2.1,1,2.9c0.7,0.8,1.5,1.5,2.6,2.1c1.1,0.6,2.6,1.3,4.7,2.2l2.2,0.9c4.8,2.1,8.4,4.5,10.8,7.3
	c2.4,2.8,3.7,6.3,3.7,10.4c0,5-1.4,8.9-4.3,11.8c-2.9,2.9-6.7,4.3-11.5,4.3c-4.7,0-8.4-1.8-11-5.3v4.6h-9.2V36.8h9.2
	c0.2,3.2,1,5.6,2.4,7.3c1.5,1.7,3.4,2.5,5.9,2.5c1.7,0,3-0.6,4.2-1.7c1.2-1.1,1.7-2.5,1.7-4.1c0-1.6-0.7-3.1-2-4.5
	c-1.3-1.4-3.5-2.7-6.7-4.1c-5.3-2.4-9.2-4.9-11.7-7.6c-2.4-2.7-3.6-5.8-3.6-9.4c0-2.8,0.6-5.3,1.9-7.6c1.3-2.3,3-4.1,5.3-5.4
	c2.3-1.3,4.7-2,7.3-2c2.1,0,4,0.4,5.8,1.3C140.9,2.5,142.3,3.8,143.5,5.5z"/>
<path class="st0" d="M51.7,27.9c0-5.5,1.3-10.3,3.8-14.5c2.5-4.2,6.1-7.5,10.6-9.8c4.6-2.4,9.8-3.5,15.8-3.5
	c5.9,0,11.2,1.2,15.7,3.5c4.6,2.3,8.1,5.6,10.6,9.8c2.5,4.2,3.8,9.1,3.8,14.5c0,5.5-1.3,10.4-3.8,14.6c-2.5,4.2-6,7.5-10.6,9.8
	c-4.6,2.3-9.8,3.5-15.7,3.5c-5.8,0-11-1.2-15.6-3.5c-4.6-2.3-8.2-5.6-10.8-9.8C52.9,38.3,51.7,33.4,51.7,27.9z M96.8,27.9
	c0-3.3-0.6-6.3-1.8-9c-1.2-2.7-2.9-4.9-5.2-6.4c-2.3-1.6-4.9-2.4-7.9-2.4c-3,0-5.7,0.8-7.9,2.4c-2.3,1.6-4,3.7-5.2,6.4
	c-1.2,2.7-1.8,5.7-1.8,9c0,3.5,0.6,6.6,1.8,9.3c1.2,2.7,3,4.9,5.3,6.5c2.3,1.6,4.9,2.3,7.8,2.3c3,0,5.7-0.8,8-2.3
	c2.3-1.6,4.1-3.7,5.3-6.5C96.2,34.4,96.8,31.3,96.8,27.9z"/>
<path class="st0" d="M39.1,17.7v-7.5H22.8v12.5h11.8v9.2H22.8V46h8.4v9.2H1V46h7.7V10.2H1V1h48.5v16.7H39.1z"/>
<path class="st1" d="M356.6,6.5c0.5,1.3,1.3,2.6,2.3,4.1c2.4,3.6,6.2,8.1,10.5,12.9c8.4,9.4,19.2,20.3,26.6,28.2l0.7,6.9
	c-2.1,2.1-8.7,8.9-15.2,15.6c-3.6,3.7-7.2,7.4-9.9,10.2c-1.3,1.4-2.4,2.5-3.2,3.3c-0.1,0.1-0.3,0.3-0.4,0.4c-0.5-0.3-1.2-0.8-2-1.4
	c-1.3-1-2.9-2.4-4.6-4.1c-3.4-3.3-7.4-7.4-11.2-11.5c-3.8-4.1-7.3-8.1-10-11.2c-1.3-1.5-2.4-2.8-3.1-3.6c-0.4-0.4-0.7-0.8-0.9-1
	c-0.1-0.1-0.2-0.2-0.2-0.3c0,0,0-0.1-0.1-0.1c0,0,0,0,0,0l0,0c0,0-0.1,0.1-1.3,1l1.3-1l0,0l0,0l-0.2-0.3c-5.2-5.7-6.2-10.1-6.2-12.9
	c0-1.5,0.4-2.6,0.7-3.3c0.2-0.4,0.3-0.6,0.4-0.8c0.1-0.1,0.1-0.1,0.1-0.2c0,0,0,0,0,0L356.6,6.5z"/>
<path class="st0" d="M359.6,3.3l0.1,0c0.5,0,1.3,0.2,2.1,0.5c0.8,0.3,1.6,0.7,2.1,1l0,0c1.1,0.6,8.7,4.5,17.5,7.9
	c4.4,1.7,9.2,3.3,13.8,4.3c2.3,0.5,4.5,0.9,6.6,1c-0.1,0.1-0.2,0.2-0.3,0.2l-0.3,0.3c-1.6,1.4-2.7,3.4-3.5,5.7
	c-0.8,2.3-1.3,5-1.7,7.9c-0.5,4.5-0.5,9.5-0.3,14.4c-0.9-0.9-1.8-1.9-3-3.1c-3.6-3.8-8.5-8.9-13.4-14.3c-4.9-5.4-9.9-10.9-13.6-15.5
	c-1.9-2.3-3.5-4.4-4.6-6c-0.6-0.8-1-1.6-1.3-2.1c-0.3-0.5-0.4-0.9-0.5-1.1l0-0.1h0l0-0.2c-0.1-0.6,0-0.9,0-1
	C359.3,3.3,359.4,3.3,359.6,3.3z"/>
<path class="st1" d="M430.2,12.4c0,0.1,0,0.3,0.1,0.4c0.1,1.1,0.3,2.8,0.6,4.8c0.5,3.9,1.1,9.2,1.8,14.5c0.6,5.3,1.2,10.6,1.7,14.7
	c0.2,2,0.4,3.7,0.5,4.9c0,0.3,0,0.6,0.1,0.8c-0.8,0.2-1.9,0.3-3.3,0.6c-2.8,0.5-6.6,1.3-10.6,2.6c-6.8,2.2-14.6,6-19.6,12.8
	c-0.1-0.8-0.3-1.7-0.4-2.6c-0.6-4.3-1.3-10.1-1.7-16.1c-0.4-6.1-0.5-12.3,0.2-17.6c0.3-2.6,0.8-5,1.5-6.9c0.7-1.9,1.6-3.3,2.5-4.2
	l0.3-0.2c5.6-4.8,12.5-6.9,18.1-7.8c2.8-0.5,5.3-0.6,7-0.6C429.4,12.4,429.8,12.4,430.2,12.4z"/>
<path class="st0" d="M494.7,46.3l5.3,14.9c-0.1,0.1-0.1,0.2-0.2,0.3c-0.5,0.6-1.2,1.6-2.1,2.7c-1.9,2.3-4.6,5.3-8.2,8.6
	c-7.2,6.5-17.7,13.8-31.2,17.2l-0.3,0.1c-7.8,1.9-17.8,3.3-27.4,2.2c-9.5-1-18.4-4.4-24.2-11.8l-0.1-0.2c-1.5-2-2.9-4.4-4-7
	c0-0.1,0.1-0.2,0.1-0.2c0,0,0-0.1,0-0.1c4.5-8.5,13.9-12.7,21.9-14.9c0,0.1,0.1,0.1,0.1,0.2c0.3,0.4,0.8,1,1.5,1.7
	c1.3,1.3,3.4,2.9,6.5,4.1c5.9,2.2,15.1,2.7,28.7-3.2l1.3-0.6c9.8-4.4,16.5-12.2,20.9-19.3c2.6-4.2,4.4-8.2,5.5-11.3L494.7,46.3z
	 M401.4,73.7c-0.1,0.1-0.3,0.1-0.5,0.1C401.1,73.8,401.3,73.8,401.4,73.7L401.4,73.7z"/>
</svg>
