<?xml version="1.0" encoding="utf-8"?>
<!-- Generator: Adobe Illustrator 21.0.0, SVG Export Plug-In . SVG Version: 6.00 Build 0)  -->
<svg version="1.1" id="Layer_1" xmlns="http://www.w3.org/2000/svg" xmlns:xlink="http://www.w3.org/1999/xlink" x="0px" y="0px"
	 viewBox="0 0 314.6 300" style="enable-background:new 0 0 314.6 300;" xml:space="preserve">
<style type="text/css">
	.st0{fill:#242B3D;}
	.st1{fill:#4795A3;}
</style>
<path class="st0" d="M6.4,136c0,5-0.5,11,0.8,15.7c0.6,2.2,1.7-1.7,2-2.7c0.8-2.6,2.6-8.1,3.6-10.2c0.8-1.7,1.5-3.6-0.5-4.2
	C9.6,133.9,6.4,132.5,6.4,136z M155,23.8c5.6-3.5,9.7-6.6,15.9-9.6c3.9-1.8,16.3-5.7,15.6-5.9C167.8,2.6,150.6,26.6,155,23.8z
	 M158,4.3c-2,0.3-2.8,6.7-2.2,6.8c1.7,0.4,8-3.7,9.4-5.2C167.7,3.1,159.2,4.2,158,4.3z M122.6,36.4c-2.7,0.2-1.9,5.5-1.8,9
	c0.1,5,11-7.9,10.3-8.8C131.1,36.5,122.7,36.4,122.6,36.4z M105.6,9.6c-2.2-0.8-5.1,1-6.8,2.3c-2.5,1.9,0.8,2.7,2.4,3.4
	c0.7,0.3,5.5,2.3,6,1.6C107.7,16.1,107.4,10.3,105.6,9.6z M48.6,49.3c3.7,1.7,7.9,4.2,8.6,2.5C58,50,57.6,38,56,38.3
	c-1.5,0.3-7.5,4.4-9.7,7.1C44.4,47.9,46.2,48.1,48.6,49.3z M70.5,70.9c-0.9,0.2-1.2,6.4-1.2,7.4c0,2,0.4,1.6,2.2,0.7
	c0.9-0.4,6.2-2.8,6.2-3.8S73.3,70.2,70.5,70.9z M41.2,85.4c4.8,1.2,9.7-2,11-7.1c1.2-5.1-1.7-10.2-6.5-11.3c-4.8-1.2-9.7,2-11,7.1
	C33.5,79.2,36.4,84.3,41.2,85.4z M43.3,80.4c2.1,0,3.9-1.9,3.9-4.2c0-2.3-1.7-4.2-3.9-4.2s-3.9,1.9-3.9,4.2
	C39.5,78.5,41.2,80.4,43.3,80.4z M29.7,92.4c8.5,7,21.4,5.4,28.8-3.6s6.5-21.9-1.9-28.9c-8.5-7-21.4-5.4-28.8,3.6
	C20.4,72.4,21.2,85.4,29.7,92.4z M33.8,87.9c6.1,5.1,15.5,3.9,20.8-2.6c5.4-6.5,4.7-15.9-1.4-21s-15.5-3.9-20.8,2.6
	C27,73.5,27.6,82.9,33.8,87.9z M19.5,91.9c-1.7-2.3-3-6.9-2.9-0.3c0.1,5.8-2.3,4.9,4.2,9.9c2.6,2,6,4.7,8.4,7
	c2.7,2.5,1.9,2.5,4.3,0.3C36.1,106.4,22.1,96.2,19.5,91.9z M116.8,3.2C50.1,17.7,0,77.9,0,150c0,14.5,2,28.5,5.8,41.8
	c1.4-11.5,3-21.8,5.8-31.7c3.7-13.3,9.6-25.9,19.8-40.1c8-11.2,18.8-21.9,31.1-30.1c11-7.3,23.3-12.4,35.8-13.9
	c3.4-0.4,7-0.6,10.5-0.5c15.1-28.1,35.1-46.5,59.6-55c13.7-4.6,28.7-6.3,44.9-4.8C193.5,5.6,171.2,0,147.6,0c-1.1,0-2.2,0-3.3,0"/>
<path class="st0" d="M147.6,300c0.5,0,1,0,1.5,0c-1.5-1.7-2.8-3.7-4.5-5.1c-3.4-2.7-9.6,0.6-12.7,4.2C137,299.7,142.2,300,147.6,300
	z M152.4,299.9c15.7-0.5,31-2.9,44.8-8.6c-14-4.7-25.7-14.4-29.4-35.2c-6.4,10.9-16.2,20-27.3,26c-11.5,6.2-23.8,8-35.3,6.8
	c-13.5-1.4-25.8-6.9-34.2-14c-6.5-5.5-11-11.3-14.4-17.2c-3.3-5.8-5.6-11.8-7.5-17.6c-0.5-1.6-1.2-3.7-1.8-5.6l-0.1-0.3
	c-4.2,4.2-8.3,8.4-12.5,12.5c22.5,27.1,54.3,46,90.4,51.6 M27.8,237.8c1.1,1.6,2.3,3.2,3.5,4.8l4-4l2-2c3.6-3.6,20.1-20.8,23.2-22.3
	c4.7-2.2,7.6,0.8,10.4,4.2c0.9,1.1,0.7,2.8-0.5,3.7c-1.1,0.9-2.8,0.7-3.7-0.5c-3.7-4.5-3.8-3.3-8.6,1.4c-1.9,1.9-3.9,3.8-5.8,5.7
	c0.3,1.1,0.7,2.4,1,3.7c0.6,2.1,1.3,4,1.7,5.4c1.8,5.4,3.9,11,7,16.4c3.1,5.3,7.1,10.6,12.9,15.5c7.5,6.3,18.6,11.3,30.7,12.5
	c10.3,1.1,21.3-0.5,31.6-6c10.1-5.4,19-13.7,24.8-23.5c5.1-8.7,7.6-18.8,6.2-29.2c-1.2-8.5-4.4-15.9-9.3-21.7
	c-4.8-5.6-11.3-9.7-19.4-11.9c-6-1.6-12-1.6-17.5-0.1c-5.6,1.4-10.7,4.3-14.8,8.1c-4.1,3.8-7.1,8.6-8.6,14c-1.3,4.6-1.4,9.8,0,15.1
	c1.6,6.4,4,10.4,7.4,13.1c3.4,2.7,8.1,4.3,14.2,5.5c2.4-0.2,4.8-0.7,7.1-1.5c3.6-1.3,6.9-3.5,9.4-6.1l0,0c2.4-2.6,4.1-5.7,4.6-9.1
	c0.4-2.5,0.1-5.2-0.9-8c-1.8-4.9-5.3-7.6-9-8.4c-1.9-0.5-3.9-0.5-5.7-0.1c-1.8,0.4-3.5,1.1-4.8,2.1c-2,1.6-3.3,3.8-3,6.6
	c0.3,2.6,1.9,4.4,3.7,5.1c1.3,0.5,3.5,0.9,4.8,0.1c3.4-2,0-6.7,3.2-7c2.3,2,0.7,14.9-10.4,12.5c-3.9-1.5-7.2-4.7-7.7-10
	c-0.5-5.2,1.8-9.5,5.5-12.4c2.1-1.6,4.7-2.8,7.5-3.3c2.7-0.6,5.6-0.5,8.5,0.1c5.6,1.3,10.9,5.3,13.6,12.5c1.4,3.9,1.8,7.7,1.2,11.2
	c-0.7,4.7-3,9-6.3,12.5l0,0c-3.2,3.4-7.3,6.1-11.9,7.8c-4.8,1.8-10.1,2.4-15.2,1.7c-10.1-1.6-19.1-7.1-26.4-14.5
	c-8.6-8.7-14.9-20-18.4-30.5c-3.5-10.6-4.7-22.4-3.6-33.9c1.1-11.3,4.4-22.3,10-31.9c1.3-2.2,2.7-4.3,4.4-6.5
	c5.9-7.5,14.2-14.5,23.1-18.3c9.3-4,19.5-4.6,28.7,0.8c1.2,0.7,2.4,1.5,3.5,2.4c3.8,3,6.9,7.4,8.7,12.1c1.6,4.5,2,9.5,0.6,14
	c-1.9,6-5.8,10-10.3,12.3c-2.9,1.5-6.1,2.2-9.2,2.2c-3.1,0-6.2-0.8-8.6-2.4c-2.8-1.8-4.9-4.5-5.6-8.2c-1.1-5.8,1.5-9.1,5.5-10.8
	c9.8-4.7,16.8,6.1,2.6,5.9c-0.5,0-1,0.1-1.3,0.3c0.8,0.2,1.8,0.8,3,1.9c1.4,1.3,4,1.3,5.9,0.9c1.2-0.3,2.5-0.9,3.5-1.7
	c0.9-0.8,1.5-1.8,1.8-2.8s0.5-2,0.5-2.5c0-0.2,0-0.3,0.1-0.5c-3.3-16.7-21.2-20.1-32.6-5.1c-6.2,7.3-5.3,15.3-2.9,23.4
	c2.2,7.5,7.6,13.3,14.3,16.9c7.4,4,16.4,5.5,24.6,4.1c6.4-1.2,12.2-4.9,17.1-9.8c5.6-5.6,9.9-12.8,12.1-19.7
	c3.4-11,3.1-21.4-0.4-30.8c-3.7-10.1-10.8-18.9-20.5-26c-6-4.4-13.3-7.5-21-9.3c-8.2-1.9-16.8-2.4-24.7-1.5
	c-11.5,1.4-22.8,6.1-33,12.9c-11.6,7.7-21.9,17.9-29.4,28.4c-9.7,13.6-15.3,25.5-18.8,38.1c-3.6,12.7-5.4,28-7.1,44.3
	c3.9,9.9,8.5,18.4,14.3,27.2 M131.9,131.7c0.9,2.6,1.3,5.5,1.2,8.5C133.4,137.3,132.9,134.4,131.9,131.7z M30.2,187.7
	c8.3-7.6,29.6-26.9,30.1-32.5c0.2-1.9-0.7-5.7-1.6-9.1l-34.1,31.6c-3.1,3.1,2.2,6.4,3.9,8.2L30.2,187.7z M157.3,152
	c-0.1,0-0.1,0-0.2,0.1C157.2,152.1,157.2,152.1,157.3,152z M47.6,203.4c1.5,1.6,4.4-1.2,4.3-2.5c0.1,0,0.3,0,0.4,0
	c3.4-0.3,4.9-6.5,1.4-7.1c-2.4-0.4-3.9,3.1-3.9,5.4c0,0.2,0,0.3,0,0.5C47.5,199.1,44,199.6,47.6,203.4z M35.1,213.2
	c2.5,6.3,5.4,0.6,5.1-0.7c0-0.2-0.1-0.4-0.2-0.6c3.1-0.2,4-1.7,3.4-2.9c2.7-0.1,7-4.7,1.8-5.8c-2.2-0.5-2.8,0.1-3.5,2.2
	c-0.2,1.1-0.2,1.9,0,2.5c-0.5-0.1-1.1-0.1-1.7,0c-1.1,0.2-1.4,1.9-1,3.1C37.2,209.8,34,210.4,35.1,213.2z M31.3,216.3
	c-2.6-0.2-3.2,1.7-1.7,3.6C33.5,225.1,37.3,216.7,31.3,216.3z M25.4,221.7c-0.8,0.2-2.7,2.8-1.3,4.4
	C28.3,230.9,31.3,220.1,25.4,221.7z M28.3,180.7c2.9,5.5,7.6-2.3,2.4-3.6C28.3,176.5,27.6,178.6,28.3,180.7z M54.7,155.8
	c3,6.6,5.1-1.9,3.8-3.9C58,151,53.2,152.3,54.7,155.8z M44.1,138.6c1.8-1.1,1.8-2.9,1.3-4.5"/>
<path class="st0" d="M264.8,118.2H183c1.3,3.3,6.8,11.2,8.8,14.1l63.2,0.2C257,129.6,263.5,121.5,264.8,118.2z M191.8,132.3
	c1.7,1.8,12.8,9.3,14.7,10.7l34.1-0.3c1.9-1.5,12.7-8.5,14.4-10.3L191.8,132.3z M205.1,142.2c5.7,2.7,12.1,4.3,18.8,4.3
	c6.8,0,12.8-2.3,17.8-4.6L205.1,142.2z"/>
<path class="st0" d="M222.1,112.8c0.8,0.6,2.3,0.6,3.1,0.3c0.8-0.3,1-0.8,1.1-10.4c0.1-9.7,0.1-28.5-0.2-39.7s-1-14.8-1.5-16.6
	c-0.5-1.8-0.8-1.9-1.3-1s-1.2,2.8-1.6,4.5c-0.4,1.8-0.5,3.4-0.6,13.4s-0.1,28.3,0,38C221.1,111.1,221.3,112.3,222.1,112.8z"/>
<path class="st0" d="M209.2,286.3c5.7-2.7,11.2-5.7,16.5-9.1c3-3.9,4.8-8.8,4.8-14.1c0-6.4-2.6-12.2-6.9-16.4
	c-4.2-4.2-10.1-6.8-16.6-6.8c-2.4,0-4.6,0.3-6.8,1c-2.6,0.8-4.9,1.9-7.2,3.6c-0.9,0.7-1.8,1.4-2.6,2.3c-4.2,4.2-6.9,10-6.9,16.4
	s2.6,12.2,6.9,16.4c4.2,4.2,10.1,6.8,16.6,6.8C207.8,286.4,208.5,286.4,209.2,286.3z"/>
<path class="st1" d="M293.7,170.8c-0.2,1.7-0.5,3.4-0.8,5c-2.7,2.1-5.5,4.3-7.9,6.4c-5.2,4.4-9.1,8.2-13,12.1
	c-0.8,0.8-1.6,1.6-2.5,2.4c-2.5,2.4-5.1,4.9-7.7,7.2c-2.6,2.4-5.3,4.7-7.9,6.7s-5.1,3.8-7.6,5.3c-2.4,1.5-4.8,2.9-7.2,4l0,0
	c-2.3,1.2-4.6,2.1-6.9,3c-2.3,0.9-4.7,1.7-7.4,2.5c-1.4,0.4-3.1,0.9-4.8,1.4c-4.2,1.2-8.7,2.4-13,4c-3.2,1.2-6.3,2.5-9.3,4
	c-4.6,1.5-8.8,4-12.1,7.3c-5.4,5.4-8.8,12.8-8.8,21c0,8.2,3.4,15.6,8.8,21c3.2,3.1,7,5.6,11.4,7.1c-4.6-1.5-9-3.6-12.8-6.4l0,0
	c-0.2-0.1-0.4-0.3-0.6-0.4l0,0c-0.2-0.1-0.4-0.3-0.5-0.4l0,0c-0.2-0.1-0.4-0.3-0.5-0.4l0,0c-0.2-0.1-0.4-0.3-0.5-0.4l0,0
	c-5-4.2-9-9.8-11.8-17.3c-0.1-0.3-0.2-0.5-0.3-0.8s-0.2-0.5-0.3-0.8s-0.2-0.6-0.3-0.8c-0.1-0.3-0.2-0.6-0.3-0.9s-0.2-0.6-0.2-0.9
	c-0.1-0.3-0.2-0.6-0.2-0.9c-0.1-0.3-0.2-0.6-0.2-0.9c-0.1-0.3-0.1-0.6-0.2-0.9c-0.1-0.3-0.1-0.6-0.2-0.9c-0.1-0.3-0.1-0.6-0.2-1
	c-0.1-0.3-0.1-0.6-0.2-1c0.7-1.7,1.5-3.6,2.6-4.9c2.3-2.4,4.5-4.9,6.6-7c2.2-2.3,4.3-4.3,6.1-6s3.6-3.1,5.3-4.2
	c1.7-1.2,3.4-2.1,5.2-3s3.8-1.7,5.8-2.4c2.1-0.7,4.2-1.4,6.3-1.9c2.4-0.6,4.7-1.1,7.1-1.7c2.3-0.5,4.7-1,6.6-1.5
	c2.3-0.6,4.7-1.3,7-2.1c2.4-0.8,4.7-1.7,7.1-2.9c2.4-1.1,4.7-2.4,7.1-3.9c2.3-1.4,4.7-3,7.1-4.8c2.4-1.7,4.8-3.6,7.4-5.6
	c2.6-2.1,5.3-4.4,8.2-7c3.2-2.8,7.6-6.8,11.6-10.5c1.8-1.6,3.5-3.2,6.4-5.8c2.6-2.4,4.8-4.2,6.7-5.8
	C290,173.5,291.8,172.1,293.7,170.8z M290.9,185.8c-8.2,34.1-27.9,63.7-54.7,84.2c0.5-2.2,0.8-4.4,0.8-6.8c0-8.2-3.4-15.6-8.8-21
	c-3.4-3.4-7.6-5.9-12.2-7.4c2-0.6,4.1-1.2,6-1.7c1.6-0.4,3.2-0.9,4.8-1.4c2.8-0.8,5.3-1.7,7.8-2.6c2.5-1,5-2,7.5-3.3l0,0
	c2.5-1.2,5.1-2.7,7.7-4.4c2.6-1.7,5.3-3.6,8.1-5.7c2.7-2.1,5.5-4.5,8.3-7s5.4-5,7.8-7.4c0.8-0.8,1.7-1.6,2.5-2.4
	c3.9-3.8,7.6-7.5,12.7-11.8C289.8,186.7,290.4,186.2,290.9,185.8z M295,157.1c-0.1,1.8-0.2,3.5-0.3,5.3c-1.5,0.9-3,2-4.5,3
	c-2.2,1.5-4.1,3-6.2,4.7c-2.2,1.8-4.3,3.7-6.9,6c-0.9,0.8-3.6,3.3-6.4,5.9c-3.6,3.3-7.4,6.8-11.6,10.4c-3,2.6-5.6,4.8-8,6.8
	c-2.5,2-4.8,3.8-7.1,5.4c-2.2,1.6-4.5,3.1-6.7,4.5c-2.2,1.3-4.4,2.5-6.5,3.5s-4.3,1.9-6.4,2.6c-2.1,0.7-4.3,1.3-6.5,1.9
	c-2.4,0.6-4.4,1-6.4,1.5c-2.5,0.6-4.9,1.1-7.3,1.7c-2.3,0.6-4.6,1.3-6.8,2.1c-2.3,0.8-4.4,1.7-6.5,2.7s-4.1,2.1-6,3.5
	c-1.9,1.3-3.9,2.9-6,4.8c-1.3,1.2-2.7,2.5-4.1,3.9c0.4-2.4,0.6-4.8,0.6-7.3c2.2-1.5,4.3-2.9,6.1-4.1c2.5-1.6,5-3.2,7.5-4.6
	c4.9-2.8,10-5.1,12.5-6.2l1.8-0.8c0.3,0,0.6,0,0.8,0c7,0.2,14.2-2.1,20.2-7.1l0.4-0.3c1.5-1.3,2.8-2.7,4-4.1
	c4.6-1.8,9.2-3.6,13.8-5.7c2.4-1.1,4.7-2.3,7-3.6s4.6-2.7,6.8-4.1c2.2-1.5,4.4-3,6.6-4.7s4.3-3.5,6.3-5.3c2.9-2.6,5.7-5.4,8.2-8
	c0.9-0.9,1.8-1.8,2.7-2.6c1.6-1.6,3.1-3,4.4-4.2s2.6-2.2,3.9-3.2c1.2-0.9,2.3-1.7,3.5-2.4C292.9,158.3,293.9,157.7,295,157.1z
	 M106.2,122.4c7.6-3.2,15.7-3.8,22.9,0.4c1,0.6,1.9,1.2,2.8,1.9c2.9,2.2,5.2,5.6,6.6,9.3c1.2,3.3,1.5,6.7,0.5,9.8
	c-1.3,4.1-4,6.9-7.1,8.5c-2,1-4.2,1.5-6.2,1.5c-0.2,0-0.3,0-0.4,0l0,0c-9.3-0.3-11-9.7-6.9-8.7c0.1,0,0.2,0,0.2,0.1h0.1
	c0.1,0,0.1,0,0.2,0.1h0.1c0.1,0,0.1,0.1,0.2,0.1h0.1c0.1,0,0.2,0.1,0.2,0.1l0,0c0.1,0,0.2,0.1,0.3,0.1l0,0c0.1,0.1,0.2,0.1,0.3,0.2
	l0,0c0.1,0.1,0.2,0.1,0.3,0.2l0,0c0.1,0.1,0.2,0.2,0.3,0.2l0,0c0.1,0.1,0.2,0.2,0.3,0.3l0,0c0.1,0.1,0.2,0.2,0.3,0.3
	c1.4,1.3,4,1.3,5.9,0.9c1.2-0.3,2.5-0.9,3.5-1.7c0.9-0.8,1.5-1.8,1.8-2.8s0.5-2,0.5-2.5c0-0.1,0-0.2,0-0.3l0,0l0,0v-0.1l0,0l0,0l0,0
	l0,0c0-0.3,0-0.5,0.1-0.8l0,0c0-0.2,0-0.5,0-0.7c0-0.1,0-0.3,0-0.4l0,0c0-0.1,0-0.2,0-0.3V138c0-0.1,0-0.2,0-0.3l0,0
	c0-0.1,0-0.2,0-0.3l0,0c0-0.1,0-0.2,0-0.3l0,0V137c0-0.1,0-0.2,0-0.2v-0.1c0-0.1,0-0.2,0-0.3v-0.1c0-0.1,0-0.2,0-0.2l0,0V136
	c0-0.1,0-0.2,0-0.2v-0.1c0-0.1,0-0.2,0-0.2v-0.1c0-0.1,0-0.1,0-0.2V135v-0.2v-0.2v-0.2c0-0.1,0-0.1,0-0.2V134c0-0.1,0-0.1-0.1-0.2
	v-0.2v-0.2v-0.2c0-0.1,0-0.1-0.1-0.2v-0.2c0-0.1,0-0.1-0.1-0.2v-0.1c0-0.1,0-0.1-0.1-0.2l-0.1-0.2l-0.1-0.2l-0.1-0.1
	c0-0.1-0.1-0.1-0.1-0.2c-1.7-4.2-4.9-7.6-9.5-8.9c-4.4-1.1-8.6-0.9-12.4,0.2c-4.7,1.4-8.9,4.3-12.1,8.1c-3.2,3.7-5.5,8.3-6.7,13.2
	c-1.3,5.3-1.4,10.9,0.2,16.2c2.8,9.3,9.3,16.3,17.4,20.7c2.6,1.4,5.5,2.6,8.4,3.5c-5.3,1.9-10.2,4.8-14.2,8.6
	c-4.9,4.6-8.6,10.4-10.4,17c-1.6,5.7-1.7,11.9-0.1,18.4c0.5,2.1,1.1,4,1.8,5.7c-0.5-0.5-1.1-1-1.6-1.5c-7.8-7.9-13.7-18.3-16.9-28
	c-3.2-9.8-4.4-20.6-3.4-31.2c1-10.4,4-20.5,9.1-29.3c1.1-1.9,2.4-3.9,3.9-5.7C90.9,132,98.2,125.8,106.2,122.4z M116,76
	c24.5-43.6,61.4-61.1,110.8-52.6c32.3,20.9,56.1,54.3,64.8,93.4c-1.6,0.7-3,1.4-4.4,2.1c-1.7,0.9-3.1,1.8-4.4,2.8
	c-1.4,1-2.7,2.1-4.1,3.4c-1.3,1.3-2.6,2.7-4,4.4c-1.7,2.2-3.4,4.7-5.2,7.3c-0.8,1.2-1.6,2.4-2.5,3.7c-1.3,1.9-2.7,3.8-4.1,5.6
	s-2.8,3.5-4.3,5c-1.4,1.5-2.8,2.8-4.2,4l0,0c-1.4,1.2-2.9,2.2-4.4,3.2c-1.6,1-3.2,1.8-4.7,2.6c-1.6,0.8-3.3,1.5-4.9,2
	c-1.5,0.5-3,0.9-4.5,1.2s-3,0.4-4.6,0.3c-1.7-0.1-3.5-0.3-5.5-0.6c-1.9-0.3-3.9-0.7-5.8-1.1c-3-1.3-6.2-1.9-9.5-2.1
	c-7-0.2-14.2,2.1-20.2,7.1l-0.4,0.3c-5.8,5-9.2,11.6-10,18.2c-0.9,6.8,0.8,13.7,5.4,19.2c0,0.1,0.1,0.1,0.3,0.3
	c2.2,2.6,4.9,4.6,7.8,6c-2.3,1.1-4.9,2.5-7.6,4c-2.7,1.5-5.3,3.1-7.8,4.8c-1.1,0.7-2.1,1.4-3.1,2c-1.4-9.6-5.1-18-10.8-24.7
	c-5.2-6.1-12.2-10.7-20.7-13.4c5.5-2.1,10.6-5.7,14.9-10c6.3-6.3,11.2-14.5,13.6-22.4c3.9-12.4,3.4-24.2-0.5-34.9
	c-4.1-11.3-12.1-21.2-22.8-29c-6.8-5-14.9-8.4-23.3-10.4C122.2,76.9,119.1,76.4,116,76z M210.2,167c5.3,0.2,10.3,2.3,13.9,6.4
	c0.1,0.1,0,0,0.2,0.2c3.3,4,4.6,9.1,4,14.2c-0.7,5.2-3.3,10.3-7.9,14.2c0,0-0.1,0-0.3,0.2c-4.7,3.9-10.4,5.8-15.8,5.6
	c-5.3-0.2-10.3-2.3-13.9-6.4c-0.1-0.1,0,0-0.2-0.2c-3.3-4-4.6-9.1-4-14.2c0.7-5.2,3.3-10.3,7.9-14.2c0.1,0,0.1,0,0.3-0.2
	C199.1,168.7,204.8,166.8,210.2,167z M295,143.8c0.1,1.9,0.1,3.9,0.1,5.8c-0.7,0.4-1.6,0.9-3.1,1.7c-1.3,0.7-2.5,1.4-3.7,2.1
	c-1.3,0.8-2.6,1.7-4,2.7c-1.3,1-2.7,2.2-4.3,3.6c-1.5,1.4-3.1,2.8-4.7,4.4c-0.9,0.9-1.8,1.8-2.7,2.7c-2.5,2.5-5.1,5.1-8,7.7
	c-2,1.8-4,3.4-6,5s-4.1,3-6.2,4.4c-2.1,1.4-4.2,2.7-6.4,3.9c-2.1,1.2-4.3,2.3-6.6,3.3c-2,0.9-4.1,1.8-6.2,2.7c0.6-1.7,1-3.5,1.2-5.2
	c0.2-1.2,0.2-2.4,0.2-3.6c0.8-0.2,1.6-0.4,2.5-0.6c1.8-0.5,3.7-1,5.6-1.8c2-0.8,3.9-1.7,5.9-2.7c2-1.1,4.1-2.3,6.2-3.6
	s4.3-2.8,6.4-4.5c1.9-1.5,3.9-3.1,5.9-4.9c2.8-2.5,5.4-5.1,7.7-7.5c1.1-1.1,2.2-2.2,3.2-3.2c1.5-1.5,2.8-2.7,4.2-3.8
	c1.4-1.2,3-2.3,4.9-3.7C289.7,147.3,292.5,145.4,295,143.8z M84.8,181.1c0.4-0.3,0.9-0.4,1.6-0.3l0,0c0.3,0.1,0.6,0.1,0.9,0.2
	c-0.4,0.4-0.8,0.8-1.2,1.3c-0.6,0.9-0.4,2.2,0.6,2.8c0.9,0.6,2.2,0.4,2.8-0.6c0.3-0.3,0.5-0.7,0.7-0.9c0.3,0.8,0.5,1.8,0.4,2.9
	c0,0.2-0.1,0.4-0.2,0.5c-0.2,0.3-0.6,0.6-1.1,0.8c-0.6,0.3-1.3,0.4-2,0.4c-0.6,0-1.2-0.1-1.5-0.4c-1.3-0.9-2-2.3-2.1-3.6
	c-0.1-0.7,0-1.5,0.3-2.1C84.2,181.8,84.5,181.4,84.8,181.1z M292.8,123.3c0.8,4.3,1.3,8.7,1.7,13.2c-3,1.9-7.4,4.7-10.8,7
	c-2.1,1.4-3.8,2.7-5.3,4c-1.6,1.3-3,2.6-4.6,4.2c-1,1-2.1,2.1-3.3,3.2c-2.4,2.4-4.9,5-7.5,7.2c-1.8,1.6-3.6,3.1-5.5,4.5
	c-2,1.5-4,2.9-6,4.1c-1.9,1.2-3.9,2.4-5.7,3.3c-1.8,1-3.6,1.8-5.2,2.4c-1.7,0.6-3.3,1.1-5,1.6c-0.6,0.1-1.2,0.3-1.8,0.4
	c-0.7-2.7-2-5.3-3.7-7.7c0.2,0,0.5,0,0.7,0c2.1,0.1,4-0.1,5.9-0.4c1.8-0.3,3.6-0.8,5.5-1.5c1.8-0.6,3.7-1.4,5.6-2.3
	c1.9-0.9,3.7-1.9,5.3-2.9c1.8-1.1,3.5-2.3,5.1-3.7l0,0c1.7-1.4,3.3-2.9,4.9-4.5s3.1-3.5,4.6-5.5c1.5-1.9,3-3.9,4.3-5.9
	c0.9-1.2,1.7-2.5,2.6-3.8c1.7-2.5,3.3-4.9,4.9-6.9c1.1-1.4,2.2-2.6,3.4-3.7c1.1-1.1,2.2-2,3.4-2.8c1.2-0.9,2.4-1.6,3.7-2.3
	C291,124.2,291.8,123.7,292.8,123.3z M176.6,113.4c4.9,21.6,24.2,37.8,47.3,37.8s42.4-16.2,47.3-37.8
	C271.2,113.4,176.6,113.4,176.6,113.4z M225.2,53.6c-1.5-2-1.8-2-3.5-0.2c-1.6,1.8-4.6,5.5-10.1,14.4S198,90.7,193.7,98.3
	c-4.3,7.6-5,8.8-5,9.5s0.5,1.1,11,1.2c10.5,0.2,30.9,0.2,42.5,0c11.7-0.2,14.6-0.5,16-1.1c1.4-0.5,1.1-1.3-3.5-8.7
	c-4.6-7.5-13.6-21.6-19.4-30.7C229.4,59.5,226.7,55.6,225.2,53.6z M157.2,56.4c-0.9,0-2,0.3-3.1,0.8c-1,0.6-2,1.4-2.8,2.6
	c-0.8,1.1-1.3,2.5-1.9,3.9c-7.1-2-11.6,0.1-13.5,6.3h39.4c-0.3-0.8-0.6-1.6-1.1-2.3c-0.5-0.8-1.2-1.6-2-2.2s-1.7-1-2.6-1.3
	c-1-0.4-2-0.7-2.9-1s-1.6-0.6-2.2-0.9c-0.5-0.3-0.9-0.7-1.3-1.3c-0.4-0.7-1-1.7-1.6-2.4s-1.2-1.2-2-1.6
	C159,56.7,158.1,56.4,157.2,56.4z M200.4,39.1c-2,0-4,1-5.2,2.6s-1.5,3.7-1.8,5.8c-6-3.5-11.4-1.9-12.7,4.9h19.7V47h8.3
	c-0.1-0.9-0.3-1.5-0.7-2.4c-0.5-1-1.3-2.4-2.6-3.5C204.2,40,202.3,39.1,200.4,39.1z"/>
<path class="st0" d="M300.8,93.8v0.6 M314.3,83c0,0.6-0.1,1.1-0.1,1.7c-0.4,5-1.1,7-2.9,9.5c-1.6,2.2-4,4.7-6.5,7.4
	c2.7,48.3,1.7,25.4,3.2,93.8c0,2.4-2,4.4-4.4,4.4s-4.4-2-4.4-4.4c1.6-68.4,0.7-45.6,3.3-93.8l0,0c-2.5-2.6-4.9-5.2-6.5-7.4
	c-1.8-2.5-2.6-4.5-2.9-9.5c0-0.5-0.1-1.1-0.1-1.7 M301.3,88.1c-2.8-2.1-5.2-4-8.3-5.9l0,0c-0.2-4.9-0.2-11.3,0.1-16
	c0.3-5.5,0.9-8.6,2.7-12.7c1.8-4.2,4.9-9.5,6.4-12.1c2-3.4,1.1-3.4,3,0c1.5,2.6,4.6,7.9,6.4,12.1s2.4,7.2,2.7,12.7
	c0.3,4.7,0.3,11.1,0.1,16c-3.1,2-5.5,3.8-8.3,5.9"/>
</svg>
