<?xml version="1.0" encoding="utf-8"?>
<!-- Generator: Adobe Illustrator 21.0.0, SVG Export Plug-In . SVG Version: 6.00 Build 0)  -->
<svg version="1.1"
	 id="svg29" inkscape:version="1.4 (86a8ad7, 2024-10-11)" sodipodi:docname="foss4g-2025-logo-banner.svg" xmlns:inkscape="http://www.inkscape.org/namespaces/inkscape" xmlns:sodipodi="http://sodipodi.sourceforge.net/DTD/sodipodi-0.dtd" xmlns:svg="http://www.w3.org/2000/svg"
	 xmlns="http://www.w3.org/2000/svg" xmlns:xlink="http://www.w3.org/1999/xlink" x="0px" y="0px" viewBox="0 0 388.9 77.4"
	 style="enable-background:new 0 0 388.9 77.4;" xml:space="preserve" 
   width="388.94299"
   height="77.412361">
<style type="text/css">
	.st0{fill:#242B3D;}
	.st1{fill:#4795A3;}
</style>
<sodipodi:namedview  bordercolor="#666666" borderopacity="1.0" id="namedview29" inkscape:current-layer="svg29" inkscape:cx="141" inkscape:cy="45.75" inkscape:deskcolor="#d1d1d1" inkscape:pagecheckerboard="0" inkscape:pageopacity="0.0" inkscape:showpageshadow="2" inkscape:window-height="2054" inkscape:window-maximized="1" inkscape:window-width="3840" inkscape:window-x="-11" inkscape:window-y="-11" inkscape:zoom="2" pagecolor="#ffffff">
	</sodipodi:namedview>
<path id="path8" class="st0" d="M274.9,55.2V53h-4.8l-0.3,4.6c0.9-0.8,2-1.2,3.2-1.2c1,0,1.8,0.2,2.5,0.7c0.7,0.5,1.3,1.1,1.7,1.9
	c0.4,0.8,0.6,1.6,0.6,2.6c0,1-0.2,2-0.7,2.8c-0.4,0.8-1.1,1.4-1.9,1.9c-0.8,0.4-1.8,0.7-2.9,0.7c-1.6,0-2.8-0.4-3.8-1.3
	c-0.9-0.9-1.4-2.2-1.5-3.9h2c0.1,1.1,0.5,1.9,1,2.5c0.6,0.6,1.3,0.9,2.2,0.9c0.9,0,1.7-0.3,2.3-0.9c0.6-0.6,0.9-1.5,0.9-2.5
	c0-1.1-0.3-1.9-0.8-2.5c-0.5-0.6-1.2-0.9-2.1-0.9c-1.2,0-2.3,0.6-3.1,1.9c-0.5-0.5-1-0.8-1.6-1.2l0.6-8h8.3v4.1L274.9,55.2z"/>
<path id="path9" class="st0" d="M264.8,55c0,0.9-0.2,1.6-0.7,2.3c-0.4,0.7-1.2,1.4-2.4,2.2l-1,0.7c-0.8,0.6-1.5,1.1-1.9,1.5
	c-0.4,0.4-0.8,0.8-1.1,1.3c-0.3,0.5-0.5,1-0.7,1.6h5.9l0.1-3.6h1.9l-0.1,5.6h-10c0-1.3,0.2-2.4,0.7-3.3c0.4-0.9,0.9-1.7,1.5-2.3
	c0.6-0.6,1.3-1.2,2.1-1.8l1.5-1.2c0.7-0.5,1.2-1,1.5-1.4c0.3-0.4,0.4-0.9,0.4-1.5c0-0.8-0.2-1.4-0.7-1.8c-0.5-0.4-1.1-0.7-1.9-0.7
	c-1,0-1.7,0.3-2.1,0.9c-0.4,0.6-0.6,1.5-0.6,2.8v0.5h-2.1v-0.6c0-1.7,0.4-3,1.1-3.9c0.4-0.5,1-0.9,1.6-1.2s1.3-0.4,2.2-0.4
	c1.1,0,1.9,0.2,2.6,0.6c0.7,0.4,1.2,0.9,1.6,1.6C264.6,53.5,264.8,54.2,264.8,55L264.8,55z"/>
<path id="path10" class="st0" d="M253,58.8c0,1.7-0.2,3.2-0.7,4.4c-0.4,1.2-1.1,2.1-1.9,2.8c-0.8,0.6-1.8,0.9-2.9,0.9
	c-1.8,0-3.1-0.7-4-2.2c-0.9-1.5-1.4-3.4-1.4-5.9c0-1.7,0.2-3.2,0.7-4.4c0.4-1.2,1.1-2.1,1.9-2.8c0.8-0.6,1.8-0.9,2.9-0.9
	c1.7,0,3.1,0.7,4,2.2C252.6,54.4,253,56.3,253,58.8L253,58.8z M247.6,65.1c1,0,1.8-0.5,2.3-1.5c0.5-1,0.8-2.6,0.8-4.9
	c0-2.2-0.3-3.8-0.8-4.8c-0.5-0.9-1.3-1.4-2.3-1.4c-1.1,0-1.9,0.5-2.4,1.6c-0.5,1-0.7,2.6-0.7,4.7c0,2.2,0.3,3.8,0.8,4.8
	C245.8,64.6,246.6,65.1,247.6,65.1L247.6,65.1z"/>
<path id="path11" class="st0" d="M239.8,55c0,0.9-0.2,1.6-0.7,2.3c-0.4,0.7-1.2,1.4-2.4,2.2l-1,0.7c-0.8,0.6-1.5,1.1-1.9,1.5
	c-0.4,0.4-0.8,0.8-1.1,1.3c-0.3,0.5-0.5,1-0.7,1.6h5.9l0.1-3.6h1.9l-0.1,5.6h-10c0-1.3,0.2-2.4,0.7-3.3c0.4-0.9,0.9-1.7,1.5-2.3
	s1.3-1.2,2.1-1.8l1.5-1.2c0.7-0.5,1.2-1,1.5-1.4c0.3-0.4,0.4-0.9,0.4-1.5c0-0.8-0.2-1.4-0.7-1.8c-0.4-0.4-1.1-0.7-1.9-0.7
	c-1,0-1.7,0.3-2.1,0.9s-0.6,1.5-0.6,2.8v0.5h-2.1v-0.6c0-1.7,0.4-3,1.1-3.9c0.4-0.5,1-0.9,1.6-1.2s1.3-0.4,2.2-0.4
	c1.1,0,1.9,0.2,2.6,0.6c0.7,0.4,1.2,0.9,1.6,1.6C239.7,53.5,239.8,54.2,239.8,55z"/>
<path id="path12" class="st0" d="M222.1,58.6c0,2.7-0.8,4.7-2.4,6c-1.6,1.3-4,2-7.2,2h-5.8v-2h2.1V53h-2.1v-2h5.9
	c3.2,0,5.6,0.6,7.2,1.8C221.3,54,222.1,56,222.1,58.6z M219.5,58.7c0-1.3-0.2-2.4-0.7-3.2c-0.5-0.8-1.2-1.5-2.2-1.9
	c-1-0.4-2.3-0.6-4-0.6h-1.5v11.7h1.5c2.4,0,4.2-0.5,5.3-1.4C218.9,62.3,219.5,60.8,219.5,58.7L219.5,58.7z"/>
<path id="path13" class="st0" d="M201.7,53h-2.2v-2h6.4v2h-2.3v13.9h-2.4l-7.5-13.4v11.3h2.2v2h-6.4v-2h2.2V53h-2.2v-2h5.3l6.9,12.2
	V53z"/>
<path id="path14" class="st0" d="M182.7,52.9l4.2,11.8h1.7v2h-6.2v-2h2l-1.2-3.6h-5.7l-1.2,3.6h2v2h-6.2v-2h1.9l4.2-11.8h-1.9V51
	h8.1v1.9H182.7z M180.5,52.9L180.5,52.9l-2.3,6.4h4.4L180.5,52.9z"/>
<path id="path15" class="st0" d="M164.1,53v11.7h5.1v-4.8h1.9v6.8h-11.5v-2h2V53h-2v-2h6.4v2H164.1z"/>
<path id="path16" class="st0" d="M149.5,53v11.7h1.8v2h-6.1v-2h2V53h-2v-2h6.3v2H149.5z M157.3,53l-4.8,5.4l5,6.3h1.7v2h-6.4v-2h1.7
	l-4.7-6.2l4.8-5.5h-1.8v-2h6.1v2H157.3z"/>
<path id="path17" class="st0" d="M141.3,52.7V51h2v5h-2c-0.5-1-1.2-1.8-2.1-2.3c-0.9-0.6-1.9-0.8-2.9-0.8c-1,0-2,0.3-2.8,0.8
	c-0.8,0.5-1.4,1.3-1.9,2.2c-0.4,0.9-0.7,1.9-0.7,2.9c0,1.1,0.2,2.1,0.7,3c0.5,0.9,1.1,1.6,2,2.2c0.8,0.5,1.8,0.8,2.8,0.8
	c1.3,0,2.4-0.4,3.3-1.1c1-0.8,1.7-1.9,2.1-3.3l2,1.1c-0.5,1.7-1.5,3.1-2.9,4.1c-1.4,1-3,1.4-4.8,1.4c-1.5,0-2.9-0.4-4-1.1
	c-1.2-0.7-2.1-1.7-2.8-2.9c-0.6-1.2-1-2.6-1-4c0-1.6,0.3-3,1-4.2c0.7-1.2,1.6-2.2,2.8-2.9c1.2-0.7,2.5-1,4-1c1,0,2,0.2,2.8,0.5
	C139.8,51.6,140.6,52.1,141.3,52.7L141.3,52.7z"/>
<path id="path18" class="st0" d="M116.2,53v8c0,1.4,0.3,2.4,0.8,3.1c0.5,0.7,1.3,1,2.4,1c1.1,0,1.9-0.3,2.4-1
	c0.6-0.6,0.8-1.7,0.8-3.1v-8h-1.8v-2h6.1v2h-2v8.2c0,1.9-0.5,3.3-1.4,4.3c-0.9,1-2.3,1.5-4.2,1.5c-1.8,0-3.2-0.5-4.2-1.5
	c-0.9-1-1.4-2.5-1.4-4.4V53h-1.9v-2h6.1v2L116.2,53z"/>
<path id="path19" class="st0" d="M105.9,52.9l4.2,11.8h1.7v2h-6.2v-2h2l-1.2-3.6h-5.7l-1.2,3.6h2v2h-6.2v-2h1.9l4.2-11.8h-1.9V51
	h8.1v1.9H105.9z M103.8,52.9L103.8,52.9l-2.3,6.4h4.4L103.8,52.9z"/>
<path id="path20" class="st1" d="M269.7,13.7v-2.6h5.4v11.3h-5.4c-0.7-1.9-1.8-3.4-3.4-4.5c-1.6-1.1-3.4-1.7-5.3-1.7
	c-1.8,0-3.4,0.4-4.8,1.3c-1.4,0.8-2.5,2-3.2,3.5c-0.8,1.5-1.1,3.3-1.1,5.3c0,3.4,0.8,6.2,2.5,8.2c1.7,2,4,3,6.9,3
	c1.9,0,3.5-0.5,4.8-1.4c1.2-0.9,2.1-2.2,2.6-3.9H263v-5.4h15c0,3.5-0.7,6.4-2.1,8.9c-1.4,2.5-3.3,4.3-5.9,5.6
	c-2.6,1.3-5.6,1.9-9.2,1.9c-3.6,0-6.8-0.7-9.5-2c-2.7-1.3-4.8-3.2-6.2-5.7c-1.4-2.5-2.2-5.4-2.2-8.8c0-3.2,0.7-6,2.2-8.5
	c1.5-2.5,3.5-4.4,6.1-5.8c2.6-1.4,5.5-2.1,8.7-2.1C264.1,10.6,267.4,11.7,269.7,13.7L269.7,13.7z"/>
<path id="path21" class="st1" d="M239.4,29.1v5.2h-3.4v3.6h3v5h-14.1v-5h3.8v-3.6h-13.1c-0.7-2-1.3-3.4-1.7-4.2l15.3-19.5h6.9v18.6
	L239.4,29.1z M221.4,29.1h7.3v-9.2L221.4,29.1z"/>
<path id="path22" class="st0" d="M204.6,13.8v-2.6h5.4v9.6h-5.4c-0.2-1.5-0.7-2.7-1.5-3.5c-0.8-0.8-1.8-1.2-3-1.2
	c-0.9,0-1.6,0.2-2.2,0.7c-0.6,0.5-0.9,1.1-0.9,1.9c0,0.7,0.2,1.2,0.6,1.7s0.9,0.9,1.5,1.2c0.6,0.3,1.5,0.8,2.8,1.3l1.3,0.5
	c2.8,1.2,4.9,2.6,6.3,4.3c1.4,1.6,2.2,3.7,2.2,6.1c0,2.9-0.8,5.2-2.5,6.9c-1.7,1.7-3.9,2.5-6.8,2.5c-2.8,0-4.9-1-6.4-3.1V43h-5.4
	V32.2h5.4c0.1,1.9,0.6,3.3,1.4,4.3c0.9,1,2,1.5,3.5,1.5c1,0,1.8-0.3,2.4-1c0.7-0.7,1-1.5,1-2.4c0-1-0.4-1.8-1.2-2.6
	c-0.8-0.8-2.1-1.6-3.9-2.4c-3.1-1.4-5.4-2.9-6.8-4.5c-1.4-1.6-2.1-3.4-2.1-5.5c0-1.6,0.4-3.1,1.1-4.4c0.7-1.3,1.8-2.4,3.1-3.1
	c1.3-0.8,2.8-1.2,4.3-1.2c1.2,0,2.4,0.3,3.4,0.8C203.1,12.1,203.9,12.8,204.6,13.8z"/>
<path id="path23" class="st0" d="M179.6,13.8v-2.6h5.4v9.6h-5.4c-0.2-1.5-0.7-2.7-1.5-3.5c-0.8-0.8-1.8-1.2-3-1.2
	c-0.9,0-1.6,0.2-2.2,0.7c-0.6,0.5-0.9,1.1-0.9,1.9c0,0.7,0.2,1.2,0.6,1.7c0.4,0.5,0.9,0.9,1.5,1.2c0.6,0.3,1.5,0.8,2.8,1.3l1.3,0.5
	c2.8,1.2,4.9,2.6,6.3,4.3c1.4,1.6,2.2,3.7,2.2,6.1c0,2.9-0.8,5.2-2.5,6.9c-1.7,1.7-3.9,2.5-6.8,2.5c-2.8,0-4.9-1-6.4-3.1V43h-5.4
	V32.2h5.4c0.1,1.9,0.6,3.3,1.4,4.3c0.9,1,2,1.5,3.5,1.5c1,0,1.8-0.3,2.4-1c0.7-0.7,1-1.5,1-2.4c0-1-0.4-1.8-1.2-2.6
	c-0.8-0.8-2.1-1.6-3.9-2.4c-3.1-1.4-5.4-2.9-6.8-4.5c-1.4-1.6-2.1-3.4-2.1-5.5c0-1.6,0.4-3.1,1.1-4.4s1.8-2.4,3.1-3.1
	c1.3-0.8,2.8-1.2,4.3-1.2c1.2,0,2.4,0.3,3.4,0.8C178.1,12.1,179,12.8,179.6,13.8L179.6,13.8z"/>
<path id="path24" class="st0" d="M125.7,27c0-3.2,0.7-6.1,2.2-8.5c1.5-2.5,3.6-4.4,6.2-5.7c2.7-1.4,5.8-2.1,9.3-2.1s6.6,0.7,9.2,2.1
	c2.7,1.4,4.7,3.3,6.2,5.8c1.5,2.5,2.2,5.3,2.2,8.5c0,3.2-0.7,6.1-2.2,8.6c-1.5,2.5-3.5,4.4-6.2,5.8c-2.7,1.4-5.7,2-9.2,2
	c-3.4,0-6.4-0.7-9.1-2c-2.7-1.4-4.8-3.3-6.3-5.8C126.5,33.1,125.7,30.2,125.7,27z M152.2,26.9c0-1.9-0.4-3.7-1.1-5.3
	c-0.7-1.6-1.7-2.9-3.1-3.8c-1.3-0.9-2.9-1.4-4.7-1.4c-1.8,0-3.3,0.5-4.7,1.4c-1.3,0.9-2.3,2.2-3.1,3.8c-0.7,1.6-1.1,3.3-1.1,5.3
	c0,2,0.4,3.9,1.1,5.5c0.7,1.6,1.8,2.9,3.1,3.8c1.3,0.9,2.8,1.4,4.6,1.4c1.8,0,3.3-0.5,4.7-1.4c1.4-0.9,2.4-2.2,3.1-3.8
	C151.9,30.8,152.2,28.9,152.2,26.9z"/>
<path id="path25" class="st0" d="M118.4,21v-4.4h-9.6v7.3h6.9v5.4h-6.9v8.3h4.9V43H96v-5.4h4.5v-21H96v-5.4h28.5V21L118.4,21z"/>
<path id="path26" class="st1" d="M304.8,14.4c0.3,0.7,0.8,1.6,1.4,2.4c1.4,2.1,3.6,4.8,6.1,7.6c4.9,5.5,11.3,11.9,15.6,16.5l0.4,4
	c-1.2,1.2-5.1,5.2-8.9,9.1c-2.1,2.2-4.2,4.3-5.8,6c-0.8,0.8-1.4,1.5-1.9,1.9c-0.1,0.1-0.2,0.2-0.2,0.2c-0.3-0.2-0.7-0.5-1.2-0.8
	c-0.8-0.6-1.7-1.4-2.7-2.4c-2-1.9-4.3-4.4-6.6-6.8c-2.2-2.4-4.3-4.8-5.8-6.5c-0.8-0.9-1.4-1.6-1.8-2.1c-0.2-0.3-0.4-0.5-0.5-0.6
	c-0.1-0.1-0.1-0.1-0.1-0.2c0,0,0,0,0,0c0,0,0,0,0,0l0,0l0,0l0,0l-0.1-0.2c-3-3.3-3.7-5.9-3.6-7.6c0-0.9,0.2-1.5,0.4-1.9
	c0.1-0.2,0.2-0.4,0.2-0.5c0,0,0.1-0.1,0.1-0.1c0,0,0,0,0,0L304.8,14.4z"/>
<path id="path27" class="st0" d="M306.6,12.5c0.3,0,0.7,0.1,1.2,0.3c0.5,0.2,0.9,0.4,1.3,0.6h0c0.7,0.4,5.1,2.6,10.3,4.7
	c2.6,1,5.4,2,8.1,2.6c1.3,0.3,2.6,0.5,3.9,0.6c-0.1,0-0.1,0.1-0.2,0.1l-0.2,0.2c-0.9,0.8-1.6,2-2.1,3.4c-0.5,1.4-0.8,2.9-1,4.6
	c-0.3,2.6-0.3,5.6-0.2,8.5c-0.5-0.5-1.1-1.1-1.7-1.8c-2.1-2.2-5-5.3-7.9-8.4c-2.9-3.1-5.8-6.4-8-9.1c-1.1-1.4-2-2.6-2.7-3.5
	c-0.3-0.5-0.6-0.9-0.8-1.3c-0.2-0.3-0.3-0.5-0.3-0.6l0,0l0-0.1c-0.1-0.3,0-0.5,0-0.6C306.3,12.5,306.4,12.5,306.6,12.5L306.6,12.5z"
	/>
<path id="path28" class="st1" d="M348,17.9c0,0.1,0,0.2,0,0.3c0.1,0.7,0.2,1.6,0.3,2.8c0.3,2.3,0.7,5.4,1,8.5c0.4,3.1,0.7,6.2,1,8.6
	c0.1,1.2,0.2,2.2,0.3,2.9c0,0.2,0,0.3,0,0.5c-0.5,0.1-1.1,0.2-1.9,0.3c-1.6,0.3-3.9,0.7-6.2,1.5c-4,1.3-8.6,3.5-11.5,7.5
	c-0.1-0.5-0.1-1-0.2-1.5c-0.4-2.5-0.8-5.9-1-9.5c-0.2-3.6-0.3-7.2,0.1-10.3c0.2-1.5,0.5-2.9,0.9-4c0.4-1.1,0.9-1.9,1.5-2.4l0.2-0.1
	c3.3-2.8,7.3-4.1,10.6-4.6c1.7-0.3,3.1-0.3,4.1-0.4C347.5,17.9,347.8,17.9,348,17.9L348,17.9z"/>
<path id="path29" class="st0" d="M385.9,37.7l3.1,8.7c0,0.1-0.1,0.1-0.1,0.2c-0.3,0.4-0.7,0.9-1.2,1.6c-1.1,1.3-2.7,3.1-4.8,5.1
	c-4.2,3.8-10.4,8.1-18.3,10.1l-0.2,0c-4.5,1.1-10.5,1.9-16.1,1.3c-5.6-0.6-10.8-2.6-14.2-6.9l-0.1-0.1c-0.9-1.2-1.7-2.6-2.3-4.1
	c0-0.1,0-0.1,0.1-0.1c0,0,0,0,0,0c2.7-5,8.1-7.4,12.8-8.7c0,0,0,0.1,0.1,0.1c0.2,0.3,0.5,0.6,0.9,1c0.8,0.8,2,1.7,3.8,2.4
	c3.6,1.4,9.2,1.6,17.7-2.2h0c5.7-2.6,9.7-7.1,12.3-11.3c1.5-2.5,2.6-4.8,3.2-6.6L385.9,37.7z M331.1,53.8c-0.1,0-0.2,0-0.3,0.1
	C330.9,53.9,331,53.9,331.1,53.8L331.1,53.8z M331.7,53.2C331.7,53.2,331.7,53.3,331.7,53.2C331.7,53.3,331.7,53.3,331.7,53.2
	C331.7,53.2,331.7,53.2,331.7,53.2L331.7,53.2z"/>
<path class="st0" d="M4.6,35.8c0,1.2-0.1,2.7,0.2,3.9c0.1,0.5,0.4-0.4,0.5-0.7c0.2-0.6,0.6-2,0.9-2.5c0.2-0.4,0.4-0.9-0.1-1
	C5.4,35.3,4.6,34.9,4.6,35.8z M41.5,8c1.4-0.9,2.4-1.6,3.9-2.4c1-0.4,4-1.4,3.9-1.5C44.6,2.7,40.4,8.7,41.5,8z M42.2,3.1
	c-0.5,0.1-0.7,1.7-0.5,1.7c0.4,0.1,2-0.9,2.3-1.3C44.6,2.8,42.5,3.1,42.2,3.1z M33.4,11.1c-0.7,0-0.5,1.4-0.4,2.2
	c0,1.2,2.7-2,2.6-2.2C35.5,11.1,33.4,11.1,33.4,11.1z M29.2,4.4c-0.5-0.2-1.3,0.2-1.7,0.6c-0.6,0.5,0.2,0.7,0.6,0.8
	c0.2,0.1,1.4,0.6,1.5,0.4C29.7,6.1,29.6,4.6,29.2,4.4z M15.1,14.3c0.9,0.4,2,1,2.1,0.6c0.2-0.4,0.1-3.4-0.3-3.3
	c-0.4,0.1-1.9,1.1-2.4,1.8C14,14,14.5,14,15.1,14.3z M20.5,19.7c-0.2,0-0.3,1.6-0.3,1.8c0,0.5,0.1,0.4,0.5,0.2
	c0.2-0.1,1.5-0.7,1.5-0.9C22.3,20.5,21.2,19.5,20.5,19.7z M13.2,23.3c1.2,0.3,2.4-0.5,2.7-1.8c0.3-1.3-0.4-2.5-1.6-2.8
	c-1.2-0.3-2.4,0.5-2.7,1.8C11.3,21.7,12,23,13.2,23.3z M13.7,22c0.5,0,1-0.5,1-1c0-0.6-0.4-1-1-1s-1,0.5-1,1
	C12.8,21.5,13.2,22,13.7,22z M10.4,25c2.1,1.7,5.3,1.3,7.1-0.9c1.8-2.2,1.6-5.4-0.5-7.2c-2.1-1.7-5.3-1.3-7.1,0.9
	C8.1,20,8.3,23.3,10.4,25z M11.4,23.9c1.5,1.3,3.8,1,5.2-0.6c1.3-1.6,1.2-3.9-0.3-5.2s-3.8-1-5.2,0.6C9.7,20.3,9.8,22.6,11.4,23.9z
	 M7.8,24.9c-0.4-0.6-0.7-1.7-0.7-0.1c0,1.4-0.6,1.2,1,2.5c0.6,0.5,1.5,1.2,2.1,1.7c0.7,0.6,0.5,0.6,1.1,0.1
	C12,28.5,8.5,25.9,7.8,24.9z M32,2.9C15.4,6.5,3,21.4,3,39.3c0,3.6,0.5,7.1,1.4,10.4c0.3-2.9,0.7-5.4,1.4-7.9
	c0.9-3.3,2.4-6.4,4.9-9.9c2-2.8,4.7-5.4,7.7-7.5c2.7-1.8,5.8-3.1,8.9-3.4c0.8-0.1,1.7-0.1,2.6-0.1c3.7-7,8.7-11.5,14.8-13.6
	C48.2,6,51.9,5.6,55.9,6C51,3.5,45.5,2.1,39.6,2.1c-0.3,0-0.5,0-0.8,0"/>
<path class="st0" d="M39.6,76.5c0.1,0,0.2,0,0.4,0c-0.4-0.4-0.7-0.9-1.1-1.3c-0.8-0.7-2.4,0.1-3.2,1C37,76.4,38.3,76.5,39.6,76.5z
	 M40.8,76.5c3.9-0.1,7.7-0.7,11.1-2.1c-3.5-1.2-6.4-3.6-7.3-8.7c-1.6,2.7-4,5-6.8,6.5c-2.9,1.5-5.9,2-8.8,1.7
	c-3.3-0.3-6.4-1.7-8.5-3.5C19,68.9,17.9,67.5,17,66c-0.8-1.4-1.4-2.9-1.9-4.4c-0.1-0.4-0.3-0.9-0.4-1.4l0-0.1c-1,1-2.1,2.1-3.1,3.1
	C17.2,70,25.1,74.7,34,76.1 M9.9,61.1c0.3,0.4,0.6,0.8,0.9,1.2l1-1l0.5-0.5c0.9-0.9,5-5.2,5.8-5.5c1.2-0.5,1.9,0.2,2.6,1
	c0.2,0.3,0.2,0.7-0.1,0.9c-0.3,0.2-0.7,0.2-0.9-0.1c-0.9-1.1-0.9-0.8-2.1,0.3c-0.5,0.5-1,0.9-1.4,1.4c0.1,0.3,0.2,0.6,0.2,0.9
	c0.1,0.5,0.3,1,0.4,1.3c0.4,1.3,1,2.7,1.7,4.1c0.8,1.3,1.8,2.6,3.2,3.8c1.9,1.6,4.6,2.8,7.6,3.1c2.6,0.3,5.3-0.1,7.8-1.5
	c2.5-1.3,4.7-3.4,6.2-5.8c1.3-2.2,1.9-4.7,1.5-7.2c-0.3-2.1-1.1-3.9-2.3-5.4c-1.2-1.4-2.8-2.4-4.8-3c-1.5-0.4-3-0.4-4.3,0
	c-1.4,0.3-2.7,1.1-3.7,2c-1,0.9-1.8,2.1-2.1,3.5c-0.3,1.1-0.3,2.4,0,3.7c0.4,1.6,1,2.6,1.8,3.3c0.8,0.7,2,1.1,3.5,1.4
	c0.6,0,1.2-0.2,1.8-0.4c0.9-0.3,1.7-0.9,2.3-1.5l0,0c0.6-0.6,1-1.4,1.1-2.3c0.1-0.6,0-1.3-0.2-2c-0.4-1.2-1.3-1.9-2.2-2.1
	c-0.5-0.1-1-0.1-1.4,0c-0.4,0.1-0.9,0.3-1.2,0.5c-0.5,0.4-0.8,0.9-0.7,1.6c0.1,0.6,0.5,1.1,0.9,1.3c0.3,0.1,0.9,0.2,1.2,0
	c0.8-0.5,0-1.7,0.8-1.7c0.6,0.5,0.2,3.7-2.6,3.1c-1-0.4-1.8-1.2-1.9-2.5c-0.1-1.3,0.4-2.4,1.4-3.1c0.5-0.4,1.2-0.7,1.9-0.8
	c0.7-0.1,1.4-0.1,2.1,0c1.4,0.3,2.7,1.3,3.4,3.1c0.3,1,0.4,1.9,0.3,2.8c-0.2,1.2-0.7,2.2-1.6,3.1l0,0c-0.8,0.8-1.8,1.5-3,1.9
	c-1.2,0.4-2.5,0.6-3.8,0.4c-2.5-0.4-4.7-1.8-6.6-3.6c-2.1-2.2-3.7-5-4.6-7.6c-0.9-2.6-1.2-5.6-0.9-8.4c0.3-2.8,1.1-5.5,2.5-7.9
	c0.3-0.5,0.7-1.1,1.1-1.6c1.5-1.9,3.5-3.6,5.7-4.5c2.3-1,4.8-1.1,7.1,0.2c0.3,0.2,0.6,0.4,0.9,0.6c0.9,0.7,1.7,1.8,2.2,3
	c0.4,1.1,0.5,2.4,0.1,3.5c-0.5,1.5-1.4,2.5-2.6,3.1c-0.7,0.4-1.5,0.5-2.3,0.5s-1.5-0.2-2.1-0.6c-0.7-0.4-1.2-1.1-1.4-2
	c-0.3-1.4,0.4-2.3,1.4-2.7c2.4-1.2,4.2,1.5,0.6,1.5c-0.1,0-0.2,0-0.3,0.1c0.2,0,0.4,0.2,0.7,0.5c0.3,0.3,1,0.3,1.5,0.2
	c0.3-0.1,0.6-0.2,0.9-0.4c0.2-0.2,0.4-0.4,0.4-0.7c0.1-0.2,0.1-0.5,0.1-0.6c0,0,0-0.1,0-0.1c-0.8-4.1-5.3-5-8.1-1.3
	c-1.5,1.8-1.3,3.8-0.7,5.8c0.5,1.9,1.9,3.3,3.5,4.2c1.8,1,4.1,1.4,6.1,1c1.6-0.3,3-1.2,4.2-2.4c1.4-1.4,2.5-3.2,3-4.9
	c0.8-2.7,0.8-5.3-0.1-7.6c-0.9-2.5-2.7-4.7-5.1-6.5c-1.5-1.1-3.3-1.9-5.2-2.3c-2-0.5-4.2-0.6-6.1-0.4c-2.9,0.3-5.7,1.5-8.2,3.2
	c-2.9,1.9-5.4,4.4-7.3,7c-2.4,3.4-3.8,6.3-4.7,9.5c-0.9,3.2-1.3,6.9-1.8,11c1,2.5,2.1,4.6,3.5,6.7 M35.7,34.7
	c0.2,0.6,0.3,1.4,0.3,2.1C36.1,36.1,36,35.4,35.7,34.7z M10.5,48.6c2.1-1.9,7.3-6.7,7.5-8.1c0-0.5-0.2-1.4-0.4-2.3l-8.5,7.8
	c-0.8,0.8,0.5,1.6,1,2L10.5,48.6z M42,39.8C42,39.8,42,39.8,42,39.8C42,39.8,42,39.8,42,39.8z M14.8,52.5c0.4,0.4,1.1-0.3,1.1-0.6
	c0,0,0.1,0,0.1,0c0.8-0.1,1.2-1.6,0.3-1.8c-0.6-0.1-1,0.8-1,1.3c0,0,0,0.1,0,0.1C14.8,51.5,13.9,51.6,14.8,52.5z M11.7,55
	c0.6,1.6,1.3,0.1,1.3-0.2c0,0,0-0.1,0-0.1c0.8,0,1-0.4,0.8-0.7c0.7,0,1.7-1.2,0.4-1.4c-0.5-0.1-0.7,0-0.9,0.5c0,0.3,0,0.5,0,0.6
	c-0.1,0-0.3,0-0.4,0c-0.3,0-0.3,0.5-0.2,0.8C12.2,54.1,11.4,54.3,11.7,55z M10.8,55.7c-0.6,0-0.8,0.4-0.4,0.9
	C11.3,57.9,12.3,55.8,10.8,55.7z M9.3,57.1c-0.2,0-0.7,0.7-0.3,1.1C10,59.4,10.8,56.7,9.3,57.1z M10,46.9c0.7,1.4,1.9-0.6,0.6-0.9
	C10,45.9,9.8,46.4,10,46.9z M16.6,40.7c0.7,1.6,1.3-0.5,0.9-1C17.4,39.5,16.2,39.9,16.6,40.7z M13.9,36.5c0.4-0.3,0.4-0.7,0.3-1.1"
	/>
<path class="st0" d="M68.7,31.4H48.4c0.3,0.8,1.7,2.8,2.2,3.5l15.7,0.1C66.8,34.2,68.4,32.2,68.7,31.4z M50.6,34.9
	c0.4,0.4,3.2,2.3,3.6,2.7l8.5-0.1c0.5-0.4,3.1-2.1,3.6-2.5L50.6,34.9z M53.9,37.3c1.4,0.7,3,1.1,4.7,1.1c1.7,0,3.2-0.6,4.4-1.1
	L53.9,37.3z"/>
<path class="st0" d="M58.1,30.1c0.2,0.1,0.6,0.1,0.8,0.1c0.2-0.1,0.2-0.2,0.3-2.6c0-2.4,0-7.1,0-9.8s-0.2-3.7-0.4-4.1
	c-0.1-0.4-0.2-0.5-0.3-0.2c-0.1,0.2-0.3,0.7-0.4,1.1c-0.1,0.4-0.1,0.8-0.1,3.3c0,2.5,0,7,0,9.4C57.9,29.6,57.9,29.9,58.1,30.1z"/>
<path class="st0" d="M54.9,73.1c1.4-0.7,2.8-1.4,4.1-2.3c0.7-1,1.2-2.2,1.2-3.5c0-1.6-0.6-3-1.7-4.1c-1-1-2.5-1.7-4.1-1.7
	c-0.6,0-1.1,0.1-1.7,0.2c-0.6,0.2-1.2,0.5-1.8,0.9c-0.2,0.2-0.4,0.3-0.6,0.6c-1,1-1.7,2.5-1.7,4.1s0.6,3,1.7,4.1
	c1,1,2.5,1.7,4.1,1.7C54.6,73.1,54.7,73.1,54.9,73.1z"/>
<path class="st1" d="M75.9,44.4c0,0.4-0.1,0.8-0.2,1.2c-0.7,0.5-1.4,1.1-2,1.6c-1.3,1.1-2.3,2-3.2,3c-0.2,0.2-0.4,0.4-0.6,0.6
	c-0.6,0.6-1.3,1.2-1.9,1.8c-0.6,0.6-1.3,1.2-2,1.7c-0.6,0.5-1.3,0.9-1.9,1.3c-0.6,0.4-1.2,0.7-1.8,1l0,0c-0.6,0.3-1.1,0.5-1.7,0.7
	c-0.6,0.2-1.2,0.4-1.8,0.6c-0.3,0.1-0.8,0.2-1.2,0.3c-1,0.3-2.2,0.6-3.2,1c-0.8,0.3-1.6,0.6-2.3,1c-1.1,0.4-2.2,1-3,1.8
	c-1.3,1.3-2.2,3.2-2.2,5.2s0.8,3.9,2.2,5.2c0.8,0.8,1.7,1.4,2.8,1.8c-1.1-0.4-2.2-0.9-3.2-1.6l0,0c0,0-0.1-0.1-0.1-0.1l0,0
	c0,0-0.1-0.1-0.1-0.1l0,0c0,0-0.1-0.1-0.1-0.1l0,0c0,0-0.1-0.1-0.1-0.1l0,0c-1.2-1-2.2-2.4-2.9-4.3c0-0.1,0-0.1-0.1-0.2
	c0-0.1,0-0.1-0.1-0.2c0-0.1,0-0.1-0.1-0.2c0-0.1,0-0.1-0.1-0.2c0-0.1,0-0.1,0-0.2c0-0.1,0-0.1,0-0.2c0-0.1,0-0.1,0-0.2
	c0-0.1,0-0.1,0-0.2c0-0.1,0-0.1,0-0.2c0-0.1,0-0.1,0-0.2c0-0.1,0-0.1,0-0.2c0.2-0.4,0.4-0.9,0.6-1.2c0.6-0.6,1.1-1.2,1.6-1.7
	c0.5-0.6,1.1-1.1,1.5-1.5c0.4-0.4,0.9-0.8,1.3-1c0.4-0.3,0.8-0.5,1.3-0.7c0.4-0.2,0.9-0.4,1.4-0.6c0.5-0.2,1-0.3,1.6-0.5
	c0.6-0.1,1.2-0.3,1.8-0.4c0.6-0.1,1.2-0.2,1.6-0.4c0.6-0.1,1.2-0.3,1.7-0.5c0.6-0.2,1.2-0.4,1.8-0.7c0.6-0.3,1.2-0.6,1.8-1
	c0.6-0.3,1.2-0.7,1.8-1.2c0.6-0.4,1.2-0.9,1.8-1.4c0.6-0.5,1.3-1.1,2-1.7c0.8-0.7,1.9-1.7,2.9-2.6c0.4-0.4,0.9-0.8,1.6-1.4
	c0.6-0.6,1.2-1,1.7-1.4C75,45.1,75.4,44.8,75.9,44.4z M75.2,48.2c-2,8.5-6.9,15.8-13.6,20.9c0.1-0.5,0.2-1.1,0.2-1.7
	c0-2-0.8-3.9-2.2-5.2c-0.8-0.8-1.9-1.5-3-1.8c0.5-0.1,1-0.3,1.5-0.4c0.4-0.1,0.8-0.2,1.2-0.3c0.7-0.2,1.3-0.4,1.9-0.6
	c0.6-0.2,1.2-0.5,1.9-0.8l0,0c0.6-0.3,1.3-0.7,1.9-1.1c0.6-0.4,1.3-0.9,2-1.4c0.7-0.5,1.4-1.1,2.1-1.7c0.7-0.6,1.3-1.2,1.9-1.8
	c0.2-0.2,0.4-0.4,0.6-0.6c1-0.9,1.9-1.9,3.2-2.9C74.9,48.4,75.1,48.3,75.2,48.2z M76.2,41c0,0.4,0,0.9-0.1,1.3
	c-0.4,0.2-0.7,0.5-1.1,0.7c-0.5,0.4-1,0.7-1.5,1.2c-0.5,0.4-1.1,0.9-1.7,1.5c-0.2,0.2-0.9,0.8-1.6,1.5c-0.9,0.8-1.8,1.7-2.9,2.6
	c-0.7,0.6-1.4,1.2-2,1.7c-0.6,0.5-1.2,0.9-1.8,1.3c-0.5,0.4-1.1,0.8-1.7,1.1c-0.5,0.3-1.1,0.6-1.6,0.9s-1.1,0.5-1.6,0.6
	c-0.5,0.2-1.1,0.3-1.6,0.5c-0.6,0.1-1.1,0.2-1.6,0.4c-0.6,0.1-1.2,0.3-1.8,0.4c-0.6,0.1-1.1,0.3-1.7,0.5c-0.6,0.2-1.1,0.4-1.6,0.7
	c-0.5,0.2-1,0.5-1.5,0.9c-0.5,0.3-1,0.7-1.5,1.2c-0.3,0.3-0.7,0.6-1,1c0.1-0.6,0.1-1.2,0.1-1.8c0.5-0.4,1.1-0.7,1.5-1
	c0.6-0.4,1.2-0.8,1.9-1.1c1.2-0.7,2.5-1.3,3.1-1.5l0.4-0.2c0.1,0,0.1,0,0.2,0c1.7,0,3.5-0.5,5-1.8l0.1-0.1c0.4-0.3,0.7-0.7,1-1
	c1.1-0.4,2.3-0.9,3.4-1.4c0.6-0.3,1.2-0.6,1.7-0.9c0.6-0.3,1.1-0.7,1.7-1c0.5-0.4,1.1-0.7,1.6-1.2c0.5-0.4,1.1-0.9,1.6-1.3
	c0.7-0.6,1.4-1.3,2-2c0.2-0.2,0.4-0.4,0.7-0.6c0.4-0.4,0.8-0.7,1.1-1c0.3-0.3,0.6-0.5,1-0.8c0.3-0.2,0.6-0.4,0.9-0.6
	C75.7,41.3,75.9,41.2,76.2,41z M29.3,32.4c1.9-0.8,3.9-0.9,5.7,0.1c0.2,0.1,0.5,0.3,0.7,0.5c0.7,0.5,1.3,1.4,1.6,2.3
	c0.3,0.8,0.4,1.7,0.1,2.4c-0.3,1-1,1.7-1.8,2.1c-0.5,0.2-1,0.4-1.5,0.4c0,0-0.1,0-0.1,0l0,0c-2.3-0.1-2.7-2.4-1.7-2.2c0,0,0,0,0,0h0
	c0,0,0,0,0,0h0c0,0,0,0,0,0h0c0,0,0,0,0,0l0,0c0,0,0,0,0.1,0l0,0c0,0,0,0,0.1,0l0,0c0,0,0,0,0.1,0l0,0c0,0,0,0,0.1,0l0,0
	c0,0,0,0,0.1,0.1l0,0c0,0,0,0,0.1,0.1c0.3,0.3,1,0.3,1.5,0.2c0.3-0.1,0.6-0.2,0.9-0.4c0.2-0.2,0.4-0.4,0.4-0.7
	c0.1-0.2,0.1-0.5,0.1-0.6c0,0,0,0,0-0.1l0,0l0,0v0l0,0l0,0l0,0l0,0c0-0.1,0-0.1,0-0.2l0,0c0,0,0-0.1,0-0.2c0,0,0-0.1,0-0.1l0,0
	c0,0,0,0,0-0.1v0c0,0,0,0,0-0.1l0,0c0,0,0,0,0-0.1l0,0c0,0,0,0,0-0.1l0,0v0c0,0,0,0,0,0v0c0,0,0,0,0-0.1v0c0,0,0,0,0,0l0,0v0
	c0,0,0,0,0,0v0c0,0,0,0,0,0v0c0,0,0,0,0,0v0v0v0v0c0,0,0,0,0,0v0c0,0,0,0,0,0v0v0v0c0,0,0,0,0,0v0c0,0,0,0,0,0v0c0,0,0,0,0,0l0,0
	l0,0l0,0c0,0,0,0,0,0c-0.4-1-1.2-1.9-2.4-2.2c-1.1-0.3-2.1-0.2-3.1,0c-1.2,0.3-2.2,1.1-3,2c-0.8,0.9-1.4,2.1-1.7,3.3
	c-0.3,1.3-0.3,2.7,0,4c0.7,2.3,2.3,4,4.3,5.1c0.6,0.3,1.4,0.6,2.1,0.9c-1.3,0.5-2.5,1.2-3.5,2.1c-1.2,1.1-2.1,2.6-2.6,4.2
	c-0.4,1.4-0.4,3,0,4.6c0.1,0.5,0.3,1,0.4,1.4c-0.1-0.1-0.3-0.2-0.4-0.4c-1.9-2-3.4-4.5-4.2-6.9c-0.8-2.4-1.1-5.1-0.8-7.7
	c0.2-2.6,1-5.1,2.3-7.3c0.3-0.5,0.6-1,1-1.4C25.6,34.8,27.4,33.3,29.3,32.4z M31.8,20.9C37.9,10.1,47,5.8,59.3,7.9
	c8,5.2,13.9,13.5,16.1,23.2c-0.4,0.2-0.7,0.3-1.1,0.5c-0.4,0.2-0.8,0.4-1.1,0.7c-0.3,0.2-0.7,0.5-1,0.8c-0.3,0.3-0.6,0.7-1,1.1
	c-0.4,0.5-0.8,1.2-1.3,1.8c-0.2,0.3-0.4,0.6-0.6,0.9c-0.3,0.5-0.7,0.9-1,1.4c-0.3,0.4-0.7,0.9-1.1,1.2c-0.3,0.4-0.7,0.7-1,1l0,0
	c-0.3,0.3-0.7,0.5-1.1,0.8c-0.4,0.2-0.8,0.4-1.2,0.6c-0.4,0.2-0.8,0.4-1.2,0.5c-0.4,0.1-0.7,0.2-1.1,0.3c-0.4,0.1-0.7,0.1-1.1,0.1
	c-0.4,0-0.9-0.1-1.4-0.1c-0.5-0.1-1-0.2-1.4-0.3c-0.7-0.3-1.5-0.5-2.4-0.5c-1.7,0-3.5,0.5-5,1.8l-0.1,0.1c-1.4,1.2-2.3,2.9-2.5,4.5
	C47.4,50,47.8,51.7,49,53c0,0,0,0,0.1,0.1c0.5,0.6,1.2,1.1,1.9,1.5c-0.6,0.3-1.2,0.6-1.9,1c-0.7,0.4-1.3,0.8-1.9,1.2
	c-0.3,0.2-0.5,0.3-0.8,0.5c-0.3-2.4-1.3-4.5-2.7-6.1c-1.3-1.5-3-2.7-5.1-3.3c1.4-0.5,2.6-1.4,3.7-2.5c1.6-1.6,2.8-3.6,3.4-5.6
	c1-3.1,0.8-6-0.1-8.7c-1-2.8-3-5.3-5.7-7.2c-1.7-1.2-3.7-2.1-5.8-2.6C33.3,21.1,32.5,21,31.8,20.9z M55.2,43.5
	c1.3,0,2.6,0.6,3.4,1.6c0,0,0,0,0,0c0.8,1,1.1,2.3,1,3.5c-0.2,1.3-0.8,2.6-2,3.5c0,0,0,0-0.1,0c-1.2,1-2.6,1.4-3.9,1.4
	c-1.3,0-2.6-0.6-3.4-1.6c0,0,0,0,0,0c-0.8-1-1.1-2.3-1-3.5c0.2-1.3,0.8-2.6,2-3.5c0,0,0,0,0.1,0C52.4,43.9,53.8,43.5,55.2,43.5z
	 M76.2,37.7c0,0.5,0,1,0,1.4c-0.2,0.1-0.4,0.2-0.8,0.4c-0.3,0.2-0.6,0.3-0.9,0.5c-0.3,0.2-0.6,0.4-1,0.7c-0.3,0.2-0.7,0.5-1.1,0.9
	c-0.4,0.3-0.8,0.7-1.2,1.1c-0.2,0.2-0.4,0.4-0.7,0.7c-0.6,0.6-1.3,1.3-2,1.9c-0.5,0.4-1,0.8-1.5,1.2c-0.5,0.4-1,0.7-1.5,1.1
	c-0.5,0.3-1,0.7-1.6,1c-0.5,0.3-1.1,0.6-1.6,0.8c-0.5,0.2-1,0.4-1.5,0.7c0.1-0.4,0.2-0.9,0.3-1.3c0-0.3,0-0.6,0-0.9
	c0.2,0,0.4-0.1,0.6-0.1c0.4-0.1,0.9-0.2,1.4-0.4c0.5-0.2,1-0.4,1.5-0.7c0.5-0.3,1-0.6,1.5-0.9c0.5-0.3,1.1-0.7,1.6-1.1
	c0.5-0.4,1-0.8,1.5-1.2c0.7-0.6,1.3-1.3,1.9-1.9c0.3-0.3,0.5-0.5,0.8-0.8c0.4-0.4,0.7-0.7,1-0.9c0.3-0.3,0.7-0.6,1.2-0.9
	C74.9,38.6,75.6,38.1,76.2,37.7z M24,47c0.1-0.1,0.2-0.1,0.4-0.1l0,0c0.1,0,0.1,0,0.2,0c-0.1,0.1-0.2,0.2-0.3,0.3
	c-0.1,0.2-0.1,0.5,0.1,0.7c0.2,0.1,0.5,0.1,0.7-0.1c0.1-0.1,0.1-0.2,0.2-0.2c0.1,0.2,0.1,0.4,0.1,0.7c0,0,0,0.1,0,0.1
	c0,0.1-0.1,0.1-0.3,0.2c-0.1,0.1-0.3,0.1-0.5,0.1c-0.1,0-0.3,0-0.4-0.1c-0.3-0.2-0.5-0.6-0.5-0.9c0-0.2,0-0.4,0.1-0.5
	C23.9,47.2,24,47.1,24,47z M75.6,32.7c0.2,1.1,0.3,2.2,0.4,3.3c-0.7,0.5-1.8,1.2-2.7,1.7c-0.5,0.3-0.9,0.7-1.3,1
	c-0.4,0.3-0.7,0.6-1.1,1c-0.2,0.2-0.5,0.5-0.8,0.8c-0.6,0.6-1.2,1.2-1.9,1.8c-0.4,0.4-0.9,0.8-1.4,1.1c-0.5,0.4-1,0.7-1.5,1
	c-0.5,0.3-1,0.6-1.4,0.8c-0.4,0.2-0.9,0.4-1.3,0.6c-0.4,0.1-0.8,0.3-1.2,0.4c-0.1,0-0.3,0.1-0.4,0.1c-0.2-0.7-0.5-1.3-0.9-1.9
	c0,0,0.1,0,0.2,0c0.5,0,1,0,1.5-0.1c0.4-0.1,0.9-0.2,1.4-0.4c0.4-0.1,0.9-0.3,1.4-0.6c0.5-0.2,0.9-0.5,1.3-0.7
	c0.4-0.3,0.9-0.6,1.3-0.9l0,0c0.4-0.3,0.8-0.7,1.2-1.1s0.8-0.9,1.1-1.4c0.4-0.5,0.7-1,1.1-1.5c0.2-0.3,0.4-0.6,0.6-0.9
	c0.4-0.6,0.8-1.2,1.2-1.7c0.3-0.3,0.5-0.6,0.8-0.9c0.3-0.3,0.5-0.5,0.8-0.7c0.3-0.2,0.6-0.4,0.9-0.6C75.2,32.9,75.4,32.8,75.6,32.7z
	 M46.8,30.2c1.2,5.4,6,9.4,11.7,9.4s10.5-4,11.7-9.4C70.3,30.2,46.8,30.2,46.8,30.2z M58.9,15.4c-0.4-0.5-0.4-0.5-0.9,0
	c-0.4,0.4-1.1,1.4-2.5,3.6c-1.4,2.2-3.4,5.7-4.4,7.6c-1.1,1.9-1.2,2.2-1.2,2.4s0.1,0.3,2.7,0.3c2.6,0,7.7,0,10.5,0
	c2.9,0,3.6-0.1,4-0.3c0.3-0.1,0.3-0.3-0.9-2.2c-1.1-1.9-3.4-5.4-4.8-7.6C59.9,16.8,59.2,15.9,58.9,15.4z M42,16.1
	c-0.2,0-0.5,0.1-0.8,0.2c-0.2,0.1-0.5,0.3-0.7,0.6c-0.2,0.3-0.3,0.6-0.5,1c-1.8-0.5-2.9,0-3.3,1.6h9.8c-0.1-0.2-0.1-0.4-0.3-0.6
	c-0.1-0.2-0.3-0.4-0.5-0.5c-0.2-0.1-0.4-0.2-0.6-0.3c-0.2-0.1-0.5-0.2-0.7-0.2c-0.2-0.1-0.4-0.1-0.5-0.2c-0.1-0.1-0.2-0.2-0.3-0.3
	c-0.1-0.2-0.2-0.4-0.4-0.6s-0.3-0.3-0.5-0.4C42.4,16.1,42.2,16.1,42,16.1z M52.7,11.8c-0.5,0-1,0.2-1.3,0.6
	c-0.3,0.4-0.4,0.9-0.4,1.4c-1.5-0.9-2.8-0.5-3.2,1.2h4.9v-1.3h2.1c0-0.2-0.1-0.4-0.2-0.6c-0.1-0.2-0.3-0.6-0.6-0.9
	C53.7,12,53.2,11.8,52.7,11.8z"/>
<path class="st0" d="M77.6,25.3v0.1 M81,22.7c0,0.1,0,0.3,0,0.4c-0.1,1.2-0.3,1.7-0.7,2.4c-0.4,0.5-1,1.2-1.6,1.8
	c0.7,12,0.4,6.3,0.8,23.3c0,0.6-0.5,1.1-1.1,1.1c-0.6,0-1.1-0.5-1.1-1.1c0.4-17,0.2-11.3,0.8-23.3l0,0c-0.6-0.6-1.2-1.3-1.6-1.8
	c-0.4-0.6-0.6-1.1-0.7-2.4c0-0.1,0-0.3,0-0.4 M77.8,23.9c-0.7-0.5-1.3-1-2.1-1.5l0,0c0-1.2,0-2.8,0-4c0.1-1.4,0.2-2.1,0.7-3.2
	c0.4-1,1.2-2.4,1.6-3c0.5-0.8,0.3-0.8,0.7,0c0.4,0.6,1.1,2,1.6,3c0.4,1,0.6,1.8,0.7,3.2c0.1,1.2,0.1,2.8,0,4
	c-0.8,0.5-1.4,0.9-2.1,1.5"/>
</svg>
