<?xml version="1.0" encoding="utf-8"?>
<!-- Generator: Adobe Illustrator 21.0.0, SVG Export Plug-In . SVG Version: 6.00 Build 0)  -->
<svg version="1.1" id="Layer_1" xmlns="http://www.w3.org/2000/svg" xmlns:xlink="http://www.w3.org/1999/xlink" x="0px" y="0px"
	 viewBox="0 0 314.6 300" style="enable-background:new 0 0 314.6 300;" xml:space="preserve">
<style type="text/css">
	.st0{fill:#242B3D;}
	.st1{fill:#4795A3;}
</style>
<path class="st0" d="M15.5,122c1,0.3,2,0.1,2.9-0.4c0.9-0.5,1.7-1.4,2-2.6c0.4-1.2,0.2-2.4-0.2-3.3c-0.4-0.9-1.2-1.6-2.2-1.9
	c-1-0.3-2-0.1-2.9,0.4c-0.9,0.5-1.7,1.4-2,2.6c-0.4,1.2-0.2,2.4,0.2,3.3C13.8,121,14.5,121.7,15.5,122z M21.6,127.3
	c-2.4,1.4-5.2,1.8-8,0.9c-2.8-0.8-4.9-2.8-6.1-5.2c-1.2-2.4-1.5-5.2-0.6-8c0.9-2.8,2.7-5,5-6.3c2.4-1.4,5.2-1.8,8-0.9
	c2.8,0.8,4.9,2.8,6.1,5.2c1.2,2.4,1.5,5.2,0.6,8C25.7,123.7,23.8,125.9,21.6,127.3z M6.4,136c0,5-0.5,11,0.8,15.7
	c0.6,2.2,1.7-1.7,2-2.7c0.8-2.6,2.6-8.1,3.6-10.2c0.8-1.7,1.5-3.6-0.5-4.2C9.6,133.9,6.4,132.5,6.4,136z M155,23.8
	c5.6-3.5,9.7-6.6,15.9-9.6c3.9-1.8,16.3-5.7,15.6-5.9C167.8,2.6,150.6,26.6,155,23.8z M158,4.3c-2,0.3-2.8,6.7-2.2,6.8
	c1.7,0.4,8-3.7,9.4-5.2C167.7,3.1,159.2,4.2,158,4.3z M132.2,20.8c4.5,0,8.2-3.6,8.2-8.1s-3.7-8.1-8.2-8.1c-4.5,0-8.2,3.6-8.2,8.1
	S127.6,20.8,132.2,20.8z M132.2,16.3c2,0,3.7-1.6,3.7-3.6c0-2-1.7-3.6-3.7-3.6c-2,0-3.7,1.6-3.7,3.6
	C128.5,14.7,130.1,16.3,132.2,16.3z M122.6,36.4c-2.7,0.2-1.9,5.5-1.8,9c0.1,5,11-7.9,10.3-8.8C131.1,36.5,122.7,36.4,122.6,36.4z
	 M105.6,9.6c-2.2-0.8-5.1,1-6.8,2.3c-2.5,1.9,0.8,2.7,2.4,3.4c0.7,0.3,5.5,2.3,6,1.6C107.7,16.1,107.4,10.3,105.6,9.6z M93,46
	c-5.9,3.6,3.5,9.1,5.8-0.1c3-11.8-21.7-15.2-19.8,2.7c0.8,7.6,5.7,13.7,13.4,15c4.6-0.6,8.7-2.7,11.8-5.6c3.7-3.6,6.1-8.5,6.1-13.9
	c0-5.4-2.3-10.3-6.1-13.9c-3.8-3.6-9-5.8-14.9-5.8c-5.8,0-11.1,2.2-14.9,5.8c-3.7,3.6-6.1,8.5-6.1,13.9c0,5.4,2.3,10.3,6.1,13.9
	c0.6,0.5,1.2,1.1,1.8,1.5C64.8,41.3,82,23.2,97.5,31.8c18.1,10.1,0.2,34.9-10.6,22c-4.3-5.2-1.9-10.1,3.4-13.4
	c1.5-0.8,3.4-0.1,4.2,1.4C95.2,43.4,94.6,45.2,93,46z M108.8,62.7c-5,4.7-11.8,7.6-19.3,7.6c-7.5,0-14.4-2.9-19.3-7.6
	C65.1,58,62,51.4,62,44.1c0-7.3,3.1-13.8,8.1-18.6c5-4.7,11.8-7.6,19.3-7.6c7.5,0,14.4,2.9,19.3,7.6c5,4.8,8.1,11.3,8.1,18.6
	C116.8,51.4,113.8,58,108.8,62.7z M48.6,49.3c3.7,1.7,7.9,4.2,8.6,2.5c0.8-1.8,0.4-13.8-1.2-13.5c-1.5,0.3-7.5,4.4-9.7,7.1
	C44.4,47.9,46.2,48.1,48.6,49.3z M70.5,70.9c-0.9,0.2-1.2,6.4-1.2,7.4c0,2,0.4,1.6,2.2,0.7c0.9-0.4,6.2-2.8,6.2-3.8
	C77.7,74.2,73.3,70.2,70.5,70.9z M41.2,85.4c4.8,1.2,9.7-2,11-7.1c1.2-5.1-1.7-10.2-6.5-11.3c-4.8-1.2-9.7,2-11,7.1
	C33.5,79.2,36.4,84.3,41.2,85.4z M43.3,80.4c2.1,0,3.9-1.9,3.9-4.2c0-2.3-1.7-4.2-3.9-4.2s-3.9,1.9-3.9,4.2
	C39.5,78.5,41.2,80.4,43.3,80.4z M29.7,92.4c8.5,7,21.4,5.4,28.8-3.6c7.4-9,6.5-21.9-1.9-28.9c-8.5-7-21.4-5.4-28.8,3.6
	C20.4,72.4,21.2,85.4,29.7,92.4z M33.8,87.9c6.1,5.1,15.5,3.9,20.8-2.6c5.4-6.5,4.7-15.9-1.4-21c-6.1-5.1-15.5-3.9-20.8,2.6
	C27,73.5,27.6,82.9,33.8,87.9z M19.5,91.9c-1.7-2.3-3-6.9-2.9-0.3c0.1,5.8-2.3,4.9,4.2,9.9c2.6,2,6,4.7,8.4,7
	c2.7,2.5,1.9,2.5,4.3,0.3C36.1,106.4,22.1,96.2,19.5,91.9z M213.3,15.7C193.5,5.6,171.2,0,147.6,0c-1.1,0-2.2,0-3.3,0
	c4.2,3.2,6.9,8.1,6.9,13.5c0,9.7-8.5,17.6-19,17.6c-10.5,0-19-7.9-19-17.6c0-3.9,1.3-7.4,3.6-10.3C50.1,17.7,0,77.9,0,150
	c0,14.5,2,28.5,5.8,41.8c1.4-11.5,3-21.8,5.8-31.7c3.7-13.3,9.6-25.9,19.8-40.1c8-11.2,18.8-21.9,31.1-30.1
	c11-7.3,23.3-12.4,35.8-13.9c3.4-0.4,7-0.6,10.5-0.5c15.1-28.1,35.1-46.5,59.6-55C182.1,15.9,197.1,14.2,213.3,15.7z M137,0.4
	c-4.2,0.3-8.4,0.8-12.5,1.4c-3.5,2.4-5.8,6.4-5.8,10.9c0,7.3,6,13.2,13.4,13.2c7.4,0,13.4-5.9,13.4-13.2C145.6,7.1,142,2.3,137,0.4z
	"/>
<path class="st0" d="M168.9,283.1c-2.2-6.9-8.8-5.7-13.6-2.1c-3.9,2.9-0.9,8.9-5.3,11.5l-1.2,0.4c1.7-4.5,1.9-2.9,1.3-8.5
	c-0.6-5.2,5.2-9,9.5-10.5c7.5-2.7,12.5,0.8,15.4,7.6c0.5,1.7-0.5,3.4-2.2,3.8C171.1,285.7,169.4,284.8,168.9,283.1z M147.6,300
	c0.5,0,1,0,1.5,0c-1.5-1.7-2.8-3.7-4.5-5.1c-3.4-2.7-9.6,0.6-12.7,4.2C137,299.7,142.2,300,147.6,300z M152.4,299.9
	c15.7-0.5,31-2.9,44.8-8.6c-14-4.7-25.7-14.4-29.4-35.2c-6.4,10.9-16.2,20-27.3,26c-11.5,6.2-23.8,8-35.3,6.8
	c-13.5-1.4-25.8-6.9-34.2-14c-6.5-5.5-11-11.3-14.4-17.2c-3.3-5.8-5.6-11.8-7.5-17.6c-0.5-1.6-1.2-3.7-1.8-5.6l-0.1-0.3
	c-4.2,4.2-8.3,8.4-12.5,12.5c22.5,27.1,54.3,46,90.4,51.6c4.5-7,16.8-13,22.8-5.3C150.5,296.2,150.6,297.7,152.4,299.9z M130,219.4
	c-0.3-0.1-0.5-0.3-0.7-0.7c-1.6-3.2-8.8,1.7-5.9,3.3c0.6,0.3,2,0,2.6-0.1c-0.9,1-2.3,1.8-3.6,1c-4.8-3.2,5-12,9.4-5.6
	c0.3,0.6,0.2,1.4-0.4,1.8C131,219.5,130.5,219.6,130,219.4z M24.9,233.4l8.1-8.1c3.7-3.7,23.8-22.7,24.7-26.1
	c1.2-4.2-1.5-13-7.8-8.5c-0.6,0.4-1.4,1.1-2.4,2l-0.7,0.7c-0.2,0.2-0.4,0.3-0.6,0.4c-7.1,6.4-20.2,19.7-24.1,24
	c-0.1,0.2-0.3,0.4-0.4,0.6c-1,1-2.7,1.1-3.7,0.1c-0.6-0.6-0.9-1.4-0.8-2.2c0.3-2.1,18-19.4,26-26.7l16-16c1-1,2.7-1,3.7,0
	c1,1,1,2.7,0,3.7l-7.2,7.2c2.9,0.8,5.3,3.2,6.6,7c2.8,8.1-0.4,12.1-5.9,17.7c-9.4,9.6-19,19.1-28.6,28.6c1.1,1.6,2.3,3.2,3.5,4.8
	l4-4l2-2c3.6-3.6,20.1-20.8,23.2-22.3c4.7-2.2,7.6,0.8,10.4,4.2c0.9,1.1,0.7,2.8-0.5,3.7c-1.1,0.9-2.8,0.7-3.7-0.5
	c-3.7-4.5-3.8-3.3-8.6,1.4c-1.9,1.9-3.9,3.8-5.8,5.7c0.3,1.1,0.7,2.4,1,3.7c0.6,2.1,1.3,4,1.7,5.4c1.8,5.4,3.9,11,7,16.4
	c3.1,5.3,7.1,10.6,12.9,15.5c7.5,6.3,18.6,11.3,30.7,12.5c10.3,1.1,21.3-0.5,31.6-6c10.1-5.4,19-13.7,24.8-23.5
	c5.1-8.7,7.6-18.8,6.2-29.2c-1.2-8.5-4.4-15.9-9.3-21.7c-4.8-5.6-11.3-9.7-19.4-11.9c-6-1.6-12-1.6-17.5-0.1
	c-5.6,1.4-10.7,4.3-14.8,8.1c-4.1,3.8-7.1,8.6-8.6,14c-1.3,4.6-1.4,9.8,0,15.1c1.6,6.4,4,10.4,7.4,13.1c3.4,2.7,8.1,4.3,14.2,5.5
	c2.4-0.2,4.8-0.7,7.1-1.5c3.6-1.3,6.9-3.5,9.4-6.1l0,0c2.4-2.6,4.1-5.7,4.6-9.1c0.4-2.5,0.1-5.2-0.9-8c-1.8-4.9-5.3-7.6-9-8.4
	c-1.9-0.5-3.9-0.5-5.7-0.1c-1.8,0.4-3.5,1.1-4.8,2.1c-2,1.6-3.3,3.8-3,6.6c0.3,2.6,1.9,4.4,3.7,5.1c1.3,0.5,3.5,0.9,4.8,0.1
	c3.4-2,0-6.7,3.2-7c2.3,2,0.7,14.9-10.4,12.5c-3.9-1.5-7.2-4.7-7.7-10c-0.5-5.2,1.8-9.5,5.5-12.4c2.1-1.6,4.7-2.8,7.5-3.3
	c2.7-0.6,5.6-0.5,8.5,0.1c5.6,1.3,10.9,5.3,13.6,12.5c1.4,3.9,1.8,7.7,1.2,11.2c-0.7,4.7-3,9-6.3,12.5v0c-3.2,3.4-7.3,6.1-11.9,7.8
	c-4.8,1.8-10.1,2.4-15.2,1.7c-10.1-1.6-19.1-7.1-26.4-14.5c-8.6-8.7-14.9-20-18.4-30.5c-3.5-10.6-4.7-22.4-3.6-33.9
	c1.1-11.3,4.4-22.3,10-31.9c1.3-2.2,2.7-4.3,4.4-6.5c5.9-7.5,14.2-14.5,23.1-18.3c9.3-4,19.5-4.6,28.7,0.8c1.2,0.7,2.4,1.5,3.5,2.4
	c3.8,3,6.9,7.4,8.7,12.1c1.6,4.5,2,9.5,0.6,14c-1.9,6-5.8,10-10.3,12.3c-2.9,1.5-6.1,2.2-9.2,2.2c-3.1,0-6.2-0.8-8.6-2.4
	c-2.8-1.8-4.9-4.5-5.6-8.2c-1.1-5.8,1.5-9.1,5.5-10.8c9.8-4.7,16.8,6.1,2.6,5.9c-0.5,0-1,0.1-1.3,0.3c0.8,0.2,1.8,0.8,3,1.9
	c1.4,1.3,4,1.3,5.9,0.9c1.2-0.3,2.5-0.9,3.5-1.7c0.9-0.8,1.5-1.8,1.8-2.8c0.3-1,0.5-2,0.5-2.5c0-0.2,0-0.3,0.1-0.5
	c-3.3-16.7-21.2-20.1-32.6-5.1c-6.2,7.3-5.3,15.3-2.9,23.4c2.2,7.5,7.6,13.3,14.3,16.9c7.4,4,16.4,5.5,24.6,4.1
	c6.4-1.2,12.2-4.9,17.1-9.8c5.6-5.6,9.9-12.8,12.1-19.7c3.4-11,3.1-21.4-0.4-30.8c-3.7-10.1-10.8-18.9-20.5-26
	c-6-4.4-13.3-7.5-21-9.3c-8.2-1.9-16.8-2.4-24.7-1.5c-11.5,1.4-22.8,6.1-33,12.9c-11.6,7.7-21.9,17.9-29.4,28.4
	c-9.7,13.6-15.3,25.5-18.8,38.1c-3.6,12.7-5.4,28-7.1,44.3C14.5,216.1,19.1,224.6,24.9,233.4z M131.9,131.7c0.9,2.6,1.3,5.5,1.2,8.5
	C133.4,137.3,132.9,134.4,131.9,131.7z M30.2,187.7c8.3-7.6,29.6-26.9,30.1-32.5c0.2-1.9-0.7-5.7-1.6-9.1l-34.1,31.6
	c-3.1,3.1,2.2,6.4,3.9,8.2L30.2,187.7z M58.1,137.6c0.1-0.1,0.2-0.2,0.3-0.3l13.3-10.2c1.4-1.1,3.5-0.8,4.6,0.6
	c1.1,1.4,0.8,3.5-0.6,4.6l-11.6,8.9c1.4,5,3.4,12,2.4,16.3c-2.1,8.9-26.9,30.4-34.2,37.2l0,0l0,0c0,0,0,0-0.1,0l0,0l-0.1,0l0,0
	l-0.1,0l0,0c0,0-0.1,0.1-0.1,0.1l0,0l-0.1,0l0,0c0,0,0,0-0.1,0l0,0c0,0,0,0-0.1,0l0,0l-0.1,0l0,0l-0.1,0l0,0l-0.1,0l0,0l-0.1,0l0,0
	l-0.1,0l0,0l-0.1,0l0,0l-0.1,0l0,0l0,0l0,0l0,0l0,0l0,0l0,0l0,0l0,0l0,0l0,0l0,0l0,0l0,0l0,0l0,0l-0.1,0l0,0l-0.1,0l0,0l0,0l0,0l0,0
	l0,0l0,0l0,0l0,0l-0.1,0l0,0l0,0h0h0h0l0,0l0,0l-0.1,0l0,0l-0.1,0l0,0l-0.1,0l0,0l-0.1,0l0,0l-0.1,0l0,0l-0.1,0l0,0l-0.1,0l0,0
	l-0.1,0h0l-0.1,0l0,0l-0.1,0l0,0l-0.1,0l0,0l-0.1,0l0,0l-0.1,0l0,0l-0.1,0l0,0l-0.1,0l0,0l-0.1,0l0,0l-0.1,0l0,0l0,0l0,0l0,0l0,0
	l0,0l0,0l0,0l0,0l0,0l0,0l0,0l0,0l0,0l0,0l0,0l0,0l0,0l0,0l0,0l0,0l0,0l0,0l0,0l0,0l0,0l0,0l0,0l-4-4c-4.4-4.4-10-9.4-5-16.3
	C19.8,172.9,54.3,140.9,58.1,137.6z M109.2,135.1c0.5,1.8,1.2,2.3,1.7,4.2c-2.5,0.1-3.3-0.8-4.9-2.8c-0.4-0.9,0-1.9,0.9-2.3
	C107.7,133.8,108.8,134.2,109.2,135.1z M113.3,132.1c0.2,1.6,0.7,2.2,1.1,4.1c-2.5-0.1-3.1-1-4.4-3.1c-0.3-0.9,0.3-1.9,1.2-2.2
	C112.1,130.6,113,131.2,113.3,132.1z M106.2,139.7c0.4,2.3,0.8,2.3,1.4,4.1c-2.2,0.8-3.7-1.4-4.8-3.1c-0.3-0.9,0.2-1.9,1.1-2.2
	C104.9,138.3,105.9,138.8,106.2,139.7z M103.7,144.4c0.9,2.7,1.6,3.1,3.2,5.3c-3.6,0.1-4.5-1.2-6.5-4c-0.3-0.9,0.1-1.9,1-2.3
	C102.4,143,103.4,143.5,103.7,144.4z M102.3,149.6c0.5,3.2,1.3,2.9,4.2,3.7c-3.4,2.9-6.1,0.7-7.6-2.8c-0.2-0.9,0.3-1.9,1.3-2.1
	C101.1,148.1,102.1,148.7,102.3,149.6z M110,154.9c-0.1,2.3-1.7,4.1-3.8,4.9h0c0,0,0,0,0-0.1l0,0c0.2,1.8,2.8,1.5,4.3,0.3
	c0.7-0.5,0.9-0.8,1.6-1.4c0.2,2.6-3.1,5.1-5.6,4.3c-7.1-2.4,0.2-6.9,0.1-7.9c-0.1-1,0.7-1.8,1.6-1.9
	C109.1,153.2,109.9,153.9,110,154.9z M113.5,170.5c-9.8-5.1,0.2-6,1.6-9l0.2-0.4c2,1.8-1.3,4-2.8,5.3c0.8,0.3,2.1,0.9,2.2,0.9
	c0.9,0.4,1.3,1.4,1,2.3C115.4,170.4,114.4,170.8,113.5,170.5z M112.1,166.7c0,0-0.1,0.1-0.1,0.1
	C112.1,166.8,112.1,166.8,112.1,166.7z M133.7,165.9c-5.1,2.8,2,8.2,3.5,4.2c0.8-2.2-4.6-4.5-0.5-8.3l0,1.1
	c-0.2,4.7,5.5,4.8,2.5,9.6c-4.8,7.6-18-3.6-7.7-10.7c1.1-0.6,2.6-0.2,3.2,1C135.2,163.9,134.8,165.3,133.7,165.9z M144.4,160.3
	c-3.8,3.1,4.5,6.6,3.7,3.1c-0.3-1.1-1.7-0.8-2.7-0.8c1.7-3.1,5.7-0.9,5,2.3c-1.6,7.8-16.5,0.4-9.2-8c0.9-0.9,2.4-0.8,3.3,0.1
	C145.4,157.9,145.4,159.4,144.4,160.3z M128.1,106.7c-2.3-4.9-1.5-7.8,4.3-8.5c2.5-0.3,2.7-0.2,4.4-0.5c-4.5-3.6-18-3.6-13.1,6.3
	c1.6,3.2,3.9,4.7,6.8,6.6c-4.5-0.3-8.1-3.4-9.8-7.5c-5.3-12.4,16-14.5,20.9-6.6c3.3,5.4-6,6.4-9.3,6.8c0.1,0.3,0.3,0.5,0.5,1
	c0.7,1.3,0.2,2.9-1,3.6C130.4,108.4,128.8,107.9,128.1,106.7z M143,108.9c6.2-0.8,6.2,3.6,8.5,8.6l0.4,1c-3.9,0.6-4.3-3.5-6.9-5l0,0
	c0,0.1,0,0,0,0.1c-0.2,0.2,0,0.1-0.4,0.2c-1.4,0.4-2.9-0.4-3.3-1.8C140.9,110.8,141.7,109.3,143,108.9z M152.5,117.2
	c-0.9-5.1-4.3-14.7-11.1-10.4c-5.3,3.4,1.9,10.7,5.1,12.5l2.8,1.5c-9.2,0.9-18.9-12.7-8.4-18.1c9.3-4.7,15,6.2,16.7,13.7
	c0.2,1.4-0.8,2.8-2.3,3C154,119.6,152.7,118.6,152.5,117.2z M149.3,130c-5-10.8,16.8-13.2,14.4,1.5l-1.3,3.7l-0.5-3.7
	c-1.9-10.9-10.2-5.8-8.6-3.9c0.7,1.1,0.3,2.5-0.7,3.2C151.4,131.5,149.9,131.1,149.3,130z M155.9,127.5c2.6,0.3,5.1,1.9,5.3,4.8
	l-0.5,2.3c-1.8-1.3-2.8-3-4.5-2.4c-1.3,0.1-2.4-0.9-2.5-2.2C153.6,128.7,154.6,127.6,155.9,127.5z M158.2,147.9
	c1.1,1.6,2.4,3.6,1.4,5.7c-2.3,4.5-6.8-1.8-8.7-4.6c0.4,0.8,0.3,1.7-0.2,2.4c-3,3.9-0.2,8.9,4.4,4.9l1.3-1.1
	c-0.8,10.2-15.7,4.4-9.5-6.6c0.8-1,2.2-1.2,3.3-0.4c0.1,0.1,0.3,0.2,0.4,0.4c-0.2-0.3-0.3-0.5-0.4-0.7c-0.6-1.1-0.2-2.6,1-3.2
	c1.1-0.6,2.6-0.2,3.2,1c0.3,0.7,2.6,5.1,3.1,6.1C157.8,150.8,158.1,148.3,158.2,147.9z M149.6,137.1c8.8-8.3,18.6,5.7,8.6,10.8
	l0.7-1.8c2.7-6.8-2.9-9.5-5.6-6.1c-0.8,1-2.3,1.2-3.3,0.4S148.8,138.1,149.6,137.1z M158,141.1c1,2.6,1.1,3.6-0.9,5.5
	c-0.9-0.7-2.3-2.5-2.7-2.6c-0.8-1-0.7-2.5,0.3-3.3C155.7,139.9,157.2,140.1,158,141.1z M157.3,152c-0.1,0-0.1,0-0.2,0.1
	C157.2,152.1,157.2,152.1,157.3,152z M107.8,94.3c2,0.4,1.9,0,3.4-0.4c0.2-0.3,0-3.1-2-3.1c-5.7-0.2-15.8,6.8-6.9,12.8
	c2.2,1.5,7,3.5,9.4,4.7l-5.4-0.2c-11.5-2.2-15.9-12-6-19.2c17.4-12.8,24.6,14.3,5.8,11.9c-1.8-0.5-2.8-2.3-2.4-4
	C104.2,94.9,106,93.8,107.8,94.3z M149.6,204c-3.9-3.2-3.7-0.3-4.2,3.5c-4.6-5.8,0.3-10.4,6.7-6.8c0.9,0.7,1.1,2,0.4,2.9
	S150.5,204.7,149.6,204z M162,220.8c-4.6-3.7-4.5-3.6-8.8-0.3l0.5-2.5c2.1-4.8,7.4-2.4,10.7-0.6c0.9,0.6,1.2,1.9,0.5,2.8
	C164.2,221.2,162.9,221.5,162,220.8z M160.1,214.9c-4.8-3-5.3-1.3-8.8,2.3c-0.3-7,5.1-8.1,10.9-5.8c1,0.6,1.3,1.8,0.7,2.8
	S161,215.5,160.1,214.9z M156,208.9c-4.2-1.8-5,0.1-7.3,3.3c-1.5-6.3,3.5-8.3,8.8-7.1c1,0.4,1.6,1.6,1.1,2.7
	C158.2,208.8,157,209.3,156,208.9z M129.9,259.6c-0.8,0.5-2.3,1.4-3.1,2.4c1.3,0.4,3.7,0.5,4.5,0.5c1.1,0,2,1,2,2.1c0,1.1-1,2-2.1,2
	c-2-0.1-4.4-0.2-6.3-1c-6.2-2.6,0-7.5,2.8-9.5c1-0.6,2.2-0.3,2.8,0.6C131.1,257.7,130.9,259,129.9,259.6z M162.3,226.6
	c-4.5-5.7-3.3-5.1-8.5-1.4c2.5-8.7,6.6-6,11.6-1.4c0.8,0.8,0.7,2.1-0.1,2.9C164.3,227.5,163.1,227.4,162.3,226.6z M161.5,232.4
	c-4-5.4-3-5.1-8.6-1.5c3.2-8.5,6.9-5.9,11.6-1.2c0.7,0.8,0.7,2.1-0.2,2.9C163.5,233.3,162.2,233.2,161.5,232.4z M161.2,240.3
	c-3.4-8.4-4.3-6.7-10.4-2.8c0.8-2,0.6-2.1,1.9-3.7c5.1-5.6,9.5-0.2,12.1,4.7c0.5,1,0.1,2.2-0.9,2.7
	C162.9,241.8,161.7,241.3,161.2,240.3z M147.2,244.5c2.3-3.3,9.1-11.6,13.1-5.1c3.8,6.2-2.1,15.1-5.2,9.8c-0.7-1.3-0.7-2.5-0.8-3.9
	c2.2,6,4.7,4.3,3.7-0.6c-1.4-6.9-4.4-2.2-7.3,2c-0.6,1-1.9,1.2-2.8,0.6C146.9,246.7,146.6,245.5,147.2,244.5z M149.3,256
	c0.7-0.1,1.4,3.6,2.1,1.8c0.8-2.1-0.4-3.9-1.4-5.7c-0.5-1-0.1-2.2,1-2.7c1-0.5,2.2-0.1,2.7,1C158.4,262.4,146.5,262.7,149.3,256z
	 M147,250.5c-7.8,3.5,3.3,3.2,2.3,5.5c-0.4,0.1-3.5-0.1-3.5-0.1c-6.6-0.2-5.8-5.7-0.5-9.1c1-0.5,2.2-0.1,2.7,0.9
	C148.5,248.8,148.1,250,147,250.5z M142.8,260.3c-11.1,4.4-11.8-4.2-4.8-8.5c1-0.4,2.2,0.1,2.7,1.1c0.4,1-0.1,2.2-1.1,2.7
	c-1.3,0.5-4.7,2.9-1.8,3.7L142.8,260.3z M139.2,265.9c1.8-0.9,6-2.8,4.2-4.9l-0.6-0.8c4.9-1.4,4.3,4.6-1.5,9.2
	c-1,0.6-2.2,0.2-2.8-0.8C137.9,267.7,138.2,266.5,139.2,265.9z M116.8,274.3c-6,3.1-8.5,4.2-15.3,4c4.9-2.8,8-3.8,12.8-7.2
	c0.9-0.7,2.2-0.5,2.9,0.4C117.9,272.3,117.7,273.6,116.8,274.3z M123.4,270.3c-1.2,3.6-2.2,4.8-6.1,5.4c1-2.4,2-3.4,2-6
	c0.2-1.1,1.2-1.9,2.3-1.7C122.7,268.2,123.5,269.2,123.4,270.3z M126.5,271.5c2.9-0.9,5.3-3,8.6-4.6c-0.6,5.7-1.7,7-6.4,10.4
	c-1.6,0.6-3.4-0.2-4-1.8C124.1,273.9,124.9,272.1,126.5,271.5z M101.3,264.4c-0.3-1.1-0.5-2-0.6-2.8c-0.3,0.4-0.6,0.8-0.9,1.3
	c-0.5,1-1.8,1.4-2.8,0.8c-1-0.5-1.4-1.8-0.8-2.8l0.9-1.5c2.2-3,9.5-6.5,10.9-3.4c1.9,3.9-4.6,1.4-2.9,7.1c0.4,1.1-0.2,2.2-1.3,2.6
	C102.8,266,101.6,265.4,101.3,264.4z M107.1,273.1c-6.2-0.3-8.5-1.6-11.3-7.3c4.7,2.7,5.7,3.9,10.9,3.2c1.1-0.1,2.1,0.7,2.2,1.8
	C109,272,108.2,273,107.1,273.1z M81.3,254.5c1.3,7.3,15.5,10.1,11.3,14.1c-0.9,0.9-3.8-0.1-5.9,0c-1.7,0.1-3,0.3-4.5,0.8
	c-1.1,0.4-2.2-0.2-2.6-1.3c-0.4-1.1,0.2-2.2,1.3-2.6c1.2-0.4,2.5-0.7,3.8-0.9c-3.3-2-6.4-3.9-7.4-9.7c-0.1-1.1,0.7-2.1,1.8-2.2
	S81.2,253.3,81.3,254.5z M70.5,234.1c2.1,0.9,3.1-2.3-1-4c-2.3-1-4.1-2.4-4.8-2.7c-1.9-0.8-2.9,4.2-1.5,7.3
	c2.9,6.7,8.4,10.5,10.7,19.1l0.9,5.8c0.1,1.1-0.8,2.1-1.9,2.1c-1.1,0.1-2.1-0.8-2.1-1.9l-0.8-4.9c-2.5-9.3-15.6-19.5-10.5-28.3
	c3.6-6.3,8-1.8,11.6-0.3c9.3,3.9,5.1,14.7-2.6,11.4c-1-0.6-1.3-1.8-0.7-2.8C68.3,233.9,69.6,233.6,70.5,234.1z M76,238.6
	c4.1-0.1,10.2,1.2,8.8,6.5c-0.8,3.1-4.4,4-7.1,4.6c-1.1,0.2-2.2-0.6-2.3-1.7c-0.2-1.1,0.6-2.2,1.7-2.3c5.6-1.3,4.6-3.2-0.6-3.1
	c-1.1,0.1-2.1-0.7-2.3-1.8C74,239.7,74.8,238.7,76,238.6z M86,251c2-0.7,11.4-3.6,10.1,2c-0.4,1.8-2.5,3.8-3.8,5.1
	c-0.7,0.8-2,0.9-2.9,0.2c-0.8-0.8-0.9-2-0.2-2.9c0.9-1,1.3-1.3,1.5-1.6c-1,0.2-2.1,0.6-3.1,0.9c-1,0.5-2.2,0.1-2.7-1
	C84.6,252.7,85,251.5,86,251z M117,260.9c-1,0.3-5.5,1.5-2.8,3.5c0.7,0.5,1.5,0.6,2.3,0.8c1.1,0.1,2,1.1,1.8,2.2
	c-0.1,1.1-1.1,2-2.2,1.8c-2.6-0.4-5.1-1.3-6.2-3.9c-2.1-5.1,2.3-7.3,6.3-8.4c1.1-0.2,2.2,0.5,2.4,1.6
	C118.9,259.6,118.1,260.7,117,260.9z M144.2,199.2c-5.7-2.6-3.4,1.6-2.1,6.1l-2.9-2.8c-3.8-5.2,0.2-8.8,6.7-7c1,0.5,1.5,1.7,1,2.7
	C146.4,199.2,145.2,199.7,144.2,199.2z M112.9,200.6c-1.5,2.7,3.2,3.2,5.8,3.9l-2.7,0.7c-2.6,0.2-4.9-0.6-5.7-2.3c0,0.2,0,0.4,0,0.6
	c-1,2.9,1.2,2.6,3.8,3.4c-2.6,1.8-5,1.2-6.1-0.8c0.1,0.4,0,0.8-0.2,1.1c-2.2,2.8,1.4,3.3,2.8,3.8c-3.5,2.8-7.4-1.1-5.3-5.4
	c0.5-0.7,1.4-0.8,2-0.4c0.1,0.1,0.3,0.2,0.4,0.4c-0.3-0.8-0.4-1.7-0.3-2.8c0.2-0.8,1-1.3,1.8-1.1c0.4,0.1,0.7,0.3,0.9,0.6
	c-0.2-0.8-0.2-1.9,0.2-3.1c0.4-0.7,1.3-1,2-0.6C113,199,113.3,199.9,112.9,200.6z M116.8,197.9c-2.2,2.2,1.7,2.5,5.9,4.6
	c-4.2,0-12.4-0.7-8-6.6c0.6-0.6,1.5-0.6,2.1,0C117.3,196.4,117.4,197.4,116.8,197.9z M125,195.4c-5.2,2.2-3.6,1.8,1.6,6.1
	c-8-0.3-11.3-4.8-3.2-9.8c1-0.5,2.2,0,2.7,1C126.5,193.7,126,194.9,125,195.4z M135.9,195c-8.6,0.2-4.7,1.5-0.4,7.2
	c-2.3-0.4-3.5-0.9-5.4-2.6c-5.8-5.2,0.1-7.8,5.6-8.6c1.1-0.1,2.1,0.8,2.1,1.9C137.9,194,137,195,135.9,195z M136.4,221.8
	c-1.3-0.1-1.1,0.1-2.2,0.9c-1.5-1.6,0-2.9,1.5-3.7c0.8-0.2,1.6,0.3,1.8,1.1C137.6,220.9,137.1,221.6,136.4,221.8z M134.2,226.6
	c-2-0.7,1.6-3.1,2.2-3.5c0.8-0.2,1.6,0.3,1.8,1.1c0.2,0.8-0.3,1.6-1.1,1.8C135.2,226,135.7,226,134.2,226.6z M136,230.3
	c-0.4-0.4-3.5-3.1-1.7-3.7c1.1,0.4,1.3,0.7,3,1.1c0.7,0.4,1,1.2,0.7,2C137.6,230.4,136.7,230.7,136,230.3z M133.9,232.6
	c-0.5-0.7-1.5-1.5-2.2-2.1c1.7-1.1,2.2-1.1,4.2,0c0.6,0.5,0.6,1.5,0.1,2.1C135.4,233.1,134.5,233.1,133.9,232.6z M132,235.7
	c-0.8-1-1.6-1.4-2.7-2.4c2-1.1,2.7-0.9,4.7,0.3c0.6,0.6,0.6,1.5,0,2.1C133.5,236.3,132.6,236.3,132,235.7z M129.1,238.1
	c-0.8-1.5-1.4-1.6-2.5-2.6c1.7-1.4,3.4-0.3,4.9,1c0.5,0.7,0.3,1.6-0.4,2C130.5,238.9,129.6,238.8,129.1,238.1z M125.8,239.7
	c-0.3-1.4-1.3-2.1-1.8-3.4c1.9-0.8,3.6,1.1,4.6,2.5c0.2,0.8-0.2,1.6-0.9,1.8C126.9,240.9,126,240.5,125.8,239.7z M122.1,240.9
	c0.2-2.2-0.2-2.2-0.7-4.1c2.4-0.1,3.1,1.9,3.7,4c0,0.8-0.6,1.5-1.4,1.5C122.9,242.3,122.2,241.7,122.1,240.9z M118,239.9
	c1.3-1.3,0.8-2.4,1-4c2.6,1.2,2.5,3.6,1.3,5.8c-0.5,0.6-1.4,0.7-2.1,0.2C117.6,241.5,117.5,240.6,118,239.9z M114.2,238.7
	c1.7-0.1,1.7-2.1,2.2-3.6c2.2,2.2,1.3,5.3-1.5,6.4c-0.8,0.2-1.6-0.3-1.8-1C112.9,239.7,113.4,238.9,114.2,238.7z M110.5,236.6
	c2.4-0.1,2.2-1.1,3.8-2.7c1,3-0.7,4.8-3.5,5.6c-0.8,0.1-1.5-0.5-1.6-1.3C109.2,237.4,109.7,236.7,110.5,236.6z M107.4,233.3
	c1.7-0.1,2.8-1.3,4.2-2.1c0.3,2.6-1.4,4.2-3.7,5c-0.8,0.1-1.6-0.4-1.7-1.2C106.1,234.2,106.6,233.5,107.4,233.3z M104.6,229
	c2,1,2.3,0.1,4.1-1.2c0.2,3.4-2.1,4.5-5.1,3.9c-0.8-0.3-1.1-1.1-0.9-1.9C103,229.1,103.8,228.7,104.6,229z M102.4,223.6
	c1.5,2.7,3.8,1.1,5.5,0.4c0,3.3-5.1,4.5-8,1.2c-0.4-0.7-0.3-1.6,0.4-2C101.1,222.8,102,222.9,102.4,223.6z M103.4,216.8
	c1.6,5.4,1.7,5.2,5.3,4.8c-0.4,0.7-0.3,0.8-0.9,1.2c-3.6,2.5-6.3-3.3-7.3-5.6c-0.1-0.8,0.4-1.5,1.2-1.7
	C102.6,215.5,103.3,216.1,103.4,216.8z M104.5,211.2c-0.2,4.4,0.5,3.6,4.3,5.4c-5.1,1.5-6.6-0.6-7.2-5.3c0-0.8,0.6-1.5,1.4-1.5
	C103.9,209.8,104.5,210.4,104.5,211.2z M47.6,203.4c1.5,1.6,4.4-1.2,4.3-2.5c0.1,0,0.3,0,0.4,0c3.4-0.3,4.9-6.5,1.4-7.1
	c-2.4-0.4-3.9,3.1-3.9,5.4c0,0.2,0,0.3,0,0.5C47.5,199.1,44,199.6,47.6,203.4z M35.1,213.2c2.5,6.3,5.4,0.6,5.1-0.7
	c0-0.2-0.1-0.4-0.2-0.6c3.1-0.2,4-1.7,3.4-2.9c2.7-0.1,7-4.7,1.8-5.8c-2.2-0.5-2.8,0.1-3.5,2.2c-0.2,1.1-0.2,1.9,0,2.5
	c-0.5-0.1-1.1-0.1-1.7,0c-1.1,0.2-1.4,1.9-1,3.1C37.2,209.8,34,210.4,35.1,213.2z M31.3,216.3c-2.6-0.2-3.2,1.7-1.7,3.6
	C33.5,225.1,37.3,216.7,31.3,216.3z M25.4,221.7c-0.8,0.2-2.7,2.8-1.3,4.4C28.3,230.9,31.3,220.1,25.4,221.7z M28.3,180.7
	c2.9,5.5,7.6-2.3,2.4-3.6C28.3,176.5,27.6,178.6,28.3,180.7z M54.7,155.8c3,6.6,5.1-1.9,3.8-3.9C58,151,53.2,152.3,54.7,155.8z
	 M51.6,163.3c7.5,1.5,2.1-11.5-1.6-4.5C48.8,160.9,49.4,162.3,51.6,163.3z M44.8,166.6c2.4,4.4,5.6,0.6,4.5-2.2
	C47.5,159.8,43.5,163.6,44.8,166.6z M41.9,171.2c1.3,0.4,2.7-1,2.9-1.4c0.5-1.2-1.3-4.9-3-3.2c-0.5,0.5-1.2,1.9-1.1,2.9
	c-1.3-0.2-5.1,2.4-5.9,3.4c-2,2.2,1.5,5.1,2.4,5C38,177.9,42.3,174,41.9,171.2z M21.9,166.3c-0.7-3.5-1.1-4.6,1.1-7.3
	c1.4,2,1.8,3.4,3.2,5.4c0.5,1.2,0,2.6-1.1,3.1C23.9,167.9,22.5,167.4,21.9,166.3z M31.8,157.7c-6.8-1.5-6.4-9.1-3.2-13.6l2.4-2.5
	c-0.1,1.9-1.6,11,1.3,10.7c1.5,0.1,2.6,1.4,2.5,2.9C34.6,156.7,33.3,157.8,31.8,157.7z M43.6,134.3c-5.9-0.9-4.8,7.4,0.5,4.3
	c1.8-1.1,1.8-2.9,1.3-4.5C44.9,134.3,44.2,134.4,43.6,134.3z M47.1,132.4c1.8,2.5,2.4,7.6-1.8,10c-11.7,6.8-17-15-0.8-14.6
	c1.8,0.3,3.1,1.9,2.8,3.7C47.3,131.8,47.2,132.1,47.1,132.4z M56,122.4c0.6-8.9-7.6-2.1-4.4,2.1c3,3.9,12.9,2.4,17.1,2.4
	c-2.6,1.4-2.1,1.4-5.2,2.1c-18.9,4.5-20.9-11.5-11.3-15.1c6.6-2.5,9.2,3.2,9.2,9c-0.1,1.5-1.4,2.6-2.9,2.5
	C57,125.2,55.9,123.9,56,122.4z M89.3,94.8c0.4,5.2,0.3,11-6,12c-9.2,1.5-2.9,5.7,3.5,6.2c20.9,1.6-12.8-1.4,9.1,0.6
	c-4.6,1.4-4.3,1.6-9.1,1.9c-5.4,0.4-14.6-2.3-11.6-8.9c3.3-7.2,9.6,0,8.9-9.2c-6.3,0.5-11.5,4.4-13.1,10.7
	c-2.6,10.1,8.7,11.4,15.6,12.6l-5.1,0.9c-12.4,0.5-18.3-9.7-12.1-20.2c4-6.7,9.3-9.1,16.6-9.4c0.5-0.1,1,0,1.4,0.1l0,0
	c0,0,0,0,0.1,0c0.2,0.1,0.4,0.2,0.6,0.4l0,0l0,0l0,0l0,0c0.4,0.3,0.6,0.7,0.8,1.1l0,0l0,0l0,0l0,0l0,0
	C89.2,94.1,89.3,94.4,89.3,94.8z M118,131.1c2.7-0.1,3.1,0.7,7.2,3.3c-5.6,0.2-3.2,0.1-7.2,0.2c-1,0-1.8-0.8-1.8-1.7
	C116.2,131.9,117,131.1,118,131.1z M121.1,167L121.1,167L121.1,167c-2.6-0.4-2.9,5,1.3,5.1c1.2,0,2.3-3,0.5-5.5
	C122.4,167,121.8,167.2,121.1,167z M123.4,165.4c2.6,1.6,3.6,9.1-1.4,9c-8.5-0.2-6.9-12.2,0.1-10.8
	C123,163.9,123.4,164.6,123.4,165.4z M21.6,202.6c-4.3-5.6-5.3-6.9-5.2-13.9c3.8,3.4,5.6,5.9,9.6,9c1.4,1.2,1.5,3.3,0.3,4.7
	C25.1,203.7,23,203.9,21.6,202.6z M46.9,245.4c2.9,2.8,3.8,3.5,3.8,7.5c-2.6-1.3-3.7-2.3-6.3-3.6c-1.1-0.7-1.4-2.1-0.7-3.2
	C44.3,245,45.8,244.7,46.9,245.4z M158,294.7c5.5-0.5,11.2,0.1,14.7-6.2l0.8-1.8c0.7-1.6,2.5-2.3,4.1-1.6c1.6,0.7,2.3,2.5,1.6,4.1
	l-1.6,2.6C172.8,297.8,160.3,300.1,158,294.7z M163.2,288.7c-0.5-4.6-7.7,0.4-6.2,3.9l0.6,1.1l0.4,1c-1.5,0.2-1.3,0.4-2.7-0.8
	c-7-5.9,9.7-20.4,14-6.3c0.3,1.7-0.8,3.3-2.5,3.6C165.1,291.5,163.5,290.4,163.2,288.7z"/>
<path class="st0" d="M264.8,118.2H183c1.3,3.3,2.9,6.4,4.9,9.3h72C261.9,124.6,263.5,121.5,264.8,118.2z M191.8,132.3
	c1.7,1.8,3.5,3.5,5.4,4.9h53.5c1.9-1.5,3.7-3.1,5.4-4.9H191.8z M205.1,142.2c5.7,2.7,12.1,4.3,18.8,4.3c6.7,0,13.1-1.5,18.8-4.3
	H205.1z"/>
<path class="st0" d="M222.1,112.8c0.8,0.6,2.3,0.6,3.1,0.3c0.8-0.3,1-0.8,1.1-10.4c0.1-9.7,0.1-28.5-0.2-39.7
	c-0.3-11.2-1-14.8-1.5-16.6c-0.5-1.8-0.8-1.9-1.3-1c-0.5,0.9-1.2,2.8-1.6,4.5c-0.4,1.8-0.5,3.4-0.6,13.4c-0.1,10-0.1,28.3,0,38
	C221.1,111.1,221.3,112.3,222.1,112.8z"/>
<path class="st0" d="M208.7,268.6c3.1,0,5.7-2.4,5.7-5.3c0-2.9-2.5-5.3-5.7-5.3c-3.1,0-5.6,2.4-5.6,5.3
	C203,266.2,205.6,268.6,208.7,268.6z M208.7,274.2c3.3,0,6.3-1.2,8.4-3.3c2.1-2,3.4-4.7,3.4-7.7c0-3-1.3-5.7-3.4-7.7
	c-2.1-2-5.1-3.3-8.4-3.3c-3.3,0-6.3,1.2-8.4,3.3c-2.1,2-3.4,4.7-3.4,7.7c0,3,1.3,5.7,3.4,7.7C202.4,273,205.4,274.2,208.7,274.2z
	 M221.5,275.7c-3.3,3.1-7.8,5-12.8,5c-5,0-9.5-1.9-12.8-5c-3.3-3.2-5.4-7.5-5.4-12.4c0-4.8,2.1-9.2,5.4-12.4c3.3-3.1,7.8-5,12.8-5
	c5,0,9.5,1.9,12.8,5c3.4,3.2,5.4,7.5,5.4,12.4C226.9,268.1,224.9,272.5,221.5,275.7z M209.2,286.3c5.7-2.7,11.2-5.7,16.5-9.1
	c3-3.9,4.8-8.8,4.8-14.1c0-6.4-2.6-12.2-6.9-16.4c-4.2-4.2-10.1-6.8-16.6-6.8c-2.4,0-4.6,0.3-6.8,1c-2.6,0.8-4.9,1.9-7.2,3.6
	c-0.9,0.7-1.8,1.4-2.6,2.3c-4.2,4.2-6.9,10-6.9,16.4c0,6.4,2.6,12.2,6.9,16.4c4.2,4.2,10.1,6.8,16.6,6.8
	C207.8,286.4,208.5,286.4,209.2,286.3z"/>
<path class="st1" d="M293.7,170.8c-0.2,1.7-0.5,3.4-0.8,5c-2.7,2.1-5.5,4.3-7.9,6.4c-5.2,4.4-9.1,8.2-13,12.1
	c-0.8,0.8-1.6,1.6-2.5,2.4c-2.5,2.4-5.1,4.9-7.7,7.2c-2.6,2.4-5.3,4.7-7.9,6.7c-2.6,2-5.1,3.8-7.6,5.3c-2.4,1.5-4.8,2.9-7.2,4h0
	c-2.3,1.2-4.6,2.1-6.9,3c-2.3,0.9-4.7,1.7-7.4,2.5c-1.4,0.4-3.1,0.9-4.8,1.4c-4.2,1.2-8.7,2.4-13,4c-3.2,1.2-6.3,2.5-9.3,4
	c-4.6,1.5-8.8,4-12.1,7.3c-5.4,5.4-8.8,12.8-8.8,21c0,8.2,3.4,15.6,8.8,21c3.2,3.1,7,5.6,11.4,7.1c-4.6-1.5-9-3.6-12.8-6.4l0,0
	c-0.2-0.1-0.4-0.3-0.6-0.4l0,0c-0.2-0.1-0.4-0.3-0.5-0.4l0,0c-0.2-0.1-0.4-0.3-0.5-0.4l0,0c-0.2-0.1-0.4-0.3-0.5-0.4l0,0
	c-5-4.2-9-9.8-11.8-17.3c-0.1-0.3-0.2-0.5-0.3-0.8c-0.1-0.3-0.2-0.5-0.3-0.8c-0.1-0.3-0.2-0.6-0.3-0.8c-0.1-0.3-0.2-0.6-0.3-0.9
	c-0.1-0.3-0.2-0.6-0.2-0.9c-0.1-0.3-0.2-0.6-0.2-0.9c-0.1-0.3-0.2-0.6-0.2-0.9c-0.1-0.3-0.1-0.6-0.2-0.9c-0.1-0.3-0.1-0.6-0.2-0.9
	c-0.1-0.3-0.1-0.6-0.2-1c-0.1-0.3-0.1-0.6-0.2-1c0.7-1.7,1.5-3.6,2.6-4.9c2.3-2.4,4.5-4.9,6.6-7c2.2-2.3,4.3-4.3,6.1-6
	c1.8-1.7,3.6-3.1,5.3-4.2c1.7-1.2,3.4-2.1,5.2-3c1.8-0.9,3.8-1.7,5.8-2.4c2.1-0.7,4.2-1.4,6.3-1.9c2.4-0.6,4.7-1.1,7.1-1.7
	c2.3-0.5,4.7-1,6.6-1.5c2.3-0.6,4.7-1.3,7-2.1c2.4-0.8,4.7-1.7,7.1-2.9c2.4-1.1,4.7-2.4,7.1-3.9c2.3-1.4,4.7-3,7.1-4.8
	c2.4-1.7,4.8-3.6,7.4-5.6c2.6-2.1,5.3-4.4,8.2-7c3.2-2.8,7.6-6.8,11.6-10.5c1.8-1.6,3.5-3.2,6.4-5.8c2.6-2.4,4.8-4.2,6.7-5.8
	C290,173.5,291.8,172.1,293.7,170.8z M290.9,185.8c-8.2,34.1-27.9,63.7-54.7,84.2c0.5-2.2,0.8-4.4,0.8-6.8c0-8.2-3.4-15.6-8.8-21
	c-3.4-3.4-7.6-5.9-12.2-7.4c2-0.6,4.1-1.2,6-1.7c1.6-0.4,3.2-0.9,4.8-1.4c2.8-0.8,5.3-1.7,7.8-2.6c2.5-1,5-2,7.5-3.3l0,0
	c2.5-1.2,5.1-2.7,7.7-4.4c2.6-1.7,5.3-3.6,8.1-5.7c2.7-2.1,5.5-4.5,8.3-7c2.8-2.5,5.4-5,7.8-7.4c0.8-0.8,1.7-1.6,2.5-2.4
	c3.9-3.8,7.6-7.5,12.7-11.8C289.8,186.7,290.4,186.2,290.9,185.8z M295,157.1c-0.1,1.8-0.2,3.5-0.3,5.3c-1.5,0.9-3,2-4.5,3
	c-2.2,1.5-4.1,3-6.2,4.7c-2.2,1.8-4.3,3.7-6.9,6c-0.9,0.8-3.6,3.3-6.4,5.9c-3.6,3.3-7.4,6.8-11.6,10.4c-3,2.6-5.6,4.8-8,6.8
	c-2.5,2-4.8,3.8-7.1,5.4c-2.2,1.6-4.5,3.1-6.7,4.5c-2.2,1.3-4.4,2.5-6.5,3.5c-2.1,1-4.3,1.9-6.4,2.6c-2.1,0.7-4.3,1.3-6.5,1.9
	c-2.4,0.6-4.4,1-6.4,1.5c-2.5,0.6-4.9,1.1-7.3,1.7c-2.3,0.6-4.6,1.3-6.8,2.1c-2.3,0.8-4.4,1.7-6.5,2.7c-2.1,1-4.1,2.1-6,3.5
	c-1.9,1.3-3.9,2.9-6,4.8c-1.3,1.2-2.7,2.5-4.1,3.9c0.4-2.4,0.6-4.8,0.6-7.3c2.2-1.5,4.3-2.9,6.1-4.1c2.5-1.6,5-3.2,7.5-4.6
	c4.9-2.8,10-5.1,12.5-6.2l1.8-0.8c0.3,0,0.6,0,0.8,0c7,0.2,14.2-2.1,20.2-7.1l0.4-0.3c1.5-1.3,2.8-2.7,4-4.1
	c4.6-1.8,9.2-3.6,13.8-5.7c2.4-1.1,4.7-2.3,7-3.6c2.3-1.3,4.6-2.7,6.8-4.1c2.2-1.5,4.4-3,6.6-4.7c2.2-1.7,4.3-3.5,6.3-5.3
	c2.9-2.6,5.7-5.4,8.2-8c0.9-0.9,1.8-1.8,2.7-2.6c1.6-1.6,3.1-3,4.4-4.2c1.3-1.2,2.6-2.2,3.9-3.2c1.2-0.9,2.3-1.7,3.5-2.4
	C292.9,158.3,293.9,157.7,295,157.1z M106.2,122.4c7.6-3.2,15.7-3.8,22.9,0.4c1,0.6,1.9,1.2,2.8,1.9c2.9,2.2,5.2,5.6,6.6,9.3
	c1.2,3.3,1.5,6.7,0.5,9.8c-1.3,4.1-4,6.9-7.1,8.5c-2,1-4.2,1.5-6.2,1.5c-0.2,0-0.3,0-0.4,0h0c-9.3-0.3-11-9.7-6.9-8.7
	c0.1,0,0.2,0,0.2,0.1l0.1,0c0.1,0,0.1,0,0.2,0.1l0.1,0c0.1,0,0.1,0.1,0.2,0.1l0.1,0c0.1,0,0.2,0.1,0.2,0.1l0,0
	c0.1,0,0.2,0.1,0.3,0.1l0,0c0.1,0.1,0.2,0.1,0.3,0.2l0,0c0.1,0.1,0.2,0.1,0.3,0.2l0,0c0.1,0.1,0.2,0.2,0.3,0.2l0,0
	c0.1,0.1,0.2,0.2,0.3,0.3l0,0c0.1,0.1,0.2,0.2,0.3,0.3c1.4,1.3,4,1.3,5.9,0.9c1.2-0.3,2.5-0.9,3.5-1.7c0.9-0.8,1.5-1.8,1.8-2.8
	c0.3-1,0.5-2,0.5-2.5c0-0.1,0-0.2,0-0.3l0,0l0,0l0-0.1v0l0,0l0,0l0,0c0-0.3,0-0.5,0.1-0.8v0c0-0.2,0-0.5,0-0.7c0-0.1,0-0.3,0-0.4v0
	c0-0.1,0-0.2,0-0.3l0-0.1c0-0.1,0-0.2,0-0.3l0,0c0-0.1,0-0.2,0-0.3l0,0c0-0.1,0-0.2,0-0.3v0l0-0.1c0-0.1,0-0.2,0-0.2l0-0.1
	c0-0.1,0-0.2,0-0.3l0-0.1c0-0.1,0-0.2,0-0.2l0,0l0-0.1c0-0.1,0-0.2,0-0.2l0-0.1c0-0.1,0-0.2,0-0.2l0-0.1c0-0.1,0-0.1,0-0.2l0-0.2
	l0-0.2l0-0.2l0-0.2c0-0.1,0-0.1,0-0.2l0-0.2c0-0.1,0-0.1-0.1-0.2l0-0.2l0-0.2l0-0.2c0-0.1,0-0.1-0.1-0.2l0-0.2c0-0.1,0-0.1-0.1-0.2
	l0-0.1c0-0.1,0-0.1-0.1-0.2l-0.1-0.2l-0.1-0.2l-0.1-0.1c0-0.1-0.1-0.1-0.1-0.2c-1.7-4.2-4.9-7.6-9.5-8.9c-4.4-1.1-8.6-0.9-12.4,0.2
	c-4.7,1.4-8.9,4.3-12.1,8.1c-3.2,3.7-5.5,8.3-6.7,13.2c-1.3,5.3-1.4,10.9,0.2,16.2c2.8,9.3,9.3,16.3,17.4,20.7
	c2.6,1.4,5.5,2.6,8.4,3.5c-5.3,1.9-10.2,4.8-14.2,8.6c-4.9,4.6-8.6,10.4-10.4,17c-1.6,5.7-1.7,11.9-0.1,18.4c0.5,2.1,1.1,4,1.8,5.7
	c-0.5-0.5-1.1-1-1.6-1.5c-7.8-7.9-13.7-18.3-16.9-28c-3.2-9.8-4.4-20.6-3.4-31.2c1-10.4,4-20.5,9.1-29.3c1.1-1.9,2.4-3.9,3.9-5.7
	C90.9,132,98.2,125.8,106.2,122.4z M116,76c24.5-43.6,61.4-61.1,110.8-52.6c32.3,20.9,56.1,54.3,64.8,93.4c-1.6,0.7-3,1.4-4.4,2.1
	c-1.7,0.9-3.1,1.8-4.4,2.8c-1.4,1-2.7,2.1-4.1,3.4c-1.3,1.3-2.6,2.7-4,4.4c-1.7,2.2-3.4,4.7-5.2,7.3c-0.8,1.2-1.6,2.4-2.5,3.7
	c-1.3,1.9-2.7,3.8-4.1,5.6c-1.4,1.8-2.8,3.5-4.3,5c-1.4,1.5-2.8,2.8-4.2,4h0c-1.4,1.2-2.9,2.2-4.4,3.2c-1.6,1-3.2,1.8-4.7,2.6
	c-1.6,0.8-3.3,1.5-4.9,2c-1.5,0.5-3,0.9-4.5,1.2c-1.5,0.3-3,0.4-4.6,0.3c-1.7-0.1-3.5-0.3-5.5-0.6c-1.9-0.3-3.9-0.7-5.8-1.1
	c-3-1.3-6.2-1.9-9.5-2.1c-7-0.2-14.2,2.1-20.2,7.1l-0.4,0.3c-5.8,5-9.2,11.6-10,18.2c-0.9,6.8,0.8,13.7,5.4,19.2
	c0,0.1,0.1,0.1,0.3,0.3c2.2,2.6,4.9,4.6,7.8,6c-2.3,1.1-4.9,2.5-7.6,4c-2.7,1.5-5.3,3.1-7.8,4.8c-1.1,0.7-2.1,1.4-3.1,2
	c-1.4-9.6-5.1-18-10.8-24.7c-5.2-6.1-12.2-10.7-20.7-13.4c5.5-2.1,10.6-5.7,14.9-10c6.3-6.3,11.2-14.5,13.6-22.4
	c3.9-12.4,3.4-24.2-0.5-34.9c-4.1-11.3-12.1-21.2-22.8-29c-6.8-5-14.9-8.4-23.3-10.4C122.2,76.9,119.1,76.4,116,76z M210.2,167
	c5.3,0.2,10.3,2.3,13.9,6.4c0.1,0.1,0,0,0.2,0.2c3.3,4,4.6,9.1,4,14.2c-0.7,5.2-3.3,10.3-7.9,14.2c0,0-0.1,0-0.3,0.2
	c-4.7,3.9-10.4,5.8-15.8,5.6c-5.3-0.2-10.3-2.3-13.9-6.4c-0.1-0.1,0,0-0.2-0.2c-3.3-4-4.6-9.1-4-14.2c0.7-5.2,3.3-10.3,7.9-14.2
	c0.1,0,0.1,0,0.3-0.2C199.1,168.7,204.8,166.8,210.2,167z M221.6,179.3c-4-6.9-13.4-8.9-21-4.6c-7.6,4.4-10.5,13.5-6.5,20.4
	c4,6.9,13.4,8.9,21,4.6C222.7,195.4,225.6,186.2,221.6,179.3z M201.6,179.9c4.5-3.8,10.9-3.6,14.3,0.5c3.4,4.1,2.6,10.4-1.8,14.2
	c-4.5,3.8-10.9,3.6-14.3-0.5C196.3,190.1,197.1,183.7,201.6,179.9z M87.8,174.5c-2.8-0.6-5.2,0.1-7,1.5c-1.3,1-2.3,2.5-2.9,4.1
	c-0.6,1.5-0.8,3.2-0.6,4.9c0.3,3.1,1.8,6.2,4.9,8.3c1.5,1,3.3,1.5,5.1,1.5c1.6,0,3.2-0.3,4.7-0.9c1.6-0.7,2.9-1.7,3.9-3.1
	c0.8-1.2,1.3-2.5,1.3-4.1c0.1-3.2-0.7-5.9-2.3-8C93.2,176.6,90.8,175.2,87.8,174.5z M295,143.8c0.1,1.9,0.1,3.9,0.1,5.8
	c-0.7,0.4-1.6,0.9-3.1,1.7c-1.3,0.7-2.5,1.4-3.7,2.1c-1.3,0.8-2.6,1.7-4,2.7c-1.3,1-2.7,2.2-4.3,3.6c-1.5,1.4-3.1,2.8-4.7,4.4
	c-0.9,0.9-1.8,1.8-2.7,2.7c-2.5,2.5-5.1,5.1-8,7.7c-2,1.8-4,3.4-6,5c-2,1.6-4.1,3-6.2,4.4c-2.1,1.4-4.2,2.7-6.4,3.9
	c-2.1,1.2-4.3,2.3-6.6,3.3c-2,0.9-4.1,1.8-6.2,2.7c0.6-1.7,1-3.5,1.2-5.2c0.2-1.2,0.2-2.4,0.2-3.6c0.8-0.2,1.6-0.4,2.5-0.6
	c1.8-0.5,3.7-1,5.6-1.8c2-0.8,3.9-1.7,5.9-2.7c2-1.1,4.1-2.3,6.2-3.6c2.1-1.3,4.3-2.8,6.4-4.5c1.9-1.5,3.9-3.1,5.9-4.9
	c2.8-2.5,5.4-5.1,7.7-7.5c1.1-1.1,2.2-2.2,3.2-3.2c1.5-1.5,2.8-2.7,4.2-3.8c1.4-1.2,3-2.3,4.9-3.7
	C289.7,147.3,292.5,145.4,295,143.8z M210.3,185.2c-1.1-1.3-3-1.3-4.4-0.1c-1.4,1.2-1.6,3.1-0.6,4.4c1.1,1.3,3,1.3,4.4,0.2
	C211.2,188.4,211.4,186.4,210.3,185.2z M84.8,181.1c0.4-0.3,0.9-0.4,1.6-0.3v0c0.3,0.1,0.6,0.1,0.9,0.2c-0.4,0.4-0.8,0.8-1.2,1.3
	c-0.6,0.9-0.4,2.2,0.6,2.8c0.9,0.6,2.2,0.4,2.8-0.6c0.3-0.3,0.5-0.7,0.7-0.9c0.3,0.8,0.5,1.8,0.4,2.9c0,0.2-0.1,0.4-0.2,0.5
	c-0.2,0.3-0.6,0.6-1.1,0.8c-0.6,0.3-1.3,0.4-2,0.4c-0.6,0-1.2-0.1-1.5-0.4c-1.3-0.9-2-2.3-2.1-3.6c-0.1-0.7,0-1.5,0.3-2.1
	C84.2,181.8,84.5,181.4,84.8,181.1z M292.8,123.3c0.8,4.3,1.3,8.7,1.7,13.2c-3,1.9-7.4,4.7-10.8,7c-2.1,1.4-3.8,2.7-5.3,4
	c-1.6,1.3-3,2.6-4.6,4.2c-1,1-2.1,2.1-3.3,3.2c-2.4,2.4-4.9,5-7.5,7.2c-1.8,1.6-3.6,3.1-5.5,4.5c-2,1.5-4,2.9-6,4.1
	c-1.9,1.2-3.9,2.4-5.7,3.3c-1.8,1-3.6,1.8-5.2,2.4c-1.7,0.6-3.3,1.1-5,1.6c-0.6,0.1-1.2,0.3-1.8,0.4c-0.7-2.7-2-5.3-3.7-7.7
	c0.2,0,0.5,0,0.7,0c2.1,0.1,4-0.1,5.9-0.4c1.8-0.3,3.6-0.8,5.5-1.5c1.8-0.6,3.7-1.4,5.6-2.3c1.9-0.9,3.7-1.9,5.3-2.9
	c1.8-1.1,3.5-2.3,5.1-3.7l0,0c1.7-1.4,3.3-2.9,4.9-4.5c1.6-1.6,3.1-3.5,4.6-5.5c1.5-1.9,3-3.9,4.3-5.9c0.9-1.2,1.7-2.5,2.6-3.8
	c1.7-2.5,3.3-4.9,4.9-6.9c1.1-1.4,2.2-2.6,3.4-3.7c1.1-1.1,2.2-2,3.4-2.8c1.2-0.9,2.4-1.6,3.7-2.3
	C291,124.2,291.8,123.7,292.8,123.3z M176.6,113.4c4.9,21.6,24.2,37.8,47.3,37.8c23.1,0,42.4-16.2,47.3-37.8H176.6z M225.2,53.6
	c-1.5-2-1.8-2-3.5-0.2c-1.6,1.8-4.6,5.5-10.1,14.4c-5.5,8.9-13.6,22.9-17.9,30.5c-4.3,7.6-5,8.8-5,9.5c0,0.7,0.5,1.1,11,1.2
	c10.5,0.2,30.9,0.2,42.5,0c11.7-0.2,14.6-0.5,16-1.1c1.4-0.5,1.1-1.3-3.5-8.7c-4.6-7.5-13.6-21.6-19.4-30.7
	C229.4,59.5,226.7,55.6,225.2,53.6z M157.2,56.4c-0.9,0-2,0.3-3.1,0.8c-1,0.6-2,1.4-2.8,2.6c-0.8,1.1-1.3,2.5-1.9,3.9
	c-7.1-2-11.6,0.1-13.5,6.3h39.4c-0.3-0.8-0.6-1.6-1.1-2.3c-0.5-0.8-1.2-1.6-2-2.2c-0.8-0.6-1.7-1-2.6-1.3c-1-0.4-2-0.7-2.9-1
	c-0.9-0.3-1.6-0.6-2.2-0.9c-0.5-0.3-0.9-0.7-1.3-1.3c-0.4-0.7-1-1.7-1.6-2.4c-0.6-0.7-1.2-1.2-2-1.6C159,56.7,158.1,56.4,157.2,56.4
	z M200.4,39.1c-2,0-4,1-5.2,2.6c-1.2,1.6-1.5,3.7-1.8,5.8c-6-3.5-11.4-1.9-12.7,4.9h19.7V47h8.3c-0.1-0.9-0.3-1.5-0.7-2.4
	c-0.5-1-1.3-2.4-2.6-3.5C204.2,40,202.3,39.1,200.4,39.1z"/>
<path class="st0" d="M302.5,101.6c-2.5-2.6-4.9-5.2-6.5-7.4c-1.8-2.5-2.6-4.5-2.9-9.5c0-0.5-0.1-1.1-0.1-1.7c3.6,3,5.5,5.2,7.8,10.7
	l0,0.1l0,0.6c0,1.6,1.3,2.9,2.9,2.9c1.6,0,2.9-1.3,2.9-2.9l-0.1-0.6l0-0.1c2.3-5.4,4.2-7.7,7.8-10.7c0,0.6-0.1,1.1-0.1,1.7
	c-0.4,5-1.1,7-2.9,9.5c-1.6,2.2-4,4.7-6.5,7.4c2.7,48.3,1.7,25.4,3.2,93.8c0,2.4-2,4.4-4.4,4.4s-4.4-2-4.4-4.4
	C300.8,127,299.9,149.8,302.5,101.6L302.5,101.6z M293,82.2c-0.2-4.9-0.2-11.3,0.1-16c0.3-5.5,0.9-8.6,2.7-12.7
	c1.8-4.2,4.9-9.5,6.4-12.1c2-3.4,1.1-3.4,3,0c1.5,2.6,4.6,7.9,6.4,12.1c1.8,4.2,2.4,7.2,2.7,12.7c0.3,4.7,0.3,11.1,0.1,16
	c-3.1,2-5.5,3.8-8.3,5.9c-2.1-25-1.3-12.7-2.4-43.8c-1.1,31.1-0.3,18.9-2.4,43.8C298.5,86,296.1,84.1,293,82.2L293,82.2z"/>
</svg>
