<svg width="400" height="400" viewBox="0 0 400 400" fill="none" xmlns="http://www.w3.org/2000/svg">
<path fill-rule="evenodd" clip-rule="evenodd" d="M58.4701 172.001C59.4357 172.297 60.4586 172.136 61.3317 171.636C62.2681 171.101 63.0234 170.193 63.3757 169.041C63.7349 167.868 63.621 166.685 63.146 165.718C62.707 164.826 61.9527 164.125 60.9881 163.83C60.0226 163.535 58.9996 163.696 58.1265 164.195C57.1902 164.731 56.4349 165.638 56.0825 166.791C55.7234 167.964 55.8373 169.147 56.3122 170.114C56.7512 171.006 57.5056 171.706 58.4701 172.001ZM64.5505 177.264C62.1892 178.615 59.35 179.03 56.5945 178.187C53.8371 177.343 51.7133 175.404 50.5083 172.952C49.3393 170.574 49.0434 167.707 49.897 164.915C50.7584 162.103 52.6097 159.883 54.9077 158.568C57.269 157.216 60.1082 156.803 62.8637 157.646C65.6212 158.489 67.745 160.428 68.95 162.879C70.1189 165.258 70.4148 168.125 69.5612 170.917C68.6998 173.729 66.8486 175.949 64.5505 177.264ZM49.4143 185.992C49.4143 190.962 48.9023 196.949 50.1978 201.693C50.7944 203.877 51.9225 199.944 52.2389 198.983C53.0827 196.418 54.8756 190.882 55.8587 188.814C56.6889 187.067 57.3206 185.209 55.3448 184.644C52.6496 183.873 49.4143 182.503 49.4143 185.992ZM197.993 73.8369C203.577 70.3134 207.729 67.2172 213.935 64.2797C217.825 62.4372 230.271 58.6295 229.575 58.4125C210.822 52.5764 193.65 76.5768 197.993 73.8369ZM200.981 54.3313C198.953 54.6146 198.228 61.0035 198.737 61.1125C200.463 61.4814 206.736 57.3905 208.118 55.914C210.731 53.1234 202.214 54.159 200.981 54.3313ZM175.165 70.7835C179.71 70.7835 183.394 67.1569 183.394 62.6825C183.394 58.2081 179.71 54.5815 175.165 54.5815C170.619 54.5815 166.934 58.2081 166.934 62.6825C166.934 67.1569 170.619 70.7835 175.165 70.7835ZM175.165 66.3286C177.21 66.3286 178.868 64.6963 178.868 62.6825C178.868 60.6697 177.21 59.0374 175.165 59.0374C173.119 59.0374 171.461 60.6697 171.461 62.6825C171.461 64.6963 173.119 66.3286 175.165 66.3286ZM165.627 86.3821C162.935 86.5885 163.768 91.8698 163.861 95.4146C163.993 100.408 174.861 87.5336 174.151 86.6381C174.061 86.5242 165.685 86.3773 165.627 86.3821ZM148.606 59.6194C146.422 58.7794 143.504 60.6239 141.793 61.8834C139.251 63.7541 142.563 64.5493 144.205 65.2881C144.878 65.5898 149.734 67.6368 150.207 66.8737C150.667 66.1261 150.407 60.3124 148.606 59.6194ZM136.007 96.0055C130.111 99.6545 139.48 105.094 141.84 95.8935C144.871 84.0753 120.093 80.6901 122.084 98.613C122.933 106.249 127.804 112.317 135.501 113.649C140.089 113.017 144.187 110.986 147.297 108.028C151.044 104.466 153.36 99.5493 153.36 94.125C153.36 88.6996 151.044 83.7833 147.297 80.2209C143.509 76.6196 138.258 74.3907 132.441 74.3907C126.626 74.3907 121.375 76.6196 117.586 80.2209C113.84 83.7833 111.522 88.6996 111.522 94.125C111.522 99.5493 113.84 104.466 117.586 108.028C118.161 108.574 118.768 109.088 119.406 109.568C107.83 91.2974 125.036 73.1789 140.537 81.8123C158.677 91.9165 140.744 116.698 129.912 103.771C125.582 98.6042 128.035 93.6938 133.269 90.4107C134.814 89.6545 136.679 90.2939 137.435 91.8386C138.191 93.3843 137.551 95.2492 136.007 96.0055ZM151.758 112.718C146.801 117.431 139.97 120.347 132.441 120.347C124.913 120.347 118.082 117.431 113.125 112.718C108.126 107.964 105.034 101.39 105.034 94.125C105.034 86.8591 108.126 80.2862 113.125 75.5324C118.082 70.8186 124.913 67.9025 132.441 67.9025C139.97 67.9025 146.801 70.8186 151.758 75.5324C156.757 80.2862 159.849 86.8591 159.849 94.125C159.849 101.39 156.757 107.964 151.758 112.718ZM91.6013 99.2603C95.3107 100.973 99.461 103.477 100.23 101.726C101.017 99.9319 100.645 87.9103 99.0639 88.2509C97.5825 88.5702 91.5507 92.6533 89.4104 95.3796C87.4481 97.8801 89.1563 98.1302 91.6013 99.2603ZM113.492 120.909C112.606 121.132 112.289 127.347 112.289 128.318C112.289 130.273 112.677 129.915 114.526 129.062C115.434 128.643 120.746 126.234 120.746 125.289C120.746 124.16 116.257 120.214 113.492 120.909ZM84.2108 135.448C89.0347 136.609 93.9422 133.413 95.1705 128.309C96.3989 123.206 93.4838 118.127 88.659 116.966C83.8351 115.805 78.9276 119.001 77.6992 124.105C76.4709 129.208 79.386 134.287 84.2108 135.448ZM86.3424 130.421C88.4915 130.421 90.2328 128.527 90.2328 126.191C90.2328 123.856 88.4915 121.962 86.3424 121.962C84.1933 121.962 82.452 123.856 82.452 126.191C82.452 128.527 84.1933 130.421 86.3424 130.421ZM72.7284 142.414C81.2149 149.423 94.1067 147.826 101.521 138.848C108.935 129.87 108.065 116.909 99.5778 109.9C91.0903 102.891 78.1995 104.488 70.7857 113.466C63.3708 122.444 64.241 135.405 72.7284 142.414ZM76.76 137.946C82.9046 143.02 92.2379 141.865 97.6058 135.364C102.974 128.864 102.344 119.481 96.1993 114.406C90.0547 109.332 80.7214 110.489 75.3535 116.989C69.9856 123.488 70.6153 132.871 76.76 137.946ZM62.5085 141.943C60.8324 139.617 59.5388 135.021 59.6313 141.6C59.7131 147.42 57.2934 146.545 63.8692 151.511C66.4826 153.485 69.8737 156.226 72.2885 158.478C74.9798 160.986 74.1943 161.014 76.5731 158.797C79.0989 156.443 65.1287 146.22 62.5085 141.943ZM256.303 65.6706C236.51 55.6473 214.196 50 190.581 50C189.479 50 188.381 50.0185 187.284 50.0428C191.501 53.2636 194.189 58.1351 194.189 63.5867C194.189 73.284 185.684 81.1456 175.191 81.1456C164.699 81.1456 156.194 73.284 156.194 63.5867C156.194 59.7323 157.538 56.1699 159.814 53.2743C93.0769 67.6591 43 127.882 43 200C43 214.509 45.0343 228.535 48.8166 241.807C50.2085 230.259 51.8174 220.034 54.6167 210.114C58.3601 196.851 64.1914 184.253 74.3831 170.015C82.3625 158.864 93.1898 148.092 105.526 139.962C116.552 132.695 128.794 127.525 141.321 126.041C144.748 125.636 148.278 125.47 151.845 125.548C166.924 97.4762 186.932 79.0977 211.433 70.5889C225.072 65.8517 240.055 64.2028 256.303 65.6706ZM180.043 50.3845C175.826 50.6881 171.655 51.168 167.543 51.823C164.046 54.2058 161.756 58.1808 161.756 62.6825C161.756 69.9718 167.759 75.8818 175.165 75.8818C182.57 75.8818 188.573 69.9718 188.573 62.6825C188.573 57.0878 185.036 52.3058 180.043 50.3845Z" fill="black"/>
<path fill-rule="evenodd" clip-rule="evenodd" d="M211.912 333.115C209.717 326.167 203.13 327.429 198.334 330.991C194.385 333.922 197.461 339.932 193.017 342.474L191.774 342.897C193.458 338.375 193.638 340.044 193.043 334.376C192.493 329.131 198.291 325.368 202.511 323.84C209.973 321.14 215.018 324.593 217.912 331.441C218.375 333.097 217.406 334.815 215.75 335.277C214.092 335.74 212.374 334.771 211.912 333.115ZM190.581 350C191.079 350 191.573 349.987 192.07 349.981C190.608 348.267 189.295 346.289 187.521 344.907C184.074 342.221 177.874 345.513 174.796 349.144C179.983 349.706 185.247 350 190.581 350ZM195.447 349.91C211.121 349.394 226.416 347.01 240.244 341.277C226.198 336.601 214.573 326.913 210.836 306.086C204.479 317.022 194.606 326.13 183.545 332.093C172.027 338.303 159.707 340.058 148.249 338.866C134.794 337.466 122.49 331.978 114.059 324.86C107.594 319.401 103.071 313.574 99.6742 307.641C96.3269 301.794 94.0931 295.859 92.163 290.084C91.6237 288.468 90.9424 286.384 90.3681 284.474L90.2698 284.146C86.0952 288.318 81.9294 292.508 77.7655 296.694C100.278 323.803 132.073 342.69 168.171 348.281C172.696 341.245 185.003 335.252 190.99 342.981C193.477 346.192 193.595 347.719 195.447 349.91ZM172.953 269.411C172.662 269.285 172.409 269.062 172.249 268.759C170.678 265.515 163.495 270.447 166.36 272.086C166.911 272.401 168.311 272.096 168.962 272.034C168.032 273.037 166.704 273.862 165.379 273.001C160.529 269.844 170.37 261.044 174.827 267.389C175.167 268.028 174.983 268.806 174.427 269.232C173.985 269.513 173.49 269.554 172.953 269.411ZM67.9261 283.436L76.0534 275.309C79.7715 271.59 99.8104 252.591 100.796 249.206C102.012 245.029 99.3121 236.172 93.039 240.723C92.4511 241.15 91.6335 241.829 90.6475 242.695L89.9681 243.375C89.7988 243.545 89.6109 243.686 89.4123 243.8C82.307 250.242 69.1836 263.501 65.3282 267.811C65.2153 268.02 65.0723 268.218 64.899 268.397C63.8897 269.439 62.2253 269.466 61.1838 268.456C60.629 267.869 60.2591 267.066 60.3876 266.24C60.7146 264.143 78.3903 246.812 86.3434 239.568L102.334 223.577C103.36 222.55 105.025 222.55 106.05 223.577C107.076 224.603 107.076 226.266 106.05 227.293L98.8108 234.533C101.69 235.366 104.07 237.777 105.375 241.536C108.199 249.663 104.997 253.663 99.5175 259.262C90.1375 268.847 80.4781 278.351 70.9541 287.845C72.0968 289.452 73.2648 291.039 74.4678 292.596L78.4439 288.62L80.4421 286.623C84.0201 283.044 100.554 265.807 103.679 264.365C108.371 262.204 111.301 265.209 114.053 268.556C114.943 269.702 114.735 271.353 113.587 272.243C112.44 273.131 110.79 272.923 109.901 271.776C106.21 267.264 106.101 268.49 101.327 273.181C99.3929 275.082 97.4608 276.99 95.5326 278.905C95.8178 280.032 96.1857 281.321 96.578 282.624C97.2116 284.729 97.8317 286.638 98.2969 288.031C100.104 293.442 102.193 298.992 105.302 304.422C108.361 309.766 112.431 315.012 118.241 319.917C125.76 326.266 136.792 331.168 148.908 332.428C159.176 333.496 170.199 331.933 180.478 326.39C190.534 320.968 199.491 312.719 205.235 302.842C210.317 294.102 212.869 284.083 211.39 273.645C210.185 265.141 207.025 257.764 202.08 251.994C197.277 246.389 190.756 242.264 182.676 240.061C176.72 238.437 170.725 238.511 165.198 239.922C159.576 241.358 154.462 244.176 150.388 247.995C146.331 251.8 143.302 256.588 141.832 261.978C140.569 266.612 140.455 271.733 141.827 277.107C143.449 283.46 145.838 287.529 149.248 290.239C152.693 292.979 157.378 294.528 163.477 295.741C165.902 295.583 168.31 295.055 170.592 294.212C174.208 292.875 177.485 290.76 179.988 288.088L179.993 288.094C182.399 285.525 184.071 282.435 184.592 279.043C184.977 276.542 184.736 273.852 183.704 271.055C181.884 266.127 178.421 263.489 174.737 262.609C172.843 262.156 170.88 262.152 169.039 262.528C167.233 262.897 165.569 263.629 164.233 264.656C162.208 266.216 160.951 268.504 161.231 271.241C161.498 273.847 163.119 275.655 164.951 276.352C166.225 276.836 168.435 277.301 169.732 276.429C173.17 274.407 169.75 269.689 172.953 269.411C175.28 271.379 173.607 284.288 162.508 281.889C158.609 280.407 155.335 277.197 154.793 271.9C154.26 266.686 156.559 262.4 160.279 259.537C162.399 257.905 164.984 256.756 167.746 256.191C170.472 255.635 173.395 255.644 176.232 256.323C181.862 257.668 187.112 261.584 189.787 268.824C191.221 272.705 191.548 276.475 191.005 280.007C190.277 284.741 187.986 289.005 184.701 292.512V292.525C181.511 295.931 177.367 298.616 172.822 300.295C168.011 302.072 162.724 302.734 157.613 301.949C147.488 300.391 138.535 294.851 131.191 287.409C122.636 278.741 116.245 267.447 112.77 256.948C109.249 246.308 108.027 234.575 109.127 223.079C110.206 211.807 113.52 200.759 119.09 191.188C120.345 189.031 121.83 186.853 123.507 184.715C129.408 177.186 137.664 170.241 146.637 166.431C155.976 162.464 166.098 161.82 175.318 167.184C176.507 167.876 177.691 168.68 178.864 169.6C182.656 172.573 185.795 176.965 187.527 181.74C189.168 186.267 189.576 191.195 188.14 195.702C186.24 201.662 182.339 205.727 177.869 208.014C174.921 209.523 171.72 210.253 168.678 210.24C165.533 210.227 162.522 209.42 160.075 207.859C157.261 206.064 155.209 203.33 154.505 199.707C153.368 193.858 156.03 190.634 160.02 188.895C169.792 184.187 176.813 195.007 162.606 194.827C162.06 194.836 161.652 194.929 161.353 195.09C162.139 195.285 163.137 195.859 164.336 196.952C165.782 198.268 168.381 198.272 170.195 197.807C171.442 197.487 172.733 196.903 173.661 196.1C174.588 195.296 175.149 194.274 175.494 193.269C175.838 192.265 175.967 191.279 176.03 190.785C176.052 190.613 176.072 190.44 176.089 190.268C172.808 173.586 154.926 170.128 143.476 185.164C137.251 192.435 138.182 200.453 140.609 208.603C142.843 216.113 148.186 221.855 154.865 225.511C162.25 229.552 171.232 231.06 179.513 229.626C185.867 228.382 191.743 224.707 196.626 219.817C202.23 214.203 206.488 207.041 208.677 200.091C212.127 189.136 211.733 178.686 208.302 169.3C204.627 159.247 197.468 150.35 187.805 143.297C181.76 138.885 174.48 135.786 166.815 133.962C158.624 132.013 150.04 131.537 142.081 132.48C130.588 133.841 119.293 138.627 109.075 145.361C97.4345 153.032 87.2058 163.215 79.6547 173.766C69.9447 187.333 64.3987 199.297 60.8529 211.863C57.2749 224.539 55.4674 239.898 53.7076 256.176C57.489 266.112 62.0851 274.581 67.9261 283.436ZM73.1743 237.708C81.4593 230.142 102.785 210.784 103.236 205.232C103.391 203.314 102.532 199.518 101.633 196.107L67.5085 227.756C64.4425 230.874 69.6722 234.205 71.4232 235.957L73.1743 237.708ZM101.074 187.598C101.177 187.498 101.288 187.404 101.405 187.318L114.684 177.088C116.132 175.972 118.209 176.241 119.325 177.689C120.44 179.137 120.172 181.215 118.723 182.33L107.168 191.232C108.594 196.193 110.572 203.245 109.558 207.517C107.459 216.37 82.6165 237.903 75.3565 244.69L75.337 244.708L75.3273 244.717C75.3107 244.732 75.2942 244.748 75.2767 244.763L75.2679 244.771L75.2114 244.82L75.2056 244.824L75.1462 244.873L75.1394 244.878C75.0985 244.911 75.0577 244.943 75.0158 244.973L75.0012 244.983L74.9447 245.022L74.9389 245.027C74.9175 245.042 74.8961 245.056 74.8737 245.07L74.8727 245.071C74.8503 245.086 74.827 245.1 74.8046 245.114L74.8017 245.116L74.7403 245.152L74.7199 245.165L74.6664 245.194L74.6547 245.201L74.5934 245.233L74.5807 245.239L74.5243 245.268L74.5038 245.277L74.4483 245.303L74.4318 245.311L74.3763 245.335L74.3559 245.344L74.3043 245.365L74.2722 245.377L74.2332 245.392L74.1943 245.406L74.1583 245.419L74.1155 245.433L74.0824 245.444L74.0425 245.457L74.0055 245.467L73.9607 245.48L73.9296 245.489L73.8838 245.5L73.8536 245.508L73.8089 245.519L73.7709 245.527L73.7329 245.534L73.696 245.542L73.6444 245.551L73.622 245.555L73.5675 245.564L73.5402 245.567L73.4964 245.573L73.4565 245.578L73.4186 245.582L73.3777 245.586L73.3378 245.59L73.2998 245.592L73.2638 245.595L73.2132 245.597L73.1879 245.598L73.1382 245.6H73.1013H73.0633H73.0195L72.9815 245.599L72.9475 245.598L72.8949 245.595L72.8716 245.594L72.817 245.59L72.7937 245.588L72.7363 245.582L72.7168 245.58L72.6564 245.573L72.637 245.57L72.5805 245.563L72.5562 245.559L72.4988 245.549L72.4842 245.546L72.416 245.533L72.4102 245.532L72.3372 245.516H72.3333L72.2681 245.499L72.2447 245.493L72.1844 245.477L72.1776 245.476L72.1094 245.456L72.0958 245.452L72.0345 245.432L72.0199 245.427L71.9586 245.406L71.944 245.4L71.8797 245.377L71.8739 245.374L71.8116 245.349L71.7882 245.34L71.7347 245.316L71.7201 245.31L71.6646 245.284L71.6403 245.273L71.5916 245.248L71.5702 245.238L71.5215 245.212L71.4904 245.196L71.4534 245.175L71.4154 245.154L71.3853 245.135L71.3454 245.111L71.3142 245.092L71.2763 245.067L71.2451 245.047L71.2062 245.021L71.1789 245.002L71.1361 244.971L71.1127 244.954L71.0689 244.921L71.0446 244.903L71.0028 244.87L70.9823 244.853L70.9327 244.811L70.92 244.8L70.8743 244.761L70.8529 244.741L70.8178 244.709L70.7886 244.681L70.7594 244.653L70.737 244.63L66.7435 240.637C62.3878 236.281 56.7162 231.262 61.7318 224.335C62.7625 222.912 97.3294 190.894 101.074 187.598ZM152.197 185.072C152.737 186.835 153.352 187.41 153.903 189.317C151.382 189.394 150.637 188.483 149.02 186.549C148.612 185.671 148.993 184.629 149.871 184.221C150.748 183.814 151.79 184.194 152.197 185.072ZM156.318 182.105C156.515 183.744 157.051 184.325 157.375 186.163C154.87 186.077 154.288 185.201 152.954 183.087C152.684 182.159 153.216 181.186 154.145 180.915C155.073 180.643 156.047 181.177 156.318 182.105ZM149.158 189.709C149.523 192.04 149.982 191.982 150.582 193.828C148.341 194.666 146.876 192.475 145.819 190.77C145.526 189.848 146.036 188.863 146.958 188.57C147.88 188.277 148.865 188.787 149.158 189.709ZM146.743 194.376C147.667 197.052 148.373 197.442 149.984 199.67C146.409 199.777 145.487 198.517 143.475 195.64C143.127 194.738 143.574 193.724 144.477 193.375C145.379 193.025 146.393 193.474 146.743 194.376ZM145.315 199.638C145.83 202.833 146.651 202.572 149.52 203.36C146.122 206.291 143.419 204.07 141.922 200.512C141.68 199.576 142.245 198.62 143.181 198.378C144.118 198.137 145.073 198.702 145.315 199.638ZM152.983 204.878C152.913 207.16 151.327 208.964 149.163 209.742H149.14C149.121 209.693 149.133 209.716 149.107 209.673L149.09 209.68C149.276 211.515 151.89 211.164 153.363 210.028C154.041 209.507 154.266 209.179 155.009 208.665C155.246 211.3 151.941 213.793 149.417 212.941C142.326 210.549 149.607 206.079 149.486 205.09C149.428 204.124 150.164 203.294 151.129 203.235C152.095 203.177 152.925 203.913 152.983 204.878ZM156.496 220.452C146.706 215.369 156.683 214.477 158.1 211.466L158.349 211.031C160.314 212.861 157.071 215.039 155.588 216.309C156.345 216.598 157.72 217.172 157.79 217.196C158.689 217.553 159.128 218.572 158.771 219.471C158.414 220.37 157.395 220.809 156.496 220.452ZM155.132 216.736C155.088 216.783 155.05 216.828 155.019 216.87C155.073 216.844 155.109 216.797 155.132 216.736ZM176.653 215.901C171.52 218.692 178.698 224.115 180.152 220.069C180.935 217.892 175.549 215.577 179.639 211.777L179.64 212.874C179.464 217.541 185.162 217.693 182.156 222.454C177.386 230.011 164.129 218.814 174.443 211.786C175.578 211.176 176.995 211.602 177.605 212.739C178.215 213.875 177.789 215.291 176.653 215.901ZM187.434 210.283C183.65 213.398 191.964 216.89 191.137 213.397C190.867 212.251 189.405 212.641 188.421 212.563C190.093 209.495 194.099 211.699 193.448 214.833C191.835 222.605 176.94 215.204 184.256 206.859C185.201 205.982 186.678 206.037 187.556 206.983C188.434 207.928 188.379 209.406 187.434 210.283ZM171.057 156.653C168.747 151.761 169.546 148.81 175.388 148.157C177.896 147.877 178.051 147.985 179.789 147.609C175.298 143.97 161.746 144.034 166.673 153.906C168.282 157.131 170.606 158.619 173.474 160.496C168.925 160.244 165.365 157.098 163.629 152.993C158.367 140.554 179.662 138.444 184.49 146.363C187.795 151.785 178.465 152.714 175.17 153.173C175.297 153.47 175.439 153.705 175.664 154.124C176.363 155.397 175.898 156.994 174.626 157.692C173.353 158.391 171.755 157.926 171.057 156.653ZM186.045 158.887C192.206 158.059 192.214 162.487 194.56 167.514L194.922 168.523C191.038 169.152 190.576 165.065 187.981 163.552L187.939 163.569C187.917 163.627 187.927 163.617 187.928 163.68C187.771 163.836 187.879 163.743 187.571 163.916C186.182 164.337 184.715 163.553 184.294 162.164C183.872 160.776 184.656 159.308 186.045 158.887ZM195.483 167.191C194.621 162.117 191.155 152.444 184.382 156.801C179.042 160.236 186.263 167.507 189.523 169.336L192.307 170.8C183.106 171.746 173.425 158.06 183.954 152.734C193.266 148.023 198.932 158.913 200.691 166.483C200.887 167.921 199.879 169.246 198.441 169.44C197.003 169.636 195.679 168.629 195.483 167.191ZM192.257 180.033C187.259 169.234 209.022 166.825 206.633 181.525L205.32 185.214L204.836 181.501C202.919 170.606 194.654 175.689 196.223 177.565C196.905 178.66 196.569 180.1 195.474 180.782C194.379 181.464 192.939 181.128 192.257 180.033ZM198.91 177.475C201.461 177.742 204 179.358 204.182 182.245L203.709 184.499C201.956 183.174 200.886 181.51 199.19 182.137C197.903 182.215 196.796 181.234 196.719 179.946C196.642 178.659 197.622 177.552 198.91 177.475ZM201.178 197.868C202.272 199.426 203.62 201.457 202.545 203.527C200.227 207.991 195.744 201.759 193.889 198.904C194.266 199.674 194.204 200.623 193.648 201.351C190.63 205.288 193.422 210.224 198.086 206.234L199.398 205.149C198.64 215.391 183.708 209.577 189.935 198.517C190.718 197.492 192.183 197.294 193.209 198.077C193.356 198.19 193.487 198.317 193.6 198.454C193.421 198.171 193.279 197.944 193.186 197.797C192.582 196.658 193.015 195.243 194.154 194.639C195.294 194.034 196.708 194.469 197.313 195.607C197.602 196.285 199.919 200.69 200.438 201.73C200.815 200.781 201.086 198.282 201.178 197.868ZM192.603 187.055C201.427 178.734 211.169 192.768 201.178 197.868L201.87 196.078C204.599 189.287 199.001 186.537 196.279 189.937C195.483 190.952 194.015 191.13 193 190.334C191.985 189.538 191.807 188.07 192.603 187.055ZM201.04 191.051C201.997 193.676 202.131 194.641 200.157 196.588C199.277 195.886 197.839 194.081 197.443 194.033C196.62 193.04 196.758 191.568 197.751 190.745C198.744 189.921 200.216 190.058 201.04 191.051ZM200.308 201.987C200.255 202.003 200.203 202.03 200.108 202.088C200.177 202.115 200.244 202.076 200.308 201.987ZM150.792 144.273C152.826 144.673 152.717 144.251 154.169 143.877C154.324 143.589 154.171 140.816 152.207 140.757C146.508 140.587 136.423 147.525 145.271 153.527C147.468 155.018 152.235 157.072 154.671 158.184L149.307 157.967C137.759 155.789 133.418 146.014 143.289 138.763C160.647 126.012 167.845 153.046 149.114 150.675C147.345 150.211 146.288 148.402 146.751 146.634C147.216 144.867 149.024 143.81 150.792 144.273ZM192.622 254.046C188.755 250.8 188.947 253.728 188.385 257.522C183.774 251.771 188.643 247.138 195.055 250.761C195.962 251.433 196.153 252.713 195.481 253.62C194.809 254.527 193.53 254.718 192.622 254.046ZM205.012 270.822C200.411 267.092 200.518 267.191 196.17 270.487L196.637 268.022C198.784 263.173 204.073 265.627 207.323 267.45C208.253 268.088 208.492 269.361 207.853 270.291C207.216 271.223 205.943 271.461 205.012 270.822ZM203.058 264.885C198.295 261.888 197.733 263.625 194.308 267.156C194.054 260.116 199.437 259.033 205.174 261.387C206.14 261.971 206.45 263.228 205.866 264.194C205.282 265.16 204.025 265.469 203.058 264.885ZM198.959 258.881C194.757 257.048 193.919 258.98 191.66 262.219C190.163 255.956 195.203 253.93 200.479 255.087C201.527 255.506 202.036 256.697 201.616 257.744C201.196 258.792 200.007 259.301 198.959 258.881ZM172.902 309.605C172.111 310.149 170.616 311.044 169.778 311.97C171.091 312.378 173.526 312.452 174.278 312.503C175.406 312.538 176.293 313.482 176.258 314.61C176.223 315.738 175.28 316.624 174.151 316.589C172.142 316.45 169.786 316.427 167.88 315.617C161.67 312.978 167.871 308.116 170.722 306.147C171.677 305.545 172.94 305.831 173.541 306.786C174.143 307.741 173.857 309.002 172.902 309.605ZM205.296 276.578C200.828 270.878 201.998 271.48 196.765 275.202C199.279 266.482 203.34 269.2 208.318 273.825C209.079 274.659 209.018 275.952 208.184 276.712C207.349 277.472 206.056 277.413 205.296 276.578ZM204.498 282.368C200.513 276.952 201.519 277.312 195.927 280.845C199.079 272.387 202.809 274.969 207.569 279.67C208.314 280.519 208.231 281.809 207.382 282.555C206.534 283.3 205.243 283.216 204.498 282.368ZM204.229 290.316C200.863 281.923 199.904 283.605 193.832 287.505C194.588 285.458 194.387 285.36 195.779 283.833C200.868 278.247 205.242 283.671 207.903 288.523C208.397 289.538 207.977 290.761 206.962 291.257C205.948 291.752 204.724 291.331 204.229 290.316ZM190.248 294.534C192.586 291.195 199.32 282.932 203.344 289.4C207.176 295.562 201.232 304.495 198.116 299.236C197.367 297.973 197.382 296.717 197.28 295.326C199.44 301.28 201.995 299.588 201.029 294.743C199.657 287.854 196.609 292.562 193.692 296.736C193.084 297.687 191.819 297.966 190.868 297.357C189.918 296.748 189.64 295.485 190.248 294.534ZM192.324 306.015C193.038 305.911 193.74 309.605 194.442 307.798C195.242 305.737 194.08 303.852 193.085 302.146C192.597 301.128 193.026 299.908 194.044 299.419C195.063 298.931 196.283 299.362 196.771 300.38C201.444 312.375 189.492 312.732 192.324 306.015ZM190.041 300.485C182.218 303.979 193.319 303.658 192.324 306.015C191.888 306.078 188.825 305.926 188.798 305.925C182.174 305.687 183.04 300.243 188.259 296.807C189.275 296.314 190.498 296.738 190.989 297.755C191.482 298.771 191.057 299.993 190.041 300.485ZM185.782 310.28C174.648 314.66 173.99 306.091 180.997 301.83C182.043 301.407 183.235 301.914 183.656 302.961C184.078 304.008 183.572 305.199 182.525 305.621C181.256 306.151 177.776 308.5 180.723 309.318L185.782 310.28ZM182.206 315.928C183.969 315.046 188.199 313.146 186.396 311.059L185.782 310.28C190.644 308.872 190.107 314.886 184.242 319.472C183.263 320.035 182.014 319.697 181.451 318.718C180.889 317.739 181.227 316.49 182.206 315.928ZM159.824 324.255C153.859 327.33 151.336 328.467 144.553 328.223C149.499 325.394 152.539 324.422 157.386 320.975C158.292 320.302 159.572 320.491 160.246 321.396C160.919 322.302 160.73 323.582 159.824 324.255ZM166.373 320.327C165.193 323.943 164.168 325.081 160.319 325.74C161.288 323.292 162.302 322.384 162.323 319.772C162.476 318.654 163.507 317.871 164.626 318.025C165.744 318.178 166.526 319.21 166.373 320.327ZM169.479 321.468C172.406 320.567 174.806 318.465 178.093 316.84C177.468 322.503 176.414 323.877 171.712 327.282C170.107 327.9 168.306 327.098 167.689 325.493C167.071 323.887 167.873 322.085 169.479 321.468ZM144.268 314.35C143.967 313.298 143.776 312.365 143.711 311.525C143.406 311.895 143.105 312.316 142.797 312.795C142.257 313.787 141.016 314.153 140.025 313.614C139.034 313.075 138.667 311.834 139.207 310.842L140.146 309.38C142.368 306.423 149.602 302.929 151.084 305.994C152.99 309.938 146.515 307.382 148.149 313.068C148.503 314.14 147.921 315.296 146.85 315.649C145.778 316.004 144.622 315.421 144.268 314.35ZM150.057 323.092C143.889 322.842 141.551 321.528 138.785 315.832C143.514 318.489 144.456 319.691 149.682 319.022C150.805 318.919 151.801 319.746 151.904 320.87C152.008 321.994 151.181 322.989 150.057 323.092ZM124.271 304.451C125.53 311.723 139.747 314.51 135.583 318.55C134.65 319.456 131.757 318.418 129.65 318.562C127.954 318.679 126.68 318.812 125.131 319.356C124.064 319.725 122.9 319.158 122.532 318.091C122.163 317.024 122.729 315.86 123.796 315.492C125.006 315.067 126.304 314.743 127.63 314.558C124.361 312.567 121.211 310.651 120.201 304.823C120.099 303.7 120.926 302.705 122.05 302.602C123.174 302.499 124.169 303.327 124.271 304.451ZM113.541 284.143C115.611 285.007 116.658 281.812 112.58 280.12C110.247 279.151 108.505 277.765 107.809 277.458C105.947 276.635 104.946 281.657 106.26 284.721C109.147 291.452 114.615 295.253 116.93 303.85L117.859 309.615C117.915 310.743 117.046 311.701 115.919 311.758C114.792 311.813 113.832 310.945 113.776 309.818L112.991 304.945C110.472 295.599 97.4121 285.465 102.493 276.633C106.106 270.352 110.512 274.832 114.078 276.316C123.41 280.203 119.214 291.005 111.477 287.672C110.502 287.101 110.175 285.85 110.745 284.875C111.315 283.901 112.567 283.573 113.541 284.143ZM118.959 288.593C123.062 288.492 129.199 289.763 127.746 295.141C126.915 298.218 123.333 299.158 120.671 299.76C119.555 299.934 118.51 299.171 118.336 298.055C118.162 296.94 118.925 295.895 120.04 295.72C125.613 294.457 124.682 292.512 119.423 292.653C118.301 292.782 117.289 291.976 117.16 290.855C117.033 289.733 117.837 288.72 118.959 288.593ZM129.04 301.016C131.048 300.313 140.393 297.41 139.158 302.992C138.769 304.755 136.622 306.807 135.401 308.118C134.652 308.962 133.36 309.039 132.515 308.291C131.67 307.541 131.594 306.25 132.342 305.405C133.242 304.438 133.625 304.056 133.866 303.796C132.821 304.016 131.792 304.372 130.805 304.703C129.787 305.191 128.567 304.761 128.079 303.742C127.591 302.724 128.021 301.504 129.04 301.016ZM160.04 310.934C159.05 311.187 154.497 312.409 157.231 314.384C157.933 314.891 158.687 315.013 159.514 315.134C160.638 315.238 161.465 316.234 161.361 317.358C161.257 318.482 160.262 319.309 159.138 319.206C156.561 318.823 153.988 317.943 152.895 315.307C150.792 310.233 155.151 307.981 159.193 306.935C160.298 306.701 161.382 307.407 161.616 308.512C161.85 309.616 161.144 310.701 160.04 310.934ZM187.192 249.196C181.492 246.618 183.818 250.803 185.054 255.252L182.142 252.5C178.315 247.258 182.32 243.651 188.859 245.462C189.889 245.923 190.352 247.132 189.892 248.162C189.432 249.193 188.223 249.655 187.192 249.196ZM155.913 250.579C154.431 253.283 159.148 253.733 161.685 254.504L158.991 255.186C156.356 255.348 154.124 254.591 153.29 252.874C153.32 253.064 153.312 253.264 153.262 253.463C152.302 256.392 154.436 256.054 157.018 256.846C154.421 258.658 151.994 258.071 150.936 256.076C151.013 256.449 150.945 256.853 150.714 257.194C148.525 259.958 152.1 260.444 153.564 260.981C150.063 263.784 146.121 259.868 148.299 255.553C148.752 254.886 149.66 254.712 150.327 255.165C150.47 255.263 150.592 255.383 150.688 255.515C150.407 254.736 150.305 253.797 150.433 252.738C150.633 251.957 151.429 251.486 152.21 251.686C152.583 251.782 152.886 252.014 153.079 252.316C152.842 251.477 152.895 250.452 153.319 249.238C153.689 248.522 154.57 248.241 155.286 248.612C156.003 248.982 156.283 249.863 155.913 250.579ZM159.794 247.936C157.625 250.098 161.452 250.479 165.696 252.531C161.456 252.548 153.286 251.803 157.691 245.911C158.249 245.331 159.173 245.312 159.754 245.872C160.335 246.431 160.354 247.354 159.794 247.936ZM167.987 245.389C162.769 247.596 164.358 247.174 169.539 251.504C161.523 251.242 158.245 246.734 166.296 241.667C167.324 241.2 168.535 241.655 169.003 242.683C169.47 243.71 169.015 244.922 167.987 245.389ZM178.855 245.029C170.303 245.182 174.191 246.528 178.459 252.205C176.139 251.806 174.917 251.274 173.055 249.591C167.262 244.359 173.199 241.744 178.664 240.946C179.792 240.894 180.749 241.765 180.801 242.893C180.854 244.02 179.983 244.977 178.855 245.029ZM179.361 271.846C178.059 271.781 178.263 271.993 177.161 272.723C175.708 271.15 177.149 269.78 178.637 269.018C179.417 268.817 180.212 269.288 180.413 270.07C180.613 270.851 180.142 271.646 179.361 271.846ZM177.248 276.594C175.262 275.928 178.824 273.475 179.495 273.12C180.281 272.937 181.065 273.424 181.248 274.21C181.432 274.994 180.943 275.78 180.159 275.963C178.172 276.025 178.719 276.02 177.248 276.594ZM178.978 280.325C178.568 279.966 175.518 277.27 177.248 276.594C178.373 276.972 178.54 277.246 180.249 277.697C180.976 278.048 181.279 278.921 180.928 279.647C180.576 280.373 179.704 280.676 178.978 280.325ZM176.909 282.579C176.458 281.88 175.393 281.106 174.712 280.448C176.461 279.39 176.889 279.39 178.873 280.419C179.47 280.961 179.514 281.884 178.971 282.481C178.428 283.078 177.506 283.121 176.909 282.579ZM175.031 285.739C174.278 284.691 173.443 284.316 172.38 283.369C174.409 282.272 175.032 282.495 177.092 283.67C177.663 284.239 177.665 285.164 177.096 285.735C176.527 286.306 175.603 286.308 175.031 285.739ZM172.149 288.106C171.383 286.591 170.717 286.555 169.616 285.477C171.358 284.033 173.05 285.156 174.547 286.439C175.007 287.1 174.844 288.011 174.182 288.471C173.52 288.931 172.61 288.768 172.149 288.106ZM168.794 289.745C168.478 288.388 167.521 287.694 166.956 286.386C168.84 285.577 170.575 287.466 171.576 288.858C171.82 289.627 171.396 290.448 170.628 290.693C169.86 290.937 169.039 290.513 168.794 289.745ZM165.15 290.871C165.344 288.641 164.926 288.71 164.406 286.799C166.835 286.685 167.542 288.712 168.069 290.778C168.094 291.584 167.462 292.258 166.656 292.283C165.85 292.309 165.176 291.677 165.15 290.871ZM161.016 289.93C162.335 288.677 161.855 287.57 161.993 285.913C164.562 287.101 164.498 289.527 163.297 291.754C162.793 292.384 161.874 292.486 161.245 291.982C160.615 291.479 160.513 290.56 161.016 289.93ZM157.168 288.697C158.888 288.55 158.827 286.575 159.36 285.094C161.587 287.285 160.648 290.356 157.909 291.521C157.129 291.726 156.331 291.26 156.126 290.479C155.922 289.699 156.388 288.901 157.168 288.697ZM153.533 286.62C155.936 286.563 155.695 285.563 157.36 283.91C158.356 286.904 156.662 288.676 153.894 289.517C153.093 289.617 152.364 289.048 152.264 288.248C152.165 287.448 152.733 286.719 153.533 286.62ZM150.428 283.304C152.142 283.224 153.226 282.001 154.631 281.187C154.936 283.767 153.242 285.346 150.965 286.175C150.173 286.323 149.409 285.801 149.261 285.008C149.114 284.215 149.635 283.453 150.428 283.304ZM147.604 278.975C149.578 279.98 149.908 279.033 151.718 277.822C151.924 281.223 149.595 282.313 146.575 281.707C145.82 281.423 145.439 280.581 145.722 279.827C146.007 279.072 146.849 278.691 147.604 278.975ZM145.443 273.615C146.951 276.327 149.247 274.743 150.986 274.055C150.96 277.335 145.923 278.567 143.008 275.226C142.563 274.553 142.748 273.648 143.421 273.203C144.093 272.758 144.998 272.942 145.443 273.615ZM146.42 266.848C148.037 272.25 148.079 272.017 151.764 271.626C151.387 272.361 151.493 272.381 150.833 272.839C147.196 275.365 144.559 269.563 143.533 267.282C143.414 266.485 143.963 265.742 144.76 265.622C145.557 265.502 146.301 266.051 146.42 266.848ZM147.539 261.218C147.359 265.595 148.06 264.792 151.8 266.578C146.749 268.046 145.209 265.952 144.62 261.253C144.61 260.447 145.255 259.786 146.061 259.776C146.868 259.766 147.529 260.412 147.539 261.218ZM90.5949 253.409C92.1406 254.992 95.0265 252.2 94.9263 250.958C95.0586 250.948 95.1998 250.937 95.3516 250.924C98.7427 250.629 100.238 244.416 96.7912 243.832C94.4357 243.434 92.9192 246.968 92.9319 249.186C92.9387 249.365 92.9475 249.528 92.9592 249.676C90.5044 249.053 87.0471 249.592 90.5949 253.409ZM78.1266 263.215C80.6222 269.549 83.4925 263.786 83.22 262.548C83.1733 262.333 83.0944 262.133 82.9903 261.948C86.0407 261.78 86.943 260.223 86.3609 259.069C89.061 259.009 93.3125 254.353 88.1655 253.282C85.9473 252.822 85.4139 253.397 84.6839 255.457C84.4921 256.548 84.5272 257.351 84.7189 257.919C84.2294 257.805 83.6531 257.782 83.001 257.886C81.9274 258.057 81.5605 259.786 82.0092 260.967C80.1511 259.833 77.014 260.358 78.1266 263.215ZM74.279 266.306C71.7026 266.127 71.1254 267.982 72.5834 269.918C76.4865 275.1 80.3243 266.728 74.279 266.306ZM68.3621 271.693C67.599 271.899 65.7117 274.489 67.0656 276.046C71.2811 280.895 74.3004 270.093 68.3621 271.693ZM71.3337 230.726C74.2731 236.232 78.9266 228.381 73.6901 227.115C71.3347 226.545 70.6339 228.625 71.3337 230.726ZM97.7003 205.835C100.685 212.446 102.779 203.946 101.538 201.914C100.964 200.972 96.1974 202.326 97.7003 205.835ZM94.5603 213.33C102.102 214.86 96.6461 201.85 92.9144 208.786C91.7775 210.899 92.4472 212.348 94.5603 213.33ZM87.8336 216.647C90.228 221.062 93.4702 217.247 92.3635 214.452C90.5054 209.759 86.4534 213.622 87.8336 216.647ZM84.8776 221.247C86.14 221.643 87.5669 220.247 87.7304 219.896C88.2735 218.721 86.433 214.996 84.7355 216.668C84.2595 217.136 83.5714 218.531 83.5918 219.548C82.2418 219.322 78.512 221.983 77.7012 222.964C75.664 225.19 79.206 228.08 80.0528 227.978C81.0115 227.864 85.3282 224.032 84.8776 221.247ZM64.9418 216.267C64.2079 212.802 63.8517 211.624 66.0076 208.92C67.3771 210.927 67.8307 212.31 69.168 214.275C69.718 215.442 69.2177 216.834 68.0506 217.385C66.8846 217.935 65.4927 217.434 64.9418 216.267ZM74.8241 207.663C68.002 206.155 68.4322 198.598 71.5751 194.064L73.986 191.557C73.9305 193.465 72.3391 202.528 75.2728 202.232C76.7727 202.355 77.8881 203.671 77.7645 205.171C77.6409 206.671 76.324 207.787 74.8241 207.663ZM86.5984 184.307C80.6952 183.457 81.7941 191.704 87.0919 188.569C88.9374 187.477 88.9208 185.712 88.404 184.056C87.857 184.299 87.236 184.398 86.5984 184.307ZM90.0927 182.363C91.9041 184.893 92.454 189.977 88.2842 192.4C76.54 199.227 71.2354 177.399 87.528 177.755C89.3374 178.011 90.5969 179.686 90.3399 181.495C90.2961 181.802 90.2114 182.093 90.0927 182.363ZM99.0318 172.392C99.6041 163.474 91.3979 170.255 94.6323 174.446C97.6156 178.312 107.529 176.806 111.78 176.843C109.206 178.291 109.663 178.252 106.569 178.991C87.7139 183.49 85.6747 167.491 95.229 163.848C101.856 161.32 104.43 167.023 104.462 172.859C104.333 174.359 103.014 175.47 101.514 175.341C100.015 175.212 98.9033 173.892 99.0318 172.392ZM132.275 144.761C132.671 149.97 132.535 155.734 126.267 156.777C117.019 158.317 123.356 162.503 129.816 162.99C150.703 164.566 116.98 161.627 138.893 163.586C134.249 165.015 134.623 165.188 129.797 165.536C124.347 165.931 115.221 163.234 118.236 156.611C121.491 149.455 127.873 156.577 127.146 147.398C120.893 147.898 115.685 151.766 114.039 158.094C111.396 168.242 122.69 169.491 129.656 170.67L124.54 171.558C112.145 172.105 106.191 161.898 112.443 151.374C116.431 144.663 121.763 142.254 129.078 141.966C129.576 141.878 130.067 141.931 130.51 142.099L130.535 142.107C130.555 142.115 130.575 142.123 130.595 142.132C130.817 142.223 131.023 142.343 131.21 142.486L131.219 142.494L131.248 142.517L131.273 142.537L131.287 142.548C131.645 142.843 131.93 143.231 132.102 143.685L132.107 143.699L132.109 143.706L132.118 143.731L132.131 143.767L132.136 143.779C132.24 144.088 132.29 144.42 132.275 144.761ZM160.957 181.135C163.629 181.066 164.067 181.796 168.167 184.414C162.602 184.585 164.987 184.509 161.012 184.638C160.045 184.653 159.249 183.882 159.233 182.914C159.218 181.947 159.99 181.15 160.957 181.135ZM164.127 216.988L164.161 216.987L164.158 216.978C161.487 216.565 161.228 221.955 165.389 222.063C166.63 222.097 167.709 219.045 165.887 216.553C165.441 216.998 164.771 217.187 164.127 216.988ZM166.397 215.424C168.969 217.013 169.978 224.532 165.028 224.406C156.53 224.19 158.129 212.172 165.169 213.642C165.956 213.887 166.447 214.636 166.397 215.424ZM64.6343 252.635C60.3049 247.046 59.3607 245.752 59.4386 238.742C63.2726 242.133 65.0246 244.625 69.0561 247.71C70.4158 248.93 70.5287 251.023 69.3082 252.383C68.0867 253.742 65.995 253.855 64.6343 252.635ZM89.8737 295.359C92.7947 298.185 93.6862 298.878 93.6989 302.894C91.1186 301.591 90.0392 300.547 87.3907 299.317C86.2987 298.632 85.9677 297.189 86.6539 296.097C87.3391 295.004 88.7806 294.673 89.8737 295.359ZM201.007 344.712C206.485 344.171 212.239 344.763 215.677 338.484L216.437 336.734C217.129 335.16 218.967 334.443 220.541 335.134C222.116 335.826 222.833 337.664 222.141 339.239L220.51 341.8C215.805 347.834 203.269 350.142 201.007 344.712ZM206.159 338.717C205.649 334.133 198.488 339.115 199.995 342.628L200.593 343.719L201.007 344.712C199.48 344.863 199.691 345.097 198.302 343.921C191.301 337.99 207.963 323.541 212.294 337.643C212.591 339.337 211.458 340.951 209.764 341.248C208.07 341.545 206.455 340.412 206.159 338.717Z" fill="black"/>
<path fill-rule="evenodd" clip-rule="evenodd" d="M307.761 168.185H226.016C227.267 171.509 228.908 174.622 230.874 177.481H302.903C304.869 174.622 306.51 171.509 307.761 168.185ZM234.762 182.349C236.422 184.147 238.23 185.802 240.163 187.297H293.614C295.547 185.802 297.355 184.147 299.015 182.349H234.762ZM248.059 192.164C253.799 194.91 260.2 196.433 266.888 196.433C273.577 196.433 279.978 194.91 285.718 192.164H248.059Z" fill="black"/>
<path fill-rule="evenodd" clip-rule="evenodd" d="M265.052 162.838C265.85 163.409 267.332 163.409 268.166 163.152C269.001 162.894 269.186 162.38 269.278 152.709C269.371 143.038 269.371 124.212 269.04 113.014C268.708 101.817 268.044 98.249 267.552 96.4386C267.061 94.6282 266.742 94.5746 266.235 95.4798C265.729 96.385 265.037 98.249 264.638 100.007C264.239 101.764 264.132 103.414 264.078 113.393C264.026 123.371 264.026 141.677 264.082 151.401C264.14 161.125 264.254 162.267 265.052 162.838Z" fill="black"/>
<path fill-rule="evenodd" clip-rule="evenodd" d="M251.688 318.633C254.808 318.633 257.338 316.246 257.338 313.301C257.338 310.354 254.808 307.967 251.688 307.967C248.568 307.967 246.039 310.354 246.039 313.301C246.039 316.246 248.568 318.633 251.688 318.633ZM251.688 324.222C254.981 324.222 257.947 322.975 260.082 320.96C262.163 318.995 263.451 316.287 263.451 313.301C263.451 310.313 262.163 307.605 260.082 305.64C257.947 303.625 254.981 302.378 251.688 302.378C248.396 302.378 245.429 303.625 243.295 305.64C241.213 307.605 239.926 310.313 239.926 313.301C239.926 316.287 241.213 318.995 243.295 320.96C245.429 322.975 248.396 324.222 251.688 324.222ZM264.517 325.674C261.222 328.786 256.684 330.711 251.688 330.711C246.692 330.711 242.155 328.786 238.859 325.674C235.509 322.512 233.437 318.137 233.437 313.301C233.437 308.463 235.509 304.088 238.859 300.926C242.155 297.814 246.692 295.889 251.688 295.889C256.684 295.889 261.222 297.814 264.517 300.926C267.868 304.088 269.94 308.463 269.94 313.301C269.94 318.137 267.868 322.512 264.517 325.674ZM252.189 336.326C257.909 333.651 263.431 330.616 268.729 327.249C271.727 323.343 273.508 318.465 273.508 313.17C273.508 306.746 270.886 300.934 266.648 296.73C262.407 292.523 256.537 289.92 250.044 289.92C247.694 289.92 245.427 290.261 243.287 290.895C240.717 291.658 238.381 292.787 236.085 294.47C235.146 295.159 234.262 295.914 233.439 296.73C229.201 300.934 226.58 306.746 226.58 313.17C226.58 319.594 229.201 325.407 233.439 329.612C237.681 333.818 243.551 336.421 250.044 336.421C250.767 336.421 251.483 336.389 252.189 336.326Z" fill="black"/>
<path d="M336.748 220.767C336.518 222.457 336.267 224.14 335.982 225.811C333.289 227.928 330.528 230.15 328.058 232.238C322.842 236.647 319.003 240.402 315.01 244.306C314.201 245.097 313.385 245.897 312.549 246.707C310.06 249.124 307.446 251.614 304.892 253.925C302.284 256.286 299.617 258.581 296.997 260.631C294.426 262.643 291.902 264.413 289.432 265.973C286.986 267.518 284.599 268.851 282.28 270.005H282.267C279.924 271.17 277.683 272.141 275.405 273.002C273.065 273.887 270.656 274.677 268.041 275.452C266.64 275.868 264.984 276.333 263.286 276.811C259.083 277.992 254.614 279.251 250.3 280.845C247.104 282.027 244.02 283.381 240.99 284.818C236.369 286.275 232.229 288.816 228.877 292.142C223.448 297.526 220.091 304.962 220.091 313.17C220.091 321.379 223.449 328.814 228.877 334.199C232.047 337.344 235.921 339.787 240.242 341.276C235.634 339.742 231.286 337.668 227.392 334.838L227.391 334.837C227.206 334.703 227.022 334.566 226.84 334.429L226.838 334.428C226.655 334.29 226.473 334.15 226.293 334.009L226.291 334.008C226.111 333.867 225.931 333.723 225.753 333.578L225.751 333.577C225.573 333.433 225.395 333.286 225.218 333.138L225.217 333.137C220.265 328.969 216.185 323.384 213.434 315.869C213.336 315.601 213.24 315.329 213.145 315.056C213.05 314.783 212.957 314.507 212.866 314.229C212.774 313.95 212.685 313.669 212.597 313.386C212.51 313.103 212.423 312.817 212.339 312.529C212.255 312.24 212.171 311.949 212.091 311.655C212.01 311.362 211.931 311.066 211.854 310.767C211.776 310.468 211.702 310.166 211.629 309.863C211.555 309.558 211.484 309.251 211.414 308.942C211.344 308.633 211.275 308.321 211.21 308.006C211.144 307.692 211.08 307.375 211.017 307.055C210.955 306.735 210.895 306.412 210.837 306.086C211.573 304.37 212.348 302.533 213.399 301.165C215.652 298.724 217.904 296.285 219.96 294.141C222.135 291.873 224.211 289.794 226.087 288.096C227.933 286.425 229.671 285.042 231.414 283.848C233.118 282.681 234.81 281.715 236.603 280.847C238.444 279.956 240.385 279.168 242.392 278.465C244.446 277.746 246.57 277.113 248.725 276.551C251.099 275.933 253.455 275.41 255.815 274.885C258.137 274.369 260.467 273.851 262.38 273.369C264.727 272.777 267.065 272.111 269.415 271.312C271.771 270.511 274.128 269.578 276.507 268.455C278.867 267.341 281.234 266.042 283.619 264.587C285.943 263.168 288.319 261.572 290.748 259.828C293.165 258.094 295.576 256.256 298.099 254.218C300.722 252.1 303.422 249.815 306.324 247.261C309.524 244.443 313.885 240.46 317.956 236.74C319.72 235.127 321.409 233.582 324.353 230.931C326.99 228.557 329.125 226.684 331.02 225.126C332.965 223.527 334.779 222.144 336.748 220.767ZM333.93 235.769C325.713 269.895 306.009 299.438 279.219 319.923C279.727 317.754 279.997 315.493 279.997 313.17C279.997 304.962 276.639 297.526 271.211 292.142C267.833 288.792 263.659 286.238 258.997 284.786C261.036 284.171 263.066 283.6 265.035 283.046C266.633 282.597 268.192 282.159 269.866 281.662C272.642 280.839 275.2 280.001 277.685 279.061C280.232 278.097 282.676 277.043 285.157 275.809L285.154 275.804C287.655 274.559 290.233 273.12 292.88 271.449C295.505 269.79 298.205 267.894 300.976 265.727C303.697 263.597 306.486 261.196 309.226 258.716C312.019 256.187 314.645 253.691 317.06 251.346C317.896 250.534 318.712 249.736 319.522 248.944C323.415 245.137 327.16 241.474 332.241 237.18C332.789 236.717 333.353 236.245 333.93 235.769ZM337.993 207.125C337.911 208.888 337.796 210.642 337.656 212.389C336.19 213.33 334.647 214.352 333.13 215.411C330.965 216.921 329.001 218.417 326.915 220.132C324.752 221.91 322.574 223.816 320.019 226.116C319.083 226.959 316.397 229.413 313.594 231.974C310.019 235.242 306.186 238.745 302.041 242.394C299.076 245.003 296.449 247.232 294.045 249.174C291.54 251.196 289.223 252.967 286.971 254.582C284.73 256.19 282.494 257.69 280.248 259.062C278.061 260.396 275.896 261.585 273.745 262.6C271.613 263.606 269.481 264.449 267.337 265.178C265.187 265.909 263.012 266.527 260.807 267.082C258.425 267.684 256.421 268.13 254.422 268.574C251.944 269.124 249.472 269.674 247.103 270.291C244.77 270.9 242.475 271.582 240.264 272.356C238.005 273.146 235.833 274.028 233.79 275.017C231.7 276.028 229.735 277.151 227.763 278.5C225.832 279.823 223.873 281.386 221.753 283.305C220.422 284.51 219.062 285.822 217.682 287.208C218.061 284.808 218.266 282.365 218.283 279.889C220.449 278.427 222.56 277.01 224.373 275.836C226.906 274.195 229.403 272.644 231.828 271.275C236.703 268.522 241.789 266.212 244.334 265.057L246.148 264.234C246.423 264.25 246.699 264.264 246.974 264.274C253.93 264.505 261.212 262.157 267.173 257.174L267.548 256.85C269.031 255.571 270.357 254.184 271.526 252.715C276.152 250.938 280.774 249.146 285.292 247.056C287.657 245.963 289.999 244.778 292.338 243.484C294.666 242.194 296.93 240.825 299.147 239.361C301.353 237.902 303.554 236.32 305.72 234.639C307.93 232.926 310.052 231.154 312.058 229.352C314.945 226.757 317.73 223.971 320.304 221.396C321.216 220.484 322.101 219.598 322.958 218.755C324.574 217.166 326.049 215.762 327.389 214.562C328.704 213.383 329.982 212.319 331.247 211.365C332.459 210.45 333.596 209.692 334.703 209.015C335.852 208.311 336.923 207.71 337.993 207.125ZM149.172 172.386C156.748 169.168 164.857 168.587 172.074 172.786C173.036 173.347 173.975 173.982 174.885 174.696C177.737 176.931 180.115 180.278 181.444 183.945C182.632 187.219 182.955 190.693 181.981 193.749C180.661 197.891 177.986 200.697 174.929 202.261C172.921 203.288 170.754 203.785 168.704 203.777C168.552 203.776 168.403 203.772 168.256 203.767H168.248C158.954 203.429 157.247 194.066 161.355 195.09C161.412 195.105 161.533 195.139 161.592 195.159L161.657 195.18C161.72 195.202 161.785 195.228 161.851 195.254L161.907 195.278C161.976 195.307 162.046 195.337 162.117 195.371L162.173 195.398C162.247 195.435 162.323 195.475 162.401 195.518L162.442 195.54C162.525 195.586 162.609 195.634 162.694 195.687L162.727 195.707C162.816 195.762 162.906 195.822 162.998 195.883L163.023 195.9C163.12 195.966 163.219 196.037 163.32 196.112L163.331 196.119C163.434 196.195 163.539 196.276 163.646 196.362L163.655 196.368C163.763 196.455 163.873 196.547 163.986 196.642L163.99 196.646C164.103 196.742 164.219 196.844 164.337 196.951C165.782 198.268 168.381 198.272 170.195 197.807C171.442 197.487 172.733 196.903 173.661 196.1C174.587 195.296 175.149 194.273 175.494 193.269C175.838 192.265 175.967 191.279 176.03 190.785C176.044 190.685 176.055 190.586 176.066 190.486L176.068 190.47L176.069 190.461L176.085 190.316V190.307L176.086 190.3L176.087 190.292L176.088 190.284L176.09 190.268C176.114 190.016 176.135 189.764 176.149 189.513V189.503C176.163 189.278 176.172 189.052 176.175 188.826C176.178 188.695 176.179 188.562 176.179 188.431V188.411C176.179 188.323 176.178 188.234 176.176 188.146L176.174 188.009C176.172 187.925 176.169 187.841 176.166 187.756L176.164 187.706C176.159 187.592 176.153 187.475 176.146 187.361L176.143 187.32C176.138 187.234 176.132 187.149 176.126 187.064V187.062L176.114 186.927C176.107 186.846 176.1 186.766 176.092 186.685L176.085 186.616C176.075 186.52 176.065 186.426 176.053 186.33L176.041 186.225C176.031 186.15 176.021 186.074 176.011 185.998L176.009 185.987L175.991 185.854C175.979 185.777 175.967 185.7 175.956 185.623L175.942 185.541C175.929 185.462 175.917 185.382 175.903 185.303L175.876 185.154C175.863 185.087 175.85 185.02 175.838 184.953L175.804 184.789L175.767 184.618L175.732 184.459L175.692 184.285C175.677 184.222 175.662 184.159 175.645 184.096L175.604 183.93C175.589 183.868 175.572 183.805 175.554 183.742L175.511 183.585L175.464 183.418L175.416 183.258C175.397 183.196 175.378 183.135 175.359 183.074L175.311 182.921C175.29 182.854 175.267 182.787 175.245 182.72L175.207 182.608C175.183 182.54 175.159 182.471 175.134 182.403L175.079 182.25C175.056 182.188 175.033 182.126 175.009 182.064L174.956 181.925C174.93 181.861 174.905 181.797 174.879 181.733C173.195 177.581 169.929 174.18 165.386 172.799C160.994 171.699 156.816 171.868 153.003 173.003C148.273 174.411 144.151 177.302 140.908 181.091C137.731 184.802 135.396 189.385 134.175 194.263C132.858 199.521 132.821 205.154 134.398 210.454C137.155 219.713 143.661 226.748 151.773 231.188C154.417 232.634 157.234 233.805 160.147 234.684C154.825 236.559 149.975 239.508 145.952 243.281C141.059 247.869 137.395 253.687 135.597 260.28C134.042 265.982 133.886 272.224 135.541 278.703C136.074 280.789 136.686 282.686 137.383 284.413C136.848 283.911 136.322 283.397 135.803 282.871C127.984 274.948 122.127 264.581 118.929 254.919C115.68 245.101 114.553 234.281 115.566 223.687C116.557 213.331 119.593 203.194 124.692 194.432C125.815 192.502 127.13 190.572 128.601 188.694C133.883 181.957 141.229 175.76 149.172 172.386ZM158.985 126.027C183.451 82.4742 220.373 64.9319 269.751 73.3997C302.032 94.2933 325.815 127.657 334.519 166.766C332.903 167.485 331.483 168.169 330.148 168.882C328.467 169.782 327.056 170.662 325.702 171.644C324.331 172.639 322.977 173.765 321.622 175.071C320.308 176.338 318.995 177.787 317.668 179.466C315.919 181.68 314.25 184.159 312.497 186.764C311.685 187.971 310.854 189.206 309.967 190.484C308.637 192.399 307.251 194.306 305.846 196.103C304.464 197.87 303.033 199.567 301.579 201.106C300.169 202.597 298.765 203.904 297.339 205.07H297.326C295.878 206.253 294.409 207.297 292.887 208.246C291.319 209.225 289.733 210.096 288.176 210.841C286.529 211.631 284.88 212.31 283.29 212.86C281.791 213.377 280.32 213.783 278.791 214.049C277.297 214.309 275.786 214.427 274.185 214.374C272.527 214.321 270.679 214.082 268.737 213.752C266.826 213.428 264.869 213.02 262.909 212.61C259.927 211.352 256.701 210.665 253.404 210.556C246.449 210.324 239.166 212.672 233.206 217.655L232.831 217.978C227.073 222.946 223.658 229.536 222.786 236.226C221.9 243.03 223.631 249.932 228.184 255.379C228.226 255.43 228.237 255.439 228.435 255.668C230.66 258.248 233.33 260.252 236.268 261.677C233.984 262.787 231.345 264.131 228.66 265.648C225.99 267.155 223.4 268.76 220.85 270.411C219.761 271.116 218.739 271.789 217.757 272.441C216.341 262.826 212.692 254.43 206.998 247.786C201.75 241.662 194.794 237.057 186.282 234.385C191.819 232.262 196.877 228.722 201.213 224.38C207.553 218.029 212.377 209.909 214.862 202.017C218.758 189.644 218.293 177.787 214.385 167.095C210.261 155.811 202.306 145.884 191.607 138.076C184.808 133.113 176.736 129.656 168.31 127.651C165.24 126.92 162.116 126.38 158.985 126.027ZM253.201 217.019C258.513 217.196 263.549 219.334 267.051 223.393C267.106 223.457 267.044 223.387 267.226 223.606C270.571 227.607 271.838 232.712 271.179 237.767C270.506 242.937 267.831 248.061 263.314 251.958C263.265 252.002 263.257 252.004 263.015 252.206C258.313 256.137 252.605 257.991 247.177 257.81C241.865 257.634 236.829 255.495 233.327 251.436C233.272 251.373 233.335 251.441 233.152 251.222C229.808 247.221 228.54 242.117 229.199 237.063C229.872 231.892 232.547 226.768 237.064 222.87C237.115 222.827 237.121 222.825 237.363 222.622C242.065 218.692 247.774 216.839 253.201 217.019ZM264.6 229.338C260.616 222.433 251.229 220.388 243.633 224.77C236.038 229.153 233.111 238.304 237.093 245.208C241.077 252.113 250.464 254.158 258.06 249.775C265.655 245.393 268.583 236.243 264.6 229.338ZM244.607 229.925C249.072 226.134 255.484 226.351 258.929 230.409C262.376 234.467 261.55 240.83 257.087 244.621C252.622 248.411 246.21 248.195 242.763 244.136C239.318 240.078 240.144 233.716 244.607 229.925ZM130.829 224.512C128.047 223.909 125.669 224.571 123.832 226.005C122.493 227.05 121.505 228.48 120.912 230.098C120.358 231.61 120.142 233.316 120.307 235.029C120.605 238.121 122.144 241.258 125.18 243.346C126.647 244.354 128.444 244.851 130.262 244.891C131.839 244.925 133.473 244.608 134.925 243.98C136.491 243.302 137.875 242.258 138.822 240.881C139.624 239.716 140.108 238.343 140.142 236.785C140.211 233.611 139.399 230.921 137.821 228.812C136.184 226.624 133.813 225.159 130.829 224.512ZM338.027 193.84C338.107 195.777 338.153 197.725 338.158 199.681C337.505 200.031 336.533 200.557 335.06 201.361C333.783 202.058 332.536 202.752 331.331 203.49C330.025 204.289 328.707 205.165 327.344 206.193C326.036 207.18 324.62 208.366 323.081 209.745C321.567 211.101 320.026 212.562 318.421 214.142C317.549 214.999 316.646 215.902 315.716 216.832C313.262 219.288 310.606 221.943 307.723 224.535C305.769 226.292 303.774 227.963 301.767 229.519C299.759 231.076 297.686 232.565 295.574 233.961C293.45 235.365 291.329 236.649 289.194 237.83C287.069 239.007 284.868 240.117 282.58 241.176C280.567 242.107 278.489 242.991 276.374 243.851C276.955 242.127 277.362 240.368 277.592 238.603C277.75 237.391 277.824 236.178 277.815 234.969C278.607 234.784 279.436 234.582 280.333 234.347C282.143 233.872 284.006 233.303 285.973 232.546C287.951 231.786 289.907 230.894 291.829 229.894C293.866 228.833 295.948 227.62 298.05 226.284C300.162 224.94 302.309 223.46 304.465 221.831C306.413 220.361 308.401 218.733 310.413 216.934C313.182 214.458 315.778 211.846 318.144 209.466C319.263 208.341 320.33 207.268 321.328 206.296C322.835 204.83 324.158 203.621 325.558 202.469C326.971 201.307 328.516 200.158 330.462 198.816C332.724 197.254 335.524 195.436 338.027 193.84ZM253.343 235.153C252.28 233.899 250.298 233.832 248.919 235.003C247.541 236.174 247.286 238.14 248.349 239.394C249.414 240.647 251.396 240.714 252.774 239.543C254.153 238.371 254.408 236.406 253.343 235.153ZM127.811 231.101C128.183 230.811 128.734 230.692 129.46 230.849C129.765 230.915 130.054 230.995 130.327 231.089C129.924 231.481 129.526 231.925 129.133 232.409C128.504 233.345 128.751 234.614 129.687 235.244C130.623 235.875 131.894 235.628 132.524 234.692C132.791 234.359 133.018 234.03 133.249 233.788C133.555 234.584 133.704 235.544 133.679 236.659C133.675 236.862 133.608 237.046 133.499 237.205C133.262 237.549 132.856 237.836 132.365 238.048C131.761 238.309 131.068 238.442 130.389 238.427C129.783 238.414 129.234 238.283 128.855 238.023C127.541 237.119 126.874 235.76 126.745 234.42C126.674 233.685 126.764 232.961 126.996 232.328C127.189 231.801 127.467 231.37 127.811 231.101ZM335.826 173.286C336.594 177.621 337.166 182.024 337.558 186.48C334.528 188.387 330.137 191.18 326.787 193.493C324.713 194.923 323.033 196.175 321.453 197.475C319.859 198.786 318.415 200.102 316.816 201.659C315.797 202.649 314.705 203.75 313.557 204.904C311.208 207.267 308.63 209.859 306.104 212.118C304.332 213.702 302.474 215.217 300.562 216.66C298.581 218.157 296.575 219.539 294.578 220.809C292.636 222.044 290.715 223.163 288.839 224.139C286.991 225.102 285.257 225.902 283.667 226.513C281.997 227.155 280.349 227.656 278.711 228.086C278.151 228.232 277.554 228.379 276.934 228.523C276.188 225.794 274.965 223.183 273.249 220.806C273.494 220.819 273.739 220.83 273.983 220.838C276.084 220.906 278.015 220.761 279.88 220.437C281.708 220.119 283.517 219.617 285.394 218.968C287.227 218.334 289.107 217.562 290.964 216.671C292.817 215.783 294.621 214.8 296.309 213.747C298.091 212.635 299.789 211.431 301.432 210.088L301.427 210.081C303.09 208.723 304.701 207.225 306.293 205.541C307.844 203.9 309.406 202.045 310.941 200.081C312.454 198.147 313.912 196.142 315.29 194.159C316.157 192.91 317.024 191.621 317.871 190.363C319.576 187.829 321.197 185.42 322.737 183.472C323.843 182.072 324.964 180.838 326.109 179.735C327.213 178.669 328.342 177.734 329.504 176.891C330.682 176.035 331.855 175.301 333.19 174.586C333.96 174.175 334.829 173.747 335.826 173.286ZM219.617 163.409C224.47 185.043 243.79 201.208 266.888 201.208C289.987 201.208 309.307 185.043 314.16 163.409H219.617ZM268.175 103.613C266.657 101.618 266.346 101.563 264.717 103.393C263.089 105.223 260.144 108.938 254.638 117.82C249.132 126.701 241.066 140.747 236.716 148.361C232.367 155.973 231.732 157.151 231.687 157.899C231.642 158.646 232.187 158.964 242.653 159.122C253.12 159.281 273.51 159.281 285.178 159.1C296.847 158.919 299.792 158.555 301.151 158.012C302.51 157.468 302.283 156.742 297.684 149.289C293.085 141.836 284.113 127.652 278.265 118.595C272.417 109.538 269.694 105.606 268.175 103.613ZM200.211 106.426C199.271 106.432 198.194 106.695 197.152 107.263C196.112 107.831 195.106 108.705 194.327 109.844C193.547 110.982 192.994 112.386 192.441 113.789C185.315 111.742 180.828 113.85 178.981 120.117H218.353C218.038 119.286 217.75 118.546 217.257 117.792C216.745 117.012 216.015 116.221 215.219 115.629C214.423 115.037 213.562 114.642 212.598 114.288C211.635 113.936 210.57 113.624 209.672 113.326C208.774 113.026 208.044 112.739 207.511 112.421C206.979 112.104 206.643 111.758 206.207 111.081C205.77 110.405 205.231 109.399 204.639 108.652C204.047 107.903 203.4 107.413 202.675 107.042C201.951 106.672 201.15 106.419 200.211 106.426ZM243.396 89.1253C241.446 89.175 239.411 90.1735 238.235 91.7347C237.059 93.2969 236.742 95.4224 236.425 97.5491C230.456 94.0861 224.999 95.6666 223.758 102.445H243.467V96.9827H251.802C251.668 96.0737 251.528 95.4339 251.144 94.5726C250.691 93.5536 249.887 92.2114 248.551 91.0921C247.216 89.9728 245.348 89.0747 243.396 89.1253Z" fill="black"/>
<path fill-rule="evenodd" clip-rule="evenodd" d="M345.528 151.576C343.027 148.955 340.637 146.388 339.059 144.217C337.236 141.708 336.499 139.728 336.131 134.733C336.093 134.208 336.058 133.65 336.027 133.066C339.599 136.043 341.496 138.296 343.82 143.721L343.831 143.781L343.782 144.376C343.782 145.989 345.089 147.296 346.702 147.296C348.314 147.296 349.622 145.989 349.622 144.376L349.572 143.782L349.583 143.721C351.907 138.296 353.804 136.043 357.376 133.066C357.345 133.651 357.311 134.209 357.272 134.733C356.904 139.728 356.167 141.708 354.344 144.217C352.767 146.388 350.376 148.955 347.876 151.575C350.546 199.84 349.56 176.956 351.082 245.417C351.082 247.836 349.121 249.797 346.702 249.797C344.283 249.797 342.322 247.836 342.322 245.417C343.844 176.957 342.857 199.84 345.527 151.577L345.528 151.576ZM335.985 132.179C335.77 127.283 335.81 120.858 336.062 116.201C336.362 110.676 336.96 107.637 338.783 103.47C340.607 99.3032 343.654 94.0084 345.178 91.3611C347.156 87.9249 346.248 87.9249 348.226 91.3611C349.75 94.0087 352.798 99.3032 354.621 103.47C356.444 107.637 357.042 110.676 357.342 116.201C357.594 120.858 357.634 127.283 357.419 132.179C354.326 134.147 351.899 135.958 349.096 138.044C346.998 113.072 347.763 125.323 346.702 94.2102C345.641 125.325 346.407 113.065 344.309 138.044C341.506 135.958 339.079 134.147 335.985 132.179H335.985Z" fill="black"/>
</svg>
