<svg width="702" height="202" viewBox="0 0 702 202" fill="none" xmlns="http://www.w3.org/2000/svg">
<path d="M507.781 128.988V125.255H499.648L499.065 133.164C500.633 131.855 502.453 131.2 504.528 131.2C506.19 131.2 507.634 131.601 508.859 132.403C510.097 133.194 511.04 134.255 511.688 135.588C512.348 136.909 512.678 138.372 512.678 139.976C512.678 141.757 512.307 143.332 511.564 144.7C510.833 146.069 509.773 147.13 508.382 147.885C506.991 148.628 505.371 149 503.52 149C500.809 149 498.676 148.233 497.12 146.7C495.564 145.154 494.704 142.937 494.539 140.047H497.969C498.193 141.875 498.788 143.308 499.754 144.346C500.721 145.385 501.988 145.904 503.556 145.904C505.123 145.904 506.402 145.367 507.392 144.293C508.382 143.22 508.877 141.805 508.877 140.047C508.877 138.23 508.411 136.833 507.48 135.854C506.549 134.875 505.359 134.385 503.909 134.385C501.788 134.385 500.014 135.464 498.588 137.623C497.798 136.844 496.873 136.178 495.812 135.624L496.89 121.929H511.087V128.988H507.781Z" fill="#242B3D"/>
<path d="M490.49 128.705C490.49 130.203 490.107 131.512 489.341 132.633C488.587 133.753 487.243 135.027 485.31 136.455L483.613 137.729C482.21 138.79 481.126 139.651 480.36 140.312C479.606 140.972 478.957 141.704 478.415 142.506C477.873 143.308 477.502 144.204 477.301 145.195H487.326L487.485 139.02H490.702L490.49 148.557H473.43C473.453 146.387 473.825 144.505 474.543 142.913C475.274 141.309 476.141 139.987 477.142 138.949C478.144 137.911 479.346 136.862 480.749 135.8L483.383 133.801C484.597 132.916 485.446 132.108 485.929 131.377C486.412 130.633 486.654 129.79 486.654 128.846C486.654 127.513 486.265 126.475 485.487 125.732C484.721 124.977 483.66 124.6 482.305 124.6C480.56 124.6 479.346 125.113 478.663 126.139C477.979 127.166 477.637 128.758 477.637 130.917V131.819H474.119V130.793C474.119 127.95 474.744 125.732 475.993 124.14C476.748 123.22 477.643 122.542 478.68 122.105C479.718 121.669 480.961 121.451 482.411 121.451C484.202 121.451 485.699 121.793 486.901 122.477C488.104 123.149 488.999 124.034 489.589 125.131C490.19 126.228 490.49 127.419 490.49 128.705Z" fill="#242B3D"/>
<path d="M470.46 135.251C470.46 138.153 470.083 140.636 469.329 142.7C468.586 144.765 467.525 146.334 466.146 147.407C464.779 148.469 463.153 148.999 461.267 148.999C458.273 148.999 455.981 147.761 454.39 145.284C452.798 142.807 452.003 139.463 452.003 135.251C452.003 132.338 452.374 129.849 453.117 127.785C453.871 125.709 454.944 124.134 456.334 123.061C457.737 121.987 459.381 121.451 461.267 121.451C464.213 121.451 466.482 122.683 468.073 125.148C469.665 127.614 470.46 130.981 470.46 135.251ZM461.267 145.868C463.011 145.868 464.331 145.042 465.227 143.39C466.135 141.739 466.588 138.979 466.588 135.11C466.588 131.276 466.123 128.563 465.192 126.971C464.261 125.367 462.941 124.565 461.232 124.565C459.393 124.565 458.043 125.461 457.183 127.254C456.334 129.035 455.91 131.701 455.91 135.251C455.91 138.979 456.358 141.68 457.254 143.355C458.149 145.03 459.487 145.868 461.267 145.868Z" fill="#242B3D"/>
<path d="M447.989 128.705C447.989 130.203 447.606 131.512 446.84 132.633C446.086 133.753 444.742 135.027 442.809 136.455L441.112 137.729C439.709 138.79 438.625 139.651 437.859 140.312C437.105 140.972 436.456 141.704 435.914 142.506C435.372 143.308 435.001 144.204 434.8 145.195H444.825L444.984 139.02H448.201L447.989 148.557H430.929C430.952 146.387 431.324 144.505 432.043 142.913C432.773 141.309 433.64 139.987 434.641 138.949C435.643 137.911 436.845 136.862 438.248 135.8L440.882 133.801C442.096 132.916 442.945 132.108 443.428 131.377C443.911 130.633 444.153 129.79 444.153 128.846C444.153 127.513 443.764 126.475 442.986 125.732C442.22 124.977 441.159 124.6 439.804 124.6C438.059 124.6 436.845 125.113 436.162 126.139C435.478 127.166 435.136 128.758 435.136 130.917V131.819H431.618V130.793C431.618 127.95 432.243 125.732 433.492 124.14C434.247 123.22 435.142 122.542 436.179 122.105C437.217 121.669 438.46 121.451 439.91 121.451C441.701 121.451 443.198 121.793 444.4 122.477C445.603 123.149 446.498 124.034 447.088 125.131C447.689 126.228 447.989 127.419 447.989 128.705Z" fill="#242B3D"/>
<path d="M417.741 134.827C417.741 139.392 416.362 142.824 413.604 145.124C410.858 147.413 406.768 148.557 401.334 148.557H391.381V145.231H394.952V125.219H391.381V121.893H401.511C406.968 121.893 411.034 122.925 413.71 124.989C416.397 127.053 417.741 130.333 417.741 134.827ZM413.356 135.004C413.356 132.739 412.956 130.893 412.154 129.466C411.364 128.038 410.103 126.977 408.371 126.281C406.65 125.573 404.375 125.219 401.546 125.219H398.983V145.231H401.511C405.613 145.231 408.612 144.411 410.51 142.771C412.407 141.12 413.356 138.531 413.356 135.004Z" fill="#242B3D"/>
<path d="M383.001 125.219H379.2V121.893H390.126V125.219H386.218V148.84H382.082L369.299 126.051V145.231H373.118V148.557H362.21V145.231H366.011V125.219H362.21V121.893H371.297L383.001 142.612V125.219Z" fill="#242B3D"/>
<path d="M350.629 125.113L357.843 145.231H360.813V148.557H350.311V145.231H353.794L351.726 139.179H342.055L339.986 145.231H343.363V148.557H332.791V145.231H336.009L343.186 125.113H339.986V121.893H353.829V125.113H350.629ZM346.987 125.113H346.864L343.098 136.048H350.665L346.987 125.113Z" fill="#242B3D"/>
<path d="M318.967 125.219V145.231H327.718V136.968H331.024V148.557H311.506V145.231H314.936V125.219H311.506V121.893H322.396V125.219H318.967Z" fill="#242B3D"/>
<path d="M294.18 125.219V145.231H297.256V148.557H286.825V145.231H290.149V125.219H286.825V121.893H297.61V125.219H294.18ZM307.422 125.219L299.165 134.491L307.651 145.231H310.498V148.557H299.678V145.231H302.613L294.604 134.614L302.86 125.219H299.784V121.893H310.25V125.219H307.422Z" fill="#242B3D"/>
<path d="M280.231 124.83V121.893H283.626V130.439H280.16C279.288 128.728 278.092 127.396 276.572 126.44C275.051 125.485 273.383 125.007 271.568 125.007C269.812 125.007 268.245 125.473 266.866 126.405C265.487 127.325 264.408 128.563 263.63 130.12C262.864 131.666 262.481 133.329 262.481 135.11C262.481 136.95 262.882 138.649 263.683 140.206C264.497 141.763 265.61 143.007 267.025 143.939C268.439 144.871 270.013 145.337 271.745 145.337C273.878 145.337 275.764 144.688 277.402 143.39C279.041 142.081 280.237 140.229 280.991 137.835L284.386 139.639C283.466 142.612 281.84 144.918 279.506 146.558C277.184 148.185 274.456 148.999 271.321 148.999C268.74 148.999 266.447 148.386 264.444 147.159C262.44 145.921 260.878 144.263 259.759 142.187C258.651 140.099 258.097 137.811 258.097 135.322C258.097 132.621 258.662 130.215 259.794 128.103C260.937 125.992 262.511 124.358 264.514 123.202C266.518 122.034 268.81 121.451 271.392 121.451C273.124 121.451 274.721 121.739 276.183 122.317C277.644 122.895 278.994 123.733 280.231 124.83Z" fill="#242B3D"/>
<path d="M237.323 125.219V138.808C237.323 141.202 237.777 142.954 238.684 144.063C239.604 145.172 240.947 145.726 242.715 145.726C244.507 145.726 245.868 145.177 246.799 144.08C247.742 142.983 248.214 141.238 248.214 138.843V125.219H245.102V121.893H255.533V125.219H252.209V139.215C252.209 142.4 251.402 144.829 249.787 146.504C248.184 148.168 245.827 148.999 242.715 148.999C239.58 148.999 237.223 148.174 235.644 146.522C234.076 144.859 233.292 142.346 233.292 138.985V125.219H230.004V121.893H240.47V125.219H237.323Z" fill="#242B3D"/>
<path d="M219.838 125.113L227.052 145.231H230.022V148.557H219.52V145.231H223.003L220.935 139.179H211.264L209.195 145.231H212.572V148.557H202V145.231H205.218L212.395 125.113H209.195V121.893H223.038V125.113H219.838ZM216.196 125.113H216.073L212.307 136.048H219.874L216.196 125.113Z" fill="#242B3D"/>
<path d="M498.941 58.398V53.9713H508.147V73.1895H498.941C497.814 69.9985 495.884 67.4553 493.151 65.5598C490.442 63.6644 487.422 62.7167 484.089 62.7167C480.997 62.7167 478.252 63.4365 475.854 64.876C473.481 66.2916 471.647 68.307 470.352 70.9222C469.058 73.5134 468.411 76.5365 468.411 79.9915C468.411 85.8697 469.825 90.5123 472.654 93.9193C475.507 97.3023 479.414 98.9938 484.377 98.9938C487.661 98.9938 490.358 98.226 492.468 96.6905C494.578 95.1309 496.076 92.8996 496.963 89.9965H487.398V80.7833H512.893C512.893 86.6855 511.719 91.736 509.369 95.9347C507.044 100.133 503.688 103.336 499.3 105.544C494.937 107.751 489.711 108.855 483.622 108.855C477.485 108.855 472.114 107.739 467.512 105.508C462.933 103.276 459.409 100.061 456.939 95.8627C454.47 91.664 453.235 86.6855 453.235 80.9272C453.235 75.5288 454.482 70.7183 456.975 66.4956C459.492 62.2728 462.933 58.9858 467.296 56.6345C471.659 54.2592 476.586 53.0716 482.075 53.0716C489.315 53.0716 494.937 54.8471 498.941 58.398Z" fill="#4795A3"/>
<path d="M447.338 84.6347V93.452H441.584V99.6422H446.619V108.208H422.597V99.6422H429.142V93.452H406.775C405.576 90.117 404.593 87.7177 403.826 86.2542L429.897 53.0002H441.584V84.6347H447.338ZM416.628 84.6347H429.142V68.9794L416.628 84.6347Z" fill="#4795A3"/>
<path d="M387.896 58.4704V53.9718H397.102V70.3829H387.896C387.512 67.7437 386.649 65.7643 385.307 64.4446C383.988 63.1011 382.274 62.4293 380.165 62.4293C378.678 62.4293 377.408 62.8491 376.353 63.6889C375.298 64.5286 374.77 65.5843 374.77 66.8559C374.77 67.9836 375.106 68.9553 375.777 69.771C376.449 70.5868 377.312 71.2826 378.367 71.8584C379.421 72.4103 381.004 73.154 383.113 74.0897L385.307 75.0255C390.078 77.0888 393.674 79.5121 396.095 82.2953C398.54 85.0784 399.763 88.5574 399.763 92.7321C399.763 97.6986 398.336 101.633 395.484 104.537C392.631 107.416 388.795 108.855 383.976 108.855C379.278 108.855 375.622 107.092 373.008 103.565V108.207H363.803V89.781H373.008C373.2 92.9721 374.015 95.4073 375.454 97.0868C376.916 98.7423 378.882 99.5701 381.351 99.5701C383.005 99.5701 384.396 99.0062 385.523 97.8786C386.673 96.7509 387.249 95.3833 387.249 93.7758C387.249 92.1443 386.589 90.6568 385.271 89.3132C383.976 87.9456 381.759 86.578 378.618 85.2104C373.272 82.8591 369.388 80.3279 366.967 77.6167C364.57 74.9055 363.371 71.7864 363.371 68.2595C363.371 65.5003 364.006 62.9811 365.277 60.7018C366.548 58.4225 368.298 56.635 370.527 55.3394C372.781 54.0198 375.226 53.36 377.863 53.36C379.973 53.36 381.891 53.7919 383.617 54.6556C385.343 55.5193 386.769 56.791 387.896 58.4704Z" fill="#242B3D"/>
<path d="M345.462 58.4704V53.9718H354.668V70.3829H345.462C345.079 67.7437 344.216 65.7643 342.873 64.4446C341.555 63.1011 339.841 62.4293 337.731 62.4293C336.245 62.4293 334.974 62.8491 333.919 63.6889C332.864 64.5286 332.337 65.5843 332.337 66.8559C332.337 67.9836 332.673 68.9553 333.344 69.771C334.015 70.5868 334.878 71.2826 335.933 71.8584C336.988 72.4103 338.57 73.154 340.68 74.0897L342.873 75.0255C347.644 77.0888 351.24 79.5121 353.661 82.2953C356.107 85.0784 357.329 88.5574 357.329 92.7321C357.329 97.6986 355.903 101.633 353.05 104.537C350.197 107.416 346.361 108.855 341.543 108.855C336.844 108.855 333.188 107.092 330.575 103.565V108.207H321.369V89.781H330.575C330.767 92.9721 331.582 95.4073 333.02 97.0868C334.483 98.7423 336.448 99.5701 338.918 99.5701C340.572 99.5701 341.962 99.0062 343.089 97.8786C344.24 96.7509 344.815 95.3833 344.815 93.7758C344.815 92.1443 344.156 90.6568 342.837 89.3132C341.543 87.9456 339.325 86.578 336.185 85.2104C330.839 82.8591 326.955 80.3279 324.534 77.6167C322.136 74.9055 320.938 71.7864 320.938 68.2595C320.938 65.5003 321.573 62.9811 322.843 60.7018C324.114 58.4225 325.864 56.635 328.094 55.3394C330.347 54.0198 332.792 53.36 335.429 53.36C337.539 53.36 339.457 53.7919 341.183 54.6556C342.909 55.5193 344.336 56.791 345.462 58.4704Z" fill="#242B3D"/>
<path d="M253.656 80.9272C253.656 75.4329 254.915 70.5863 257.432 66.3876C259.949 62.1889 263.485 58.9258 268.04 56.5985C272.619 54.2472 277.881 53.0716 283.827 53.0716C289.772 53.0716 295.011 54.2472 299.541 56.5985C304.096 58.9258 307.621 62.2008 310.114 66.4236C312.631 70.6463 313.89 75.4809 313.89 80.9272C313.89 86.4456 312.631 91.3161 310.114 95.5388C307.621 99.7616 304.084 103.037 299.506 105.364C294.951 107.691 289.724 108.855 283.827 108.855C278.049 108.855 272.859 107.691 268.256 105.364C263.677 103.037 260.093 99.7616 257.504 95.5388C254.939 91.3161 253.656 86.4456 253.656 80.9272ZM298.786 80.8552C298.786 77.5682 298.187 74.5811 296.988 71.8939C295.79 69.1827 294.052 67.0354 291.774 65.4519C289.521 63.8444 286.872 63.0406 283.827 63.0406C280.782 63.0406 278.133 63.8444 275.88 65.4519C273.626 67.0354 271.888 69.1827 270.665 71.8939C269.467 74.5811 268.867 77.5682 268.867 80.8552C268.867 84.3102 269.479 87.4173 270.701 90.1764C271.948 92.9116 273.698 95.071 275.952 96.6545C278.205 98.214 280.806 98.9938 283.755 98.9938C286.8 98.9938 289.461 98.214 291.738 96.6545C294.04 95.071 295.79 92.9116 296.988 90.1764C298.187 87.4173 298.786 84.3102 298.786 80.8552Z" fill="#242B3D"/>
<path d="M241.106 70.7066V63.1848H224.816V75.7091H236.611V84.9223H224.816V98.9941H233.231V108.207H202.952V98.9941H210.684V63.1848H202.952V53.9716H251.498V70.7066H241.106Z" fill="#242B3D"/>
<path d="M558.617 59.4854C559.152 60.7354 559.964 62.1298 560.955 63.6104C563.384 67.2437 567.129 71.7464 571.413 76.54C579.829 85.9582 590.603 96.7996 598.041 104.702L598.719 111.576C596.644 113.678 589.977 120.524 583.524 127.156C579.891 130.89 576.317 134.566 573.652 137.308C572.319 138.679 571.214 139.816 570.442 140.611C570.307 140.75 570.182 140.879 570.068 140.996C569.545 140.684 568.88 140.222 568.077 139.59C566.75 138.546 565.184 137.156 563.465 135.521C560.03 132.255 556.061 128.095 552.285 123.985C548.512 119.88 544.947 115.844 542.326 112.832C541.015 111.327 539.941 110.079 539.195 109.207C538.822 108.771 538.53 108.43 538.332 108.197C538.234 108.081 538.158 107.992 538.108 107.933C538.083 107.903 538.064 107.88 538.051 107.865C538.045 107.858 538.04 107.852 538.037 107.849C538.035 107.847 538.034 107.846 538.034 107.845L538.033 107.844V107.843L537.984 107.788L537.735 107.517C532.577 101.839 531.504 97.433 531.565 94.6006C531.596 93.1413 531.928 92.0306 532.236 91.3037C532.39 90.9395 532.539 90.6716 532.641 90.5049C532.692 90.4219 532.731 90.3642 532.752 90.333C532.756 90.328 532.759 90.323 532.761 90.3193L558.617 59.4854Z" fill="#4795A3"/>
<path d="M561.596 56.2602L561.701 56.2651C562.241 56.3016 562.958 56.4909 563.751 56.7915C564.569 57.1016 565.347 57.4831 565.895 57.7768L565.897 57.7778C567.044 58.3919 574.55 62.2913 583.414 65.7211C587.846 67.4361 592.655 69.0487 597.201 70.0698C599.468 70.5788 601.713 70.9506 603.84 71.1049C603.749 71.1805 603.658 71.2575 603.568 71.3344L603.249 71.6079C601.64 73.0106 600.512 75.0398 599.707 77.3364C598.897 79.6486 598.371 82.3576 598.049 85.2563C597.554 89.7095 597.525 94.7327 597.742 99.6821C596.893 98.8019 595.894 97.7643 594.781 96.602C591.137 92.7964 586.267 87.6544 581.358 82.3042C576.445 76.95 571.508 71.4036 567.724 66.7856C565.83 64.4744 564.243 62.4174 563.097 60.7465C562.524 59.9107 562.075 59.1926 561.757 58.602C561.466 58.0623 561.326 57.7055 561.273 57.5043L561.254 57.4282L561.221 57.2417C561.126 56.6583 561.179 56.3859 561.209 56.2895C561.267 56.2733 561.384 56.2536 561.596 56.2602Z" fill="#242B3D"/>
<path d="M632.228 65.418C632.245 65.5531 632.263 65.6975 632.282 65.8506C632.425 66.9957 632.628 68.633 632.871 70.6006C633.356 74.5361 633.999 79.7932 634.627 85.0811C635.255 90.3707 635.868 95.686 636.295 99.7383C636.508 101.766 636.674 103.467 636.772 104.687C636.797 104.99 636.816 105.26 636.832 105.494C636.032 105.645 634.975 105.815 633.563 106.067C630.789 106.564 627.002 107.323 622.945 108.62C616.126 110.801 608.3 114.58 603.315 121.424C603.195 120.642 603.065 119.773 602.931 118.83C602.322 114.549 601.617 108.759 601.227 102.702C600.837 96.6334 600.767 90.3583 601.408 85.087C601.728 82.4517 602.22 80.1167 602.913 78.2061C603.61 76.2821 604.47 74.9003 605.453 74.044L605.72 73.8135C611.364 69.015 618.232 66.9073 623.805 66.0166C626.626 65.566 629.083 65.4315 630.831 65.4102C631.368 65.4037 631.837 65.4093 632.228 65.418Z" fill="#4795A3"/>
<path d="M696.731 99.2883L702 114.164C701.932 114.259 701.857 114.363 701.773 114.476C701.309 115.108 700.61 116.026 699.683 117.153C697.827 119.406 695.061 122.487 691.438 125.778C684.237 132.316 673.711 139.625 660.258 142.965L659.939 143.043C652.19 144.925 642.11 146.314 632.507 145.282C622.979 144.259 614.118 140.879 608.325 133.455L608.189 133.28C606.64 131.259 605.301 128.927 604.229 126.24C604.272 126.151 604.31 126.072 604.339 126.012C604.354 125.981 604.366 125.954 604.375 125.935C608.909 117.478 618.253 113.271 626.259 111.04C626.299 111.098 626.343 111.16 626.391 111.225C626.714 111.667 627.198 112.263 627.869 112.925C629.213 114.251 631.303 115.841 634.331 116.99C640.427 119.301 649.999 119.708 664.405 113.238C674.17 108.852 680.906 101.076 685.293 93.9153C687.853 89.7361 689.645 85.712 690.789 82.5969L696.731 99.2883ZM603.444 126.747C603.3 126.798 603.134 126.834 602.946 126.84C603.118 126.834 603.286 126.802 603.443 126.746L603.444 126.747Z" fill="#242B3D"/>
<path fill-rule="evenodd" clip-rule="evenodd" d="M29.5273 86.6106C30.0149 86.76 30.5315 86.6789 30.9724 86.4263C31.4452 86.1559 31.8266 85.6973 32.0046 85.1158C32.186 84.5235 32.1284 83.9258 31.8886 83.4377C31.6669 82.987 31.286 82.6331 30.7988 82.4842C30.3112 82.3352 29.7946 82.4163 29.3537 82.6685C28.8809 82.9393 28.4995 83.3974 28.3215 83.9794C28.1402 84.5717 28.1977 85.1694 28.4375 85.6575C28.6592 86.1082 29.0401 86.4616 29.5273 86.6106ZM32.5979 89.2683C31.4054 89.9505 29.9716 90.1599 28.5801 89.7343C27.1876 89.3081 26.115 88.329 25.5065 87.0908C24.9162 85.89 24.7668 84.4419 25.1978 83.0322C25.6328 81.6122 26.5677 80.491 27.7282 79.8269C28.9207 79.1442 30.3545 78.9353 31.746 79.361C33.1385 79.7871 34.2111 80.7663 34.8196 82.0039C35.4099 83.2052 35.5593 84.6533 35.1283 86.063C34.6933 87.4831 33.7584 88.6042 32.5979 89.2683ZM24.954 93.6759C24.954 96.1856 24.6955 99.209 25.3497 101.605C25.651 102.708 26.2207 100.721 26.3805 100.236C26.8066 98.9412 27.712 96.1453 28.2085 95.1013C28.6278 94.219 28.9468 93.2807 27.9489 92.9951C26.5879 92.6058 24.954 91.9142 24.954 93.6759ZM99.9864 37.0376C102.806 35.2583 104.903 33.6947 108.037 32.2113C110.001 31.2808 116.287 29.3579 115.935 29.2483C106.465 26.3011 97.7932 38.4213 99.9864 37.0376ZM101.495 27.1873C100.471 27.3304 100.105 30.5568 100.362 30.6118C101.233 30.7981 104.401 28.7322 105.099 27.9865C106.419 26.5773 102.118 27.1003 101.495 27.1873ZM88.458 35.4957C90.7535 35.4957 92.6139 33.6642 92.6139 31.4047C92.6139 29.1451 90.7535 27.3136 88.458 27.3136C86.1626 27.3136 84.3016 29.1451 84.3016 31.4047C84.3016 33.6642 86.1626 35.4957 88.458 35.4957ZM88.458 33.2459C89.4907 33.2459 90.3283 32.4216 90.3283 31.4047C90.3283 30.3882 89.4907 29.5639 88.458 29.5639C87.4248 29.5639 86.5877 30.3882 86.5877 31.4047C86.5877 32.4216 87.4248 33.2459 88.458 33.2459ZM83.6415 43.373C82.2819 43.4772 82.7027 46.1442 82.7499 47.9344C82.8162 50.456 88.3047 43.9545 87.9463 43.5022C87.9006 43.4447 83.671 43.3705 83.6415 43.373ZM75.0461 29.8578C73.9431 29.4336 72.4695 30.3651 71.6054 31.0011C70.3215 31.9458 71.9942 32.3474 72.8234 32.7205C73.163 32.8729 75.6158 33.9066 75.8542 33.5212C76.0866 33.1437 75.9554 30.2078 75.0461 29.8578ZM68.6832 48.2328C65.706 50.0755 70.4375 52.8227 71.6289 48.1762C73.1596 42.208 60.6466 40.4985 61.6523 49.5496C62.0809 53.4056 64.5411 56.4698 68.4281 57.1428C70.7447 56.8237 72.814 55.7979 74.385 54.3042C76.2769 52.5051 77.4467 50.0224 77.4467 47.2831C77.4467 44.5433 76.2769 42.0606 74.385 40.2616C72.4719 38.4429 69.8201 37.3173 66.8827 37.3173C63.9458 37.3173 61.294 38.4429 59.381 40.2616C57.489 42.0606 56.3187 44.5433 56.3187 47.2831C56.3187 50.0224 57.489 52.5051 59.381 54.3042C59.671 54.5799 59.9777 54.8394 60.3001 55.0818C54.4538 45.8552 63.1431 36.7053 70.9708 41.0652C80.132 46.1678 71.0755 58.6827 65.6052 52.1542C63.4189 49.5451 64.6575 47.0654 67.3005 45.4074C68.0811 45.0255 69.0228 45.3484 69.4048 46.1285C69.7862 46.9091 69.4633 47.8508 68.6832 48.2328ZM76.6377 56.6724C74.1343 59.0528 70.6847 60.5255 66.8827 60.5255C63.0807 60.5255 59.6311 59.0528 57.1278 56.6724C54.6033 54.2717 53.0422 50.9519 53.0422 47.2831C53.0422 43.6138 54.6033 40.2945 57.1278 37.8939C59.6311 35.5134 63.0807 34.0407 66.8827 34.0407C70.6847 34.0407 74.1343 35.5134 76.6377 37.8939C79.1622 40.2945 80.7238 43.6138 80.7238 47.2831C80.7238 50.9519 79.1622 54.2717 76.6377 56.6724ZM46.2585 49.8764C48.1317 50.7415 50.2276 52.0057 50.6159 51.1215C51.0136 50.2156 50.8253 44.1447 50.0271 44.3167C49.279 44.4779 46.233 46.5399 45.1521 47.9167C44.1611 49.1794 45.0238 49.3058 46.2585 49.8764ZM57.3131 60.8091C56.8658 60.9216 56.7055 64.0601 56.7055 64.5506C56.7055 65.5376 56.9017 65.3572 57.8356 64.9262C58.2942 64.7148 60.9765 63.4983 60.9765 63.021C60.9765 62.4508 58.7095 60.4581 57.3131 60.8091ZM42.5263 68.1511C44.9623 68.7375 47.4407 67.1238 48.061 64.5462C48.6813 61.9691 47.2091 59.4043 44.7726 58.8179C42.3366 58.2315 39.8583 59.8457 39.238 62.4228C38.6176 64.9999 40.0898 67.5647 42.5263 68.1511ZM43.6028 65.6128C44.6881 65.6128 45.5674 64.6563 45.5674 63.4766C45.5674 62.2974 44.6881 61.3409 43.6028 61.3409C42.5175 61.3409 41.6381 62.2974 41.6381 63.4766C41.6381 64.6563 42.5175 65.6128 43.6028 65.6128ZM36.7277 71.669C41.0134 75.2085 47.5237 74.4019 51.2677 69.868C55.0122 65.3341 54.5728 58.7889 50.2866 55.2494C46.0005 51.7098 39.4906 52.5165 35.7466 57.0503C32.0021 61.5842 32.4416 68.1295 36.7277 71.669ZM38.7636 69.4129C41.8667 71.9752 46.58 71.3918 49.2908 68.1088C52.0016 64.8264 51.6836 60.088 48.5805 57.5252C45.4775 54.9628 40.7642 55.5467 38.0534 58.8292C35.3426 62.1116 35.6606 66.85 38.7636 69.4129ZM31.5666 71.4311C30.7202 70.2568 30.067 67.9358 30.1137 71.2581C30.1549 74.1969 28.933 73.7551 32.2538 76.2628C33.5735 77.2597 35.286 78.6443 36.5055 79.7812C37.8646 81.0479 37.468 81.0622 38.6693 79.9425C39.9448 78.7539 32.8898 73.5909 31.5666 71.4311ZM129.433 32.9137C119.437 27.8519 108.169 25 96.2434 25C95.6865 25 95.132 25.0093 94.5781 25.0216C96.7079 26.6481 98.0655 29.1082 98.0655 31.8613C98.0655 36.7584 93.77 40.7285 88.4713 40.7285C83.1731 40.7285 78.8776 36.7584 78.8776 31.8613C78.8776 29.9148 79.5564 28.1158 80.7061 26.6535C47.0037 33.9179 21.7148 64.3304 21.7148 100.75C21.7148 108.077 22.7421 115.16 24.6522 121.862C25.3551 116.031 26.1676 110.867 27.5813 105.858C29.4717 99.1599 32.4165 92.798 37.5633 85.6074C41.5929 79.9764 47.0607 74.5366 53.2904 70.4308C58.8585 66.761 65.0409 64.15 71.367 63.4009C73.0976 63.196 74.8804 63.1124 76.6814 63.1517C84.2962 48.9755 94.4006 39.6943 106.773 35.3974C113.661 33.0051 121.227 32.1724 129.433 32.9137ZM90.9216 25.1942C88.7918 25.3475 86.6856 25.5898 84.6088 25.9206C82.8432 27.1239 81.6867 29.1313 81.6867 31.4047C81.6867 35.0857 84.718 38.0703 88.458 38.0703C92.1976 38.0703 95.2294 35.0857 95.2294 31.4047C95.2294 28.5793 93.4431 26.1644 90.9216 25.1942Z" fill="#242B3D"/>
<path fill-rule="evenodd" clip-rule="evenodd" d="M107.015 167.973C105.907 164.464 102.581 165.102 100.158 166.9C98.1642 168.38 99.7174 171.416 97.4731 172.699L96.8454 172.913C97.6962 170.629 97.7867 171.472 97.4864 168.61C97.2086 165.961 100.137 164.061 102.268 163.289C106.036 161.926 108.584 163.67 110.045 167.127C110.279 167.964 109.79 168.832 108.953 169.065C108.116 169.299 107.249 168.809 107.015 167.973ZM96.2433 176.5C96.4945 176.5 96.7441 176.494 96.9948 176.49C96.2565 175.625 95.5935 174.626 94.6979 173.928C92.9569 172.572 89.8258 174.234 88.2716 176.068C90.891 176.352 93.5497 176.5 96.2433 176.5ZM98.7004 176.455C106.616 176.194 114.34 174.99 121.323 172.095C114.23 169.734 108.359 164.841 106.472 154.324C103.261 159.846 98.2758 164.446 92.69 167.457C86.8732 170.593 80.6519 171.48 74.8656 170.877C68.0706 170.171 61.8572 167.399 57.5995 163.804C54.3348 161.048 52.0506 158.105 50.3352 155.109C48.6448 152.156 47.5167 149.159 46.542 146.242C46.2697 145.426 45.9256 144.374 45.6356 143.41L45.586 143.244C43.4778 145.351 41.374 147.467 39.2713 149.58C50.6399 163.27 66.6968 172.809 84.9262 175.632C87.2114 172.079 93.4263 169.052 96.4497 172.956C97.7056 174.577 97.7651 175.348 98.7004 176.455ZM87.3411 135.803C87.1942 135.739 87.0664 135.626 86.9853 135.473C86.1919 133.835 82.5649 136.326 84.0115 137.153C84.2897 137.313 84.9965 137.158 85.3254 137.127C84.856 137.634 84.185 138.05 83.516 137.615C81.0667 136.021 86.0366 131.577 88.2873 134.781C88.4589 135.104 88.366 135.497 88.0853 135.712C87.8622 135.854 87.612 135.875 87.3411 135.803ZM34.3024 142.885L38.4067 138.781C40.2843 136.903 50.404 127.308 50.9019 125.599C51.5158 123.49 50.1523 119.017 46.9844 121.315C46.6875 121.531 46.2746 121.874 45.7767 122.311L45.4336 122.654C45.3481 122.74 45.2532 122.811 45.1529 122.869C41.5648 126.122 34.9374 132.818 32.9905 134.995C32.9335 135.1 32.8612 135.2 32.7737 135.29C32.264 135.817 31.4235 135.83 30.8975 135.32C30.6174 135.024 30.4306 134.619 30.4955 134.201C30.6606 133.142 39.5868 124.39 43.6031 120.732L51.6785 112.656C52.1966 112.138 53.0371 112.138 53.5552 112.656C54.0733 113.174 54.0733 114.014 53.5552 114.533L49.8992 118.189C51.3531 118.61 52.5549 119.827 53.2141 121.726C54.64 125.83 53.0234 127.85 50.256 130.677C45.5191 135.518 40.6412 140.317 35.8315 145.112C36.4086 145.923 36.9984 146.724 37.606 147.511L39.6139 145.503L40.623 144.494C42.4299 142.687 50.7795 133.982 52.3578 133.255C54.727 132.163 56.2065 133.681 57.5966 135.371C58.0458 135.95 57.9406 136.783 57.3611 137.232C56.7821 137.681 55.9485 137.576 55.4997 136.997C53.6358 134.718 53.5807 135.338 51.1698 137.706C50.1931 138.666 49.2174 139.63 48.2437 140.597C48.3877 141.166 48.5735 141.817 48.7716 142.475C49.0916 143.538 49.4047 144.502 49.6396 145.206C50.5524 147.938 51.6072 150.741 53.1772 153.483C54.7221 156.182 56.7772 158.831 59.7116 161.308C63.5087 164.514 69.0797 166.99 75.1983 167.626C80.3835 168.166 85.9501 167.376 91.1412 164.577C96.2192 161.839 100.743 157.673 103.643 152.685C106.21 148.271 107.498 143.212 106.752 137.941C106.143 133.646 104.547 129.921 102.05 127.007C99.6245 124.176 96.3313 122.093 92.251 120.981C89.2434 120.161 86.216 120.198 83.4246 120.911C80.5855 121.636 78.003 123.059 75.9455 124.987C73.8968 126.909 72.3671 129.327 71.6249 132.049C70.9869 134.389 70.9294 136.975 71.6224 139.689C72.4413 142.897 73.648 144.952 75.3699 146.321C77.1099 147.705 79.4756 148.487 82.5556 149.099C83.78 149.019 84.996 148.753 86.1487 148.327C87.9747 147.652 89.6297 146.584 90.8934 145.235L90.8964 145.238C92.111 143.94 92.9554 142.38 93.2189 140.667C93.413 139.404 93.2916 138.045 92.7701 136.633C91.8509 134.144 90.1021 132.812 88.2421 132.367C87.2856 132.139 86.2942 132.137 85.3642 132.327C84.4524 132.513 83.6119 132.882 82.9375 133.402C81.9146 134.189 81.2801 135.345 81.4216 136.727C81.5563 138.043 82.3747 138.956 83.2998 139.308C83.9432 139.552 85.0594 139.787 85.7142 139.347C87.4507 138.326 85.7235 135.943 87.3411 135.803C88.5159 136.797 87.6714 143.315 82.066 142.104C80.0974 141.355 78.4439 139.734 78.1701 137.059C77.9008 134.426 79.0618 132.262 80.9404 130.816C82.011 129.992 83.3165 129.412 84.7114 129.127C86.0882 128.845 87.5643 128.85 88.9971 129.193C91.8401 129.872 94.4915 131.85 95.8422 135.506C96.5662 137.466 96.7314 139.37 96.4571 141.153C96.0894 143.544 94.9329 145.698 93.2739 147.469V147.475C91.6627 149.195 89.5702 150.551 87.2748 151.399C84.8451 152.296 82.1751 152.631 79.5941 152.234C74.4812 151.448 69.9601 148.65 66.251 144.892C61.9309 140.514 58.7035 134.811 56.9487 129.509C55.1704 124.136 54.5535 118.21 55.1089 112.405C55.6535 106.713 57.3272 101.133 60.1402 96.3002C60.7738 95.2104 61.5239 94.1109 62.3708 93.031C65.351 89.229 69.5202 85.7219 74.0516 83.7976C78.7678 81.7941 83.8793 81.4692 88.5351 84.178C89.1357 84.5275 89.7334 84.9335 90.3262 85.398C92.2412 86.8996 93.8264 89.1174 94.7009 91.5289C95.5296 93.815 95.7355 96.3036 95.0105 98.5794C94.051 101.59 92.081 103.642 89.8234 104.797C88.335 105.559 86.7184 105.928 85.1823 105.921C83.5937 105.915 82.0734 105.507 80.8377 104.719C79.4167 103.812 78.38 102.432 78.0246 100.602C77.4505 97.6484 78.7949 96.02 80.8097 95.1421C85.7446 92.7646 89.2901 98.2284 82.1157 98.1375C81.8399 98.1424 81.634 98.1891 81.4831 98.2702C81.8797 98.369 82.384 98.659 82.9896 99.2105C83.7195 99.8756 85.0319 99.8775 85.9481 99.6426C86.5778 99.4809 87.23 99.186 87.6985 98.7804C88.1664 98.3744 88.45 97.8583 88.624 97.3511C88.798 96.8438 88.8629 96.3459 88.8949 96.0967C88.9062 96.0097 88.916 95.9222 88.9249 95.8352C87.2679 87.4108 78.2375 85.6644 72.4551 93.2576C69.3112 96.9298 69.7816 100.979 71.007 105.095C72.1356 108.887 74.8336 111.787 78.2065 113.633C81.9358 115.674 86.4721 116.435 90.6536 115.711C93.8628 115.083 96.8302 113.227 99.2957 110.758C102.126 107.922 104.276 104.306 105.382 100.796C107.124 95.2635 106.925 89.9864 105.192 85.2466C103.337 80.1696 99.7209 75.677 94.8414 72.1148C91.7885 69.8867 88.1124 68.3222 84.2415 67.401C80.1048 66.4165 75.77 66.1761 71.7507 66.6524C65.9467 67.3396 60.2425 69.7565 55.0824 73.1574C49.2041 77.0311 44.0386 82.1735 40.2253 87.5017C35.3218 94.3532 32.5211 100.395 30.7304 106.741C28.9235 113.142 28.0108 120.898 27.1221 129.119C29.0317 134.136 31.3527 138.413 34.3024 142.885ZM88.3124 91.5225C88.7843 92.8157 88.9691 94.2755 88.9283 95.7954C89.0694 94.3272 88.8511 92.8491 88.3124 91.5225ZM36.9527 119.792C41.1366 115.972 51.9061 106.196 52.1337 103.392C52.2123 102.424 51.7783 100.507 51.3241 98.7839L34.0915 114.767C32.5432 116.341 35.1842 118.023 36.0684 118.908L36.9527 119.792ZM51.042 94.4869C51.0941 94.4363 51.1501 94.3891 51.2091 94.3458L57.9151 89.1793C58.6465 88.616 59.6954 88.7517 60.2587 89.4831C60.822 90.214 60.6863 91.2634 59.9549 91.8267L54.1195 96.3223C54.8396 98.8276 55.8384 102.389 55.3267 104.546C54.2664 109.017 41.7211 119.891 38.0547 123.319L38.0449 123.328L38.04 123.332C38.0316 123.34 38.0233 123.348 38.0144 123.355L38.01 123.359L37.9815 123.384L37.9785 123.386L37.9486 123.411L37.9451 123.414C37.9245 123.43 37.9038 123.446 37.8827 123.461L37.8753 123.467L37.8468 123.486L37.8439 123.489C37.833 123.496 37.8222 123.504 37.8109 123.51L37.8104 123.511C37.7991 123.518 37.7873 123.526 37.776 123.533L37.7746 123.534L37.7436 123.552L37.7333 123.558L37.7062 123.573L37.7003 123.576L37.6694 123.592L37.663 123.596L37.6345 123.61L37.6241 123.615L37.5961 123.628L37.5878 123.632L37.5598 123.644L37.5494 123.649L37.5234 123.659L37.5072 123.665L37.4875 123.673L37.4678 123.68L37.4497 123.686L37.428 123.694L37.4113 123.699L37.3912 123.706L37.3725 123.711L37.3499 123.717L37.3341 123.722L37.311 123.728L37.2958 123.732L37.2732 123.737L37.254 123.741L37.2348 123.745L37.2162 123.749L37.1901 123.753L37.1788 123.755L37.1513 123.76L37.1375 123.762L37.1154 123.765L37.0953 123.767L37.0761 123.769L37.0554 123.771L37.0353 123.773L37.0161 123.774L36.9979 123.775L36.9724 123.776L36.9596 123.777L36.9345 123.778H36.9158H36.8967H36.8746L36.8554 123.777L36.8382 123.777L36.8116 123.775L36.7998 123.775L36.7723 123.773L36.7605 123.772L36.7315 123.769L36.7217 123.768L36.6912 123.765L36.6814 123.763L36.6529 123.759L36.6406 123.757L36.6116 123.752L36.6042 123.751L36.5698 123.744L36.5669 123.744L36.53 123.736H36.528L36.4951 123.727L36.4833 123.724L36.4528 123.716L36.4494 123.715L36.415 123.705L36.4081 123.703L36.3771 123.693L36.3698 123.691L36.3388 123.68L36.3314 123.677L36.299 123.665L36.296 123.664L36.2646 123.651L36.2528 123.647L36.2257 123.635L36.2184 123.631L36.1903 123.619L36.1781 123.613L36.1535 123.6L36.1427 123.595L36.1181 123.582L36.1024 123.574L36.0837 123.563L36.0645 123.553L36.0493 123.543L36.0291 123.531L36.0134 123.521L35.9942 123.509L35.9785 123.499L35.9588 123.486L35.9451 123.476L35.9234 123.46L35.9116 123.452L35.8895 123.435L35.8772 123.426L35.8561 123.409L35.8458 123.401L35.8207 123.38L35.8143 123.374L35.7912 123.354L35.7804 123.344L35.7627 123.328L35.748 123.314L35.7332 123.3L35.7219 123.288L33.7052 121.271C31.5056 119.072 28.6414 116.538 31.1743 113.039C31.6948 112.321 49.1511 96.1512 51.042 94.4869ZM76.8592 93.2114C77.132 94.1015 77.4427 94.392 77.7209 95.355C76.4478 95.3938 76.0713 94.9337 75.2549 93.957C75.0489 93.5137 75.2411 92.9877 75.6845 92.7818C76.1273 92.5758 76.6538 92.768 76.8592 93.2114ZM78.9404 91.7132C79.0397 92.5409 79.3105 92.8339 79.4742 93.7624C78.209 93.7186 77.915 93.2763 77.2416 92.2091C77.105 91.7402 77.3739 91.2492 77.8428 91.112C78.3117 90.9749 78.8032 91.2443 78.9404 91.7132ZM75.3247 95.553C75.509 96.7303 75.7405 96.7008 76.0438 97.6332C74.9118 98.0564 74.172 96.95 73.6382 96.0888C73.4903 95.6233 73.7478 95.1259 74.2133 94.9779C74.6793 94.83 75.1767 95.0876 75.3247 95.553ZM74.1047 97.9099C74.5716 99.2612 74.928 99.4583 75.7415 100.583C73.9361 100.637 73.4706 100.001 72.4546 98.5484C72.2786 98.0928 72.5047 97.5806 72.9604 97.4041C73.416 97.2277 73.9282 97.4543 74.1047 97.9099ZM73.3836 100.567C73.6441 102.181 74.0585 102.049 75.5075 102.447C73.7911 103.927 72.4261 102.805 71.6701 101.009C71.5482 100.536 71.8333 100.053 72.3062 99.9311C72.7795 99.8092 73.2617 100.094 73.3836 100.567ZM77.2564 103.214C77.221 104.366 76.4198 105.277 75.3271 105.67H75.3153C75.306 105.645 75.3119 105.656 75.2986 105.635L75.2902 105.638C75.3841 106.565 76.7044 106.388 77.4481 105.814C77.7902 105.551 77.9042 105.385 78.2793 105.126C78.3992 106.457 76.7299 107.716 75.4554 107.285C71.8746 106.077 75.5512 103.82 75.4903 103.32C75.4608 102.833 75.8324 102.413 76.32 102.384C76.8076 102.354 77.2269 102.726 77.2564 103.214ZM79.0303 111.078C74.0865 108.511 79.1247 108.061 79.8404 106.54L79.9662 106.321C80.9581 107.245 79.3208 108.345 78.5717 108.986C78.9541 109.132 79.6482 109.422 79.6836 109.434C80.1377 109.614 80.3594 110.129 80.179 110.583C79.9986 111.037 79.484 111.258 79.0303 111.078ZM78.3412 109.202C78.3191 109.225 78.2999 109.248 78.2842 109.269C78.3117 109.256 78.3299 109.232 78.3412 109.202ZM89.2095 108.78C86.6171 110.189 90.2422 112.928 90.9765 110.885C91.3717 109.785 88.6521 108.616 90.7175 106.698L90.718 107.252C90.629 109.608 93.5064 109.685 91.9886 112.089C89.5796 115.905 82.8849 110.251 88.0932 106.702C88.6668 106.394 89.382 106.609 89.6902 107.183C89.9984 107.757 89.7831 108.472 89.2095 108.78ZM94.6537 105.943C92.7431 107.516 96.9417 109.28 96.5239 107.515C96.3873 106.937 95.649 107.134 95.1521 107.094C95.9965 105.545 98.0197 106.658 97.6908 108.24C96.8764 112.165 89.3545 108.428 93.0488 104.214C93.5261 103.771 94.2722 103.798 94.7156 104.276C95.159 104.754 95.1309 105.5 94.6537 105.943ZM86.3836 78.8596C85.2167 76.3892 85.6203 74.8989 88.5705 74.5695C89.8371 74.428 89.9153 74.4825 90.7932 74.2923C88.5252 72.455 81.6816 72.4874 84.1698 77.4725C84.9823 79.101 86.1556 79.8525 87.6041 80.8007C85.3067 80.6734 83.5092 79.0847 82.6323 77.0115C79.975 70.7297 90.7293 69.664 93.1673 73.6631C94.836 76.4015 90.1247 76.8704 88.4604 77.1024C88.5247 77.2523 88.5965 77.3713 88.7101 77.5826C89.063 78.2255 88.828 79.0322 88.1856 79.3846C87.5432 79.7375 86.7361 79.5026 86.3836 78.8596ZM93.9522 79.9877C97.0636 79.5699 97.0676 81.8059 98.2527 84.3446L98.4355 84.8544C96.4738 85.1719 96.2408 83.1079 94.9299 82.3436L94.9088 82.3525C94.898 82.3815 94.9029 82.3765 94.9034 82.4085C94.8242 82.4871 94.8788 82.4404 94.723 82.5274C94.0216 82.7403 93.2808 82.3441 93.068 81.6427C92.8551 80.9418 93.2508 80.2005 93.9522 79.9877ZM98.7186 84.1814C98.2831 81.6191 96.5328 76.7342 93.1127 78.9343C90.4162 80.669 94.0624 84.3412 95.709 85.2648L97.1148 86.004C92.4683 86.4818 87.5795 79.5704 92.8964 76.8807C97.5989 74.5017 100.46 80.001 101.349 83.8241C101.448 84.5501 100.938 85.2191 100.212 85.3174C99.4864 85.4162 98.8174 84.9074 98.7186 84.1814ZM97.0897 90.6667C94.5657 85.2132 105.556 83.9966 104.35 91.4202L103.687 93.2831L103.442 91.4079C102.474 85.9062 98.2998 88.473 99.0922 89.4202C99.4368 89.9732 99.2672 90.7006 98.7142 91.0447C98.1612 91.3893 97.4338 91.2197 97.0897 90.6667ZM100.449 89.375C101.738 89.5097 103.02 90.3256 103.111 91.784L102.873 92.9219C101.987 92.2529 101.447 91.4124 100.591 91.7294C99.9406 91.7687 99.3817 91.2733 99.3429 90.623C99.304 89.9727 99.799 89.4138 100.449 89.375ZM101.595 99.6736C102.147 100.46 102.828 101.486 102.285 102.531C101.114 104.785 98.8504 101.638 97.9135 100.197C98.1042 100.585 98.0728 101.065 97.7921 101.432C96.2679 103.421 97.6781 105.913 100.033 103.898L100.696 103.35C100.313 108.523 92.7721 105.586 95.9169 100.001C96.3121 99.4833 97.0523 99.3835 97.5704 99.7787C97.6446 99.8358 97.7105 99.9002 97.7675 99.9695C97.6771 99.8264 97.6058 99.7119 97.5586 99.6377C97.2534 99.0621 97.4721 98.3479 98.0477 98.0426C98.6233 97.7374 99.3375 97.9566 99.6427 98.5317C99.7887 98.8738 100.959 101.099 101.221 101.623C101.411 101.144 101.548 99.8825 101.595 99.6736ZM97.2642 94.2126C101.72 90.0105 106.64 97.0979 101.595 99.6736L101.944 98.7696C103.322 95.3397 100.495 93.9511 99.1207 95.6681C98.7186 96.1807 97.9774 96.2707 97.4647 95.8686C96.9521 95.4665 96.8621 94.7253 97.2642 94.2126ZM101.525 96.2309C102.008 97.5565 102.076 98.0436 101.079 99.0272C100.635 98.6723 99.9086 97.761 99.7086 97.7369C99.2927 97.2351 99.3625 96.4919 99.8639 96.076C100.365 95.6602 101.109 95.7295 101.525 96.2309ZM101.155 101.753C101.129 101.762 101.102 101.775 101.054 101.804C101.089 101.818 101.123 101.798 101.155 101.753ZM76.1494 72.6078C77.1767 72.8098 77.1217 72.5965 77.8551 72.4078C77.9332 72.2623 77.856 70.8619 76.8641 70.8324C73.9862 70.7464 68.8934 74.25 73.3615 77.2813C74.4709 78.0339 76.8784 79.0715 78.1087 79.6328L75.3999 79.5232C69.5678 78.4236 67.3756 73.4872 72.3607 69.8253C81.1262 63.3862 84.7616 77.038 75.302 75.8406C74.4089 75.6067 73.8751 74.6929 74.1091 73.8003C74.3436 72.9077 75.2568 72.3739 76.1494 72.6078ZM97.274 128.043C95.3212 126.404 95.418 127.883 95.1339 129.799C92.8055 126.895 95.2646 124.555 98.5024 126.384C98.9605 126.724 99.0568 127.37 98.7176 127.828C98.3785 128.286 97.7321 128.382 97.274 128.043ZM103.531 136.515C101.207 134.631 101.261 134.681 99.0657 136.346L99.3016 135.101C100.385 132.652 103.056 133.892 104.698 134.812C105.168 135.135 105.288 135.777 104.966 136.247C104.644 136.717 104.001 136.838 103.531 136.515ZM102.544 133.517C100.139 132.004 99.8551 132.88 98.1254 134.664C97.9971 131.109 100.715 130.562 103.613 131.75C104.1 132.045 104.257 132.68 103.962 133.168C103.667 133.656 103.032 133.812 102.544 133.517ZM100.474 130.485C98.3519 129.559 97.9287 130.535 96.7879 132.171C96.0319 129.008 98.5771 127.985 101.242 128.569C101.771 128.781 102.028 129.382 101.816 129.911C101.604 130.44 101.003 130.697 100.474 130.485ZM87.3151 156.1C86.916 156.375 86.161 156.827 85.7378 157.295C86.4008 157.501 87.6302 157.538 88.0101 157.564C88.5798 157.582 89.0276 158.058 89.0099 158.628C88.9922 159.198 88.5159 159.645 87.9462 159.627C86.9312 159.557 85.7417 159.546 84.7793 159.137C81.6428 157.804 84.7744 155.348 86.2145 154.354C86.6967 154.05 87.3343 154.195 87.638 154.677C87.9418 155.159 87.7973 155.796 87.3151 156.1ZM103.674 139.422C101.418 136.543 102.009 136.848 99.366 138.727C100.636 134.324 102.686 135.696 105.2 138.032C105.584 138.453 105.554 139.106 105.133 139.49C104.711 139.873 104.058 139.844 103.674 139.422ZM103.271 142.346C101.259 139.611 101.767 139.792 98.9428 141.577C100.535 137.305 102.418 138.609 104.822 140.983C105.198 141.412 105.156 142.064 104.728 142.44C104.299 142.816 103.647 142.774 103.271 142.346ZM103.136 146.36C101.435 142.121 100.951 142.971 97.885 144.94C98.2664 143.907 98.1652 143.857 98.8681 143.086C101.438 140.265 103.647 143.004 104.991 145.454C105.24 145.967 105.028 146.584 104.516 146.835C104.004 147.085 103.385 146.872 103.136 146.36ZM96.0752 148.49C97.2558 146.804 100.656 142.631 102.688 145.897C104.623 149.009 101.622 153.52 100.048 150.864C99.6702 150.226 99.6776 149.592 99.626 148.89C100.717 151.896 102.007 151.042 101.519 148.595C100.826 145.116 99.2873 147.494 97.8142 149.602C97.507 150.082 96.8685 150.223 96.3883 149.916C95.9081 149.608 95.768 148.97 96.0752 148.49ZM97.1231 154.288C97.4839 154.235 97.8383 156.1 98.1927 155.188C98.5967 154.147 98.0103 153.195 97.5075 152.334C97.2612 151.82 97.478 151.203 97.9921 150.957C98.5063 150.71 99.1227 150.928 99.3689 151.442C101.729 157.499 95.6933 157.68 97.1231 154.288ZM95.9705 151.495C92.02 153.259 97.626 153.097 97.1231 154.288C96.9029 154.32 95.3566 154.242 95.3428 154.242C91.9974 154.122 92.4349 151.373 95.0705 149.637C95.5836 149.389 96.201 149.603 96.4492 150.116C96.6979 150.629 96.4836 151.247 95.9705 151.495ZM93.8195 156.442C88.1969 158.653 87.8646 154.326 91.4032 152.174C91.9316 151.961 92.5332 152.216 92.746 152.745C92.9594 153.274 92.7038 153.875 92.1749 154.089C91.5339 154.356 89.7767 155.543 91.265 155.955L93.8195 156.442ZM92.0136 159.293C92.9038 158.848 95.04 157.889 94.1297 156.835L93.8195 156.442C96.2747 155.73 96.0039 158.768 93.0419 161.084C92.5474 161.368 91.9168 161.197 91.6327 160.703C91.3486 160.208 91.5192 159.578 92.0136 159.293ZM80.7109 163.499C77.6983 165.052 76.4242 165.626 72.9987 165.502C75.4967 164.074 77.0317 163.583 79.4796 161.843C79.9372 161.502 80.5836 161.598 80.9237 162.055C81.2638 162.512 81.1685 163.159 80.7109 163.499ZM84.0179 161.515C83.4222 163.341 82.9046 163.916 80.9606 164.249C81.4501 163.012 81.9623 162.554 81.9726 161.235C82.0503 160.67 82.5708 160.275 83.1356 160.353C83.7004 160.43 84.0955 160.951 84.0179 161.515ZM85.5864 162.091C87.0649 161.637 88.2765 160.575 89.9369 159.754C89.6209 162.614 89.089 163.308 86.7144 165.028C85.9039 165.339 84.9941 164.934 84.6824 164.124C84.3708 163.313 84.7753 162.403 85.5864 162.091ZM72.8552 158.497C72.7028 157.965 72.6065 157.494 72.5735 157.07C72.4197 157.257 72.2678 157.469 72.112 157.712C71.8397 158.213 71.213 158.397 70.7121 158.125C70.2117 157.853 70.0264 157.226 70.2992 156.725L70.7736 155.987C71.8957 154.494 75.5488 152.729 76.2969 154.277C77.2598 156.269 73.9897 154.978 74.8149 157.849C74.9939 158.39 74.6999 158.974 74.1587 159.153C73.6176 159.332 73.0336 159.038 72.8552 158.497ZM75.7783 162.912C72.6635 162.785 71.4828 162.122 70.0859 159.245C72.4743 160.587 72.9501 161.194 75.5891 160.856C76.1563 160.804 76.6592 161.222 76.7113 161.789C76.7639 162.357 76.3461 162.86 75.7783 162.912ZM62.7567 153.498C63.3922 157.17 70.572 158.578 68.4693 160.618C67.9979 161.075 66.537 160.551 65.4729 160.624C64.6166 160.683 63.9732 160.75 63.1907 161.025C62.652 161.211 62.0641 160.925 61.8783 160.386C61.692 159.847 61.9781 159.26 62.5168 159.073C63.1278 158.859 63.7835 158.695 64.4529 158.602C62.8019 157.596 61.2113 156.629 60.7011 153.686C60.6495 153.118 61.0673 152.616 61.635 152.564C62.2027 152.512 62.7051 152.93 62.7567 153.498ZM57.338 143.242C58.383 143.678 58.9119 142.065 56.8524 141.21C55.6747 140.721 54.7948 140.021 54.4434 139.866C53.5031 139.451 52.9973 141.987 53.6609 143.534C55.1188 146.933 57.8802 148.853 59.0495 153.194L59.5185 156.105C59.547 156.675 59.108 157.159 58.5388 157.188C57.9696 157.216 57.485 156.777 57.4565 156.208L57.0603 153.747C55.7882 149.027 49.1928 143.91 51.7586 139.45C53.5832 136.278 55.8084 138.54 57.6089 139.29C62.3217 141.253 60.2027 146.707 56.2955 145.024C55.8035 144.736 55.6383 144.104 55.9259 143.612C56.2139 143.12 56.846 142.954 57.338 143.242ZM60.0739 145.489C62.1462 145.439 65.2453 146.081 64.5114 148.796C64.0917 150.35 62.2828 150.825 60.9385 151.129C60.3752 151.217 59.8473 150.831 59.7593 150.268C59.6713 149.705 60.0567 149.177 60.62 149.089C63.4345 148.451 62.9641 147.469 60.3084 147.54C59.7416 147.605 59.2304 147.198 59.1655 146.632C59.1011 146.065 59.5076 145.554 60.0739 145.489ZM65.1647 151.763C66.1787 151.408 70.8984 149.942 70.2747 152.761C70.078 153.651 68.9937 154.687 68.3773 155.349C67.9989 155.776 67.3466 155.815 66.9199 155.437C66.4933 155.058 66.4545 154.406 66.8325 153.979C67.2871 153.491 67.4803 153.298 67.6022 153.167C67.0743 153.278 66.5547 153.458 66.0563 153.625C65.5422 153.871 64.9258 153.654 64.6795 153.14C64.4333 152.626 64.6505 152.009 65.1647 151.763ZM80.82 156.772C80.3201 156.9 78.0207 157.517 79.4014 158.514C79.7558 158.77 80.1368 158.831 80.5541 158.893C81.1218 158.945 81.5396 159.448 81.487 160.016C81.4344 160.583 80.9321 161.001 80.3643 160.949C79.0632 160.756 77.7636 160.311 77.2116 158.98C76.1494 156.417 78.351 155.281 80.3924 154.752C80.9502 154.634 81.4978 154.991 81.6158 155.548C81.7337 156.106 81.3774 156.654 80.82 156.772ZM94.5318 125.594C91.6533 124.292 92.8276 126.406 93.4519 128.652L91.9812 127.263C90.049 124.615 92.0712 122.794 95.3733 123.708C95.8938 123.941 96.1273 124.551 95.8953 125.072C95.6628 125.593 95.0523 125.826 94.5318 125.594ZM78.7359 126.292C77.9873 127.658 80.3692 127.885 81.6507 128.274L80.2901 128.619C78.9595 128.701 77.8325 128.319 77.4112 127.452C77.4264 127.547 77.4225 127.648 77.397 127.749C76.9123 129.228 77.9897 129.057 79.2938 129.457C77.9824 130.372 76.7565 130.076 76.2222 129.068C76.2615 129.257 76.2271 129.461 76.1101 129.633C75.0047 131.029 76.8101 131.274 77.5493 131.545C75.7818 132.961 73.7906 130.983 74.8906 128.804C75.1197 128.468 75.5778 128.38 75.915 128.609C75.9872 128.658 76.0487 128.718 76.0973 128.785C75.9553 128.392 75.9037 127.917 75.9686 127.383C76.0693 126.988 76.4714 126.751 76.8656 126.851C77.0544 126.9 77.2072 127.017 77.3045 127.169C77.1851 126.746 77.2116 126.228 77.426 125.615C77.6127 125.253 78.0576 125.112 78.4193 125.299C78.7811 125.486 78.9227 125.931 78.7359 126.292ZM80.6956 124.957C79.6005 126.05 81.5332 126.242 83.6763 127.278C81.5352 127.287 77.4092 126.91 79.6334 123.935C79.9156 123.642 80.382 123.633 80.6755 123.915C80.9689 124.198 80.9783 124.664 80.6956 124.957ZM84.8333 123.672C82.1982 124.786 83.0004 124.573 85.6168 126.759C81.5686 126.627 79.9136 124.35 83.9791 121.792C84.4981 121.556 85.1101 121.786 85.346 122.305C85.5819 122.824 85.3524 123.436 84.8333 123.672ZM90.3213 123.49C86.0027 123.567 87.9664 124.247 90.1217 127.113C88.9499 126.912 88.3326 126.643 87.3923 125.794C84.4671 123.151 87.465 121.831 90.225 121.428C90.7946 121.401 91.2778 121.841 91.3044 122.411C91.3309 122.98 90.891 123.463 90.3213 123.49ZM90.5769 137.032C89.9197 137 90.0224 137.107 89.466 137.475C88.7322 136.681 89.4601 135.989 90.2112 135.604C90.6054 135.503 91.007 135.741 91.1082 136.135C91.2095 136.53 90.9716 136.931 90.5769 137.032ZM89.5098 139.43C88.5071 139.093 90.3061 137.855 90.6447 137.675C91.0414 137.583 91.4376 137.829 91.53 138.226C91.6229 138.622 91.3761 139.019 90.9799 139.111C89.9767 139.143 90.253 139.14 89.5098 139.43ZM90.3837 141.314C90.1768 141.133 88.6363 139.771 89.5098 139.43C90.078 139.621 90.1625 139.759 91.0257 139.987C91.3923 140.164 91.5457 140.605 91.3683 140.972C91.1908 141.338 90.7504 141.492 90.3837 141.314ZM89.3387 142.453C89.1111 142.1 88.5734 141.708 88.2293 141.376C89.1126 140.842 89.3284 140.842 90.3306 141.361C90.6319 141.635 90.6541 142.102 90.3803 142.403C90.106 142.704 89.64 142.726 89.3387 142.453ZM88.3906 144.048C88.0101 143.519 87.5884 143.329 87.0516 142.851C88.0765 142.297 88.391 142.41 89.4311 143.004C89.7197 143.291 89.7206 143.758 89.4331 144.046C89.146 144.335 88.6791 144.336 88.3906 144.048ZM86.9351 145.243C86.5483 144.479 86.2116 144.46 85.6557 143.916C86.5355 143.186 87.3898 143.754 88.1458 144.401C88.3783 144.736 88.2957 145.195 87.9615 145.428C87.6272 145.66 87.1676 145.578 86.9351 145.243ZM85.2408 146.071C85.0811 145.386 84.5979 145.036 84.3123 144.375C85.2639 143.966 86.1398 144.921 86.6456 145.623C86.769 146.012 86.5547 146.426 86.1669 146.55C85.7791 146.673 85.3642 146.459 85.2408 146.071ZM83.4005 146.64C83.4983 145.514 83.2875 145.549 83.0245 144.583C84.2514 144.526 84.6082 145.55 84.8746 146.593C84.8874 147 84.5679 147.34 84.1609 147.353C83.7539 147.366 83.4138 147.047 83.4005 146.64ZM81.313 146.165C81.979 145.532 81.7367 144.973 81.806 144.136C83.1036 144.736 83.0712 145.961 82.4646 147.086C82.21 147.404 81.746 147.455 81.4285 147.201C81.1105 146.947 81.0589 146.483 81.313 146.165ZM79.3695 145.542C80.238 145.468 80.2075 144.47 80.4764 143.723C81.601 144.829 81.1272 146.38 79.7435 146.968C79.3498 147.072 78.9468 146.836 78.8435 146.442C78.7403 146.048 78.9758 145.645 79.3695 145.542ZM77.5341 144.493C78.7472 144.464 78.6258 143.959 79.4663 143.125C79.9696 144.636 79.1139 145.532 77.716 145.956C77.3119 146.006 76.9438 145.719 76.8931 145.315C76.843 144.911 77.1301 144.543 77.5341 144.493ZM75.9656 142.819C76.8312 142.778 77.3788 142.161 78.0885 141.75C78.2424 143.052 77.3871 143.849 76.2369 144.268C75.8368 144.343 75.4515 144.08 75.3768 143.679C75.302 143.279 75.5655 142.894 75.9656 142.819ZM74.5397 140.632C75.5365 141.14 75.7031 140.661 76.6174 140.05C76.7211 141.767 75.5454 142.318 74.0201 142.012C73.6387 141.869 73.4465 141.443 73.5895 141.063C73.7331 140.682 74.1582 140.489 74.5397 140.632ZM73.4485 137.926C74.2099 139.295 75.3694 138.495 76.2478 138.148C76.2345 139.804 73.6908 140.426 72.2187 138.739C71.994 138.399 72.0874 137.942 72.4271 137.718C72.7667 137.493 73.2238 137.586 73.4485 137.926ZM73.942 134.508C74.7584 137.236 74.7795 137.118 76.6405 136.921C76.4503 137.292 76.5038 137.302 76.1706 137.534C74.3337 138.809 73.0022 135.879 72.4841 134.728C72.4236 134.325 72.7009 133.95 73.1034 133.889C73.506 133.829 73.8815 134.106 73.942 134.508ZM74.5067 131.665C74.4158 133.875 74.7702 133.47 76.6587 134.372C74.1081 135.113 73.3305 134.056 73.0326 131.683C73.0277 131.276 73.3536 130.942 73.7606 130.937C74.1681 130.932 74.5018 131.258 74.5067 131.665ZM45.7502 127.721C46.5307 128.521 47.9881 127.111 47.9375 126.484C48.0043 126.479 48.0756 126.473 48.1523 126.466C49.8648 126.318 50.6198 123.18 48.8792 122.885C47.6897 122.684 46.9239 124.469 46.9303 125.589C46.9338 125.68 46.9382 125.762 46.9441 125.836C45.7044 125.522 43.9585 125.794 45.7502 127.721ZM39.4536 132.674C40.7139 135.872 42.1634 132.962 42.0258 132.337C42.0022 132.228 41.9624 132.127 41.9098 132.034C43.4503 131.949 43.9059 131.163 43.612 130.58C44.9755 130.55 47.1225 128.198 44.5233 127.657C43.4031 127.425 43.1337 127.715 42.7651 128.756C42.6682 129.307 42.6859 129.712 42.7828 129.999C42.5355 129.942 42.2445 129.93 41.9152 129.982C41.3731 130.069 41.1878 130.942 41.4143 131.538C40.476 130.965 38.8918 131.231 39.4536 132.674ZM37.5106 134.235C36.2095 134.144 35.918 135.081 36.6544 136.059C38.6254 138.676 40.5635 134.447 37.5106 134.235ZM34.5226 136.955C34.1372 137.059 33.1841 138.367 33.8679 139.153C35.9967 141.602 37.5214 136.147 34.5226 136.955ZM36.0232 116.267C37.5077 119.047 39.8577 115.083 37.2132 114.443C36.0237 114.155 35.6698 115.205 36.0232 116.267ZM49.3383 103.697C50.8459 107.035 51.9032 102.743 51.2764 101.716C50.9864 101.241 48.5794 101.925 49.3383 103.697ZM47.7527 107.482C51.561 108.254 48.806 101.684 46.9215 105.187C46.3474 106.254 46.6855 106.986 47.7527 107.482ZM44.3557 109.157C45.5648 111.386 47.2021 109.46 46.6433 108.048C45.7049 105.678 43.6587 107.629 44.3557 109.157ZM42.8629 111.48C43.5004 111.68 44.221 110.975 44.3036 110.797C44.5778 110.204 43.6484 108.323 42.7911 109.167C42.5508 109.404 42.2033 110.108 42.2136 110.622C41.5318 110.507 39.6483 111.851 39.2388 112.347C38.2101 113.471 39.9987 114.93 40.4264 114.879C40.9105 114.821 43.0905 112.886 42.8629 111.48ZM32.7953 108.965C32.4247 107.215 32.2448 106.62 33.3336 105.254C34.0251 106.268 34.2542 106.966 34.9296 107.959C35.2073 108.548 34.9546 109.251 34.3653 109.529C33.7764 109.807 33.0735 109.554 32.7953 108.965ZM37.7859 104.62C34.3407 103.858 34.558 100.042 36.1451 97.7522L37.3626 96.4865C37.3346 97.4499 36.531 102.027 38.0125 101.877C38.7699 101.94 39.3332 102.604 39.2708 103.362C39.2084 104.119 38.5433 104.682 37.7859 104.62ZM43.7319 92.825C40.7508 92.3959 41.3057 96.5607 43.9811 94.9775C44.9131 94.426 44.9047 93.5343 44.6437 92.6982C44.3675 92.8211 44.0539 92.8708 43.7319 92.825ZM45.4965 91.8434C46.4113 93.1209 46.689 95.6882 44.5833 96.9121C38.6524 100.36 35.9736 89.3366 44.2013 89.516C45.1151 89.6458 45.7511 90.4912 45.6214 91.405C45.5993 91.5598 45.5565 91.7068 45.4965 91.8434ZM50.0108 86.8082C50.2998 82.3043 46.1557 85.7288 47.789 87.8453C49.2956 89.7977 54.3018 89.0368 56.4488 89.0555C55.1487 89.7869 55.3798 89.7672 53.8172 90.1403C44.2952 92.4126 43.2655 84.3328 48.0903 82.493C51.4372 81.2165 52.7368 84.0964 52.753 87.0436C52.6881 87.8011 52.0216 88.3624 51.2642 88.297C50.5072 88.2322 49.9459 87.5656 50.0108 86.8082ZM66.7985 72.8541C66.9986 75.4848 66.9298 78.3956 63.7643 78.9225C59.0943 79.7001 62.2946 81.8142 65.5569 82.06C76.1047 82.8558 59.0746 81.3718 70.1405 82.3608C67.7954 83.0824 67.9841 83.1699 65.5471 83.3458C62.795 83.5449 58.1864 82.1834 59.7087 78.8385C61.3529 75.2247 64.5753 78.8213 64.2087 74.1861C61.0506 74.4383 58.4209 76.3916 57.5892 79.5876C56.2547 84.7123 61.9579 85.3429 65.4758 85.9382L62.8923 86.3869C56.6332 86.6632 53.626 81.5085 56.7836 76.194C58.7974 72.8049 61.49 71.5884 65.1843 71.4429C65.4355 71.3982 65.6837 71.4252 65.9074 71.5097L65.9197 71.5142C65.93 71.5181 65.9403 71.522 65.9502 71.5265C66.0622 71.5727 66.1664 71.6331 66.2608 71.7054L66.2652 71.7093L66.28 71.7211L66.2927 71.7309L66.2996 71.7368C66.4805 71.8858 66.6245 72.0819 66.711 72.3109L66.7135 72.3178L66.715 72.3218L66.7194 72.334L66.7258 72.3522L66.7282 72.3586C66.7808 72.5144 66.8059 72.6821 66.7985 72.8541ZM81.283 91.2231C82.6323 91.1882 82.8535 91.5569 84.9243 92.8791C82.1137 92.9656 83.3179 92.9273 81.311 92.9922C80.8224 93 80.4204 92.6102 80.4125 92.1217C80.4046 91.6331 80.7944 91.2305 81.283 91.2231ZM82.8839 109.329L82.9011 109.328L82.8997 109.324C81.5504 109.115 81.4196 111.837 83.5209 111.892C84.1477 111.909 84.6928 110.368 83.7726 109.109C83.5475 109.334 83.2088 109.429 82.8839 109.329ZM84.0302 108.539C85.3293 109.341 85.8385 113.139 83.3391 113.075C79.0475 112.966 79.8551 106.897 83.4099 107.639C83.8075 107.763 84.0552 108.141 84.0302 108.539ZM32.64 127.331C30.4537 124.508 29.9769 123.855 30.0162 120.315C31.9524 122.027 32.8371 123.286 34.873 124.843C35.5597 125.46 35.6167 126.517 35.0003 127.203C34.3835 127.89 33.3272 127.947 32.64 127.331ZM45.3859 148.906C46.861 150.333 47.3113 150.683 47.3176 152.711C46.0146 152.054 45.4695 151.526 44.132 150.905C43.5805 150.559 43.4134 149.83 43.7599 149.279C44.106 148.727 44.8339 148.56 45.3859 148.906ZM101.508 173.83C104.274 173.556 107.18 173.856 108.916 170.684L109.3 169.801C109.65 169.006 110.578 168.644 111.373 168.993C112.168 169.342 112.53 170.27 112.181 171.066L111.357 172.359C108.981 175.406 102.65 176.572 101.508 173.83ZM104.11 170.802C103.853 168.487 100.236 171.003 100.997 172.777L101.299 173.328L101.508 173.83C100.737 173.906 100.844 174.024 100.142 173.43C96.6065 170.435 105.021 163.138 107.208 170.26C107.358 171.115 106.786 171.93 105.93 172.08C105.075 172.23 104.26 171.658 104.11 170.802Z" fill="#242B3D"/>
<path fill-rule="evenodd" clip-rule="evenodd" d="M155.42 84.6833H114.139C114.77 86.3619 115.599 87.9343 116.592 89.3779H152.966C153.959 87.9343 154.788 86.3619 155.42 84.6833ZM118.555 91.8361C119.394 92.7444 120.306 93.58 121.283 94.335H148.276C149.252 93.58 150.165 92.7444 151.003 91.8361H118.555ZM125.27 96.7927C128.169 98.1798 131.401 98.9485 134.779 98.9485C138.157 98.9485 141.389 98.1798 144.288 96.7927H125.27Z" fill="#242B3D"/>
<path fill-rule="evenodd" clip-rule="evenodd" d="M133.851 81.9833C134.254 82.2714 135.003 82.2714 135.424 82.1416C135.845 82.0113 135.939 81.7518 135.985 76.8679C136.032 71.9841 136.032 62.4769 135.865 56.8223C135.697 51.1677 135.362 49.3657 135.114 48.4515C134.866 47.5372 134.704 47.5102 134.449 47.9673C134.193 48.4245 133.844 49.3657 133.642 50.2534C133.441 51.1407 133.387 51.9743 133.36 57.0135C133.333 62.0522 133.333 71.2969 133.361 76.2073C133.39 81.1182 133.448 81.6948 133.851 81.9833Z" fill="#242B3D"/>
<path fill-rule="evenodd" clip-rule="evenodd" d="M127.102 160.66C128.678 160.66 129.956 159.454 129.956 157.967C129.956 156.479 128.678 155.273 127.102 155.273C125.527 155.273 124.25 156.479 124.25 157.967C124.25 159.454 125.527 160.66 127.102 160.66ZM127.102 163.482C128.765 163.482 130.263 162.853 131.341 161.835C132.392 160.843 133.043 159.475 133.043 157.967C133.043 156.458 132.392 155.09 131.341 154.098C130.263 153.08 128.765 152.451 127.102 152.451C125.44 152.451 123.942 153.08 122.864 154.098C121.813 155.09 121.163 156.458 121.163 157.967C121.163 159.475 121.813 160.843 122.864 161.835C123.942 162.853 125.44 163.482 127.102 163.482ZM133.581 164.216C131.917 165.787 129.625 166.759 127.102 166.759C124.579 166.759 122.288 165.787 120.624 164.216C118.932 162.619 117.886 160.409 117.886 157.967C117.886 155.524 118.932 153.314 120.624 151.717C122.288 150.146 124.579 149.174 127.102 149.174C129.625 149.174 131.917 150.146 133.581 151.717C135.273 153.314 136.32 155.524 136.32 157.967C136.32 160.409 135.273 162.619 133.581 164.216ZM127.356 169.594C130.244 168.244 133.033 166.711 135.708 165.011C137.222 163.038 138.122 160.575 138.122 157.901C138.122 154.657 136.797 151.722 134.657 149.598C132.516 147.474 129.551 146.16 126.272 146.16C125.086 146.16 123.94 146.332 122.86 146.652C121.562 147.037 120.382 147.607 119.223 148.458C118.749 148.805 118.303 149.187 117.887 149.598C115.747 151.722 114.423 154.657 114.423 157.901C114.423 161.145 115.747 164.08 117.887 166.204C120.029 168.328 122.993 169.643 126.272 169.643C126.637 169.643 126.999 169.626 127.356 169.594Z" fill="#242B3D"/>
<path d="M170.058 111.237C169.942 112.091 169.816 112.94 169.672 113.784C168.312 114.853 166.917 115.976 165.67 117.03C163.036 119.257 161.097 121.153 159.081 123.124C158.672 123.524 158.26 123.928 157.838 124.337C156.581 125.558 155.261 126.815 153.971 127.983C152.654 129.175 151.307 130.334 149.984 131.369C148.686 132.385 147.411 133.279 146.164 134.067C144.929 134.847 143.723 135.52 142.552 136.103H142.546C141.362 136.691 140.23 137.181 139.08 137.616C137.899 138.063 136.682 138.462 135.361 138.854C134.654 139.064 133.818 139.299 132.96 139.54C130.838 140.137 128.58 140.771 126.402 141.576C124.788 142.173 123.23 142.858 121.7 143.583C119.367 144.319 117.276 145.602 115.583 147.281C112.842 150 111.147 153.756 111.147 157.901C111.147 162.046 112.842 165.801 115.583 168.521C117.184 170.109 119.141 171.343 121.322 172.095C118.996 171.32 116.8 170.273 114.834 168.844C114.741 168.776 114.647 168.706 114.555 168.637H114.554C114.461 168.567 114.369 168.496 114.278 168.425L114.277 168.424C114.187 168.353 114.096 168.28 114.006 168.207H114.005L113.735 167.985C111.235 165.88 109.174 163.059 107.785 159.264C107.736 159.128 107.686 158.992 107.639 158.854C107.591 158.716 107.544 158.576 107.498 158.436C107.452 158.295 107.407 158.153 107.362 158.01C107.318 157.867 107.274 157.723 107.232 157.577C107.189 157.431 107.147 157.284 107.107 157.136C107.066 156.988 107.026 156.838 106.987 156.688C106.948 156.537 106.91 156.384 106.873 156.231C106.836 156.077 106.8 155.922 106.765 155.766C106.729 155.61 106.695 155.452 106.662 155.293C106.629 155.134 106.596 154.974 106.565 154.813C106.533 154.651 106.502 154.488 106.473 154.323C106.845 153.457 107.237 152.529 107.768 151.838C108.905 150.605 110.042 149.374 111.08 148.291C112.179 147.146 113.227 146.096 114.174 145.238C115.106 144.395 115.984 143.697 116.864 143.094C117.725 142.505 118.58 142.016 119.485 141.577C120.415 141.128 121.396 140.73 122.409 140.375C123.446 140.012 124.518 139.692 125.607 139.408C126.805 139.096 127.996 138.831 129.188 138.567C130.36 138.306 131.536 138.045 132.502 137.802C133.688 137.503 134.868 137.166 136.055 136.763C137.245 136.358 138.436 135.887 139.637 135.319C140.829 134.757 142.025 134.101 143.229 133.366C144.402 132.65 145.602 131.843 146.828 130.963C148.049 130.087 149.267 129.159 150.541 128.13C151.866 127.061 153.229 125.906 154.694 124.616C156.311 123.193 158.513 121.182 160.569 119.304C161.46 118.489 162.312 117.709 163.799 116.37C165.131 115.171 166.209 114.225 167.166 113.439C168.148 112.631 169.064 111.933 170.058 111.237ZM168.636 118.814C164.486 136.047 154.536 150.965 141.007 161.311C141.263 160.215 141.399 159.073 141.399 157.901C141.398 153.756 139.703 150 136.962 147.281C135.257 145.59 133.148 144.3 130.794 143.568C131.824 143.257 132.85 142.968 133.844 142.689C134.651 142.462 135.438 142.24 136.283 141.989C137.685 141.574 138.977 141.151 140.232 140.676C141.518 140.189 142.752 139.657 144.005 139.033L144.003 139.031C145.266 138.403 146.568 137.675 147.904 136.831C149.23 135.994 150.595 135.037 151.994 133.943C153.368 132.867 154.777 131.654 156.16 130.401C157.57 129.125 158.897 127.864 160.116 126.68C160.538 126.27 160.951 125.867 161.36 125.467C163.326 123.545 165.217 121.695 167.782 119.526C168.059 119.293 168.344 119.054 168.636 118.814ZM170.688 104.349C170.646 105.239 170.588 106.125 170.517 107.007C169.777 107.482 168.998 107.998 168.232 108.533C167.138 109.296 166.146 110.051 165.093 110.917C164.001 111.815 162.901 112.777 161.61 113.939C161.138 114.365 159.781 115.603 158.366 116.897C156.56 118.547 154.625 120.317 152.531 122.159C151.034 123.477 149.707 124.603 148.493 125.583C147.229 126.604 146.058 127.499 144.921 128.315C143.789 129.127 142.66 129.884 141.526 130.576C140.421 131.25 139.328 131.85 138.241 132.362C137.165 132.871 136.089 133.297 135.006 133.665C133.92 134.034 132.821 134.346 131.708 134.627C130.505 134.931 129.493 135.156 128.484 135.38C127.233 135.658 125.985 135.936 124.788 136.247C123.61 136.554 122.451 136.899 121.334 137.29C120.193 137.689 119.096 138.135 118.065 138.634C117.009 139.145 116.017 139.711 115.022 140.393C114.046 141.061 113.057 141.85 111.985 142.819C111.314 143.428 110.627 144.09 109.931 144.79C110.122 143.578 110.225 142.344 110.234 141.094C111.327 140.356 112.394 139.64 113.309 139.047C114.588 138.218 115.85 137.436 117.074 136.744C119.536 135.354 122.104 134.187 123.389 133.604L124.306 133.189C124.445 133.197 124.584 133.203 124.723 133.208C128.235 133.325 131.913 132.139 134.923 129.623L135.112 129.459C135.861 128.813 136.531 128.113 137.121 127.371C139.457 126.474 141.791 125.568 144.072 124.513C145.267 123.961 146.45 123.363 147.631 122.709C148.807 122.058 149.951 121.367 151.07 120.627C152.184 119.89 153.296 119.091 154.39 118.242C155.505 117.377 156.577 116.483 157.59 115.572C159.048 114.262 160.454 112.855 161.754 111.555C162.215 111.094 162.661 110.646 163.094 110.221C163.91 109.418 164.655 108.71 165.332 108.104C165.996 107.508 166.641 106.972 167.28 106.489C167.892 106.027 168.467 105.645 169.026 105.303C169.606 104.947 170.147 104.644 170.688 104.349ZM75.3322 86.8048C79.1582 85.1798 83.253 84.8862 86.8976 87.007C87.3836 87.29 87.8581 87.6106 88.3175 87.9708C89.7576 89.0998 90.9586 90.7902 91.63 92.6417C92.2296 94.295 92.3933 96.0496 91.9015 97.5929C91.235 99.6843 89.8834 101.102 88.34 101.892C87.3261 102.41 86.2315 102.662 85.1964 102.657C85.1199 102.657 85.0445 102.655 84.9699 102.652H84.966C80.2728 102.482 79.4107 97.7535 81.4855 98.2706C81.5141 98.278 81.5747 98.295 81.6046 98.3048L81.6378 98.3156C81.6697 98.3268 81.7022 98.3404 81.7355 98.3536L81.7638 98.3654C81.7987 98.3801 81.8344 98.396 81.8703 98.4132L81.8976 98.4259C81.9355 98.4446 81.9745 98.4648 82.0138 98.4865L82.0343 98.4982C82.076 98.5212 82.1181 98.5459 82.1613 98.5724L82.1779 98.5822C82.2226 98.6097 82.2684 98.6401 82.3146 98.671L82.3273 98.6798C82.3764 98.7132 82.4266 98.7484 82.4777 98.7863L82.4826 98.7902C82.5345 98.8284 82.5878 98.8691 82.6417 98.9122L82.6466 98.9161C82.7011 98.9598 82.7567 99.0058 82.8136 99.0538L82.8156 99.0558C82.8725 99.1044 82.931 99.1561 82.9904 99.2101C83.7203 99.8751 85.0331 99.8777 85.9494 99.6427C86.5789 99.481 87.231 99.1858 87.6994 98.7804C88.1673 98.3744 88.4511 97.858 88.6251 97.3507C88.799 96.8437 88.8637 96.346 88.8957 96.0968C88.9025 96.0462 88.9088 95.996 88.9142 95.9454V95.9415L88.9152 95.9376V95.9327L88.923 95.8595V95.8556L88.924 95.8517V95.8478L88.925 95.8429V95.839L88.9259 95.8351C88.9382 95.7078 88.9488 95.581 88.9562 95.4542V95.4493C88.9631 95.3354 88.9669 95.2215 88.9689 95.1075C88.9704 95.0412 88.9708 94.9737 88.9708 94.9074V94.8976C88.9708 94.853 88.9709 94.8084 88.9699 94.7638L88.9679 94.6945C88.9669 94.6523 88.9655 94.6092 88.964 94.5665L88.963 94.5421C88.9606 94.4841 88.9577 94.4253 88.9542 94.3673L88.9533 94.3458C88.9508 94.3027 88.9474 94.26 88.9445 94.2169V94.2159L88.9386 94.1486C88.9352 94.1078 88.9308 94.0663 88.9269 94.0255L88.923 93.9913C88.9181 93.9432 88.9133 93.895 88.9074 93.8468L88.9015 93.7941C88.8966 93.7562 88.8918 93.7172 88.8869 93.6788L88.8859 93.673L88.8761 93.6056C88.8703 93.567 88.8644 93.5289 88.8585 93.4904L88.8517 93.4484C88.8453 93.4086 88.8381 93.3681 88.8312 93.3283L88.8175 93.2531C88.8112 93.2192 88.8054 93.1849 88.799 93.1515L88.7814 93.0685L88.7628 92.9825L88.7453 92.9025L88.7257 92.8146C88.7179 92.7826 88.7097 92.7499 88.7013 92.7179L88.6808 92.6349C88.6729 92.6034 88.6643 92.5711 88.6554 92.5392L88.6339 92.4611L88.6095 92.3761L88.5861 92.296C88.5767 92.2646 88.5666 92.2332 88.5568 92.2023L88.5324 92.1251C88.5216 92.0912 88.5105 92.0575 88.4992 92.0236L88.4796 91.9669C88.4678 91.9325 88.4558 91.8978 88.4435 91.8634L88.4152 91.7863L88.3537 91.6222C88.3409 91.5898 88.3279 91.557 88.3146 91.5245C87.4642 89.4283 85.8145 87.7113 83.5207 87.0138C81.3025 86.4584 79.1925 86.5442 77.2667 87.1173C74.8786 87.8281 72.797 89.2879 71.1593 91.2013C69.5551 93.0754 68.3758 95.3893 67.7589 97.8527C67.0939 100.508 67.075 103.353 67.8712 106.029C69.2632 110.705 72.5493 114.258 76.6457 116.5C77.9806 117.231 79.404 117.821 80.8751 118.265C78.1874 119.211 75.7377 120.701 73.7062 122.607C71.2353 124.924 69.3846 127.862 68.4767 131.192C67.6914 134.071 67.6129 137.223 68.4484 140.495C68.7177 141.549 69.0276 142.507 69.38 143.379C69.1097 143.125 68.8432 142.865 68.5812 142.6C64.6324 138.598 61.6744 133.363 60.0597 128.485C58.419 123.526 57.8498 118.062 58.3615 112.712C58.8618 107.482 60.3948 102.363 62.9699 97.9386C63.5371 96.9639 64.2013 95.9888 64.9445 95.0402C67.6115 91.6384 71.3214 88.5085 75.3322 86.8048ZM80.2882 63.3937C92.6433 41.3997 111.289 32.5403 136.225 36.8165C152.527 47.3678 164.537 64.2167 168.933 83.9669C168.117 84.3301 167.4 84.6751 166.726 85.0353C165.877 85.4894 165.164 85.934 164.481 86.4298C163.788 86.9322 163.104 87.5016 162.42 88.1613C161.757 88.8012 161.093 89.5331 160.423 90.381C159.54 91.4992 158.697 92.7503 157.812 94.0656C157.402 94.6751 156.982 95.2991 156.533 95.9445C155.862 96.9117 155.162 97.8751 154.453 98.7824C153.755 99.6749 153.032 100.532 152.298 101.309C151.586 102.062 150.877 102.722 150.156 103.311H150.151C149.419 103.908 148.677 104.436 147.908 104.915C147.117 105.409 146.315 105.848 145.529 106.225C144.697 106.624 143.866 106.967 143.063 107.244C142.306 107.506 141.562 107.711 140.79 107.845C140.036 107.976 139.273 108.035 138.464 108.009C137.627 107.982 136.693 107.861 135.713 107.694C134.748 107.531 133.76 107.325 132.77 107.117C131.264 106.482 129.635 106.135 127.97 106.08C124.457 105.963 120.78 107.149 117.77 109.665L117.58 109.829C114.672 112.338 112.948 115.666 112.508 119.044C112.061 122.48 112.934 125.966 115.234 128.717C115.255 128.742 115.26 128.747 115.36 128.862C116.484 130.165 117.833 131.177 119.317 131.897C118.163 132.457 116.83 133.137 115.474 133.902C114.126 134.664 112.818 135.474 111.53 136.308C110.98 136.664 110.464 137.004 109.968 137.333C109.253 132.478 107.41 128.237 104.534 124.882C101.884 121.789 98.3716 119.464 94.0734 118.114C96.8696 117.042 99.4242 115.254 101.613 113.062C104.815 109.854 107.251 105.754 108.506 101.769C110.474 95.5203 110.238 89.5324 108.265 84.1329C106.182 78.4348 102.165 73.4221 96.7619 69.4786C93.3285 66.9724 89.2524 65.2265 84.9972 64.214C83.4465 63.8449 81.8694 63.5721 80.2882 63.3937ZM127.867 109.345C130.55 109.434 133.093 110.514 134.861 112.564C134.889 112.596 134.858 112.561 134.95 112.671C136.639 114.692 137.279 117.269 136.946 119.822C136.606 122.433 135.256 125.021 132.975 126.989C132.95 127.011 132.946 127.012 132.823 127.114C130.449 129.099 127.566 130.036 124.825 129.944C122.143 129.855 119.6 128.774 117.831 126.725C117.804 126.693 117.835 126.728 117.742 126.617C116.054 124.597 115.414 122.019 115.746 119.467C116.086 116.856 117.437 114.268 119.718 112.3C119.743 112.278 119.746 112.276 119.868 112.174C122.243 110.189 125.127 109.254 127.867 109.345ZM133.624 115.566C131.612 112.079 126.871 111.046 123.035 113.259C119.2 115.472 117.722 120.093 119.734 123.58C121.745 127.067 126.486 128.1 130.321 125.887C134.157 123.674 135.636 119.052 133.624 115.566ZM123.527 115.862C125.782 113.948 129.02 114.057 130.76 116.107C132.5 118.156 132.083 121.369 129.829 123.283C127.575 125.197 124.336 125.089 122.596 123.039C120.856 120.99 121.273 117.777 123.527 115.862ZM66.0685 113.129C64.6638 112.825 63.4632 113.159 62.5353 113.883C61.8594 114.41 61.36 115.133 61.0607 115.949C60.781 116.713 60.6716 117.575 60.755 118.44C60.9056 120.001 61.6829 121.585 63.216 122.64C63.9565 123.149 64.8648 123.4 65.7833 123.42C66.5794 123.437 67.4045 123.277 68.1378 122.96C68.9286 122.618 69.6276 122.09 70.1056 121.395C70.5102 120.806 70.7554 120.113 70.7726 119.327C70.8074 117.724 70.3967 116.365 69.5998 115.3C68.7731 114.195 67.5754 113.456 66.0685 113.129ZM170.704 97.6398C170.745 98.6179 170.768 99.6011 170.771 100.589C170.441 100.766 169.95 101.032 169.206 101.438C168.561 101.79 167.931 102.139 167.322 102.512C166.663 102.915 165.998 103.359 165.31 103.878C164.649 104.376 163.933 104.976 163.156 105.672C162.392 106.357 161.613 107.094 160.803 107.892C160.362 108.325 159.907 108.78 159.437 109.25C158.198 110.49 156.857 111.832 155.402 113.141C154.415 114.028 153.406 114.871 152.393 115.657C151.379 116.444 150.332 117.195 149.266 117.901C148.193 118.609 147.122 119.258 146.044 119.855C144.971 120.449 143.859 121.009 142.703 121.544C141.687 122.014 140.637 122.461 139.569 122.895C139.863 122.024 140.068 121.136 140.185 120.244C140.264 119.632 140.301 119.02 140.297 118.409C140.697 118.316 141.116 118.213 141.569 118.095C142.483 117.855 143.424 117.568 144.417 117.186C145.416 116.802 146.404 116.352 147.374 115.847C148.403 115.311 149.455 114.698 150.517 114.024C151.583 113.345 152.667 112.598 153.755 111.776C154.739 111.033 155.743 110.21 156.759 109.302C158.157 108.051 159.468 106.732 160.663 105.53C161.228 104.962 161.768 104.42 162.272 103.93C163.032 103.19 163.7 102.579 164.407 101.997C165.121 101.41 165.901 100.829 166.884 100.151C168.026 99.3627 169.44 98.4458 170.704 97.6398ZM127.94 118.502C127.402 117.869 126.402 117.836 125.705 118.427C125.009 119.018 124.88 120.011 125.417 120.644C125.955 121.277 126.956 121.311 127.652 120.72C128.348 120.128 128.477 119.135 127.94 118.502ZM64.5451 116.456C64.7328 116.31 65.0117 116.249 65.3781 116.328C65.5319 116.362 65.6781 116.403 65.8156 116.45C65.6119 116.648 65.4112 116.872 65.213 117.116C64.8947 117.589 65.0196 118.231 65.4923 118.549C65.965 118.867 66.6066 118.742 66.925 118.27C67.0595 118.102 67.1748 117.935 67.2912 117.814C67.4456 118.215 67.5202 118.7 67.508 119.263C67.5057 119.365 67.4723 119.458 67.4171 119.538C67.2977 119.712 67.0927 119.858 66.8449 119.965C66.5396 120.097 66.1898 120.163 65.8468 120.155C65.5405 120.149 65.2638 120.083 65.0724 119.951C64.4087 119.495 64.0724 118.809 64.007 118.133C63.9712 117.761 64.0161 117.396 64.133 117.076C64.2306 116.81 64.3711 116.592 64.5451 116.456ZM169.593 87.2599C169.981 89.4487 170.27 91.6728 170.468 93.923C168.938 94.8859 166.719 96.2961 165.027 97.464C163.98 98.1864 163.132 98.8182 162.334 99.4747C161.529 100.137 160.801 100.802 159.993 101.588C159.479 102.088 158.926 102.644 158.347 103.227C157.16 104.42 155.859 105.729 154.583 106.869C153.688 107.669 152.75 108.434 151.784 109.163C150.784 109.919 149.771 110.617 148.763 111.259C147.782 111.883 146.812 112.448 145.864 112.941C144.931 113.427 144.055 113.831 143.252 114.14C142.409 114.464 141.576 114.717 140.749 114.934C140.467 115.007 140.166 115.081 139.853 115.153C139.476 113.775 138.858 112.457 137.991 111.257C138.115 111.263 138.239 111.27 138.362 111.274C139.423 111.308 140.398 111.234 141.34 111.07C142.264 110.91 143.177 110.657 144.125 110.329C145.051 110.009 146 109.619 146.938 109.169C147.873 108.72 148.784 108.224 149.637 107.693C150.537 107.131 151.394 106.523 152.224 105.845L152.222 105.841C153.061 105.155 153.875 104.398 154.679 103.548C155.462 102.719 156.251 101.782 157.027 100.791C157.79 99.8145 158.526 98.8016 159.222 97.7999C159.66 97.1694 160.098 96.5184 160.526 95.8829C161.387 94.6038 162.205 93.3869 162.983 92.4034C163.541 91.6967 164.108 91.0741 164.686 90.5167C165.243 89.9785 165.814 89.5059 166.401 89.0802C166.996 88.6482 167.588 88.2769 168.262 87.9161C168.651 87.7083 169.09 87.4924 169.593 87.2599ZM110.907 82.2716C113.358 93.1967 123.115 101.36 134.779 101.36C146.444 101.36 156.201 93.1967 158.652 82.2716H110.907ZM135.429 52.0743C134.662 51.0676 134.505 51.0393 133.683 51.963C132.86 52.8871 131.373 54.7639 128.593 59.2492C125.812 63.7344 121.739 70.8273 119.542 74.672C117.346 78.515 117.026 79.1109 117.003 79.4884C116.98 79.8659 117.254 80.0265 122.54 80.1066C127.826 80.1867 138.123 80.1863 144.016 80.0949C149.908 80.0034 151.396 79.8203 152.082 79.546C152.768 79.2713 152.653 78.9042 150.331 75.1408C148.009 71.3765 143.478 64.2143 140.525 59.6408C137.571 55.0667 136.196 53.081 135.429 52.0743ZM101.107 53.4952C100.632 53.4983 100.088 53.6311 99.5626 53.9181C99.0372 54.2052 98.5296 54.6468 98.1359 55.2218C97.7423 55.7964 97.4629 56.5053 97.1837 57.214C93.5847 56.1798 91.3183 57.2448 90.3859 60.4093H110.269C110.109 59.9901 109.964 59.6159 109.715 59.2355C109.456 58.8413 109.088 58.4416 108.687 58.1427C108.285 57.8434 107.849 57.6444 107.362 57.4659C106.876 57.2881 106.339 57.1305 105.885 56.9796C105.432 56.8282 105.063 56.6828 104.794 56.5226C104.525 56.3624 104.355 56.1874 104.135 55.8458C103.914 55.5043 103.643 54.9966 103.344 54.6193C103.045 54.2413 102.717 53.9931 102.352 53.8058C101.986 53.6186 101.581 53.4918 101.107 53.4952ZM122.916 44.7589C121.931 44.784 120.903 45.2879 120.309 46.0763C119.715 46.8651 119.555 47.9382 119.395 49.0118C116.381 47.2633 113.625 48.0618 112.998 51.4845H122.951V48.7267H127.161C127.093 48.2676 127.022 47.9439 126.828 47.5089C126.599 46.9943 126.193 46.3163 125.519 45.7511C124.844 45.186 123.901 44.7335 122.916 44.7589Z" fill="#4795A3"/>
<path fill-rule="evenodd" clip-rule="evenodd" d="M174.492 76.2959C173.229 74.9725 172.022 73.676 171.225 72.5796C170.305 71.3124 169.933 70.3126 169.747 67.79C169.727 67.5251 169.71 67.2434 169.694 66.9483C171.498 68.4518 172.456 69.5893 173.63 72.3292L173.635 72.3596L173.61 72.66C173.61 73.4744 174.27 74.1346 175.085 74.1346C175.899 74.1346 176.559 73.4744 176.559 72.66L176.535 72.3598L176.54 72.3291C177.714 69.5893 178.671 68.4518 180.475 66.9484C180.46 67.2437 180.442 67.5253 180.423 67.7901C180.237 70.3129 179.865 71.3127 178.944 72.5798C178.148 73.676 176.94 74.9723 175.678 76.2956C177.026 100.669 176.528 89.113 177.297 123.686C177.297 124.907 176.306 125.898 175.085 125.898C173.863 125.898 172.873 124.907 172.873 123.686C173.642 89.1132 173.143 100.669 174.492 76.2962L174.492 76.2959ZM169.673 66.5002C169.564 64.028 169.584 60.7834 169.712 58.4313C169.863 55.6412 170.165 54.1066 171.086 52.0024C172.007 49.8981 173.546 47.2242 174.315 45.8874C175.314 44.1521 174.856 44.1521 175.855 45.8874C176.624 47.2244 178.163 49.8981 179.084 52.0024C180.005 54.1066 180.307 55.6412 180.458 58.4313C180.586 60.7834 180.606 64.028 180.497 66.5002C178.935 67.494 177.709 68.4089 176.294 69.4623C175.235 56.8511 175.621 63.0379 175.085 47.3261C174.549 63.039 174.936 56.848 173.876 69.4623C172.461 68.4089 171.235 67.494 169.673 66.5002H169.673Z" fill="#242B3D"/>
</svg>
