<?xml version="1.0" encoding="utf-8"?>
<!-- Generator: Adobe Illustrator 21.0.0, SVG Export Plug-In . SVG Version: 6.00 Build 0)  -->
<svg version="1.1" id="Layer_1" xmlns="http://www.w3.org/2000/svg" xmlns:xlink="http://www.w3.org/1999/xlink" x="0px" y="0px"
	 viewBox="0 0 222 327" style="enable-background:new 0 0 222 327;" xml:space="preserve">
<style type="text/css">
	.st0{fill:url(#SVGID_1_);}
</style>
<linearGradient id="SVGID_1_" gradientUnits="userSpaceOnUse" x1="133.6614" y1="322.2127" x2="88.4239" y2="-45.5537" gradientTransform="matrix(1 0 0 -1 0 325.01)">
	<stop  offset="0" style="stop-color:#57A9BB"/>
	<stop  offset="1" style="stop-color:#57A9BB;stop-opacity:0"/>
</linearGradient>
<path class="st0" d="M25.5,312.3c2.5-3,4.5,4.4,6,4.4c-1.2,0-1.8,0.5-2.7-0.7c0,1-0.4,1.7-1.2,2.3c2.8,1.1,3.5,1.5,5.6,2.7
	c-4.6,1.3-8.8,5-10.7,5.9c-0.6,0.1-1.2-0.1-1.7-0.4c0-2,2.3-5.1,3.5-5.8c-0.3-0.8-0.5-1.6-0.8-2.4C24.9,320.3,23.2,311.9,25.5,312.3
	z M108.1,152.7c-1,0.2,4.8,0.4,3.5,1.6c-1.9,1.9-6.2-2.3-6.1,3.6c0,2.2,6.1,3.5,6.8,4.8c2.1,3.7-2.4,10.2,3.5,10.2
	c0.5,0,5.6-4.8,5.6-4.8c0,0.1,4.3-1.1,3.7-1.5c-0.4,0.5-0.6,0.5-0.9,0c0-0.3,3-2.7,3.2-2.8c0.1,3.7,3-2.7,3.1-0.1c0,0-4,3.9-5,4.8
	c2.7,0.2-0.6-2.5,3.8-1.1c-0.8-0.1-3.2,2.6-3.2,2.9c0.2-0.5,2.5,1.7-1,2.4c1,0.1,5.6-0.8,7.4-2.6c-1.2,0.6-1.7,0.5-1.3-0.3
	c-0.2,0-3.1,1.1-3.1,0.5c0-0.7,0.6-2.3,1.8-2.6c-2.3,2.3,1.1-0.9,0.4-0.3c1.7-1.8,0.1,0-1.1-0.9c-0.3-0.2,1.2-1.7,1.2-1.8
	c0.6,2.5,0.4-0.3,1.4-0.5c-0.3,0.9-0.3,1.8,0.3,2.7c0.1-1,1.6-1.2,0.8-2c1-0.2-0.1,2.9,1.6,0.1c0.5,1-0.9,1.3-1,1.9
	c-0.5,2.1,3.5-2.4,2.8-1.8c0,1.4-2,5.7-2.8,3.2c0.2,0.8,0.3,1.7,0.4,2.5c-0.6-0.2-5.3,2.1-5.3,2.1c1.1,0.8,8.6-1.6,8.6-3.7
	c-0.6,0.5-1,0.4-1.2-0.2c0.8-0.1,1.4-0.5,1.8-1.2c0.4,3.5-5.7,7-4.2,5.7c-1.6-3.5-0.6,8.7-0.4,7.1c-0.5,4.4,1.5,2.1,0.6,6.3
	c-0.9,4.3-6.7,10.5-8.2,14.2c-2.4-0.6-9.7,13.5-12.2,16c-2.2,2.2-3.9,1.3-5,3.6c-0.7,1.3,1.1,9.9,0.9,10.3c0.7-1.2-3.8,1.4-2.3,1.6
	c0-0.2,4-1.8,2.4,0.2c2.6-0.3-0.1-2.7,1.6,0.4c0.2,0.3,3.6-1.5,4.1,2.8c0.7,5.6-3.5-1.2-3.3-1c-0.7,1.3-0.6,2.6,0.5,3.7
	c-1.1,0.9-5.1-0.6-3.4-2.5c-2.5,0.9-3.1,1.7-6.4,1.7c1.4-0.8,2.8-1.3,4.4-1.4c-2.4-3.9-5.1,0.4-5.8,0.3c-0.8-0.2-4-0.6-8.5-3
	c0.1,0.8,4.6,4.7,5.4,5.4c-3.3,3.1-8.4,4.3-11.8,7.3c-0.6-1.8-1.7-3.1-3.4-4c1.8-2.4-0.6,9-0.4,8.1c-0.8,5.3-2.2,11.9-3.5,16.9
	c-0.6,2.2-3.6,13.7-5.3,14.4c-1,0.4-2.5,5.6-2.8,6.9c0.9-0.2,3-1.9,3.8-2.6c-1.3,3.8-7.5,6.4-10.9,11.1c-1.7,2.4-8.2,11.3-10.2,9.6
	c2.3,2-7.2,1.9-5.3,1.3c-3.1,1.1-10.8-1.6-10.5-2c-2.5-0.2-1.4,2-4.3,0.9c1.7-0.7,1.8-1.8,0.3-3.3c-0.1,1.3-0.2,1.4-0.5,2.2
	c1.1-3.4-7.8-1.5-8.5-1.8c-2.6-1.2-1.9-3-3.1-5.5c-1.1,1.9-8.5,3.1-11.6,2.9c-3.5-0.3-7.7-4.5-3.8-4c-0.2,0,2.1-3.1,2.2-3.4
	c-2.1,1.8-3.5,3.4-5.5,4.8c0.1-0.5,2.6-5,3-4.1c-2.4,1.1-2.7,0.5-1.1-1.8c1.3-0.6-7.4,6.6-4.2,2.2c2.1-2.8,2.8-4.9,8-6.1
	c0.7,0.1-4,0.2-3.7-0.6c1.4-0.5,2.5-1.3,3.5-2.4c-1.3,0.5-2.2,1.4-3.6,1.7c-0.1-2.5,1.7-2.6,3.9-3c-3.3-0.1,0.1-0.1,0.2-1.8
	c-1.4,1.3-3.3,2.6-5.2,2.7c0-3.8,2.1-4.6,5.3-4.5c0.1,0.7-3.9-0.6-4.2-0.7c0.1-0.3,3-5.7,2.9-5.7c0,1.3,1.6,3.6-0.2,3.6
	c-0.4-0.4,3.7,3.5,3.8,3.5c-1.8-0.8-2.6-2-2.3-3.5c0.8-0.5,1.6-0.5,2.4,0c0.4-0.7-6-2-3.2-4.7c0.8,0.3,1.5,0.7,2.2,1.3
	c-1.1-0.4-1.7-2-0.9-2.8c0.3,0.9,0.9,1.6,1.8,1.9c-0.7-0.7-0.5-1.1,0.5-1.1c-6.3-1,2.5-1.7,1.5-1.5c-0.3-0.3-2.6-0.5-2.8-1.2
	c-0.2-0.9,2.3-3,2.8-3.7c0.4,0.3,1.4,3.2,1.2,3.6c0,0-0.7-7.2,1.5-5.4c0.2,0.8,0.4,1.5,0.7,2.3c0,0.2,0.2-3.7-0.3-3.3
	c0.8-0.4,1.4-0.1,1.9,0.8c-0.3,0.9,2.2-10.6,4.6-3.2c-0.4,0.8,1.2-12.7,2-10.7c1.9-0.7,15.5-14.1,16.9-9.1
	c-1-3.5,13.9-13.6,16.8-16.7c4.9-5.2,10.9-8.5,15.2-14.3c6.1-8.1,6.9-19.5,11.6-26.3c3.4-5,7.5-7.3,9.2-14.3c2.3-9.7,1-8.5,8-14.8
	c-0.2,2.2,3-1.3,1.4-1.4C104.9,152.9,106.4,152.4,108.1,152.7z M111.2,0c-2.2,1,2,8.1,3.3,10c0.3,0.5-1.7-1.1-1.8-1.1
	c0.2,0.5,4.8,5.5,3.8,5.5c0.6,0,2.4-4.5,2.6-4.9c0,0.9,0.4,1.3,1.2,1.4c-1.3-1.7,0.4,8.8,2.2,1.7c2,1.6,11.4,3.6,11.7,6.5
	c-0.5-0.1-0.8,0.1-1,0.6c-0.2-0.1-1-2.3-1.9-0.7c1.8,0.7,1.7,1.1-0.2,1.3c-0.4,0.2,4.8,2.8,5.1,3c0.5-0.8-2-0.8-2.1-1.3
	c0.5-0.2,0.4-0.5-0.1-1c2.4,0.4,3.1,0.2,4.7-1.7c1.3,3.9,1.6,13,4.9,17.4c-1.2,0.9-1.2-0.3-2-0.6c0,4.1,4,11.5,5.4,13.5
	c-0.1-0.9,1.5-0.2,2.1,0.4c-0.2,0.1-2.9,0.4-2.9,1c1.2,0.5,1.2,1.2,0,2.2c0.1-0.9-0.2-1.5-0.9-1.9c0.6,3.3-0.6,4.9,2.9,4.5
	c-1.4,3.7,0.8,2.9,0.8,6.5c-0.2,0.8-0.7,0.9-1.5,0.3c0.1,0.4,1.8,2.6,1.7,1.8c-0.7-0.6-0.6-1.3,0.2-2.1c0.5,0.6,1.1,1.5,1.2,2.3
	c0.7-1.8,2.8-1.4,4.3,0.1c0.7,0.7,2.5,5,2.7,5.1c1.4,0.8,4.5,1,5.2,1.4c-0.9-1.6-3.2-8.6-1.7-8.7c-1.3-0.5,0.9-2.2,0.4-2.4
	c-0.3,0.4-0.6,0.6-1,0.8c0.3-1.1,0.8-3.7,0.8-4.5c0,0.2-4.8-3-2.2-3.7c2.7-0.7,3.3,3.7,4.6,4.7c-1-0.8,5.3,3.6,4.8,2
	c0.2,0.6-4.6,2.8-2.4,4.2c-0.2-3.3,3.9,0.1,2.6,4.2c1.6-1.8,1.8,5.5,0.2,2.8c0.1,1.4,3.4,9.8,3.7,9.6c-0.9-0.4-1.5-1-2-1.8
	c-0.1,4.7,3,3,4.3,4.5c-1.3,0.1-2.2-0.5-2.6-1.8c4.2-1.2,18,13.7,21.4,12.7c4.7-1.4,8.8-6.5,12.9-9.1c1.2-0.8,4.5-2.9,5.4-3
	c4-0.6,5.3,2,6.1,2.2c6.4,1.7,1.1,7.1-0.2,11.4c-0.8,2.4-0.3,5.4-1.3,7.9c-0.3,0.6-15.3,16.3-7.3,17.4c0,0.2-3.3,4.1-2.8,3.8
	c-0.9-3.2,1.5-4.9-2.3-5.6c-4.1-0.7-9.2,0-12.5,2.8c-4.6,3.9-4.4,8-0.5,11.2c3.3,2.8-17.4,30-19.4,33.1c-3,4.6-7.2,11.7-12.9,13.1
	c-6.1,1.5-4.1-0.7-8.9-4.1c0.5,0.4-5.4-0.9-3.4-3.5c-0.5,0.6-1.5,3.1-2.1,3.1c-5,0.4,2.9-8.1,2.7-5.8c0-0.4,1.6-3.4,1.7-3.3
	c1.3,1.3,6.4-18.3,4.5-22.3c-2.9-6-14.6-9.8-20-13.9c-8.3-6.3-7.9-9.3,1-14.5c3.2-1.9,5.4-0.4,8.2-4.7c0.5-0.7,2.2-15.6,2.7-15.7
	c1.1-0.5,2.1-0.2,3,0.7c-0.1-0.6,0.1-1,0.6-1.3c0.4-1.4-1.2-0.3-1.4,0c0.4-0.6,1.5-2.5,1.6-3.6c-2.4,0.1-0.8,0.5-1.9,1.6
	c0.1-5.2,1.1-2.7,3.5-6.4c-5.7,2.6-5.3-11.8-1.9-9.9c-0.6-1-1.7-0.2-1.1-1.4c-3.3,2.7-4.8-4.6-5.4-6.7c1.6,0.1,2.6,3.3,3.5,4.3
	c-2.5-2.6,4-3.7,4.8-4.2c-0.6,0-3.4-0.8-3.7-1.6c-0.1-1,0.4-1.3,1.3-1c-0.4-2.4-5.4,2.1-6.7,0.9c-0.8-0.8-7.1-14.2-6-14.8
	c0,0.2,3.3,4.4,5.4,6c-0.8-1.9,0.9-6.1-1.5-8.2c0.5,0.9-0.2,0.9-0.3,1.8c-0.2-0.1-2.2-1-2.2-0.9c0-0.6,0.1-1.1,0.2-1.7
	c0.7,0.5,4.6,0.4,4.5-1.3c0,0.1-2.6,0-2.5,0.2c0.2,1.1-1.4,1.7-1.9,0.6c0,0.1,1-1.4,1-1.5c-0.1,0.4,2.9-2.5,1.4-2
	c-0.9-1.4-1.2-0.9-0.8,1.5c-0.5-0.1-1.1-0.3-1.6-0.4c0.2,0-0.4-1.8-0.5-1.8c-0.9-1-0.5,1.2-1.1,0.2c-1.1,1.6,0.5,2.2,1.5,2.5
	c-2.1,2.3-6.7-4.6-7.5-6c-1.7,0.5,6.4,9.1,5.2,9.8c-3.4,1.9-9.9-12-11.5-14.5c-1-1.6-4.2-9.7-3.1-8.2c-0.4-0.5-0.6-1-0.7-1.5
	c-2-0.1-2,0.3-1.9,1.9c-0.2-0.3-4.8-8.6-5.6-8c4-3.6-1.8-15.3-8.1-17.5C105.9,0.8,108.8,1.2,111.2,0z"/>
</svg>
