<svg width="1440" height="204" viewBox="0 0 1440 204" fill="none" xmlns="http://www.w3.org/2000/svg">
<path fill-rule="evenodd" clip-rule="evenodd" d="M670.101 3.02747C664.5 5.25919 658.478 7.08568 656.718 7.08568C654.958 7.08772 646.905 13.9478 638.826 22.333C626.082 35.5543 623.636 37.2668 620.394 35.2428C617.378 33.3593 615.459 33.7584 610.477 37.3055C607.078 39.7245 603.514 41.7038 602.555 41.7038C601.597 41.7038 598.489 43.8581 595.65 46.4889C591.485 50.3496 579.583 54.5463 574.383 53.9863C573.809 53.9252 569.906 55.371 565.711 57.1975C557.499 60.7772 547.189 63.4752 532.625 65.8555C527.584 66.6802 520.859 69.0728 517.68 71.1721C514.5 73.2695 509.001 75.2202 505.46 75.5053C497.653 76.1345 479.81 79.8853 475.598 81.783C473.918 82.5385 471.168 83.3937 469.488 83.6788C460.339 85.2385 454.164 86.9286 450.54 88.8671C448.027 90.211 441.231 90.5225 432.711 89.6836C424.135 88.8385 418.461 89.1033 417.668 90.3861C416.968 91.5182 411.615 93.8029 405.772 95.4624C377.67 103.442 363.833 106.821 355.433 107.749C350.393 108.309 338.02 109.775 327.938 111.011C317.857 112.247 305.025 113.282 299.425 113.312C293.824 113.345 288.325 114.029 287.204 114.835C286.084 115.644 278.294 116.48 269.893 116.698C254.286 117.102 231.733 119.979 218.976 123.194C210.324 125.375 197.639 127.049 181.232 128.179C174.474 128.645 166.466 129.968 163.437 131.119C160.409 132.269 154.916 133.098 151.231 132.96C147.547 132.821 139.973 133.723 134.4 134.961C128.83 136.201 114.188 137.761 101.866 138.429C89.5442 139.099 74.0023 140.357 67.3281 141.225C60.6538 142.094 47.5946 142.53 38.3073 142.192C29.018 141.854 18.8998 142.548 15.8183 143.733C12.7368 144.919 4.25805 146.269 -3.0231 146.733C-10.3042 147.199 -19.2392 148.081 -22.8808 148.694L-29.5 149.81V168.763V187.716L-13.9173 189.032C-5.34695 189.757 7.48416 190.349 14.5963 190.349C21.8591 190.349 27.5272 191.241 27.5272 192.385C27.5272 193.505 25.2909 194.422 22.5556 194.422C19.8204 194.422 16.9303 195.48 16.1299 196.775C15.0341 198.547 33.1138 198.828 89.3304 197.916C130.39 197.25 163.985 197.429 163.985 198.313C163.985 200.231 352.191 202.978 428.754 202.176C458.439 201.864 488.684 201.764 495.965 201.952C503.246 202.137 725.269 202.676 989.352 203.145L1469.5 204V174.776V145.552L1461.86 145.43C1450.69 145.25 1436.59 144.212 1412.47 141.795C1400.71 140.616 1380.09 139.213 1366.65 138.677C1353.21 138.14 1337.17 137.118 1331.01 136.403C1324.84 135.688 1302.85 134.748 1282.12 134.314C1184.45 132.269 1171.72 131.52 1145.64 126.275C1131.63 123.457 1117.42 120.736 1114.07 120.233C1094.66 117.305 1078.96 114.306 1075.4 112.844C1073.16 111.925 1068.12 110.484 1064.2 109.643C1054.88 107.641 1054.11 107.448 1053.51 106.961C1052.19 105.898 1043.6 104.316 1030.59 102.74C1018.54 101.28 998.995 97.8795 976.622 93.3509C973.822 92.7848 967.865 91.9296 963.384 91.449C953.608 90.4024 929.791 82.4367 926.19 79.0076C924.776 77.6637 919.495 75.9431 914.455 75.1876C909.414 74.4322 903.21 72.1781 900.668 70.1785C898.124 68.1789 890.574 65.8963 883.888 65.1062C877.203 64.3182 869.702 62.394 867.222 60.8322C864.741 59.2704 859.884 57.9937 856.429 57.9937C852.973 57.9937 847.266 56.5052 843.745 54.6848C840.058 52.7789 832.545 51.3881 826.026 51.4044C814.755 51.4329 793.557 47.9754 778.046 43.5771C773.536 42.2983 765.231 37.0469 759.442 31.8138C734.122 8.91832 717.204 -0.442263 708.397 3.56912C705.252 5.0006 703.014 4.98022 701.222 3.50599C695.788 -0.965588 680.71 -1.19772 670.101 3.02747Z" fill="url(#paint0_linear_136_339)"/>
<defs>
<linearGradient id="paint0_linear_136_339" x1="720" y1="5.76072e-07" x2="717.351" y2="233.005" gradientUnits="userSpaceOnUse">
<stop stop-color="#57A9BB"/>
<stop offset="1" stop-color="#57A9BB" stop-opacity="0"/>
</linearGradient>
</defs>
</svg>
